<?xml version="1.0" encoding="utf-8"?>
<!-- Generator: Adobe Illustrator 24.1.1, SVG Export Plug-In . SVG Version: 6.00 Build 0)  -->
<svg version="1.1" id="Layer_1" xmlns="http://www.w3.org/2000/svg" xmlns:xlink="http://www.w3.org/1999/xlink" x="0px" y="0px"
	 viewBox="0 0 605.2 207.9" style="enable-background:new 0 0 605.2 207.9;" xml:space="preserve">
<style type="text/css">
	.st0{display:none;fill:#939393;}
	.st1{fill:#FFFFFF;}
	.st2{display:none;}
	.st3{display:inline;}
	.st4{enable-background:new    ;}
	.st5{display:inline;fill:#FFFFFF;}
</style>
<path class="st0" d="M449.5,90.2L362.3,5.6C358.6,2,353.6,0,348.5,0c-5.3,0-10.3,2.1-14,5.8L286.2,54c-5,5-13,5-18,0L220.5,6.3
	c-3.2-3.2-7.4-5.4-11.9-5.9c-6.1-0.7-12,1.4-16.3,5.6l-79.8,79.4l-8.5,8.5l0,0l8.5,8.5l27.5,27.5c4.4,4.4,10.1,7.3,16.3,7.8
	c7.6,0.6,14.9-2.1,20.3-7.4l40.2-39.8l0,0l49.2,52.7c7.1,7.5,19.2,7.4,26.2-0.2l48.9-54.7l0,0l46.5,44.1l0,0
	c6.2,5,15.3,4.6,20.9-1.1L449.5,90.2L449.5,90.2z M253.2,56l-3.8-0.9c-1.6-0.4-3.2-0.5-4.8-0.5c-5.7,0-11.3,2.3-15.4,6.4l-61.1,60.7
	c-2.7,2.7-6.1,4-9.6,4s-7-1.3-9.6-4L121,93.8l0,0l79.8-79.4c1.5-1.5,3.5-2.3,5.5-2.3s3.9,0.8,5.5,2.3L253.2,56L253.2,56z
	 M383.2,42.7L383.2,42.7c-0.3-0.1-11.8-3.2-19.6,4.6l-1.3,1.3l0,0l-37,37c-1.5,1.5-3.3,2.6-5.1,3.4c-1.9,0.8-3.8,1.1-5.8,1.1
	c-1.9,0-3.7-0.3-5.5-1c-2-0.8-3.9-1.9-5.5-3.5l-15.9-15.9l55.4-55.4c0.2-0.2,0.4-0.4,0.6-0.5c0.1-0.1,0.1-0.1,0.2-0.1
	c0.1-0.1,0.3-0.2,0.4-0.3c0.1-0.1,0.2-0.1,0.2-0.1c0.1-0.1,0.3-0.2,0.4-0.3c0.1,0,0.2-0.1,0.3-0.1c0.1-0.1,0.3-0.1,0.4-0.2
	c0.1,0,0.2-0.1,0.3-0.1c0.1-0.1,0.3-0.1,0.4-0.1s0.2-0.1,0.3-0.1c0.1,0,0.3-0.1,0.4-0.1c0.1,0,0.2,0,0.3,0s0.3,0,0.4-0.1
	c0.1,0,0.2,0,0.3,0c0.1,0,0.3,0,0.4,0l0,0c0.1,0,0.2,0,0.4,0c0.1,0,0.2,0,0.3,0s0.3,0,0.4,0.1c0.1,0,0.2,0,0.3,0
	c0.1,0,0.3,0.1,0.4,0.1c0.1,0,0.2,0,0.3,0.1c0.1,0,0.3,0.1,0.4,0.1s0.2,0.1,0.3,0.1c0.1,0.1,0.3,0.1,0.4,0.2c0.1,0,0.2,0.1,0.3,0.1
	c0.1,0.1,0.3,0.2,0.4,0.2c0.1,0,0.2,0.1,0.2,0.1c0.1,0.1,0.3,0.2,0.4,0.3c0.1,0,0.1,0.1,0.2,0.1c0.2,0.2,0.4,0.3,0.6,0.5L383.2,42.7
	L383.2,42.7L383.2,42.7z M504,37.3l-43.1,43.1L414,33.5l26.1-26.1c9.4-9.4,24.6-9.4,33.9,0L504,37.3z M125.8,187.2l-6.3,11.9
	c-1.8,0.2-3.2,0.2-5,0l-6.3-12v20.8c-2,0.2-5,0.2-7.2,0v-33.1c2.1-0.2,5.5-0.2,7.5,0l8.5,16.3l8.5-16.3c2.1-0.2,5.4-0.2,7.4,0v33.1
	c-2,0.2-5.1,0.2-7.2,0L125.8,187.2L125.8,187.2z M153.4,204.4h-0.3c-0.9,3.1-3.9,4.1-7.9,4.1c-4.8,0-8.3-1.9-8.3-7.3v-18.6
	c1.7-0.2,5.3-0.2,7,0V198c0,3.9,1.8,4.5,4.2,4.5c3,0,4.2-0.8,4.9-3.5v-16.4c1.7-0.2,5.3-0.2,7,0V208c-1.6,0.2-4.6,0.2-6.2,0
	L153.4,204.4z M164.2,172.8c1.7-0.2,5.3-0.2,7,0v35.1c-1.7,0.2-5.3,0.2-7,0V172.8z M183.6,188.2v9.7c0,4.4,1.9,4.7,3.7,4.7
	c1,0,2.1-0.1,2.9-0.3c0.2,1.7,0.2,4.2,0,5.8c-1.6,0.3-3.1,0.4-4.9,0.4c-4.6,0-8.8-1.9-8.8-8.2v-12.1h-3.6c-0.2-1.7-0.2-3.6,0-5.2
	l3.6-0.2v-6.5c1.8-0.2,5.3-0.2,7,0v6.4h6.7c0.2,1.7,0.2,3.9,0,5.6L183.6,188.2L183.6,188.2z M199.5,178.7c-1.7,0.2-5.6,0.2-7.3,0
	l-0.1-5.6c1.8-0.2,5.8-0.2,7.6,0L199.5,178.7z M192.3,182.6c1.7-0.2,5.3-0.2,7,0v25.3c-1.7,0.2-5.3,0.2-7,0V182.6z M202.8,190.2
	c0-6.4,4.3-8.3,10.8-8.3c2.5,0,5,0.1,7.7,0.7c0.2,1.8,0.2,4.1,0,5.8c-2.2-0.4-3.8-0.6-6.4-0.6c-2.7,0-5.2,0.4-5.2,3.9v7.1
	c0,3.4,2.5,3.8,5.2,3.8c2.6,0,4.1-0.2,6.4-0.7c0.2,1.7,0.2,4.1,0,5.7c-2.7,0.6-5.2,0.9-7.7,0.9c-6.6,0-10.8-2.1-10.8-8.2V190.2z
	 M240.4,192.4c0-4-1.8-4.5-4.3-4.5c-3,0-4.1,0.7-4.9,3.5v16.5c-1.7,0.2-5.3,0.2-7,0v-35.1c1.7-0.2,5.3-0.2,7,0v9.2l-0.3,4.2h0.3
	c0.9-3.1,3.9-4.2,7.9-4.2c4.8,0,8.3,1.9,8.3,7.3V208c-1.8,0.2-5.3,0.2-7,0V192.4z M265.8,204.4h-0.3c-0.8,3-3.8,4.1-7.7,4.1
	c-4.6,0-8.2-2-8.2-7.3c0-6.8,3.8-8.3,9.2-8.3c2.4,0,4.3,0.2,6.7,0.5v-1.8c0-2.5-1.5-3.9-6.5-3.9c-2,0-4.4,0.2-7.3,0.7
	c-0.2-1.8-0.2-3.8,0-5.6c3.4-0.6,6.4-0.8,9.4-0.8c7.5,0,11.4,2.1,11.4,8.1v18.1c-1.6,0.2-4.6,0.2-6.2,0L265.8,204.4z M265.4,197.8
	c-1.6-0.3-3.2-0.5-4.4-0.5c-2.8,0-4.5,0.3-4.5,3c0,2.5,1.7,2.8,3.8,2.8c2.6,0,4-0.8,5-2.7L265.4,197.8L265.4,197.8z M283.2,178.7
	c-1.7,0.2-5.6,0.2-7.3,0l-0.1-5.6c1.8-0.2,5.8-0.2,7.6,0L283.2,178.7z M276,182.6c1.7-0.2,5.3-0.2,7,0v25.3c-1.7,0.2-5.3,0.2-7,0
	V182.6z M303.4,192.4c0-4-1.8-4.5-4.3-4.5c-3,0-4.1,0.7-4.9,3.5v16.5c-1.7,0.2-5.3,0.2-7,0v-25.5c1.6-0.2,4.6-0.2,6.2,0l0.4,3.7h0.3
	c0.9-3.1,3.9-4.2,7.9-4.2c4.8,0,8.3,1.9,8.3,7.3v18.7c-1.8,0.2-5.3,0.2-7,0v-15.5H303.4z M319.9,174.8c2.1-0.2,5.4-0.2,7.4,0l7.1,23
	l7-23c2.1-0.2,5.2-0.2,7.2,0l-10.8,33.1c-2.1,0.2-4.7,0.2-6.7,0L319.9,174.8z M369.2,197.3c-3.3,0.2-10.8,0.3-15,0v1.2
	c0,3.5,2,4.1,6.2,4.1c2.9,0,4.9-0.2,7.7-0.8c0.2,1.7,0.2,4,0,5.7c-3.4,0.6-6.2,0.9-9.4,0.9c-7.1,0-11.5-2.1-11.5-8.3v-9.8
	c0-6.5,4.7-8.4,11.2-8.4c6.5,0,10.8,2.7,10.8,9.8L369.2,197.3L369.2,197.3z M362.4,191.4c0-3.3-1.9-3.7-4.1-3.7s-4.1,0.4-4.1,3.7
	v1.9l3.8-0.2h4.4L362.4,191.4L362.4,191.4z M388.6,192.4c0-4-1.8-4.5-4.3-4.5c-3,0-4.1,0.7-4.9,3.5v16.5c-1.7,0.2-5.3,0.2-7,0v-25.5
	c1.6-0.2,4.6-0.2,6.2,0l0.4,3.7h0.3c0.9-3.1,3.9-4.2,7.9-4.2c4.8,0,8.3,1.9,8.3,7.3v18.7c-1.8,0.2-5.3,0.2-7,0v-15.5H388.6z
	 M407.6,188.2v9.7c0,4.4,1.9,4.7,3.7,4.7c1,0,2.1-0.1,2.9-0.3c0.2,1.7,0.2,4.2,0,5.8c-1.6,0.3-3.1,0.4-4.9,0.4
	c-4.6,0-8.8-1.9-8.8-8.2v-12.1h-3.6c-0.2-1.7-0.2-3.6,0-5.2l3.6-0.2v-6.5c1.8-0.2,5.3-0.2,7,0v6.4h6.7c0.2,1.7,0.2,3.9,0,5.6
	L407.6,188.2L407.6,188.2z M432.4,204.4h-0.3c-0.9,3.1-3.9,4.1-7.9,4.1c-4.8,0-8.3-1.9-8.3-7.3v-18.6c1.7-0.2,5.3-0.2,7,0V198
	c0,3.9,1.8,4.5,4.2,4.5c3,0,4.2-0.8,4.9-3.5v-16.4c1.7-0.2,5.3-0.2,7,0V208c-1.6,0.2-4.6,0.2-6.2,0L432.4,204.4z M443.2,182.4
	c2.1-0.1,4.1-0.1,6.2,0l0.4,4.2h0.3c0.8-3.3,4-4.7,8.4-4.7c0.2,1.7,0.2,4.4,0,6.1c-5.5,0-7.1,1.1-8.4,4.7v15.2c-1.7,0.2-5.3,0.2-7,0
	v-25.5H443.2z M481.5,197.3c-3.3,0.2-10.8,0.3-15,0v1.2c0,3.5,2,4.1,6.2,4.1c2.9,0,4.9-0.2,7.7-0.8c0.2,1.7,0.2,4,0,5.7
	c-3.4,0.6-6.2,0.9-9.4,0.9c-7.1,0-11.5-2.1-11.5-8.3v-9.8c0-6.5,4.7-8.4,11.2-8.4s10.8,2.7,10.8,9.8L481.5,197.3L481.5,197.3z
	 M474.7,191.4c0-3.3-1.9-3.7-4.1-3.7s-4.1,0.4-4.1,3.7v1.9l3.8-0.2h4.4L474.7,191.4L474.7,191.4z M501.9,201.9
	c0,4.8-3.7,6.6-9.8,6.6c-2.6,0-5.6-0.2-8.4-0.7c-0.2-1.8-0.2-3.8,0-5.5c2.6,0.4,5.3,0.6,7.3,0.6s3.8-0.1,3.8-1.8v-0.9
	c0-1.4-1-1.7-2.6-2.1l-4.4-1.3c-2.8-0.8-4.3-2.5-4.3-5.8v-2.7c0-4.6,3.9-6.4,10.1-6.4c2.4,0,5,0.2,7.8,0.8c0.2,1.8,0.2,3.7,0,5.4
	c-3-0.5-4.9-0.7-7.1-0.7c-2.1,0-3.9,0.1-3.9,1.8v0.9c0,1.2,1.1,1.7,2.6,2.1l4.1,1.1c3,0.8,4.6,2.4,4.6,6.1v2.5L501.9,201.9
	L501.9,201.9z"/>
<path class="st1" d="M270.1,62.5c4,0,7.5,3.2,7.5,6.9s-3.7,7.2-7.7,7.2h-16.5c-13.1,0.4-17.1,4.7-17,18.3v32
	c-0.2,13.7,3.9,18,16.9,18.3h16.9c3.9,0,7.3,3.5,7.3,7.2c0,4.3-3.2,6.9-9,6.9h-16.5c-20,0.1-29.8-10.5-29.8-31.4v-34
	c0-20.8,9.8-31.4,29.8-31.4C252.2,62.5,270.1,62.5,270.1,62.5z M340.7,70c0-4.5,2.8-7.5,6.9-7.5c4.3,0,7.2,3.1,7.2,7.5v79.3
	c-0.2,7.5-2.8,10.2-9.4,10h-29.2c-21,0.6-30-10-30.3-36.1V70c0-4.5,2.8-7.5,6.9-7.5c4.3,0,7.2,3.1,7.2,7.5v53
	c0,17.1,4.5,22.2,19.8,22.2h21V70H340.7z M413.5,62.5c22.2,0.4,31.2,9.4,31.2,31.4v34c0.4,21.6-10.2,32-32,31.4h-28.3
	c-5.7,0.4-9-2.8-8.6-8.6v-120c0-4.5,2.8-7.5,6.9-7.5c4.3,0,7.2,3.1,7.2,7.5v31.6H413.5z M389.9,145.3h22.7
	c12.5,0.2,18.2-5.5,18.2-18.3V94.9c0-12.8-5.7-18.5-18.2-18.3h-22.7V145.3z M470.6,124.9c0.2,16.5,3.5,20.2,18.2,20.4h27.5
	c4.5,0,7.7,2.8,7.7,7.2c0,4-3.2,6.9-7.7,6.9h-27.7c-23.5,0-31.2-7.7-32-31.8V97.9c0-20.2,14.3-35.3,33.5-35.3
	c12.3,0,23.7,6.8,29.2,17.5c2.8,5.5,4.5,13.1,4.5,21.6c0,13.7-1.4,16.1-9.6,16.1h-43.5L470.6,124.9L470.6,124.9z M509.4,103.7
	c0-18.8-6-26.9-19.4-26.9c-9.4,0-15.7,4.9-18.3,14.3c-0.8,3.2-1,4.9-1,12.7H509.4z M589.4,30.9c0-4.5,2.8-7.5,7.2-7.5
	c4,0,6.9,3.1,6.9,7.5v119.9c0.4,5.7-2.8,9-8.6,8.6h-28.3c-21.8,0.6-32.5-9.8-32-31.4v-34c0-22,9-31,31.2-31.4h23.7V30.9H589.4z
	 M566.7,76.6c-12.5-0.2-18.2,5.5-18.2,18.3v32c0,12.8,5.7,18.5,18.2,18.3h22.7V76.6H566.7z M134.7,15.9h-28.1c-0.1,0-0.1,0-0.2,0
	c-0.1,0-0.1,0-0.2,0H78.2c-1.6-0.1-3-0.1-4.5,0c-0.2,0-0.5,0-0.6,0h-28C16.7,15.2,1.7,29.8,1.7,57.4v74.3
	c0.2,28.1,14.9,42,43.3,41.4h28.1c0.3,0,0.6,0,0.9-0.1c1.4,0.1,2.8,0.1,4.2,0.1h28c0.1,0,0.1,0,0.2,0c0.1,0,0.1,0,0.2,0h28.1
	c28.5,0.5,43.1-13.5,43.3-41.4V57.4C178,29.9,162.9,15.2,134.7,15.9z M137.3,156.8h-30.6c-0.1,0-0.1,0-0.2,0c-0.1,0-0.1,0-0.2,0
	H75.6c-18.1,0-24.8-7.5-24.5-27.8V60c-0.2-20.3,6.4-27.6,24.5-27.8h30.6c0.1,0,0.1,0,0.2,0s0.1,0,0.2,0h30.6
	c18.1,0.2,24.7,7.5,24.5,27.8v69C162,149.3,155.4,156.8,137.3,156.8z"/>
<g class="st2">
	<g id="Group_84" transform="translate(-9.159 -33.292)" class="st3">
		<g id="logo" transform="translate(55.899 33.292)">
			<g class="st4">
				<path class="st1" d="M277.2,84.5c2.8-9.7,9.7-15.8,24.7-15.8h2v25.4h-10.4c-13,0-16.3,5.8-16.3,18.9v43.8h-28.4V69.3h28.4V84.5z
					"/>
				<path class="st1" d="M307.1,113.6c0-27.7,18.2-46.2,45.7-46.2c28,0,44.4,17.4,44.4,46.4v6.9h-62.9c1.3,11.9,8.9,18,20.2,18
					c11.3,0,16.9-5.6,19.5-12.8l22.8,6.9c-5.9,16-18.9,26-43.4,26C324.5,158.8,307.1,141.3,307.1,113.6z M334.2,104.4h35.3
					c-0.7-11.7-6.3-17.4-17.1-17.4C342.5,86.9,335.5,93.2,334.2,104.4z"/>
				<path class="st1" d="M436.8,156.9h-28.2V32.3h28.2V156.9z"/>
				<path class="st1" d="M481.4,58h-29V33.8h29V58z M481,156.9h-28.2V69.3H481V156.9z"/>
				<path class="st1" d="M526.5,156.9h-30.3v-30.1h30.3V156.9z"/>
			</g>
		</g>
	</g>
	<path id="LOGO-2" class="st5" d="M75.6,190.6l-43.6-42h134.1V12.9l43.6,42v135.8H75.6z M111.1,125.7V88.6h31.5v37.1H111.1z
		 M56.4,125.7V35.9h86.2v29.8H87.2v60L56.4,125.7z"/>
</g>
</svg>
