<?xml version="1.0" encoding="utf-8"?>
<!-- Generator: Adobe Illustrator 24.1.1, SVG Export Plug-In . SVG Version: 6.00 Build 0)  -->
<svg version="1.1" id="Layer_1" xmlns="http://www.w3.org/2000/svg" xmlns:xlink="http://www.w3.org/1999/xlink" x="0px" y="0px"
	 viewBox="0 0 1231.6 268.7" style="enable-background:new 0 0 1231.6 268.7;" xml:space="preserve">
<style type="text/css">
	.st0{display:none;}
	.st1{display:inline;}
	.st2{fill:#AAAAAA;}
	.st3{fill:#FFFFFF;}
	.st4{fill:#9FBDFF;}
</style>
<g id="Layer_2_1_" class="st0">
	<g class="st1">
		<g id="Layer_1-2_8_">
			<path class="st2" d="M303.9,62.9c-8-7.8-20.8-7.7-28.6,0.2l-49.6,49.5c-5.1,5.1-13.4,5.1-18.5,0l0,0l-49.1-49.1
				c-3.3-3.3-7.6-5.5-12.2-6.1c-6.2-0.7-12.3,1.4-16.7,5.8l-82,81.6l-8.7,8.7l0,0l8.7,8.7l28.3,28.3c4.5,4.6,10.4,7.4,16.7,8
				c7.7,0.7,15.3-2.1,20.8-7.6l41.4-40.9l0,0l50.6,54.2c7,7.4,18.6,7.7,26,0.7c0.3-0.3,0.6-0.6,0.9-0.9l50.2-56.3l0,0l47.8,45.3l0,0
				c6.4,5.2,15.7,4.7,21.5-1.1l42.1-42.2l0,0 M191.8,114.8l-3.9-0.9c-7.5-1.7-15.4,0.6-20.8,6l-62.8,62.4c-5.5,5.5-14.3,5.5-19.8,0
				l0,0l-28.6-28.7l0,0l82-81.6c3.1-3.1,8.1-3.1,11.2,0l0,0L191.8,114.8z M325.4,101.1L325.4,101.1c-0.3-0.1-12.1-3.3-20.2,4.8
				l-1.3,1.3l0,0l-38,38c-3,3-7,4.6-11.2,4.7c-4.2,0-8.2-1.7-11.2-4.7L227,128.8l57-56.9c0.2-0.2,0.4-0.4,0.6-0.6l0.2-0.1l0.5-0.3
				l0.3-0.1l0.4-0.3l0.3-0.1c0.1-0.1,0.3-0.1,0.4-0.2l0.3-0.1l0.4-0.2l0.3-0.1l0.4-0.1l0.3-0.1l0.4-0.1h0.4h0.4l0,0h0.4h0.4l0.4,0.1
				c0.1,0,0.2,0,0.3,0.1l0.4,0.1l0.3,0.1l0.4,0.1l0.3,0.1l0.4,0.2l0.3,0.1l0.4,0.3l0.3,0.1l0.4,0.3l0.2,0.2c0.2,0.2,0.4,0.3,0.6,0.5
				L325.4,101.1L325.4,101.1L325.4,101.1L325.4,101.1z"/>
			<path class="st2" d="M393.6,149.9L303.9,63"/>
			<path class="st2" d="M449.5,95.5l-44.3,44.3L357,91.6l26.9-26.8c9.6-9.6,25.3-9.6,34.9,0L449.5,95.5"/>
		</g>
	</g>
</g>
<g>
	<path class="st3" d="M465.2,86.6h-25.5V63.7h80.6v22.8h-25.5V151h-29.4L465.2,86.6L465.2,86.6z"/>
	<path class="st3" d="M523.1,107.3c0-26.4,20.8-45.7,49.3-45.7s49.3,19.2,49.3,45.7S600.9,153,572.4,153S523.1,133.8,523.1,107.3z
		 M591.9,107.3c0-13.6-8.7-21.8-19.6-21.8s-19.6,8.2-19.6,21.8s8.7,21.8,19.6,21.8S591.9,120.9,591.9,107.3z"/>
	<path class="st3" d="M667.9,122.1l-6.7,7.3V151h-28.9V63.7h28.9v31.7l28.6-31.7h32.1L687,102.1l36.7,48.9h-34L667.9,122.1z"/>
	<path class="st3" d="M800.2,128.8V151h-72.5V63.7h71v22.2h-42v10.3h37v21.2h-37v11.4L800.2,128.8L800.2,128.8z"/>
	<path class="st3" d="M806.1,144l9.5-21.4c8.2,4.9,19.2,8,28.7,8c8.3,0,11.3-1.8,11.3-4.7c0-11-48.2-2.2-48.2-34.6
		c0-16.2,13.6-29.4,40.7-29.4c11.7,0,23.9,2.4,33,7.6l-8.9,21.3c-8.6-4.4-16.7-6.5-24.3-6.5c-8.6,0-11.3,2.4-11.3,5.5
		c0,10.5,48.2,1.8,48.2,33.9c0,15.9-13.6,29.4-40.7,29.4C829.5,153,814.8,149.4,806.1,144z"/>
</g>
<g>
	<g>
		<path class="st4" d="M493.7,189.6c0,11.8-8.5,18.8-22.5,18.8h-16v18.3h-4.1v-55.9h20.1C485.2,170.8,493.7,177.8,493.7,189.6z
			 M489.5,189.6c0-9.7-6.4-15.2-18.4-15.2h-16v30.3h16C483.2,204.7,489.5,199.2,489.5,189.6z"/>
		<path class="st4" d="M539.3,211h-32.4l-7.2,15.7h-4.4l25.7-55.9h4.1l25.7,55.9h-4.5L539.3,211z M537.7,207.5l-14.6-32.2
			l-14.6,32.3L537.7,207.5L537.7,207.5z"/>
		<path class="st4" d="M575,207.5v19.2h-4.1v-19.2l-22.5-36.7h4.4l20.2,32.9l20.2-32.9h4.3L575,207.5z"/>
		<path class="st4" d="M659.2,226.7l-0.1-47.9l-23.4,40.5h-2L610.2,179v47.7h-4v-55.9h3.5l25,43.3l25-43.3h3.4l0.1,55.9H659.2
			L659.2,226.7z"/>
		<path class="st4" d="M721.3,223.1v3.7h-38.6v-55.9h37.4v3.7h-33.3v22h29.8v3.6h-29.8V223L721.3,223.1L721.3,223.1z"/>
		<path class="st4" d="M781.6,170.8v55.9h-3.3l-38.1-48.6v48.6h-4.1v-55.9h3.5l38,48.6v-48.6H781.6L781.6,170.8z"/>
		<path class="st4" d="M811.9,174.5h-20.2v-3.7h44.3v3.7h-20.2v52.2h-4.1L811.9,174.5L811.9,174.5z"/>
		<path class="st4" d="M839.5,219.5l1.8-3c3.9,4,10.9,7.1,18.4,7.1c11.2,0,16.1-4.9,16.1-10.9c0-16.8-35-6.7-35-27.3
			c0-7.9,6.1-14.9,19.8-14.9c6.2,0,12.6,1.9,16.9,5l-1.5,3.3c-4.6-3.2-10.3-4.7-15.4-4.7c-10.9,0-15.7,5-15.7,11.2
			c0,16.8,35,6.9,35,27.1c0,7.9-6.3,14.8-20.2,14.8C851.6,227.1,843.5,224,839.5,219.5z"/>
		<path class="st4" d="M948.9,211h-32.4l-7.2,15.7H905l25.7-55.9h4.1l25.7,55.9h-4.4L948.9,211z M947.4,207.5l-14.7-32.3L918,207.5
			H947.4z"/>
		<path class="st4" d="M1013.3,189.6c0,11.8-8.5,18.8-22.5,18.8h-16v18.3h-4.1v-55.9h20.1C1004.8,170.8,1013.3,177.8,1013.3,189.6z
			 M1009.1,189.6c0-9.7-6.4-15.2-18.3-15.2h-16v30.3h16C1002.7,204.7,1009.1,199.2,1009.1,189.6z"/>
		<path class="st4" d="M1027,170.8h4.1v55.9h-4.1V170.8z"/>
	</g>
</g>
<g>
	<path class="st4" d="M321.8,56L321.8,56C321.6,56,321.6,56,321.8,56L321.8,56L321.8,56z"/>
	<polygon class="st4" points="231.3,191.1 231.3,191.1 231.3,196 231.3,196 321.5,248.1 410.7,196.7 410.7,196.7 410.7,191.7 
		410.7,191.7 321.5,243.2 	"/>
	<polygon class="st4" points="231.3,181.1 231.3,181.1 231.3,186 231.3,186 321.5,238.1 410.7,186.7 410.7,186.7 410.7,181.7 
		410.7,181.7 321.5,233.2 	"/>
	<polygon class="st4" points="321.5,223.2 231.3,171 231.3,171 231.3,176 231.3,176 321.5,228.1 410.7,176.6 410.7,176.6 
		410.7,171.7 410.7,171.7 	"/>
	<path class="st3" d="M410.4,161.7v-85l-89.6-43.3l-89.4,43.3v85.3l89.6,51.6L410.4,161.7z M322.9,201.6v-53.7
		c5.2,13.7,17.2,19.2,29,17.4c18.6-3,40.3-20.7,40.3-20.7c-12.6,0.9-21.6-26-41.2-27.3c-2.2-0.1-4.4-0.1-6.5,0l56.7-30.1v69.1
		L322.9,201.6z M321,43.4l80.3,38.9v0.3l-62,32.9c4.4-4.7,8.2-10.7,8.2-18.2v-1.2c0-15.5-24.8-39.4-25.6-40.2
		c-0.8,0.8-25.6,24.7-25.6,40.2v1.2c0,8.3,4.7,15,9.9,19.9l-65.4-34.6v-0.3L321,43.4z M240.7,87.2l56.7,30.1c-2.1-0.1-4.2-0.1-6.5,0
		c-19.8,1.3-28.9,28.2-41.2,27.3c0,0,21.7,17.5,40.3,20.7c11.8,1.7,23.8-3.8,29-17.4v53.7l-78.2-45.2V87.2H240.7z"/>
</g>
</svg>
