<?xml version="1.0" encoding="utf-8"?>
<!-- Generator: Adobe Illustrator 24.1.1, SVG Export Plug-In . SVG Version: 6.00 Build 0)  -->
<svg version="1.1" id="Layer_1" xmlns="http://www.w3.org/2000/svg" xmlns:xlink="http://www.w3.org/1999/xlink" x="0px" y="0px"
	 viewBox="0 0 1231.57 268.71" style="enable-background:new 0 0 1231.57 268.71;" xml:space="preserve">
<style type="text/css">
	.st0{fill:#FFFFFF;}
</style>
<g id="Layer_2_1_">
	<g id="Layer_1-2">
		<path class="st0" d="M393.58,149.86l-89.69-86.91c-8-7.77-20.75-7.68-28.64,0.21l-49.56,49.54c-5.1,5.11-13.38,5.11-18.49,0.01
			c0,0-0.01-0.01-0.01-0.01l-49.08-49.08c-3.27-3.35-7.58-5.5-12.22-6.09c-6.17-0.74-12.34,1.41-16.72,5.83l-82.02,81.57l-8.72,8.72
			l0,0l8.72,8.73l28.29,28.31c4.46,4.56,10.39,7.38,16.73,7.98c7.72,0.67,15.35-2.12,20.82-7.62l41.37-40.92l0,0l50.59,54.16
			c7,7.38,18.65,7.69,26.03,0.69c0.3-0.29,0.6-0.59,0.88-0.9l50.24-56.25l0,0l47.79,45.34l0,0c6.4,5.18,15.68,4.7,21.5-1.12
			l42.15-42.15L393.58,149.86z M191.8,114.75l-3.87-0.87c-7.5-1.7-15.36,0.57-20.8,6.01l-62.84,62.42c-5.46,5.46-14.3,5.46-19.76,0
			c0,0,0,0,0,0L55.9,153.64l0,0l81.99-81.6c3.09-3.09,8.1-3.1,11.19-0.01c0,0,0.01,0.01,0.01,0.01L191.8,114.75z M325.43,101.08
			L325.43,101.08c-0.34-0.09-12.08-3.31-20.16,4.76l-1.34,1.35l0,0l-38.03,38.03c-2.98,2.97-7.02,4.65-11.24,4.66
			c-4.21-0.02-8.24-1.69-11.24-4.66l-16.4-16.4l56.94-56.94c0.2-0.2,0.4-0.38,0.62-0.56l0.2-0.14l0.45-0.33l0.25-0.14l0.43-0.27
			l0.29-0.12c0.14-0.07,0.28-0.14,0.43-0.21l0.3-0.1l0.43-0.15l0.32-0.08l0.43-0.1l0.34-0.05l0.43-0.06h0.35h0.41l0,0h0.38h0.36
			l0.41,0.06c0.11,0.01,0.23,0.02,0.34,0.05l0.43,0.09l0.32,0.08l0.42,0.14l0.31,0.1l0.43,0.2l0.28,0.12l0.43,0.25l0.25,0.14
			l0.44,0.32l0.22,0.15c0.21,0.17,0.41,0.35,0.61,0.53l30.17,29.27l0,0H325.43z M449.54,95.49l-44.29,44.3l-48.22-48.22l26.86-26.85
			c9.63-9.63,25.25-9.63,34.89,0L449.54,95.49z"/>
	</g>
</g>
<g>
	<path class="st0" d="M491.58,81.3h-19.92V63.52h62.76V81.3H514.5v50.23h-22.93V81.3z"/>
	<path class="st0" d="M536.65,97.52c0-20.6,16.22-35.56,38.38-35.56c22.15,0,38.38,14.96,38.38,35.56
		c0,20.6-16.22,35.56-38.38,35.56C552.88,133.08,536.65,118.12,536.65,97.52z M590.28,97.52c0-10.59-6.8-17-15.25-17
		c-8.45,0-15.25,6.41-15.25,17s6.8,17,15.25,17C583.48,114.52,590.28,108.11,590.28,97.52z"/>
	<path class="st0" d="M649.45,108.99l-5.15,5.73v16.81h-22.54V63.52h22.54v24.68l22.34-24.68h24.97l-27.2,29.92l28.56,38.08h-26.52
		L649.45,108.99z"/>
	<path class="st0" d="M752.62,114.23v17.29h-56.54V63.52h55.28v17.29h-32.74v7.97h28.76v16.52h-28.76v8.94H752.62z"/>
	<path class="st0" d="M757.19,126.08l7.38-16.71c6.41,3.79,14.96,6.22,22.44,6.22c6.51,0,8.84-1.36,8.84-3.69
		c0-8.55-37.6-1.65-37.6-27.01c0-12.63,10.59-22.93,31.67-22.93c9.13,0,18.56,1.94,25.65,5.93l-6.9,16.61
		c-6.7-3.4-13.02-5.05-18.94-5.05c-6.7,0-8.84,1.94-8.84,4.27c0,8.16,37.6,1.36,37.6,26.43c0,12.44-10.59,22.93-31.67,22.93
		C775.45,133.08,763.99,130.26,757.19,126.08z"/>
</g>
<g>
	<path class="st0" d="M534.91,166.45c0,14.28-10.3,22.83-27.4,22.83h-19.43v22.25h-4.96v-68.01h24.39
		C524.61,143.52,534.91,152.07,534.91,166.45z M529.85,166.45c0-11.75-7.77-18.46-22.35-18.46h-19.43v36.82h19.43
		C522.08,184.81,529.85,178.1,529.85,166.45z"/>
	<path class="st0" d="M590.28,192.39h-39.44l-8.65,19.14h-5.34l31.28-68.01h4.96l31.28,68.01h-5.34L590.28,192.39z M588.44,188.21
		l-17.88-39.25l-17.78,39.25H588.44z"/>
	<path class="st0" d="M633.71,188.11v23.41h-4.96v-23.41l-27.4-44.59h5.44l24.58,40.03l24.58-40.03h5.15L633.71,188.11z"/>
	<path class="st0" d="M736.11,211.52l-0.1-58.19l-28.47,49.16h-2.43l-28.47-48.96v58h-4.86v-68.01h4.18l30.41,52.56l30.41-52.56
		h4.08l0.1,68.01H736.11z"/>
	<path class="st0" d="M811.59,207.06v4.47h-46.92v-68.01h45.47v4.47h-40.51v26.81h36.24v4.37h-36.24v27.88H811.59z"/>
	<path class="st0" d="M885.04,143.52v68.01h-4.08l-46.34-59.07v59.07h-4.96v-68.01h4.18l46.24,59.07v-59.07H885.04z"/>
	<path class="st0" d="M921.76,147.99h-24.48v-4.47h53.92v4.47h-24.48v63.54h-4.96V147.99z"/>
	<path class="st0" d="M955.28,202.78l2.23-3.69c4.66,4.86,13.31,8.55,22.44,8.55c13.6,0,19.63-5.93,19.63-13.31
		c0-20.4-42.46-8.16-42.46-33.23c0-9.62,7.38-18.07,24.09-18.07c7.48,0,15.25,2.33,20.5,6.12l-1.85,3.98
		c-5.63-3.89-12.53-5.73-18.65-5.73c-13.21,0-19.14,6.12-19.14,13.6c0,20.4,42.46,8.36,42.46,33.03c0,9.62-7.67,17.97-24.48,17.97
		C969.95,212.01,960.23,208.22,955.28,202.78z"/>
	<path class="st0" d="M1088.38,192.39h-39.44l-8.65,19.14h-5.34l31.28-68.01h4.96l31.28,68.01h-5.34L1088.38,192.39z
		 M1086.53,188.21l-17.88-39.25l-17.78,39.25H1086.53z"/>
	<path class="st0" d="M1166.58,166.45c0,14.28-10.3,22.83-27.4,22.83h-19.43v22.25h-4.96v-68.01h24.39
		C1156.29,143.52,1166.58,152.07,1166.58,166.45z M1161.53,166.45c0-11.75-7.77-18.46-22.34-18.46h-19.43v36.82h19.43
		C1153.76,184.81,1161.53,178.1,1161.53,166.45z"/>
	<path class="st0" d="M1183.29,143.52h4.96v68.01h-4.96V143.52z"/>
</g>
</svg>
