<?xml version="1.0" encoding="utf-8"?>
<!-- Generator: Adobe Illustrator 24.1.1, SVG Export Plug-In . SVG Version: 6.00 Build 0)  -->
<svg version="1.1" id="Layer_1" xmlns="http://www.w3.org/2000/svg" xmlns:xlink="http://www.w3.org/1999/xlink" x="0px" y="0px"
	 viewBox="0 0 1231.6 268.7" style="enable-background:new 0 0 1231.6 268.7;" xml:space="preserve">
<style type="text/css">
	.st0{fill:#FFFFFF;}
</style>
<g id="Layer_2_1_">
	<g>
		<g id="Layer_1-2_8_">
			<path class="st0" d="M303.9,62.9c-8-7.8-20.8-7.7-28.6,0.2l-49.6,49.5c-5.1,5.1-13.4,5.1-18.5,0l0,0l-49.1-49.1
				c-3.3-3.3-7.6-5.5-12.2-6.1c-6.2-0.7-12.3,1.4-16.7,5.8l-82,81.6l-8.7,8.7l0,0l8.7,8.7l28.3,28.3c4.5,4.6,10.4,7.4,16.7,8
				c7.7,0.7,15.3-2.1,20.8-7.6l41.4-40.9l0,0l50.6,54.2c7,7.4,18.6,7.7,26,0.7c0.3-0.3,0.6-0.6,0.9-0.9l50.2-56.3l0,0l47.8,45.3l0,0
				c6.4,5.2,15.7,4.7,21.5-1.1l42.1-42.2l0,0 M191.8,114.8l-3.9-0.9c-7.5-1.7-15.4,0.6-20.8,6l-62.8,62.4c-5.5,5.5-14.3,5.5-19.8,0
				l0,0l-28.6-28.7l0,0l82-81.6c3.1-3.1,8.1-3.1,11.2,0l0,0L191.8,114.8z M325.4,101.1L325.4,101.1c-0.3-0.1-12.1-3.3-20.2,4.8
				l-1.3,1.3l0,0l-38,38c-3,3-7,4.6-11.2,4.7c-4.2,0-8.2-1.7-11.2-4.7L227,128.8L284,71.9c0.2-0.2,0.4-0.4,0.6-0.6l0.2-0.1l0.5-0.3
				l0.3-0.1l0.4-0.3l0.3-0.1c0.1-0.1,0.3-0.1,0.4-0.2l0.3-0.1l0.4-0.2l0.3-0.1l0.4-0.1l0.3-0.1l0.4-0.1h0.4h0.4l0,0h0.4h0.4l0.4,0.1
				c0.1,0,0.2,0,0.3,0.1l0.4,0.1l0.3,0.1l0.4,0.1l0.3,0.1l0.4,0.2l0.3,0.1l0.4,0.3l0.3,0.1l0.4,0.3l0.2,0.2c0.2,0.2,0.4,0.3,0.6,0.5
				L325.4,101.1L325.4,101.1L325.4,101.1L325.4,101.1z M449.5,95.5"/>
			<path class="st0" d="M393.6,149.9l-89.7-86.9"/>
			<path class="st0" d="M449.5,95.5l-44.3,44.3L357,91.6l26.9-26.8c9.6-9.6,25.3-9.6,34.9,0L449.5,95.5"/>
		</g>
	</g>
</g>
<g>
	<path class="st0" d="M491.6,81.3h-19.9V63.5h62.8v17.8h-19.9v50.2h-22.9L491.6,81.3L491.6,81.3z"/>
	<path class="st0" d="M536.7,97.5c0-20.6,16.2-35.6,38.4-35.6c22.2,0,38.4,15,38.4,35.6s-16.2,35.6-38.4,35.6
		C552.9,133.1,536.7,118.1,536.7,97.5z M590.3,97.5c0-10.6-6.8-17-15.3-17s-15.3,6.4-15.3,17s6.8,17,15.3,17
		C583.5,114.5,590.3,108.1,590.3,97.5z"/>
	<path class="st0" d="M649.5,109l-5.2,5.7v16.8h-22.5v-68h22.5v24.7l22.3-24.7h25l-27.2,29.9l28.6,38.1h-26.5L649.5,109z"/>
	<path class="st0" d="M752.6,114.2v17.3h-56.5v-68h55.3v17.3h-32.7v8h28.8v16.5h-28.8v8.9L752.6,114.2L752.6,114.2z"/>
	<path class="st0" d="M757.2,126.1l7.4-16.7c6.4,3.8,15,6.2,22.4,6.2c6.5,0,8.8-1.4,8.8-3.7c0-8.6-37.6-1.7-37.6-27
		c0-12.6,10.6-22.9,31.7-22.9c9.1,0,18.6,1.9,25.7,5.9l-6.9,16.6c-6.7-3.4-13-5.1-18.9-5.1c-6.7,0-8.8,1.9-8.8,4.3
		c0,8.2,37.6,1.4,37.6,26.4c0,12.4-10.6,22.9-31.7,22.9C775.5,133.1,764,130.3,757.2,126.1z"/>
</g>
<g>
	<g>
		<path class="st0" d="M534.9,166.4c0,14.3-10.3,22.8-27.4,22.8h-19.4v22.3h-5v-68h24.4C524.6,143.5,534.9,152.1,534.9,166.4z
			 M529.8,166.4c0-11.8-7.8-18.5-22.4-18.5h-19.4v36.8h19.4C522.1,184.8,529.8,178.1,529.8,166.4z"/>
		<path class="st0" d="M590.3,192.4h-39.4l-8.7,19.1h-5.3l31.3-68h5l31.3,68H599L590.3,192.4z M588.4,188.2L570.6,149l-17.8,39.3
			H588.4z"/>
		<path class="st0" d="M633.7,188.1v23.4h-5v-23.4l-27.4-44.6h5.4l24.6,40l24.6-40h5.2L633.7,188.1z"/>
		<path class="st0" d="M736.1,211.5l-0.1-58.2l-28.5,49.2h-2.4l-28.5-49v58h-4.9v-68h4.2l30.4,52.6l30.4-52.6h4.1l0.1,68
			L736.1,211.5L736.1,211.5z"/>
		<path class="st0" d="M811.6,207.1v4.5h-46.9v-68h45.5v4.5h-40.5v26.8h36.2v4.4h-36.2V207L811.6,207.1L811.6,207.1z"/>
		<path class="st0" d="M885,143.5v68H881l-46.3-59.1v59.1h-5v-68h4.2l46.2,59.1v-59.1L885,143.5L885,143.5z"/>
		<path class="st0" d="M921.8,148h-24.5v-4.5h53.9v4.5h-24.5v63.5h-5V148z"/>
		<path class="st0" d="M955.3,202.8l2.2-3.7c4.7,4.9,13.3,8.6,22.4,8.6c13.6,0,19.6-5.9,19.6-13.3c0-20.4-42.5-8.2-42.5-33.2
			c0-9.6,7.4-18.1,24.1-18.1c7.5,0,15.3,2.3,20.5,6.1l-1.8,4c-5.6-3.9-12.5-5.7-18.7-5.7c-13.2,0-19.1,6.1-19.1,13.6
			c0,20.4,42.5,8.4,42.5,33c0,9.6-7.7,18-24.5,18C970,212,960.2,208.2,955.3,202.8z"/>
		<path class="st0" d="M1088.4,192.4h-39.4l-8.7,19.1h-5.3l31.3-68h5l31.3,68h-5.3L1088.4,192.4z M1086.5,188.2l-17.9-39.3
			l-17.8,39.3H1086.5z"/>
		<path class="st0" d="M1166.6,166.4c0,14.3-10.3,22.8-27.4,22.8h-19.4v22.3h-5v-68h24.4C1156.3,143.5,1166.6,152.1,1166.6,166.4z
			 M1161.5,166.4c0-11.8-7.8-18.5-22.3-18.5h-19.4v36.8h19.4C1153.8,184.8,1161.5,178.1,1161.5,166.4z"/>
		<path class="st0" d="M1183.3,143.5h5v68h-5V143.5z"/>
	</g>
</g>
</svg>
