<?xml version="1.0" encoding="utf-8"?>
<!-- Generator: Adobe Illustrator 24.1.1, SVG Export Plug-In . SVG Version: 6.00 Build 0)  -->
<svg version="1.1" id="Layer_1" xmlns="http://www.w3.org/2000/svg" xmlns:xlink="http://www.w3.org/1999/xlink" x="0px" y="0px"
	 viewBox="0 0 512 512" style="enable-background:new 0 0 512 512;" xml:space="preserve">
<style type="text/css">
	.st0{fill:#454368;}
	.st1{fill:#234C75;}
	.st2{fill:#333053;}
	.st3{fill:#4EEBFF;}
	.st4{fill:#FC4505;}
	.st5{fill:#F5C84C;}
	.st6{fill:#C7D7E5;}
	.st7{fill:#FFFF00;}
	.st8{fill:#87D147;}
	.st9{fill:#1B1033;}
</style>
<g id="Layer_15">
	<g>
		<g>
			<g>
				<path class="st0" d="M338,484.6H174c-6.2,0-11.2,5-11.2,11.2c0,6.2,5,11.2,11.2,11.2H338c6.2,0,11.2-5,11.2-11.2
					C349.2,489.6,344.1,484.6,338,484.6z"/>
			</g>
		</g>
		<g>
			<g>
				<path class="st0" d="M210.7,433.3h90.5v51.3h-90.5L210.7,433.3z"/>
			</g>
		</g>
		<g>
			<g>
				<path class="st1" d="M460,86.7H319.4v86.5c0,14.8-12.1,26.9-26.9,26.9h-80.3c-3.3,0-5.9,2.6-5.9,5.9v26.6c0,3.6-4.4,5.5-7,3
					l-34.9-33.8c-1.1-1.1-2.6-1.7-4.1-1.7h-15c-14.8,0-26.9-12.1-26.9-26.9V86.7H52c-13.1,0-23.9,10.8-23.9,23.9v298.8
					c0,13.1,10.8,23.9,23.9,23.9h408c13.1,0,23.9-10.8,23.9-23.9V110.6C483.9,97.5,473.1,86.7,460,86.7L460,86.7z"/>
			</g>
		</g>
		<g>
			<g>
				<g>
					<path class="st0" d="M28.1,369.6v39.8c0,13.1,10.8,23.9,23.9,23.9h408c13.1,0,23.9-10.8,23.9-23.9v-39.8H28.1z"/>
				</g>
			</g>
		</g>
		<g>
			<g>
				<g>
					<path class="st2" d="M460,106.6h-93.3c14.8,0,26.9,12.1,26.9,26.9v109.9c0,14.8-12.1,26.9-26.9,26.9h-15c-1.5,0-3,0.6-4.1,1.7
						l-34.9,33.8c-2.6,2.5-7,0.7-7-3v-26.6c0-3.3-2.6-5.9-5.9-5.9h-80.3c-14.8,0-26.9-12.1-26.9-26.9V229l-28.2-27.3
						c-1.1-1.1-2.6-1.7-4.1-1.7h-15c-14.8,0-26.9-12.1-26.9-26.9v-66.6H52c-2.2,0-4,1.8-4,4v259H464v-259
						C464,108.4,462.2,106.6,460,106.6L460,106.6z"/>
				</g>
			</g>
		</g>
		<g>
			<g>
				<path class="st3" d="M145.3,36.4h147.2c14.8,0,26.9,12.1,26.9,26.9v109.9c0,14.8-12.1,26.9-26.9,26.9h-80.3
					c-3.3,0-5.9,2.6-5.9,5.9v26.6c0,3.6-4.4,5.5-7,3l-34.9-33.8c-1.1-1.1-2.6-1.7-4.1-1.7h-15c-14.8,0-26.9-12.1-26.9-26.9V63.3
					C118.4,48.5,130.5,36.4,145.3,36.4z"/>
			</g>
		</g>
		<g>
			<g>
				<path class="st4" d="M366.7,106.6h-47.3v66.6c0,14.8-12.1,26.9-26.9,26.9h-80.3c-3.3,0-5.9,2.6-5.9,5.9v26.6c0,3.6-4.4,5.5-7,3
					l-6.7-6.5v14.4c0,14.8,12.1,26.9,26.9,26.9h80.3c3.3,0,5.9,2.6,5.9,5.9v26.6c0,3.6,4.4,5.5,7,3l34.9-33.8
					c1.1-1.1,2.6-1.7,4.1-1.7h15c14.8,0,26.9-12.1,26.9-26.9V133.5C393.6,118.7,381.5,106.6,366.7,106.6L366.7,106.6z"/>
			</g>
		</g>
		<g>
			<g>
				<path class="st5" d="M352.7,177.3h-7.6c-1.1,0-2.1-0.7-2.4-1.8c-1.2-4.6-3-8.9-5.3-12.9c-0.6-1-0.4-2.2,0.4-3l5.4-5.4
					c1-1,1-2.5,0-3.5l-12.3-12.3c-1-1-2.5-1-3.5,0l-5.4,5.4c-0.7,0.7-1.7,0.9-2.6,0.5v28.8c0,0.9,0,1.8-0.1,2.7
					c1.8,3.8,2.9,8.1,2.9,12.6c0,16-13,29.1-29,29.1c-11.9,0-22.1-7.2-26.6-17.4h-24c0.5,0.3,0.9,0.8,1,1.4c1.2,4.6,3,8.9,5.3,12.9
					c0.6,1,0.4,2.2-0.4,3l-5.4,5.4c-1,1-1,2.5,0,3.5l12.3,12.3c1,1,2.5,1,3.5,0l5.4-5.4c0.8-0.8,2-1,3-0.4c4,2.3,8.3,4.1,12.9,5.3
					c1.1,0.3,1.8,1.3,1.8,2.4v7.6c0,1.4,1.1,2.5,2.5,2.5h17.4c1.4,0,2.5-1.1,2.5-2.5v-7.6c0-1.1,0.7-2.1,1.8-2.4
					c4.6-1.2,8.9-3,12.9-5.3c1-0.6,2.2-0.4,3,0.4l5.4,5.4c1,1,2.5,1,3.5,0l12.3-12.3c1-1,1-2.5,0-3.5l-5.4-5.4c-0.8-0.8-1-2-0.4-3
					c2.3-4,4.1-8.3,5.3-12.9c0.3-1.1,1.3-1.8,2.4-1.8h7.6c1.4,0,2.5-1.1,2.5-2.5v-17.4C355.2,178.4,354.1,177.3,352.7,177.3z"/>
			</g>
		</g>
		<g>
			<g>
				<path class="st1" d="M48,347.2H464v22.4H48L48,347.2z"/>
			</g>
		</g>
		<g>
			<g>
				<path class="st6" d="M256,389.6c-6.5,0-11.8,5.3-11.8,11.8s5.3,11.8,11.8,11.8s11.8-5.3,11.8-11.8S262.5,389.6,256,389.6z"/>
			</g>
		</g>
		<g>
			<g>
				<path class="st7" d="M48,347.2h47.1v22.4H48L48,347.2z"/>
			</g>
		</g>
		<g>
			<g>
				<path class="st5" d="M389.4,45.3c-9-1.7-16.1-8.6-17.8-17.4c-0.1-0.4-0.7-0.4-0.8,0c-1.7,8.8-8.8,15.8-17.8,17.4
					c-0.5,0.1-0.5,0.7,0,0.8c9,1.7,16.1,8.6,17.8,17.4c0.1,0.4,0.7,0.4,0.8,0c1.7-8.8,8.8-15.8,17.8-17.4
					C389.9,46,389.9,45.4,389.4,45.3z"/>
			</g>
		</g>
		<g>
			<g>
				<path class="st4" d="M331.8,10.2c-5.2-1-9.3-5-10.2-10c0-0.3-0.4-0.3-0.5,0c-1,5.1-5.1,9.1-10.2,10c-0.3,0-0.3,0.4,0,0.4
					c5.2,1,9.3,5,10.2,10c0,0.3,0.4,0.3,0.5,0c1-5.1,5.1-9.1,10.2-10C332.1,10.6,332.1,10.3,331.8,10.2z"/>
			</g>
		</g>
		<g>
			<g>
				<path class="st3" d="M76.9,471h4.7v-4.7c0-3.5,2.8-6.3,6.3-6.3s6.3,2.8,6.3,6.3v4.7h4.7c3.5,0,6.3,2.8,6.3,6.3s-2.8,6.3-6.3,6.3
					h-4.7v4.7c0,3.5-2.8,6.3-6.3,6.3s-6.3-2.8-6.3-6.3v-4.7h-4.7c-3.5,0-6.3-2.8-6.3-6.3S73.4,471,76.9,471z"/>
			</g>
		</g>
		<g>
			<g>
				<circle class="st4" cx="137.4" cy="460.8" r="6.8"/>
			</g>
		</g>
		<g>
			<g>
				<circle class="st8" cx="95.3" cy="36.8" r="6.8"/>
			</g>
		</g>
		<g>
			<g>
				<path class="st9" d="M338,512H174c-8.9,0-16.2-7.3-16.2-16.2s7.3-16.2,16.2-16.2H338c8.9,0,16.2,7.3,16.2,16.2
					C354.2,504.7,346.9,512,338,512z M174,489.6c-3.4,0-6.2,2.8-6.2,6.2s2.8,6.2,6.2,6.2H338c3.4,0,6.2-2.8,6.2-6.2
					s-2.8-6.2-6.2-6.2H174z"/>
			</g>
		</g>
		<g>
			<g>
				<path class="st9" d="M301.3,488.6c-2.8,0-5-2.2-5-5v-48.7c0-2.8,2.2-5,5-5s5,2.2,5,5v48.7C306.3,486.3,304,488.6,301.3,488.6z"
					/>
			</g>
		</g>
		<g>
			<g>
				<path class="st9" d="M210.7,488.5c-2.8,0-5-2.2-5-5V435c0-2.8,2.2-5,5-5s5,2.2,5,5v48.5C215.7,486.2,213.5,488.5,210.7,488.5z"
					/>
			</g>
		</g>
		<g>
			<g>
				<path class="st9" d="M460,438.3H52c-15.9,0-28.9-13-28.9-28.9V110.6c0-15.9,13-28.9,28.9-28.9h64.3c2.8,0,5,2.2,5,5s-2.2,5-5,5
					H52c-10.4,0-18.9,8.5-18.9,18.9v298.8c0,10.4,8.5,18.9,18.9,18.9h408c10.4,0,18.9-8.5,18.9-18.9V110.6
					c0-10.4-8.5-18.9-18.9-18.9H321.4c-2.8,0-5-2.2-5-5s2.2-5,5-5H460c15.9,0,28.9,13,28.9,28.9v298.8
					C488.9,425.3,475.9,438.3,460,438.3L460,438.3z"/>
			</g>
		</g>
		<g>
			<g>
				<path class="st9" d="M288,78.3H186.6c-2.8,0-5-2.2-5-5s2.2-5,5-5H288c2.8,0,5,2.2,5,5S290.8,78.3,288,78.3z"/>
			</g>
		</g>
		<g>
			<g>
				<path class="st9" d="M166.2,78.3h-15c-2.8,0-5-2.2-5-5s2.2-5,5-5h15c2.8,0,5,2.2,5,5S169,78.3,166.2,78.3z"/>
			</g>
		</g>
		<g>
			<g>
				<path class="st9" d="M288,102.1h-59.6c-2.8,0-5-2.2-5-5s2.2-5,5-5H288c2.8,0,5,2.2,5,5S290.8,102.1,288,102.1z"/>
			</g>
		</g>
		<g>
			<g>
				<path class="st9" d="M207.6,102.1h-56.4c-2.8,0-5-2.2-5-5s2.2-5,5-5h56.4c2.8,0,5,2.2,5,5S210.3,102.1,207.6,102.1z"/>
			</g>
		</g>
		<g>
			<g>
				<path class="st9" d="M288,125.8h-17.3c-2.8,0-5-2.2-5-5s2.2-5,5-5H288c2.8,0,5,2.2,5,5S290.8,125.8,288,125.8z"/>
			</g>
		</g>
		<g>
			<g>
				<path class="st9" d="M250.2,125.8h-99.1c-2.8,0-5-2.2-5-5s2.2-5,5-5h99.1c2.8,0,5,2.2,5,5S253,125.8,250.2,125.8z"/>
			</g>
		</g>
		<g>
			<g>
				<path class="st9" d="M288,149.6h-85.6c-2.8,0-5-2.2-5-5s2.2-5,5-5H288c2.8,0,5,2.2,5,5S290.8,149.6,288,149.6z"/>
			</g>
		</g>
		<g>
			<g>
				<path class="st9" d="M181.5,149.6h-30.3c-2.8,0-5-2.2-5-5s2.2-5,5-5h30.3c2.8,0,5,2.2,5,5S184.3,149.6,181.5,149.6z"/>
			</g>
		</g>
		<g>
			<g>
				<path class="st9" d="M288,173.4h-59.6c-2.8,0-5-2.2-5-5s2.2-5,5-5H288c2.8,0,5,2.2,5,5S290.8,173.4,288,173.4z"/>
			</g>
		</g>
		<g>
			<g>
				<path class="st9" d="M207.6,173.4h-56.4c-2.8,0-5-2.2-5-5s2.2-5,5-5h56.4c2.8,0,5,2.2,5,5S210.3,173.4,207.6,173.4z"/>
			</g>
		</g>
		<g>
			<g>
				<path class="st9" d="M482.6,374.6H29.8c-2.8,0-5-2.2-5-5s2.2-5,5-5h452.7c2.8,0,5,2.2,5,5S485.3,374.6,482.6,374.6z"/>
			</g>
		</g>
		<g>
			<g>
				<path class="st9" d="M464,373.6c-2.8,0-5-2.2-5-5v-257h-90.3c-2.8,0-5-2.2-5-5s2.2-5,5-5H460c5,0,9,4,9,9v258
					C469,371.4,466.7,373.6,464,373.6z"/>
			</g>
		</g>
		<g>
			<g>
				<path class="st9" d="M48,373.2c-2.8,0-5-2.2-5-5V110.6c0-5,4-9,9-9h64.3c2.8,0,5,2.2,5,5s-2.2,5-5,5H53v256.5
					C53,370.9,50.8,373.2,48,373.2L48,373.2z"/>
			</g>
		</g>
		<g>
			<g>
				<path class="st9" d="M202.2,241.7c-2.3,0-4.6-0.9-6.3-2.6l-34.9-33.8c-0.2-0.2-0.4-0.3-0.6-0.3h-15c-17.6,0-31.9-14.3-31.9-31.9
					V63.3c0-17.6,14.3-31.9,31.9-31.9h147.2c17.6,0,31.9,14.3,31.9,31.9v109.9c0,17.6-14.3,31.9-31.9,31.9h-80.3
					c-0.5,0-0.9,0.4-0.9,0.9v26.6c0,3.7-2.2,7-5.6,8.4C204.6,241.5,203.4,241.7,202.2,241.7L202.2,241.7z M145.3,41.4
					c-12.1,0-21.9,9.8-21.9,21.9v109.9c0,12.1,9.8,21.9,21.9,21.9h15c2.8,0,5.5,1.1,7.6,3.1l33.4,32.3V206c0-6,4.9-10.9,10.9-10.9
					h80.3c12.1,0,21.9-9.8,21.9-21.9V63.3c0-12.1-9.8-21.9-21.9-21.9L145.3,41.4z"/>
			</g>
		</g>
		<g>
			<g>
				<path class="st9" d="M309.8,311.9c-1.2,0-2.4-0.2-3.6-0.7c-3.4-1.4-5.5-4.7-5.5-8.4v-26.6c0-0.5-0.4-0.9-0.9-0.9h-80.3
					c-17.6,0-31.9-14.3-31.9-31.9v-13.1c0-2.8,2.2-5,5-5s5,2.2,5,5v13.1c0,12.1,9.8,21.9,21.9,21.9h80.3c6,0,10.9,4.9,10.9,10.9
					v24.5l33.4-32.3c2-2,4.7-3.1,7.6-3.1h15c12.1,0,21.9-9.8,21.9-21.9V133.5c0-12.1-9.8-21.9-21.9-21.9h-45c-2.8,0-5-2.2-5-5
					s2.2-5,5-5h45c17.6,0,31.9,14.3,31.9,31.9v109.9c0,17.6-14.3,31.9-31.9,31.9h-15c-0.2,0-0.5,0.1-0.6,0.3l-34.9,33.8
					C314.4,311.1,312.1,311.9,309.8,311.9z"/>
			</g>
		</g>
		<g>
			<g>
				<path class="st9" d="M293.1,222.5c-13,0-25.1-7.6-30.7-19.3c-1.2-2.5-0.1-5.5,2.3-6.7c2.5-1.2,5.5-0.1,6.7,2.3
					c4,8.3,12.5,13.7,21.7,13.7c13.3,0,24-10.8,24-24.1c0-3-0.6-6-1.7-8.9c-1-2.6,0.2-5.5,2.8-6.5c2.6-1,5.5,0.2,6.5,2.8
					c1.6,4,2.4,8.3,2.4,12.6C327.2,207.3,311.9,222.5,293.1,222.5L293.1,222.5z"/>
			</g>
		</g>
		<g>
			<g>
				<path class="st9" d="M301.8,255.6h-17.4c-4.1,0-7.5-3.4-7.5-7.5v-5.7c-3.6-1.1-7.1-2.5-10.5-4.4l-4,4c-2.8,2.8-7.7,2.8-10.6,0
					l-12.3-12.3c-2.9-2.9-2.9-7.6,0-10.6l4-4c-2.1-3.9-3.8-8.1-4.9-12.4c-0.7-2.7,0.9-5.4,3.6-6.1c2.7-0.7,5.4,0.9,6.1,3.6
					c1.1,4.1,2.7,8,4.8,11.6c1.7,2.9,1.2,6.6-1.2,9l-3.6,3.6l8.7,8.7l3.6-3.6c2.4-2.4,6.1-2.9,9-1.2c3.6,2.1,7.5,3.7,11.6,4.8
					c3.3,0.9,5.6,3.8,5.6,7.2v5.1h12.4v-5.1c0-3.4,2.3-6.4,5.6-7.2c4.1-1.1,8-2.7,11.6-4.8c2.9-1.7,6.6-1.2,9,1.2l3.6,3.6l8.7-8.7
					l-3.6-3.6c-2.4-2.4-2.9-6.1-1.2-9c2.1-3.6,3.7-7.5,4.8-11.6c0.9-3.3,3.8-5.6,7.2-5.6h5.1v-12.4h-5.1c-3.4,0-6.4-2.3-7.2-5.6
					c-1.1-4.1-2.7-8-4.8-11.6c-1.7-2.9-1.2-6.6,1.2-9l3.6-3.6l-8.7-8.7l-3.6,3.6c-1.3,1.3-3.1,2.1-5,2.2c-2.7,0.1-5.1-2.1-5.1-4.9
					c-0.1-2.4,1.5-4.4,3.7-5l4.8-4.8c2.9-2.9,7.6-2.9,10.6,0l12.3,12.3c1.4,1.4,2.2,3.3,2.2,5.3c0,2-0.8,3.9-2.2,5.3l-4,4
					c1.8,3.3,3.3,6.9,4.4,10.5h5.7c4.1,0,7.5,3.4,7.5,7.5v17.4c0,4.1-3.4,7.5-7.5,7.5H347c-1.1,3.6-2.5,7.1-4.4,10.5l4,4
					c1.4,1.4,2.2,3.3,2.2,5.3s-0.8,3.9-2.2,5.3l-12.3,12.3c-2.9,2.9-7.6,2.9-10.6,0l-4-4c-3.3,1.8-6.9,3.3-10.5,4.4v5.7
					C309.3,252.2,306,255.6,301.8,255.6L301.8,255.6z M244.5,216.9L244.5,216.9L244.5,216.9z"/>
			</g>
		</g>
		<g>
			<g>
				<path class="st9" d="M462.7,352.2H49.3c-2.8,0-5-2.2-5-5s2.2-5,5-5h413.4c2.8,0,5,2.2,5,5S465.5,352.2,462.7,352.2L462.7,352.2z
					"/>
			</g>
		</g>
		<g>
			<g>
				<path class="st9" d="M256,418.2c-9.3,0-16.8-7.5-16.8-16.8s7.5-16.8,16.8-16.8c9.3,0,16.8,7.5,16.8,16.8S265.3,418.2,256,418.2z
					 M256,394.6c-3.7,0-6.8,3-6.8,6.8s3,6.8,6.8,6.8c3.7,0,6.8-3,6.8-6.8S259.7,394.6,256,394.6z"/>
			</g>
		</g>
		<g>
			<g>
				<path class="st9" d="M95.1,373.7c-2.8,0-5-2.2-5-5v-20.4c0-2.8,2.2-5,5-5s5,2.2,5,5v20.4C100.1,371.5,97.9,373.7,95.1,373.7z"/>
			</g>
		</g>
	</g>
</g>
</svg>
