<svg height="506pt" viewBox="-42 0 506 506.42" width="506pt" xmlns="http://www.w3.org/2000/svg"><path d="m12.679688 352.386719-.167969-165.835938 28.699219 18.449219 30.75 16.398438 45.097656 24.601562 32.800781 18.449219 38.949219 18.449219.171875 174.492187-98.570313-57.640625zm0 0" fill="#639deb"/><path d="m117.058594 125.433594-104.546875 61.117187 28.699219 18.449219 30.75 16.398438 45.097656 24.601562 32.800781 18.449219 38.949219 18.449219 108.652344-57.398438zm0 0" fill="#82d3ff"/><path d="m188.808594 282.898438v174.320312l108.652344-61.570312v-170.148438zm0 0" fill="#1f5c9c"/><path d="m67.859375 47.148438v143.5l30.75 16.402343 47.152344 24.597657 30.75 16.402343v-139.402343zm0 0" fill="#ffed87"/><path d="m176.511719 248.050781 82-41v-145.550781l-82 47.148438zm0 0" fill="#e3ba48"/><path d="m151.910156 0-84.050781 47.148438 108.652344 61.5 82-47.148438zm0 0" fill="#7d878f"/><path d="m67.859375 92.25 108.652344 62.175781v-45.777343l-108.652344-61.5zm0 0" fill="#575e63"/><path d="m176.511719 154.425781 36.898437-19.535156v47.558594l45.101563 24.601562v-145.550781l-82 47.148438zm0 0" fill="#313538"/><path d="m41.210938 205v92.25l49.285156 102.5 59.363281-52.417969v-82.882812l-32.800781-18.449219-45.097656-24.601562zm0 0" fill="#1f5c9c"/><path d="m67.859375 190.648438-26.648437 14.351562 30.75 16.398438 45.097656 24.601562 32.800781 18.449219 26.652344-16.398438-30.75-16.402343-47.152344-24.597657zm0 0" fill="#639deb"/><path d="m71.960938 221.398438 45.097656 24.601562v98.398438l-26.648438 55.351562-18.449218-82zm0 0" fill="#fffbdb"/><path d="m71.960938 221.398438 26.648437-14.347657 47.152344 24.597657-28.703125 14.351562zm0 0" fill="#aed8e8"/><g fill="#575e63"><path d="m84.261719 235.003906v31.746094l24.597656 14.652344v-31.746094zm0 0"/><path d="m84.261719 274.074219 24.597656 14.652343v49.523438l-14.347656 32.800781-10.25-51.25zm0 0"/><path d="m266.710938 506.421875-49.199219-30.75 12.296875-118.902344 28.703125 16.402344 4.097656 59.445313zm0 0"/></g><path d="m258.511719 373.171875 143.5-79.953125 10.25 53.300781 10.25 67.652344-155.800781 92.25-4.101563-73.804687zm0 0" fill="#313538"/><path d="m229.808594 356.769531 143.5-79.953125 28.703125 16.402344-143.5 79.953125zm0 0" fill="#7d878f"/><path d="m287.210938 334.21875v-32.796875l12.300781 6.144531v32.800782zm0 0" fill="#e8ae00"/><path d="m287.210938 301.421875 41-22.554687 14.347656 6.152343-43.046875 22.546875zm0 0" fill="#ffd900"/><path d="m299.511719 340.367188 10.25-6.148438v-22.546875l14.347656-8.203125 8.199219-4.101562v24.601562l10.25-6.152344v-32.796875l-43.046875 22.546875zm0 0" fill="#c77e00"/><path d="m332.308594 323.96875-8.199219-4.101562v-16.398438l8.199219-4.101562zm0 0" fill="#e8ae00"/><path d="m223.660156 471.566406 16.398438 10.25v-112.75l-6.148438-4.097656zm0 0" fill="#313538"/><path d="m246.210938 371.117188v114.804687l14.347656 8.195313-6.148438-116.847657zm0 0" fill="#313538"/><path d="m258.511719 373.171875 4.097656 59.445313 149.652344-86.097657-10.25-53.300781zm0 0" fill="#575e63"/><path d="m324.109375 393.671875 28.699219-16.402344 6.152344 4.097657-28.699219 16.402343zm0 0" fill="#ffd900"/><path d="m324.109375 393.671875v22.546875l6.152344 4.097656v-22.546875zm0 0" fill="#e8ae00"/><path d="m330.261719 420.316406 28.699219-16.394531v-22.554687l-28.699219 16.402343zm0 0" fill="#c77e00"/><path d="m351.785156 397.273438c0 3.878906-2.753906 8.601562-6.148437 10.542968-3.398438 1.941406-6.152344.367188-6.152344-3.515625 0-3.878906 2.757813-8.601562 6.152344-10.542969 3.394531-1.9375 6.148437-.363281 6.148437 3.515626zm0 0" fill="#313538"/><path d="m131.410156 389.5v18.449219l43.050782 26.652343v-18.453124zm0 0" fill="#fffbdb"/><path d="m35.058594 440.816406v-26.644531l-14.347656-6.152344v24.597657l-20.5-12.300782v16.402344l20.5 12.300781v24.597657l14.347656 10.25v-26.648438l10.25 6.148438 12.300781 8.199218v-18.449218zm0 0" fill="#ffd900"/><path d="m45.308594 408.019531-10.25 6.152344-14.347656-6.152344 10.25-6.152343zm0 0" fill="#e8ae00"/><path d="m45.308594 408.019531v26.652344l-10.25 6.144531v-26.644531zm0 0" fill="#c77e00"/><path d="m20.710938 422.367188v10.25l-20.5-12.300782 10.25-4.097656zm0 0" fill="#e8ae00"/><path d="m45.308594 434.671875 22.550781 12.296875-10.25 6.148438-22.550781-12.300782zm0 0" fill="#e8ae00"/><path d="m67.859375 446.96875v18.453125l-10.25 6.144531v-18.449218zm0 0" fill="#c77e00"/><path d="m35.058594 483.867188 10.25-4.097657v-16.402343l-10.25-6.148438zm0 0" fill="#c77e00"/><path d="m354.859375 96.421875v-36.902344l-20.375-10.25-.125 36.902344-28.699219-16.402344v22.546875l28.699219 16.402344v36.898438l20.5 12.304687v-36.902344l14.351563 8.199219 16.398437 10.25v-26.652344zm0 0" fill="#ffd900"/><path d="m369.210938 51.316406-14.351563 8.203125-20.375-10.25 14.226563-8.203125zm0 0" fill="#e8ae00"/><path d="m369.210938 51.316406v36.902344l-14.351563 8.203125v-36.902344zm0 0" fill="#c77e00"/><path d="m334.359375 69.769531v16.402344l-28.699219-16.402344 14.351563-8.203125zm0 0" fill="#e8ae00"/><path d="m369.210938 88.21875 30.75 16.398438-14.351563 8.199218-30.75-16.394531zm0 0" fill="#e8ae00"/><path d="m399.960938 104.617188v26.652343l-14.351563 8.199219v-26.652344zm0 0" fill="#c77e00"/><path d="m354.859375 157.921875 14.351563-8.203125v-20.5l-14.351563-8.199219zm0 0" fill="#c77e00"/></svg>