<?xml version="1.0" encoding="utf-8"?>
<!-- Generator: Adobe Illustrator 24.1.1, SVG Export Plug-In . SVG Version: 6.00 Build 0)  -->
<svg version="1.1" id="Capa_1" xmlns="http://www.w3.org/2000/svg" xmlns:xlink="http://www.w3.org/1999/xlink" x="0px" y="0px"
	 viewBox="0 0 1346 512" style="enable-background:new 0 0 1346 512;" xml:space="preserve">
<style type="text/css">
	.st0{fill:#BE7B2E;}
</style>
<g>
	<g>
		<path class="st0" d="M153,100.4C131.9,79.3,42.2,74,13.2,71.4c-2.6,0-5.3,0-7.9,2.6S0,81.9,0,84.6V322c0,7.9,5.3,13.2,13.2,13.2
			h79.1c5.3,0,10.5-2.6,13.2-7.9c0-7.9,47.5-147.7,52.8-216.3C158.3,108.3,158.3,103,153,100.4z"/>
	</g>
</g>
<g>
	<g>
		<path class="st0" d="M435.2,163.7c-26.4-7.9-50.1-18.5-71.2-26.4c-47.5-21.1-68.6-10.5-110.8,31.7c-18.5,18.5-31.7,44.8-29,55.4
			c0,2.6,0,2.6,5.3,5.3c13.2,5.3,31.7,7.9,50.1-21.1c2.6-2.6,5.3-5.3,10.5-5.3c7.9,0,10.5-2.6,18.5-5.3c5.3-2.6,10.5-5.3,18.5-7.9
			c2.6,0,2.6,0,5.3,0c2.6,0,7.9,2.6,10.5,2.6c13.2,13.2,36.9,31.7,60.7,52.8c36.9,29,73.8,60.7,92.3,84.4h2.6
			C480,277.1,448.4,187.4,435.2,163.7z"/>
	</g>
</g>
<g>
	<g>
		<path class="st0" d="M619.8,97.8c-102.9,0-160.9,26.4-163.5,26.4c-2.6,2.6-5.3,5.3-7.9,7.9c0,2.6,0,7.9,2.6,10.5
			C466.8,169,519.6,314,527.5,351c2.6,5.3,7.9,10.5,13.2,10.5h79.1c7.9,0,13.2-5.3,13.2-13.2V110.9C633,103,627.7,97.8,619.8,97.8z"
			/>
	</g>
</g>
<g>
	<g>
		<path class="st0" d="M477.4,356.2c-10.5-23.7-55.4-58-95-89.7c-21.1-18.5-42.2-34.3-58-47.5c-2.6,2.6-7.9,2.6-7.9,5.3
			c-7.9,2.6-10.5,5.3-21.1,5.3c-21.1,26.4-47.5,36.9-76.5,26.4c-13.2-2.6-21.1-13.2-23.7-23.7c-5.3-26.4,18.5-63.3,36.9-81.8h-52.8
			c-10.5,52.8-29,121.3-42.2,158.2c10.5,10.5,21.1,23.7,29,29c50.1,42.2,108.1,84.4,118.7,92.3c7.9,5.3,23.7,10.5,31.6,10.5
			c2.6,0,5.3,0,7.9,0l-42.2-42.2c-5.3-5.3-5.3-13.2,0-18.5s13.2-5.3,18.5,0l52.8,52.8c5.3,5.3,10.5,2.6,15.8,2.6
			c7.9-2.6,10.5-7.9,13.2-15.8l-60.7-60.7c-5.3-5.3-5.3-13.2,0-18.5s13.2-5.3,18.5,0l65.9,65.9c2.6,2.6,13.2,2.6,21.1,0
			c2.6-2.6,7.9-5.3,10.5-10.5L364,321.9c-5.3-5.3-5.3-13.2,0-18.5s13.2-5.3,18.5,0l76.5,76.5c5.3,2.6,10.5,0,15.8-2.6
			C477.4,374.7,482.7,366.8,477.4,356.2z"/>
	</g>
</g>
</svg>
