<?xml version="1.0" encoding="utf-8"?>
<!-- Generator: Adobe Illustrator 24.1.1, SVG Export Plug-In . SVG Version: 6.00 Build 0)  -->
<svg version="1.1" id="Capa_1" xmlns="http://www.w3.org/2000/svg" xmlns:xlink="http://www.w3.org/1999/xlink" x="0px" y="0px"
	 viewBox="0 0 1346 512" style="enable-background:new 0 0 1346 512;" xml:space="preserve">
<style type="text/css">
	.st0{fill:#BE7B2E;}
</style>
<g>
	<g>
		<path class="st0" d="M384.1,0h-320C40.6,0,21.4,19.1,21.4,42.7v42.7H10.7C4.8,85.4,0,90.2,0,96.1s4.8,10.7,10.7,10.7h42.7
			c5.9,0,10.7,4.8,10.7,10.7c0,5.9-4.8,10.7-10.7,10.7H32.1c-5.9,0-10.7,4.8-10.7,10.7V192H10.7C4.8,192,0,196.8,0,202.7
			s4.8,10.7,10.7,10.7h42.7c5.9,0,10.7,4.8,10.7,10.7s-4.8,10.7-10.7,10.7H32.1c-5.9,0-10.7,4.8-10.7,10.7v53.3H10.7
			c-5.9,0-10.7,4.8-10.7,10.7s4.8,10.7,10.7,10.7h42.7c5.9,0,10.7,4.8,10.7,10.7c0,5.9-4.8,10.7-10.7,10.7H32.1
			c-5.9,0-10.7,4.8-10.7,10.7v53.3H10.7c-5.9,0-10.7,4.8-10.7,10.7S4.8,427,10.7,427h42.7c5.9,0,10.7,4.8,10.7,10.7
			c0,5.9-4.8,10.7-10.7,10.7H32.1c-5.9,0-10.7,4.8-10.7,10.7v10.7c0,23.5,19.1,42.7,42.7,42.7h320c23.5,0,42.7-19.1,42.7-42.7V42.7
			C426.7,19.1,407.6,0,384.1,0z M362.7,339c0,13.1-10.6,23.7-23.7,23.7c-128.1,0-232.3-104.2-232.3-232.3
			c0-13.1,10.6-23.7,23.7-23.7H176c13.1,0,23.7,10.6,23.7,23.7c0,14.8,2.3,29.3,6.9,43.2c2.7,8.6,0.5,17.9-5.8,24.2l-18.7,24.9
			c16.1,29.5,34.9,48.3,64.6,64.6l26-19.6c5.3-5.4,14.7-7.6,23.2-4.7c13.7,4.5,28.3,6.8,43.1,6.8c13.1,0,23.7,10.6,23.7,23.7V339
			L362.7,339z"/>
	</g>
</g>
</svg>
