<?xml version="1.0" encoding="utf-8"?>
<!-- Generator: Adobe Illustrator 24.1.1, SVG Export Plug-In . SVG Version: 6.00 Build 0)  -->
<svg version="1.1" id="Capa_1" xmlns="http://www.w3.org/2000/svg" xmlns:xlink="http://www.w3.org/1999/xlink" x="0px" y="0px"
	 viewBox="0 0 1346 512" style="enable-background:new 0 0 1346 512;" xml:space="preserve">
<style type="text/css">
	.st0{fill:#BE7B2E;}
</style>
<path class="st0" d="M295.4,247.7c21.5-21,35-50.2,35-82.6c0-58.1-43.2-105.8-99.1-113.9V0h-66.1v49.5H99.1V0H33v49.5H0v66.1h33
	v264.3H0V446h33v66h66.1v-66.1h66.1V512h66.1v-67.7c55.9-8.1,99.1-55.9,99.1-113.9C330.4,298,316.9,268.7,295.4,247.7L295.4,247.7z
	 M264.3,165.2c0,27.3-22.2,49.5-49.5,49.5H99.1v-99.1h115.6C242.1,115.6,264.3,137.8,264.3,165.2z M214.7,379.9H99.1v-99.1h115.6
	c27.3,0,49.5,22.2,49.5,49.5S242.1,379.9,214.7,379.9L214.7,379.9z"/>
</svg>
