<?xml version="1.0" encoding="utf-8"?>
<!-- Generator: Adobe Illustrator 24.1.1, SVG Export Plug-In . SVG Version: 6.00 Build 0)  -->
<svg version="1.1" id="Capa_1" xmlns="http://www.w3.org/2000/svg" xmlns:xlink="http://www.w3.org/1999/xlink" x="0px" y="0px"
	 viewBox="0 0 1346 512" style="enable-background:new 0 0 1346 512;" xml:space="preserve">
<style type="text/css">
	.st0{fill:#BE7B2E;}
</style>
<path class="st0" d="M512,121V46c0-24.8-20.2-45-45-45H45C20.2,1,0,21.2,0,46v75H512z M346,61h90c8.3,0,15,6.7,15,15s-6.7,15-15,15
	h-90c-8.3,0-15-6.7-15-15S337.7,61,346,61z M196,61c8.3,0,15,6.7,15,15s-6.7,15-15,15s-15-6.7-15-15S187.7,61,196,61z M136,61
	c8.3,0,15,6.7,15,15s-6.7,15-15,15s-15-6.7-15-15S127.7,61,136,61z M76,61c8.3,0,15,6.7,15,15s-6.7,15-15,15s-15-6.7-15-15
	S67.7,61,76,61z"/>
<path class="st0" d="M0,151v315c0,24.8,20.2,45,45,45h422c24.8,0,45-20.2,45-45V151H0z M175.4,364.3c6.5,5.2,7.5,14.6,2.3,21.1
	s-14.6,7.5-21.1,2.3l-75-60c-7.5-6-7.5-17.4,0-23.4l75-60c6.5-5.2,15.9-4.1,21.1,2.3c5.2,6.5,4.1,15.9-2.3,21.1L115,316L175.4,364.3
	z M314.8,216.9l-90,210c-3.3,7.6-12.1,11.1-19.7,7.9c-7.6-3.3-11.1-12.1-7.9-19.7l90-210c3.3-7.6,12.1-11.1,19.7-7.9
	S318.1,209.3,314.8,216.9L314.8,216.9z M430.4,327.7l-75,60c-6.5,5.2-15.9,4.1-21.1-2.3c-5.2-6.5-4.1-15.9,2.3-21.1L397,316
	l-60.4-48.3c-6.5-5.2-7.5-14.6-2.3-21.1s14.6-7.5,21.1-2.3l75,60C437.9,310.3,437.9,321.7,430.4,327.7L430.4,327.7z"/>
</svg>
