<?xml version="1.0" encoding="utf-8"?>
<!-- Generator: Adobe Illustrator 24.1.1, SVG Export Plug-In . SVG Version: 6.00 Build 0)  -->
<svg version="1.1" id="Layer_1" xmlns="http://www.w3.org/2000/svg" xmlns:xlink="http://www.w3.org/1999/xlink" x="0px" y="0px"
	 viewBox="0 0 835.3 511.4" style="enable-background:new 0 0 835.3 511.4;" xml:space="preserve">
<style type="text/css">
	.st0{fill:#243052;}
	.st1{fill:#E66D31;}
	.st2{fill:#333756;}
	.st3{fill:#FFFFFF;}
	.st4{fill:#F5F964;}
	.st5{fill:#F08583;}
	.st6{fill:#5793FB;}
	.st7{fill:#8185A0;}
	.st8{fill:#E2E2E9;}
	.st9{fill:#B1B3C5;}
	.st10{fill:#ED5D71;}
	.st11{fill:#D78950;}
	.st12{fill:#D3445C;}
	.st13{fill:#586089;}
	.st14{fill:#535B7F;}
	.st15{fill:#606B91;}
</style>
<g id="bg">
	<g>
		<g>
			<g>
				<path class="st0" d="M5.5,264.6c16,39.6,61.7,60.1,100.6,42.7c79.7-35.6,105.3-18.7,124.1-12.5c14.4,4.7,34.3,3.6,45.9-0.9
					c33.1-12.9,48.8-50.8,35.5-83.8c-7.9-19.6-23-30.1-36.1-35.8c-24.8-10.6-41.4-7.2-56.4-21.7c-13.9-13.5-7.6-54.6-12.9-67.8
					c-9.7-23.9-36.9-35.4-60.8-25.8c-11.1,4.5-19.5,12.8-24.4,22.8c0,0-0.1,0-0.1,0.1c-7.1,10.7-9.1,33-19.4,47.9
					c-10.4,15.1-35.9,25.3-55.3,35C9,183.5-10.2,225.7,5.5,264.6z"/>
			</g>
		</g>
	</g>
</g>
<g id="text">
	<g>
		<path class="st1" d="M368.7,189.4H345v-35.7h-27.5v35.7h-23.8v-87.5h23.8v32.4H345v-32.4h23.8V189.4z"/>
		<path class="st1" d="M469.5,145.5c0,14.7-3.6,25.9-10.8,33.6s-17.8,11.5-31.7,11.5c-13.7,0-24.3-3.9-31.6-11.6s-11-18.9-11-33.6
			c0-14.6,3.6-25.7,10.9-33.4c7.3-7.7,17.9-11.5,31.8-11.5c13.9,0,24.5,3.8,31.7,11.4C465.9,119.6,469.5,130.8,469.5,145.5z
			 M409.3,145.5c0,16.9,5.9,25.4,17.6,25.4c6,0,10.4-2.1,13.3-6.2c2.9-4.1,4.3-10.5,4.3-19.2c0-8.7-1.5-15.2-4.4-19.4
			s-7.3-6.3-13.1-6.3C415.2,119.9,409.3,128.4,409.3,145.5z"/>
		<path class="st1" d="M578.6,189.4h-28l-8.4-38.1c-0.4-1.6-1-4.8-1.9-9.5s-1.5-8.7-1.9-11.9c-0.3,2.6-0.8,5.8-1.6,9.7
			c-0.7,3.9-1.4,7.4-2.1,10.6c-0.7,3.2-3.6,16.3-8.7,39.3h-28l-21.7-87.5h22.8l9.5,43.9c2.1,9.7,3.6,17.4,4.4,23.2
			c0.5-4.1,1.5-9.6,2.8-16.6c1.3-7,2.6-12.8,3.7-17.4l7.7-33.1h21.9l7.5,33.1c1.3,5.3,2.6,11.4,3.9,18.4c1.3,6.9,2.2,12.1,2.6,15.6
			c0.5-4.4,1.9-12.1,4.3-23l9.7-44h22.8L578.6,189.4z"/>
		<path class="st1" d="M643.3,189.4v-87.5h23.8v87.5H643.3z"/>
		<path class="st1" d="M724.6,189.4h-23.6v-68.2h-21.4v-19.3h66.3v19.3h-21.3L724.6,189.4L724.6,189.4z"/>
		<path class="st1" d="M388.2,302.5h-28l-8.4-38.1c-0.4-1.6-1-4.8-1.9-9.5c-0.9-4.8-1.5-8.7-1.9-11.9c-0.3,2.6-0.8,5.8-1.6,9.7
			c-0.7,3.9-1.4,7.4-2.1,10.6c-0.7,3.2-3.6,16.3-8.7,39.3h-27.9L286.1,215h22.8l9.5,43.9c2.1,9.7,3.6,17.4,4.4,23.2
			c0.5-4.1,1.5-9.6,2.8-16.6c1.3-7,2.6-12.8,3.7-17.4l7.7-33.1H359l7.5,33.1c1.3,5.3,2.6,11.4,3.9,18.4s2.2,12.1,2.6,15.6
			c0.5-4.4,1.9-12.1,4.3-23l9.7-44h22.8L388.2,302.5z"/>
		<path class="st1" d="M501.8,258.7c0,14.7-3.6,25.9-10.8,33.6s-17.8,11.5-31.7,11.5c-13.7,0-24.3-3.9-31.6-11.5
			c-7.3-7.7-11-18.9-11-33.6c0-14.6,3.6-25.7,10.9-33.4c7.3-7.7,17.9-11.5,31.8-11.5c13.9,0,24.5,3.8,31.7,11.4
			C498.2,232.7,501.8,243.9,501.8,258.7z M441.6,258.7c0,16.9,5.9,25.4,17.6,25.4c6,0,10.4-2,13.3-6.2c2.9-4.1,4.3-10.5,4.3-19.2
			c0-8.7-1.5-15.2-4.4-19.4s-7.3-6.3-13.1-6.3C447.5,233.1,441.6,241.6,441.6,258.7z"/>
		<path class="st1" d="M541.2,270.7v31.8h-23.6V215h28.7c23.8,0,35.7,8.6,35.7,25.9c0,10.1-5,18-14.8,23.5l25.5,38.1h-26.8
			l-18.5-31.8L541.2,270.7L541.2,270.7z M541.2,252.9h4.4c8.3,0,12.4-3.6,12.4-10.9c0-6-4-9-12.2-9h-4.7V252.9z"/>
		<path class="st1" d="M675.3,302.5h-26.7l-17.3-33.5l-7,4.2v29.3h-23.8V215h23.8v38c1.2-2.4,3.6-6.1,7.2-11.2l18.4-26.8h25.8
			l-27.6,39.2L675.3,302.5z"/>
		<path class="st1" d="M741.9,276c0,5.4-1.4,10.2-4.1,14.5c-2.8,4.2-6.7,7.5-11.9,9.8c-5.2,2.3-11.3,3.5-18.3,3.5
			c-5.8,0-10.7-0.4-14.7-1.2c-4-0.8-8.1-2.2-12.3-4.3v-21.1c4.5,2.3,9.2,4.1,14.1,5.4c4.9,1.3,9.3,2,13.4,2c3.5,0,6.1-0.6,7.7-1.8
			c1.6-1.2,2.5-2.8,2.5-4.7c0-1.2-0.3-2.2-1-3.1c-0.7-0.9-1.7-1.8-3.2-2.7c-1.5-0.9-5.3-2.8-11.6-5.6c-5.7-2.6-10-5.1-12.8-7.5
			c-2.8-2.4-5-5.2-6.3-8.4c-1.4-3.1-2.1-6.9-2.1-11.2c0-8.1,2.9-14.3,8.8-18.9c5.9-4.5,13.9-6.8,24.2-6.8c9.1,0,18.3,2.1,27.7,6.3
			l-7.2,18.3c-8.2-3.8-15.2-5.6-21.2-5.6c-3.1,0-5.3,0.5-6.7,1.6c-1.4,1.1-2.1,2.4-2.1,4c0,1.7,0.9,3.3,2.7,4.6
			c1.8,1.4,6.6,3.8,14.5,7.4c7.5,3.4,12.8,7,15.7,10.9C740.5,265.2,741.9,270.1,741.9,276z"/>
		<path class="st1" d="M763.7,271.7v-5.1c0-3.9,0.8-7.2,2.4-9.9c1.6-2.7,4.4-5.3,8.5-7.9c3.2-2,5.6-3.9,7-5.5
			c1.4-1.6,2.1-3.5,2.1-5.6c0-1.7-0.8-3-2.3-4s-3.5-1.5-5.9-1.5c-6,0-13.1,2.1-21.1,6.4l-8.3-16.3c9.9-5.7,20.3-8.5,31.1-8.5
			c8.9,0,15.9,2,21,5.9c5.1,3.9,7.6,9.2,7.6,16c0,4.8-1.1,9-3.4,12.5s-5.9,6.9-10.8,10c-4.2,2.7-6.8,4.7-7.9,6
			c-1.1,1.3-1.6,2.7-1.6,4.5v3L763.7,271.7L763.7,271.7z M761.1,292.6c0-3.7,1.1-6.5,3.2-8.5s5.3-3,9.4-3c4,0,7,1,9.2,3
			c2.1,2,3.2,4.8,3.2,8.5s-1.1,6.4-3.3,8.4c-2.2,2-5.2,3-9.1,3c-4,0-7-1-9.3-3C762.2,299.1,761.1,296.3,761.1,292.6z"/>
	</g>
</g>
<g id="graphics">
	<g>
		<g>
			<rect x="109.5" y="486.5" class="st2" width="37.6" height="2"/>
		</g>
		<g>
			<rect x="235.8" y="493.6" class="st2" width="5.7" height="2"/>
		</g>
		<g>
			<rect x="192.5" y="493.6" class="st2" width="32.6" height="2"/>
		</g>
		<g>
			<path class="st3" d="M62.3,91.3V49.2c0-3.3,2.5-7.5,5.9-7.5h40.3c3.3,0,7.5,4.2,7.5,7.5v3.5h17.8l-17.8,21.4v17.2
				c0,3.3-4.1,5.7-7.5,5.7H68.2C64.8,97,62.3,94.6,62.3,91.3z"/>
		</g>
		<g>
			<circle class="st4" cx="89.9" cy="70.5" r="13.2"/>
			<g>
				<g>
					<rect x="85.6" y="63" class="st2" width="2" height="15"/>
				</g>
				<g>
					<rect x="88.4" y="75.3" class="st2" width="2" height="2.7"/>
				</g>
				<g>
					<rect x="88.4" y="63" class="st2" width="2" height="2.7"/>
				</g>
				<g>
					<path class="st2" d="M90.1,70.8v-2c1.8,0,2.1-0.3,2.1-1.1c0-0.7-0.3-1.1-2.1-1.1h-6.2v-2h6.2c2.7,0,4.1,1,4.1,3.1
						C94.1,69.8,92.8,70.8,90.1,70.8z"/>
				</g>
				<g>
					<path class="st2" d="M91.4,76.3h-7.5v-2h7.5c0.4,0,1.7,0,1.7-1.7s-1.3-1.7-1.7-1.7h-4.8v-2h4.8c2.3,0,3.7,1.5,3.7,3.7
						S93.7,76.3,91.4,76.3z"/>
				</g>
			</g>
			<g>
				<g>
					<path class="st2" d="M98.8,81.7l-1.2-1.6c0.2-0.2,0.5-0.4,0.7-0.6l1.4,1.5C99.3,81.2,99.1,81.5,98.8,81.7z"/>
				</g>
				<g>
					<path class="st2" d="M90.7,84.8l-0.1-2c0.6,0,1.3-0.1,1.9-0.3l0.4,2C92.2,84.6,91.4,84.7,90.7,84.8z M88.5,84.7
						c-0.7-0.1-1.4-0.2-2.2-0.4l0.5-1.9c0.6,0.2,1.2,0.3,1.9,0.3L88.5,84.7z M95,83.8L94.3,82c0.6-0.2,1.2-0.5,1.7-0.8l1,1.7
						C96.3,83.3,95.7,83.6,95,83.8z M84.3,83.6c-0.7-0.3-1.3-0.6-1.9-1l1.1-1.7c0.5,0.3,1.1,0.6,1.7,0.9L84.3,83.6z M80.6,81.3
						c-0.6-0.5-1.1-1-1.5-1.6l1.5-1.3c0.4,0.5,0.9,0.9,1.3,1.3L80.6,81.3z M77.7,78c-0.4-0.6-0.7-1.3-1-1.9l1.8-0.8
						c0.2,0.6,0.5,1.1,0.9,1.7L77.7,78z M76.1,73.9c-0.2-0.7-0.3-1.4-0.4-2.2l2-0.2c0.1,0.6,0.2,1.3,0.3,1.9L76.1,73.9z M77.7,69.7
						l-2-0.1c0.1-0.7,0.2-1.5,0.3-2.2l1.9,0.4C77.8,68.5,77.7,69.1,77.7,69.7z M78.5,66l-1.9-0.7c0.3-0.7,0.6-1.3,0.9-2l1.7,1
						C79,64.9,78.7,65.5,78.5,66z M80.3,62.8l-1.6-1.3c0.5-0.6,1-1.1,1.5-1.6l1.3,1.5C81.2,61.8,80.7,62.3,80.3,62.8z M83.1,60.3
						L82,58.6c0.6-0.4,1.3-0.8,1.9-1.1l0.8,1.8C84.2,59.6,83.7,59.9,83.1,60.3z M86.5,58.7L86,56.8c0.7-0.2,1.4-0.3,2.2-0.4l0.3,2
						C87.8,58.4,87.1,58.5,86.5,58.7z M92.2,58.4c-0.6-0.1-1.3-0.2-1.9-0.2l0.1-2c0.7,0,1.5,0.1,2.2,0.2L92.2,58.4z"/>
				</g>
				<g>
					<path class="st2" d="M94.9,59.3c-0.3-0.1-0.6-0.2-0.9-0.3l0.7-1.9c0.3,0.1,0.7,0.3,1,0.4L94.9,59.3z"/>
				</g>
			</g>
			<g>
				<path class="st2" d="M89.6,88.4c-9.8,0-17.9-8-17.9-17.9c0-2.8,0.6-5.5,1.9-8l1.8,0.9c-1.1,2.2-1.7,4.6-1.7,7.1
					c0,8.8,7.1,15.9,15.9,15.9s15.9-7.1,15.9-15.9c0-2.6-0.6-5.1-1.8-7.3c0,0-0.2-0.4-0.3-0.5l1.7-1.1c0.1,0.2,0.4,0.7,0.4,0.7
					c1.3,2.5,2,5.4,2,8.2C107.5,80.3,99.5,88.4,89.6,88.4z"/>
			</g>
			<g>
				<path class="st2" d="M76.8,61.1l-1.6-1.2c0.5-0.7,1-1.3,1.6-1.9l1.4,1.4C77.7,60,77.3,60.5,76.8,61.1z"/>
			</g>
			<g>
				<path class="st2" d="M84.2,55.6l-0.7-1.9c3.2-1.1,6.6-1.4,9.9-0.6L93,55C90.1,54.3,87,54.6,84.2,55.6z"/>
			</g>
			<g>
				<g id="XMLID_2_">
					<g>
						<path class="st5" d="M107.4,55.9c0,2.6-1.6,4.4-3.1,6.2c-1.4,1.7-2,3.1-1.9,4.9l0,0.8h-3.9l-0.1-0.9c-0.2-1.9,0.5-3.9,2.2-5.9
							c1.4-1.6,2.3-2.9,2.3-4.3c0-1.5-0.9-2.5-3-2.6c-1.3,0-2.7,0.4-3.6,1.1l-1.1-3.2c1.3-0.8,3.4-1.5,5.7-1.5
							C105.4,50.4,107.4,53,107.4,55.9z"/>
						<path class="st5" d="M103.1,73.8c0,1.6-1.1,2.8-2.7,2.8c-1.6,0-2.7-1.2-2.7-2.8c0-1.7,1.2-2.8,2.7-2.8
							C102,71,103.1,72.2,103.1,73.8z"/>
					</g>
					<g>
						<g>
							<path class="st2" d="M99.4,51.5l-0.3-2c0.3,0,0.7-0.1,1-0.1l0.1,2C99.9,51.4,99.6,51.5,99.4,51.5z"/>
						</g>
						<g>
							<path class="st2" d="M102.4,68.7h-3.9l-1-0.9l-0.1-0.9c-0.2-2.2,0.6-4.4,2.4-6.6c1.3-1.6,2.1-2.6,2.1-3.7
								c0-0.7-0.2-1.5-2-1.6c-1.1,0-2.3,0.3-3,0.9l-1.6-0.5l-1.1-3.2l0.4-1.2c0.7-0.5,1.6-0.8,2.5-1.1l0.6,1.9
								c-0.5,0.1-0.9,0.3-1.3,0.5l0.4,1.2c0.9-0.4,2-0.6,3.1-0.6c2.5,0,4,1.4,4,3.6c0,1.8-1.1,3.3-2.5,4.9c-1.4,1.8-2.1,3.5-1.9,5.2
								v0h1.9c0-1.9,0.7-3.5,2.2-5.3c1.5-1.7,2.9-3.3,2.9-5.5c0-2.1-1.2-3.6-3.3-4.2l0.5-1.9c2.9,0.8,4.8,3.2,4.8,6.1
								s-1.8,5-3.4,6.8c-1.2,1.5-1.8,2.7-1.7,4.2l0,0.8L102.4,68.7z"/>
						</g>
						<g>
							<path class="st2" d="M100.3,77.7c-2.1,0-3.7-1.6-3.7-3.8c0-0.5,0.1-1,0.3-1.5l1.9,0.7c-0.1,0.2-0.1,0.5-0.1,0.8
								c0,1.1,0.7,1.8,1.7,1.8c1.1,0,1.7-0.7,1.7-1.8c0-1.1-0.7-1.8-1.7-1.8c-0.3,0-0.7,0.1-0.9,0.2l-1-1.7c0.6-0.3,1.2-0.5,1.9-0.5
								c2.2,0,3.7,1.6,3.7,3.8C104.1,76.1,102.5,77.7,100.3,77.7z"/>
						</g>
					</g>
				</g>
			</g>
		</g>
		<g>
			<g>
				<rect x="248.8" y="173.5" class="st6" width="2" height="3"/>
			</g>
			<g>
				<path class="st6" d="M250.8,167.5h-2v-6h2V167.5z M250.8,155.4h-2c0-2.2,0.7-4.4,2-6.2l1.6,1.1
					C251.4,151.8,250.8,153.6,250.8,155.4z M256.6,147l-0.7-1.9c1.2-0.5,2.6-0.7,3.9-0.7h2.4v2h-2.4
					C258.7,146.4,257.7,146.6,256.6,147z"/>
			</g>
			<g>
				<rect x="268.3" y="144.4" class="st6" width="3" height="2"/>
			</g>
		</g>
		<g>
			<g>
				<rect x="153.6" y="275.6" class="st7" width="3" height="2"/>
			</g>
			<g>
				<path class="st7" d="M147.3,277.6H141v-2h6.3V277.6z M134.7,277.6h-6.3v-2h6.3V277.6z M122,277.6h-6.3v-2h6.3V277.6z
					 M109.4,277.6h-6.3v-2h6.3V277.6z M96.7,277.6h-6.3v-2h6.3V277.6z"/>
			</g>
			<g>
				<rect x="81.1" y="275.6" class="st7" width="3" height="2"/>
			</g>
		</g>
		<g>
			<g>
				<rect x="284.6" y="127.9" class="st6" width="2" height="3"/>
			</g>
			<g>
				<path class="st6" d="M286.6,121.7h-2v-6.2h2V121.7z M286.6,109.4h-2V109c0-1.8-0.5-3.5-1.5-5l1.7-1.1c1.2,1.8,1.8,3.9,1.8,6.1
					L286.6,109.4L286.6,109.4z M278.8,100.6c-1-0.4-2.1-0.6-3.2-0.6H273v-2h2.5c1.4,0,2.7,0.3,3.9,0.7L278.8,100.6z"/>
			</g>
			<g>
				<rect x="263.8" y="98" class="st6" width="3" height="2"/>
			</g>
		</g>
		<g>
			<g>
				<rect x="249.1" y="227.7" class="st7" width="2" height="3"/>
			</g>
			<g>
				<rect x="249.1" y="214.3" class="st7" width="2" height="6.7"/>
			</g>
			<g>
				<rect x="249.1" y="204.5" class="st7" width="2" height="3"/>
			</g>
		</g>
		<g>
			<g>
				<rect x="185.8" y="319.6" class="st7" width="3" height="2"/>
			</g>
			<g>
				<path class="st7" d="M236.7,321.6h-6v-2h6V321.6z M224.8,321.6h-6v-2h6V321.6z M212.8,321.6h-6v-2h6V321.6z M200.8,321.6h-6v-2
					h6V321.6z M242.9,321.1l-0.6-1.9c1.7-0.5,3.3-1.5,4.4-2.9l1.5,1.3C246.9,319.3,245.1,320.5,242.9,321.1z M250.9,311.6l-2-0.2
					c0-0.3,0-0.6,0-0.9v-5h2v5C251,310.9,250.9,311.3,250.9,311.6z"/>
			</g>
			<g>
				<rect x="249" y="296.6" class="st7" width="2" height="3"/>
			</g>
		</g>
		<g>
			<g>
				<rect x="64.4" y="189" class="st4" width="2" height="3"/>
			</g>
			<g>
				<path class="st4" d="M66.4,182.9h-2v-6.1h2V182.9z M66.4,170.7h-2v-6.1h2V170.7z M66.4,158.6h-2v-1.9c0-1.3-0.3-2.5-0.8-3.7
					l1.8-0.8c0.6,1.4,1,2.9,1,4.5V158.6z M60,149c-1.4-0.8-3-1.3-4.6-1.3h-0.7v-2h0.7c2,0,4,0.6,5.7,1.6L60,149z M48.7,147.7h-6.1
					v-2h6.1C48.7,145.7,48.7,147.7,48.7,147.7z M36.3,147.5c-2.2-0.4-4.2-1.4-5.9-3l1.4-1.4c1.3,1.3,3,2.1,4.8,2.5L36.3,147.5z
					 M27.4,138.7c-0.1-0.7-0.2-1.4-0.2-2v-4.2h2v4.2c0,0.6,0,1.1,0.1,1.7L27.4,138.7z M29.2,126.4h-2v-6.1h2V126.4z M29.2,114.2h-2
					v-6.1h2V114.2z M29.2,102h-2V96h2V102z M29.2,89.9h-2v-6.1h2V89.9z M29.2,77.7l-2-0.1c0.1-2.3,0.8-4.4,2.2-6.2l1.6,1.2
					C29.9,74.1,29.2,75.9,29.2,77.7z M35.3,69.5l-0.6-1.9c1.1-0.4,2.3-0.6,3.5-0.6H41v2h-2.8C37.2,69,36.2,69.2,35.3,69.5z M53.2,69
					h-6.1v-2h6.1C53.2,67,53.2,69,53.2,69z"/>
			</g>
			<g>
				<rect x="59.3" y="67" class="st4" width="3" height="2"/>
			</g>
		</g>
		<g>
			<g>
				<rect x="76.4" y="269.7" class="st7" width="2" height="3"/>
			</g>
			<g>
				<rect x="76.4" y="256.3" class="st7" width="2" height="6.7"/>
			</g>
			<g>
				<rect x="76.4" y="246.6" class="st7" width="2" height="3"/>
			</g>
		</g>
		<g>
			<path class="st7" d="M77.4,281c-2.6,0-4.6-2.1-4.6-4.6c0-2.5,2.1-4.6,4.6-4.6c2.6,0,4.6,2.1,4.6,4.6C82.1,278.9,80,281,77.4,281z
				 M77.4,273.7c-1.4,0-2.6,1.2-2.6,2.6s1.2,2.6,2.6,2.6s2.6-1.2,2.6-2.6C80.1,274.9,78.9,273.7,77.4,273.7z"/>
		</g>
		<g>
			<g id="XMLID_36_">
				<g>
					<path class="st8" d="M260,271.1c2.6-2.6,4.1-6.1,4.1-10c0-3.9-1.6-7.4-4.1-10c-2.6-2.6-6.1-4.1-10-4.1v-16.1l25.2,7.7
						c0,5.1,0,14.9,0,29.9c0,19.4-23.2,27.5-25.2,28.2l0,0v-21.3C253.9,275.2,257.4,273.6,260,271.1z"/>
					<path class="st4" d="M239.9,251.1c2.6-2.6,6.1-4.1,10-4.1c3.9,0,7.5,1.6,10,4.1c2.6,2.6,4.1,6.1,4.1,10s-1.6,7.5-4.1,10
						c-2.6,2.6-6.1,4.1-10,4.1c-3.9,0-7.4-1.6-10-4.1c-2.6-2.6-4.1-6.1-4.1-10C235.8,257.1,237.4,253.6,239.9,251.1z M250.3,266.2
						c1,0,1.9,0,2.2,0c2.2,0,2.9-1.5,2.9-3c0-1.5-0.7-3-2.9-3h-1.5c1.1,0,3.3,0,3.3-2.2c0-2.2-2.2-2.2-3.3-2.2c-0.1,0-0.4,0-0.7,0
						c-0.9,0-2.5,0-2.9,0v4.4v5.9C247.7,266.2,249.1,266.2,250.3,266.2z"/>
					<path class="st4" d="M252.5,260.3c2.2,0,2.9,1.5,2.9,3s-0.7,3-2.9,3c-0.4,0-1.3,0-2.2,0c-1.3,0-2.6,0-2.9,0v-5.9h3.7
						L252.5,260.3L252.5,260.3z"/>
					<path class="st4" d="M251.1,255.9c1.1,0,3.3,0,3.3,2.2s-2.2,2.2-3.3,2.2h-3.7v-4.4c0.5,0,2,0,2.9,0
						C250.7,255.9,251,255.9,251.1,255.9z"/>
					<path class="st9" d="M239.9,271.1c2.6,2.6,6.1,4.1,10,4.1v21.3l0,0c-0.1,0-0.1,0-0.1,0s-24.8-8.5-24.8-28.3
						c0-17.9,0.1-24.8,0.1-29.9l24.8-7.7v16.1c-3.9,0-7.4,1.6-10,4.1c-2.6,2.6-4.1,6.1-4.1,10C235.8,265,237.4,268.5,239.9,271.1z"
						/>
				</g>
				<g>
					<g>
						<rect x="246.4" y="252.9" class="st2" width="2" height="16.2"/>
					</g>
					<g>
						<rect x="249.3" y="266.2" class="st2" width="2" height="3"/>
					</g>
					<g>
						<rect x="249.3" y="252.9" class="st2" width="2" height="2.9"/>
					</g>
					<g>
						<path class="st2" d="M251.1,261.3v-2c2,0,2.3-0.4,2.3-1.2c0-0.8-0.4-1.2-2.3-1.2h-6.6v-2h6.6c1.1,0,4.3,0,4.3,3.2
							C255.4,261.3,252.1,261.3,251.1,261.3z"/>
					</g>
					<g>
						<path class="st2" d="M252.5,267.2h-8.1v-2h8.1c0.5,0,1.9,0,1.9-2s-1.5-2-1.9-2h-5.2v-2h5.2c2.4,0,3.9,1.5,3.9,4
							S254.9,267.2,252.5,267.2z"/>
					</g>
					<g>
						<path class="st2" d="M261.8,255.4c-0.6-1.3-1.5-2.6-2.6-3.6c-0.6-0.6-1.3-1.2-2-1.7l1.1-1.7c0.8,0.6,1.6,1.2,2.3,1.9
							c1.2,1.2,2.2,2.6,3,4.1L261.8,255.4z"/>
					</g>
					<g>
						<path class="st2" d="M250,276.2c-4.1,0-7.9-1.6-10.7-4.5c-2.9-2.9-4.4-6.7-4.4-10.7c0-4.1,1.6-7.9,4.4-10.7
							c2.9-2.9,6.7-4.4,10.7-4.4c1.7,0,3.3,0.3,4.9,0.8l-0.6,1.9c-1.4-0.5-2.8-0.7-4.3-0.7c-3.5,0-6.8,1.4-9.3,3.9
							c-2.5,2.5-3.9,5.8-3.9,9.3c0,3.5,1.4,6.8,3.9,9.3c2.5,2.5,5.8,3.9,9.3,3.9s6.8-1.4,9.3-3.9c1.9-1.9,3.2-4.4,3.7-7l2,0.3
							c-0.5,3.1-2,5.9-4.2,8.1C257.8,274.6,254,276.2,250,276.2z"/>
					</g>
					<g>
						<path class="st2" d="M274.6,277l-1.9-0.7c1-2.5,1.5-5.2,1.5-7.9v-29.1l-5.9-1.8l0.6-1.9l6.6,2l0.7,1v29.9
							C276.2,271.3,275.7,274.2,274.6,277z"/>
					</g>
					<g>
						<path class="st2" d="M271.4,282.8l-1.6-1.2c0.5-0.6,0.9-1.3,1.3-1.9l1.7,1C272.4,281.4,271.9,282.1,271.4,282.8z"/>
					</g>
					<g>
						<path class="st2" d="M249.5,297.5c-0.3-0.1-25.5-9-25.5-29.2c0-11.7,0.1-18.8,0.1-23.6c0-2.6,0-4.6,0-6.3l0.7-1l24.8-7.7h0.6
							l12.6,3.9l-0.6,1.9l-12.3-3.8l-23.8,7.4c0,1.6,0,3.4,0,5.6c0,4.7-0.1,11.9-0.1,23.5c0,17.6,21,26.1,23.8,27.2
							c1.7-0.6,11.4-4.1,18-11.5l1.5,1.3c-7.2,8-17.9,11.7-19.1,12.1l-0.1,0L249.5,297.5z"/>
					</g>
					<g>
						<rect x="249" y="230.8" class="st2" width="2" height="16.1"/>
					</g>
					<g>
						<rect x="249" y="275.2" class="st2" width="2" height="21.3"/>
					</g>
					<g>
						
							<rect x="259.1" y="248" transform="matrix(0.7071 -0.7071 0.7071 0.7071 -99.3011 258.2142)" class="st2" width="5.9" height="2"/>
					</g>
					<g>
						
							<rect x="234.9" y="272.2" transform="matrix(0.7071 -0.7071 0.7071 0.7071 -123.4809 248.1987)" class="st2" width="5.9" height="2"/>
					</g>
					<g>
						<polygon class="st2" points="239.2,251.8 235.1,247.6 236.5,246.2 240.6,250.3 						"/>
					</g>
					<g>
						
							<rect x="261" y="270.2" transform="matrix(0.7071 -0.7071 0.7071 0.7071 -116.3967 265.3014)" class="st2" width="2" height="5.9"/>
					</g>
				</g>
			</g>
		</g>
		<g>
			<g>
				<path class="st2" d="M63.3,75.6h-2V49.2c0-3.9,3-8.5,6.9-8.5h6.7v2h-6.7c-2.6,0-4.8,3.6-4.8,6.5C63.3,49.2,63.3,75.6,63.3,75.6z
					"/>
			</g>
			<g>
				<path class="st2" d="M98.6,98H68.2c-3.9,0-6.8-2.9-6.8-6.7v-9.7h2v9.7c0,2.8,2,4.7,4.8,4.7h30.4L98.6,98L98.6,98z"/>
			</g>
			<g>
				<rect x="101.7" y="96" class="st2" width="2.5" height="2"/>
			</g>
			<g>
				<path class="st2" d="M108.5,98h-1.6v-2h1.6c2.9,0,6.5-2.1,6.5-4.7V74.1l0.2-0.6l16.4-19.7h-15.6l-1-1v-3.5
					c0-2.8-3.7-6.5-6.5-6.5H91.7v-2h16.8c3.9,0,8.5,4.6,8.5,8.5v2.5h16.8l0.8,1.6L117,74.4v16.9C116.9,95.2,112.5,98,108.5,98z"/>
			</g>
			<g>
				<rect x="84.3" y="40.7" class="st2" width="2.9" height="2"/>
			</g>
		</g>
		<g>
			<g>
				<g id="XMLID_33_">
					<g>
						<path class="st6" d="M285.3,130.9c7.7,0,14,6.3,14,14c0,4.4-2,8.2-5.1,10.8v0l-1.8-5.5h-13.2l-2.3,5.9
							c-3.4-2.6-5.7-6.6-5.7-11.3C271.3,137.2,277.5,130.9,285.3,130.9z M290.5,141.9c0-2.9-2.4-5.3-5.3-5.3c-2.9,0-5.3,2.4-5.3,5.3
							c0,2.9,2.4,5.3,5.3,5.3S290.5,144.8,290.5,141.9z"/>
						<path class="st9" d="M294.2,155.7L294.2,155.7c-2.4,2-5.5,3.2-8.9,3.2c-3.1,0-6-1-8.4-2.8l2.3-5.9h13.2L294.2,155.7z"/>
						<path class="st9" d="M285.3,136.6c2.9,0,5.3,2.4,5.3,5.3c0,2.9-2.4,5.3-5.3,5.3c-2.9,0-5.3-2.4-5.3-5.3
							C280,139,282.4,136.6,285.3,136.6z"/>
						<path class="st6" d="M249.8,85.3c7.7,0,14,6.3,14,14c0,4.3-2,8.2-5.1,10.8l-1.8-5.5h-13.2l-2.3,5.9c-3.4-2.6-5.7-6.6-5.7-11.3
							C235.8,91.6,242.1,85.3,249.8,85.3z M255.1,96.3c0-2.9-2.4-5.3-5.3-5.3c-2.9,0-5.3,2.3-5.3,5.3c0,2.9,2.4,5.3,5.3,5.3
							C252.7,101.6,255.1,99.2,255.1,96.3z"/>
						<path class="st6" d="M249.8,176.5c7.7,0,14,6.3,14,14c0,4.4-2,8.2-5.1,10.8l-1.8-5.5h-13.2l-2.3,5.9
							c-3.4-2.6-5.7-6.6-5.7-11.3C235.8,182.8,242.1,176.5,249.8,176.5z M255.1,187.5c0-2.9-2.4-5.3-5.3-5.3c-2.9,0-5.3,2.4-5.3,5.3
							c0,2.9,2.4,5.3,5.3,5.3C252.7,192.7,255.1,190.4,255.1,187.5z"/>
						<path class="st9" d="M256.9,104.7l1.8,5.5c-2.4,2-5.5,3.2-8.9,3.2c-3.1,0-6-1-8.4-2.8l2.3-5.9H256.9z"/>
						<path class="st9" d="M256.9,195.8l1.8,5.5c-2.4,2-5.5,3.2-8.9,3.2c-3.1,0-6-1-8.4-2.8l2.3-5.9H256.9z"/>
						<circle class="st9" cx="249.8" cy="96.3" r="5.3"/>
						<circle class="st9" cx="249.8" cy="187.5" r="5.3"/>
					</g>
					<g>
						<g>
							<path class="st2" d="M285.3,148.2c-3.5,0-6.3-2.8-6.3-6.3s2.8-6.3,6.3-6.3s6.3,2.8,6.3,6.3
								C291.5,145.4,288.7,148.2,285.3,148.2z M285.3,137.6c-2.4,0-4.3,1.9-4.3,4.3c0,2.4,1.9,4.3,4.3,4.3s4.3-1.9,4.3-4.3
								C289.5,139.6,287.6,137.6,285.3,137.6z"/>
						</g>
						<g>
							<polygon class="st2" points="277.9,156.6 276,155.8 278.3,149.9 279.2,149.2 292.4,149.2 293.3,149.9 295.1,155.4 
								293.3,156.1 291.7,151.2 279.9,151.2 							"/>
						</g>
						<g>
							<path class="st2" d="M276,135.8l-1.4-1.4c0.6-0.6,1.2-1.2,1.9-1.7l1.2,1.6C277.1,134.8,276.5,135.3,276,135.8z"/>
						</g>
						<g>
							<path class="st2" d="M285.3,159.9c-3.3,0-6.4-1-9-3c-3.9-2.9-6.1-7.3-6.1-12.1c0-2.1,0.4-4.2,1.3-6.1l1.8,0.8
								c-0.7,1.7-1.1,3.4-1.1,5.3c0,4.1,1.9,8,5.3,10.4c2.3,1.7,4.9,2.6,7.8,2.6c3,0,6-1.1,8.3-3c3-2.5,4.7-6.1,4.7-10
								c0-7.2-5.8-13-13-13c-1.9,0-3.8,0.4-5.5,1.2l-0.9-1.8c2-0.9,4.1-1.4,6.4-1.4c8.3,0,15,6.7,15,15c0,4.5-2,8.7-5.5,11.6
								C292.2,158.7,288.8,159.9,285.3,159.9z"/>
						</g>
						<g>
							<path class="st2" d="M249.8,193.7c-3.4,0-6.3-2.8-6.3-6.3c0-2.2,1.2-4.3,3.1-5.4l1,1.7c-1.3,0.8-2.1,2.2-2.1,3.7
								c0,2.4,1.9,4.3,4.3,4.3c2.4,0,4.3-1.9,4.3-4.3c0-2.4-1.9-4.3-4.3-4.3v-2c3.4,0,6.3,2.8,6.3,6.3S253.3,193.7,249.8,193.7z"/>
						</g>
						<g>
							<polygon class="st2" points="242.4,202.1 240.5,201.4 242.8,195.4 243.8,194.8 256.9,194.8 257.9,195.5 259.7,201 
								257.8,201.6 256.2,196.8 244.5,196.8 							"/>
						</g>
						<g>
							<path class="st2" d="M249.8,205.5c-3.3,0-6.3-1-8.9-3c-3.9-2.9-6.1-7.3-6.1-12.1c0-3,0.9-5.9,2.6-8.4l1.7,1.1
								c-1.5,2.2-2.2,4.7-2.2,7.3c0,4.1,1.9,8,5.3,10.4c2.3,1.7,4.9,2.6,7.8,2.6c3,0,5.9-1.1,8.3-3c3-2.5,4.7-6.1,4.7-10
								c0-7.2-5.8-13-13-13c-1.1,0-2.2,0.1-3.3,0.4l-0.5-1.9c1.2-0.3,2.5-0.5,3.8-0.5c8.3,0,15,6.7,15,15c0,4.5-2,8.7-5.5,11.6
								C256.7,204.3,253.3,205.5,249.8,205.5z"/>
						</g>
						<g>
							<path class="st2" d="M240.4,181.6l-1.5-1.4c0.6-0.7,1.4-1.3,2.1-1.9l1.2,1.6C241.5,180.5,240.9,181,240.4,181.6z"/>
						</g>
						<g>
							<path class="st2" d="M249.8,102.6c-3.4,0-6.3-2.8-6.3-6.3c0-3.4,2.8-6.3,6.3-6.3s6.3,2.8,6.3,6.3
								C256.1,99.8,253.3,102.6,249.8,102.6z M249.8,92.1c-2.4,0-4.3,1.9-4.3,4.3s1.9,4.3,4.3,4.3c2.4,0,4.3-1.9,4.3-4.3
								C254.1,94,252.1,92.1,249.8,92.1z"/>
						</g>
						<g>
							<polygon class="st2" points="242.4,111 240.5,110.3 242.8,104.3 243.8,103.7 256.9,103.7 257.9,104.4 259.7,109.9 
								257.8,110.5 256.2,105.7 244.5,105.7 							"/>
						</g>
						<g>
							<path class="st2" d="M242.7,88.4l-1.1-1.7c0.9-0.6,1.9-1.1,2.9-1.5l0.7,1.9C244.4,87.5,243.5,87.9,242.7,88.4z"/>
						</g>
						<g>
							<path class="st2" d="M249.8,114.4c-3.3,0-6.4-1-8.9-3c-3.9-2.9-6.1-7.3-6.1-12.1c0-2.9,0.8-5.7,2.4-8.1l1.7,1.1
								c-1.3,2.1-2,4.5-2,7c0,4.2,1.9,8,5.3,10.4c2.3,1.7,4.9,2.6,7.8,2.6c3,0,5.9-1.1,8.3-3c3-2.5,4.7-6.2,4.7-10
								c0-7.2-5.8-13-13-13c-0.6,0-1.3,0-1.9,0.1l-0.3-2c0.7-0.1,1.4-0.2,2.1-0.2c8.3,0,15,6.7,15,15c0,4.5-2,8.7-5.5,11.6
								C256.7,113.2,253.3,114.4,249.8,114.4z"/>
						</g>
					</g>
				</g>
			</g>
		</g>
		<g>
			<g>
				<g>
					<g>
						<rect x="225.1" y="122.5" class="st2" width="2" height="2.8"/>
					</g>
					<g>
						<rect x="234.2" y="122.5" class="st2" width="2" height="2.8"/>
					</g>
					<g>
						<rect x="243.2" y="122.5" class="st2" width="2" height="2.8"/>
					</g>
				</g>
			</g>
		</g>
		<g>
			<g>
				<rect x="207.5" y="205.5" class="st2" width="2" height="15.9"/>
			</g>
			<g>
				<rect x="199.9" y="215.9" class="st2" width="2" height="5.6"/>
			</g>
			<g>
				<rect x="214.5" y="211.2" class="st2" width="2" height="10.2"/>
			</g>
			<g>
				<rect x="222.1" y="200.4" class="st2" width="2" height="21.1"/>
			</g>
			<g>
				<rect x="229.1" y="212.1" class="st2" width="2" height="9.3"/>
			</g>
		</g>
		<g>
			<g>
				<rect x="94.3" y="147.2" class="st2" width="21.3" height="2"/>
			</g>
			<g>
				<rect x="94.3" y="140.1" class="st2" width="8" height="2"/>
			</g>
			<g>
				<rect x="94.3" y="153.6" class="st2" width="5.9" height="2"/>
			</g>
			<g>
				<rect x="105" y="153.6" class="st2" width="10.7" height="2"/>
			</g>
			<g>
				<rect x="94.3" y="160.7" class="st2" width="21.3" height="2"/>
			</g>
			<g>
				<rect x="94.3" y="167.1" class="st2" width="15.9" height="2"/>
			</g>
		</g>
		<g>
			<g id="XMLID_14_">
				<g>
					<path class="st9" d="M115.6,230.4v7.2c0,0.6-0.5,1.1-1.1,1.1H85.8h-16H41.6c-0.6,0-1.1-0.5-1.1-1.1v-7.2H115.6z"/>
					<polygon class="st10" points="115.6,216.4 115.6,230.4 40.5,230.4 40.5,212.9 45.3,208 51.1,213.8 61.1,203.8 78.4,221.1 
						83.9,215.5 93.1,224.7 108.5,209.3 					"/>
					<path class="st4" d="M88.9,187.3c1,0,3,0,3,2c0,2-2,2-3,2h-3.4v-4C86.2,187.3,88.6,187.3,88.9,187.3z"/>
					<path class="st3" d="M51.1,213.8l-5.7-5.7l-4.8,4.9v-19.8c0-0.6,0.5-1.1,1.1-1.1h33.6c0,7.1,5.7,12.8,12.8,12.8
						s12.8-5.7,12.8-12.8h0.1h13.7c0.6,0,1.1,0.5,1.1,1.1v23.3l-7.1-7.1l-15.4,15.4l-9.2-9.2l-5.6,5.6l-17.3-17.3L51.1,213.8z"/>
					<polygon class="st9" points="85.8,238.7 90.1,246.6 66.1,246.6 69.8,238.7 					"/>
					<path class="st4" d="M88.9,187.3c-0.3,0-2.8,0-3.4,0v4v5.4c0.4,0,2.4,0,3.7,0c0.4,0,0.8,0,1,0c2,0,2.7-1.3,2.7-2.7
						c0-1.3-0.7-2.7-2.7-2.7H89c1,0,3,0,3-2C92,187.3,90,187.3,88.9,187.3z M87.9,179.2c7.1,0,12.8,5.7,12.8,12.8
						s-5.7,12.8-12.8,12.8S75.1,199,75.1,192C75.1,184.9,80.9,179.2,87.9,179.2z"/>
					<path class="st4" d="M90.3,191.3c2,0,2.7,1.3,2.7,2.7s-0.7,2.7-2.7,2.7c-0.2,0-0.6,0-1,0c-1.3,0-3.3,0-3.7,0v-5.4h3.4H90.3z"/>
				</g>
				<g>
					<g>
						<rect x="84.6" y="184.6" class="st2" width="2" height="14.8"/>
					</g>
					<g>
						<rect x="88.3" y="196.7" class="st2" width="2" height="2.7"/>
					</g>
					<g>
						<rect x="88.3" y="184.6" class="st2" width="2" height="2.7"/>
					</g>
					<g>
						<path class="st2" d="M88.9,192.3v-2c1.7,0,2-0.3,2-1c0-0.7-0.3-1-2-1h-6v-2H89c2.7,0,4,1,4,3C93,191.3,91.6,192.3,88.9,192.3z
							"/>
					</g>
					<g>
						<path class="st2" d="M90.3,197.7h-7.4v-2h7.4c0.4,0,1.7,0,1.7-1.7c0-1.5-1-1.7-1.7-1.7h-4.7v-2h4.7c2.2,0,3.7,1.4,3.7,3.7
							S92.5,197.7,90.3,197.7z"/>
					</g>
					<g>
						<path class="st2" d="M87.9,205.8c-7.6,0-13.8-6.2-13.8-13.8c0-5.5,3.3-10.5,8.4-12.7l0.8,1.8c-4.3,1.9-7.2,6.1-7.2,10.9
							c0,6.5,5.3,11.8,11.8,11.8s11.8-5.3,11.8-11.8c0-6.5-5.3-11.8-11.8-11.8v-2c7.6,0,13.8,6.2,13.8,13.8S95.6,205.8,87.9,205.8z"
							/>
					</g>
					<g>
						
							<rect x="86.9" y="238.2" transform="matrix(0.8769 -0.4807 0.4807 0.8769 -105.8098 72.1472)" class="st2" width="2" height="9"/>
					</g>
					<g>
						
							<rect x="63.6" y="241.6" transform="matrix(0.4325 -0.9016 0.9016 0.4325 -180.2251 198.9429)" class="st2" width="8.7" height="2"/>
					</g>
					<g>
						<rect x="63.6" y="191" class="st2" width="11.5" height="2"/>
					</g>
					<g>
						<rect x="52.7" y="191" class="st2" width="5.7" height="2"/>
					</g>
					<g>
						<path class="st2" d="M114.6,239.7h-73c-1.2,0-2.1-0.9-2.1-2.1v-44.6c0-1.1,0.9-2.1,2.1-2.1h8.6v2h-8.6c0,0-0.1,0-0.1,0.1v44.6
							c0,0,0,0.1,0.1,0.1h73c0,0,0.1,0,0.1-0.1v-21.3h2v21.3C116.6,238.8,115.7,239.7,114.6,239.7z"/>
					</g>
					<g>
						<path class="st2" d="M116.6,216.4h-2v-23.3c0,0,0-0.1-0.1-0.1h-13.7v-2h13.7c1.1,0,2.1,0.9,2.1,2.1V216.4z"/>
					</g>
					<g>
						<rect x="40.5" y="229.4" class="st2" width="57.8" height="2"/>
					</g>
					<g>
						<rect x="104.8" y="229.4" class="st2" width="10.9" height="2"/>
					</g>
					<g>
						<rect x="62.1" y="245.6" class="st2" width="31.5" height="2"/>
					</g>
					<g>
						<polygon class="st2" points="114.9,217.1 108.5,210.7 105.5,213.8 104.1,212.3 107.8,208.6 109.2,208.6 116.3,215.7 
							116.6,216.4 115.6,216.4 						"/>
					</g>
					<g>
						
							<rect x="98" y="217.8" transform="matrix(0.7071 -0.7071 0.7071 0.7071 -125.6837 134.1131)" class="st2" width="2.2" height="2"/>
					</g>
					<g>
						<polygon class="st2" points="92.4,225.4 83.9,216.9 79.1,221.8 77.7,221.8 61.1,205.2 58,208.2 56.6,206.8 60.4,203.1 
							61.8,203.1 78.4,219.7 83.2,214.8 84.7,214.8 93.1,223.3 95.4,221 96.8,222.4 93.8,225.4 						"/>
					</g>
					<g>
						<polygon class="st2" points="50.4,214.5 45.3,209.4 41.2,213.6 39.8,212.2 44.6,207.3 46.1,207.3 51.1,212.3 53.5,209.9 
							54.9,211.4 51.8,214.5 						"/>
					</g>
				</g>
			</g>
		</g>
		<g>
			<path class="st4" d="M715.7,304.5l-0.2-2c1.1-0.1,25.8-2.4,25.6-26.5l2,0C743.4,302,715.9,304.5,715.7,304.5z"/>
		</g>
		<g>
			<g>
				<path class="st11" d="M730.6,225.8c0,0-1.1-0.4-2.8-1l0.6-1.9c1.8,0.6,2.8,1,2.9,1L730.6,225.8z"/>
			</g>
			<g>
				<path class="st11" d="M721.7,293.5l-0.8-1.8c1.8-0.8,3.3-1.9,4.6-3.3l1.5,1.4C725.4,291.4,723.7,292.6,721.7,293.5z
					 M730.5,284.4l-1.8-0.8c0.7-1.5,1.1-3.1,1.3-4.7c0-0.3,0.1-0.5,0.1-0.8l2,0.1c0,0.3,0,0.7-0.1,1
					C731.7,281,731.2,282.7,730.5,284.4z M728.8,272.7c-0.8-1.6-1.9-3.2-3.3-4.8l1.5-1.3c1.6,1.7,2.8,3.5,3.7,5.2L728.8,272.7z
					 M721.1,263.9c-1.5-1.2-3.2-2.3-4.9-3.4l1-1.7c1.8,1.1,3.6,2.3,5.2,3.5L721.1,263.9z M710.8,257.8l-0.5-0.3
					c-1.5-0.7-3.3-1.5-5-2.4l0.9-1.8c1.7,0.9,3.4,1.7,4.9,2.4l0.5,0.3L710.8,257.8z M699.9,252c-2-1.3-3.6-2.6-4.9-4l1.5-1.4
					c1.2,1.3,2.7,2.5,4.5,3.7L699.9,252z M691.6,242.5c-0.5-1.3-0.7-2.7-0.7-4.1v-0.2c0-0.8,0.1-1.5,0.2-2.3l2,0.3
					c-0.1,0.6-0.2,1.3-0.2,2v0.2c0,1.2,0.2,2.3,0.6,3.4L691.6,242.5z M695.2,231.1l-1.6-1.2c1.2-1.6,2.8-3.1,4.7-4.4l1.1,1.7
					C697.6,228.4,696.2,229.7,695.2,231.1z M704.6,224.6l-0.7-1.9c1.9-0.7,3.9-1.3,6-1.7l0.4,2C708.3,223.4,706.3,223.9,704.6,224.6
					z M722,223.3c-2.1-0.4-4.1-0.7-5.9-0.8l0.1-2c1.9,0.1,4,0.4,6.2,0.8L722,223.3z"/>
			</g>
			<g>
				<path class="st11" d="M713.2,295.3c-0.3,0-0.5,0-0.8,0l0.1-2c1,0,2,0,2.9-0.1l0.2,2C714.7,295.3,713.9,295.3,713.2,295.3z"/>
			</g>
		</g>
		<g>
			<rect x="700.9" y="188.5" class="st4" width="23.8" height="2"/>
		</g>
		<g>
			<g>
				<rect x="711.8" y="178.5" class="st11" width="2" height="3"/>
			</g>
			<g>
				<path class="st11" d="M713.8,172.8h-2v-5.6h2V172.8z M713.8,161.6h-2v-5.6h2V161.6z M713.8,150.3h-2v-5.6h2V150.3z M713.8,139.1
					h-2v-5.6h2V139.1z M713.8,127.8h-2v-5.6h2V127.8z"/>
			</g>
			<g>
				<rect x="711.8" y="113.5" class="st11" width="2" height="3"/>
			</g>
		</g>
		<g>
			<rect x="638" y="234" transform="matrix(0.5779 -0.8161 0.8161 0.5779 87.664 639.5407)" class="st4" width="48.3" height="2"/>
		</g>
		<g>
			<g>
				<rect x="611.1" y="224" class="st11" width="2" height="3"/>
			</g>
			<g>
				<path class="st11" d="M613.1,287.3h-2v-6h2V287.3z M613.1,275.2h-2v-6h2V275.2z M613.1,263.2h-2v-6h2V263.2z M613.1,251.1h-2v-6
					h2V251.1z M613.1,239.1h-2v-6h2V239.1z"/>
			</g>
			<g>
				<rect x="611.1" y="293.3" class="st11" width="2" height="3"/>
			</g>
		</g>
		<g>
			<polygon class="st4" points="540.8,303.5 517.6,303.5 517.6,301.5 539.8,301.5 539.8,270.5 541.8,270.5 541.8,302.5 			"/>
		</g>
		<g>
			<g>
				<rect x="527.6" y="222.2" class="st11" width="3" height="2"/>
			</g>
			<g>
				<path class="st11" d="M567.6,252.1l-1.6-1.2c1.2-1.6,2.1-3.3,2.6-5.1l1.9,0.6C569.9,248.5,568.9,250.4,567.6,252.1z
					 M569.3,240.1c-0.1-2-0.5-3.9-1.1-5.6l1.9-0.7c0.8,2,1.2,4.1,1.3,6.3L569.3,240.1z M565.1,229.6c-1.3-1.4-2.8-2.5-4.6-3.4
					l0.9-1.8c2,1,3.7,2.3,5.2,3.9L565.1,229.6z M555,224.4c-1.2-0.2-2.4-0.3-3.7-0.3H549v-2h2.3c1.4,0,2.7,0.1,4,0.3L555,224.4z
					 M542.9,224.2h-6.1v-2h6.1V224.2z"/>
			</g>
			<g>
				<path class="st11" d="M560.3,258.3l-1-1.7c0.9-0.5,1.7-1,2.5-1.5l1.2,1.6C562.1,257.2,561.2,257.7,560.3,258.3z"/>
			</g>
		</g>
		<g>
			<g>
				<rect x="232.8" y="98" class="st11" width="3" height="2"/>
			</g>
			<g>
				<path class="st11" d="M429.4,109c-1.1-1.8-1.7-3.9-1.7-6.1v-0.2h2v0.2c0,1.8,0.5,3.6,1.4,5.1L429.4,109z M226.8,100h-0.2
					c-2.2,0-4.3-0.7-6.1-2.1l1.2-1.6c1.4,1.1,3.1,1.7,4.8,1.7h0.2L226.8,100L226.8,100z M429.7,96.7h-2v-6.1h2V96.7z M216.9,92.4
					c-0.3-1.1-0.5-2.3-0.5-3.4v-2.9h2V89c0,1,0.1,1.9,0.4,2.8L216.9,92.4z M429.7,84.5h-2v-6.1h2V84.5z M218.3,80.1h-2V74h2V80.1z
					 M429.7,72.4h-2v-6.1h2V72.4z M218.3,67.9h-2v-4.6c0-0.5,0-1.1,0.1-1.6l2,0.3c-0.1,0.4-0.1,0.9-0.1,1.3L218.3,67.9L218.3,67.9z
					 M427.3,60.6c-0.6-1.8-1.6-3.3-3.1-4.4l1.2-1.6c1.8,1.4,3.1,3.2,3.8,5.4L427.3,60.6z M220.8,57.2l-1.5-1.4
					c1.6-1.7,3.5-2.8,5.7-3.2l0.4,2C223.7,54.9,222.1,55.8,220.8,57.2z M419.2,54.4c-0.1,0-0.3,0-0.5,0h-5.6v-2h5.6
					c0.2,0,0.4,0,0.6,0L419.2,54.4z M407.1,54.3h-6.1v-2h6.1V54.3z M395,54.3h-6.1v-2h6.1V54.3z M382.9,54.3h-6.1v-2h6.1V54.3z
					 M370.7,54.3h-6.1v-2h6.1V54.3z M358.6,54.3h-6.1v-2h6.1V54.3z M346.5,54.3h-6.1v-2h6.1V54.3z M334.4,54.3h-6.1v-2h6.1V54.3z
					 M322.2,54.3h-6.1v-2h6.1V54.3z M310.1,54.3H304v-2h6.1V54.3z M298,54.3h-6.1v-2h6.1V54.3z M285.9,54.3h-6.1v-2h6.1V54.3z
					 M273.7,54.3h-6.1v-2h6.1V54.3z M261.6,54.3h-6.1v-2h6.1V54.3z M249.5,54.3h-6.1v-2h6.1V54.3z M237.4,54.3h-6.1v-2h6.1V54.3z"/>
			</g>
			<g>
				<path class="st11" d="M440.4,114.7l-2.8-0.7c-1.1,0-2.1-0.2-3.2-0.6l0.7-1.9c0.8,0.3,1.7,0.5,2.6,0.5l0.2,0l2.9,0.7L440.4,114.7
					z"/>
			</g>
			<g>
				<path class="st11" d="M427.2,180.5c-1.5,0-3-0.1-4.5-0.2l0.2-2c1.9,0.2,3.9,0.2,5.9,0.2l0.1,2
					C428.3,180.5,427.7,180.5,427.2,180.5z M434.9,179.9l-0.3-2c2-0.4,3.9-0.9,5.6-1.5l0.7,1.9C439.1,178.9,437,179.5,434.9,179.9z
					 M416.6,179.2c-2.1-0.5-4-1.3-5.8-2.2l0.9-1.8c1.7,0.8,3.5,1.5,5.4,2L416.6,179.2z M446.5,175.5l-1.1-1.7c1.6-1,3-2.3,4.3-3.6
					l0.1-0.1l1.5,1.3l-0.1,0.1C449.7,173,448.1,174.3,446.5,175.5z M454.8,166.3l-1.8-1c0.9-1.6,1.6-3.4,2.3-5.3l1.9,0.6
					C456.5,162.7,455.7,164.6,454.8,166.3z M458.6,154.6l-2-0.3c0.3-1.8,0.5-3.8,0.6-5.9l2,0.1C459.1,150.7,458.9,152.7,458.6,154.6
					z M457.2,142.6c-0.1-2-0.3-4-0.6-5.9l2-0.3c0.3,1.9,0.5,4,0.6,6.1L457.2,142.6z M455.3,131c-0.6-1.9-1.4-3.7-2.2-5.3l1.8-1
					c1,1.7,1.8,3.7,2.4,5.7L455.3,131z M449.8,120.9l-0.1-0.1c-1.5-1.6-2.8-2.8-4.2-3.8l1.2-1.6c1.5,1,2.9,2.4,4.5,4.1l0.1,0.1
					L449.8,120.9z"/>
			</g>
			<g>
				<path class="st11" d="M405.6,173.6c-0.8-0.7-1.5-1.4-2.3-2.2l1.5-1.4c0.6,0.7,1.4,1.4,2.1,2L405.6,173.6z"/>
			</g>
		</g>
		<g>
			<path class="st4" d="M411.9,134.1l-2-0.3c0.5-2.9,1.6-5.5,3.2-7.7c2.4-3.3,5.5-5.4,9.4-6.3l0.5,1.9c-3.4,0.8-6.2,2.7-8.3,5.6
				C413.3,129.2,412.4,131.5,411.9,134.1z"/>
		</g>
		<g>
			<g>
				<g>
					<path class="st11" d="M459.4,293.4c-1,0-2.1,0-3.1-0.1l0.1-2c1,0.1,1.9,0.1,2.9,0.1V293.4z"/>
				</g>
				<g>
					<path class="st11" d="M450.4,292.5c-2-0.5-4-1.1-5.8-1.9l0.8-1.8c1.7,0.7,3.5,1.3,5.4,1.8L450.4,292.5z M439.4,287.5
						c-1.3-1-2.4-2-3.5-3.2c-0.3-0.3-0.6-0.7-0.9-1l1.5-1.3c0.3,0.3,0.5,0.6,0.8,1c1,1.1,2.1,2.1,3.2,3L439.4,287.5z M431.8,278.2
						c-0.9-1.7-1.6-3.6-2.2-5.6l1.9-0.6c0.5,1.9,1.2,3.7,2,5.3L431.8,278.2z M428.3,266.7c-0.3-1.9-0.5-3.9-0.5-5.9l2-0.1
						c0.1,2,0.3,3.9,0.5,5.7L428.3,266.7z M429.8,254.9l-2-0.1c0.1-2.1,0.3-4.1,0.6-5.9l2,0.3C430.1,251,429.9,252.9,429.8,254.9z
						 M431.7,243.6l-1.9-0.6c0.6-2,1.4-3.9,2.3-5.6l1.8,0.9C433,240,432.3,241.8,431.7,243.6z M437.1,233.8l-1.5-1.3
						c0.1-0.1,0.2-0.2,0.3-0.4c1.3-1.4,2.7-2.7,4.2-3.7l1.1,1.6c-1.4,1-2.7,2.1-3.9,3.4L437.1,233.8z M446.2,227.3l-0.8-1.9
						c1.8-0.7,3.8-1.3,5.8-1.7l0.4,2C449.7,226.1,447.9,226.6,446.2,227.3z M463,225.1c-1.1-0.1-2.4-0.1-3.6-0.1
						c-0.7,0-1.5,0-2.2,0.1l-0.1-2c0.8,0,1.6-0.1,2.3-0.1c1.3,0,2.5,0,3.7,0.1L463,225.1z"/>
				</g>
				<g>
					<path class="st11" d="M471.5,226.8c-0.9-0.3-1.8-0.6-2.8-0.8l0.5-1.9c1,0.2,2,0.5,3,0.9L471.5,226.8z"/>
				</g>
			</g>
		</g>
		<g>
			<g>
				<path class="st4" d="M472.9,303.5l-0.5-2c7.3-1.7,13.3-5,17.8-9.8c6.1-6.5,9.6-15.8,10.3-27.6l2,0.1c-0.8,12.3-4.5,22-10.9,28.8
					C486.9,298.2,480.5,301.7,472.9,303.5z"/>
			</g>
		</g>
		<g>
			<rect x="666.1" y="101.8" class="st4" width="2" height="87.4"/>
		</g>
		<g>
			<g>
				<rect x="305" y="142.6" class="st11" width="3" height="2"/>
			</g>
			<g>
				<path class="st11" d="M350.5,144.6h-5.3v-2h5.3V144.6z M339.9,144.6h-5.3v-2h5.3V144.6z M329.3,144.6h-5.3v-2h5.3V144.6z
					 M318.6,144.6h-5.3v-2h5.3V144.6z"/>
			</g>
			<g>
				<rect x="355.9" y="142.6" class="st11" width="3" height="2"/>
			</g>
		</g>
		<g>
			<rect x="317.6" y="152.7" class="st4" width="27.4" height="2"/>
		</g>
		<g>
			<g>
				<path class="st11" d="M759.5,228l-0.8-1.9c0.9-0.4,1.8-0.7,2.9-1l0.6,1.9C761.2,227.4,760.3,227.7,759.5,228z"/>
			</g>
			<g>
				<path class="st11" d="M777.7,259.2l-1.5-1.3c0.8-1,1.8-1.9,2.9-2.6c0.6-0.4,1.2-0.9,1.8-1.3l1.2,1.6c-0.6,0.4-1.2,0.9-1.8,1.3
					C779.3,257.6,778.5,258.4,777.7,259.2z M786.9,252l-1.3-1.5c1.7-1.4,3-2.7,4.2-4l1.5,1.3C790.1,249.2,788.6,250.5,786.9,252z
					 M794.8,242.8l-1.8-0.9c0.8-1.7,1.4-3.4,1.5-5.3l2,0.2C796.3,238.9,795.8,240.8,794.8,242.8z M793.7,231.4
					c-0.8-1.4-2.1-2.8-3.7-3.9l1.2-1.6c1.9,1.3,3.4,2.9,4.3,4.6L793.7,231.4z M767.9,225.5l-0.4-1.9c2-0.5,4-0.8,5.9-1.1l0.3,2
					C771.8,224.7,769.8,225.1,767.9,225.5z M784.9,225c-1.3-0.4-2.7-0.7-4-0.8c-0.5,0-1-0.1-1.5-0.1l0-2c0.6,0,1.1,0,1.7,0.1
					c1.5,0.1,3,0.4,4.4,0.9L784.9,225z"/>
			</g>
			<g>
				<path class="st11" d="M774,266.8h-1c0-0.6,0-1.8,0.3-3.2l2,0.4c-0.3,1.2-0.3,2.2-0.3,2.7L774,266.8z"/>
			</g>
		</g>
		<g>
			<g>
				<rect x="320.4" y="290.4" class="st11" width="2" height="3"/>
			</g>
			<g>
				<path class="st11" d="M331.5,337.1c-2.3,0-4.4-0.7-6.3-2l1.1-1.6c1.5,1,3.3,1.6,5.1,1.6l0,0L331.5,337.1L331.5,337.1z
					 M765.3,337.1h-4v-2h4c0.6,0,1.3-0.1,1.9-0.2l0.4,2C766.8,337,766.1,337.1,765.3,337.1z M755.3,337.1h-6v-2h6V337.1z
					 M743.2,337.1h-6v-2h6V337.1z M731.1,337.1h-6v-2h6V337.1z M719,337.1h-6v-2h6V337.1z M706.8,337.1h-6v-2h6V337.1z M694.7,337.1
					h-6v-2h6V337.1z M682.6,337.1h-6v-2h6V337.1z M670.5,337.1h-6v-2h6V337.1z M658.4,337.1h-6v-2h6V337.1z M646.3,337.1h-6v-2h6
					V337.1z M634.2,337.1h-6v-2h6V337.1z M622.1,337.1h-6v-2h6V337.1z M610,337.1h-6v-2h6V337.1z M597.9,337.1h-6v-2h6V337.1z
					 M585.8,337.1h-6v-2h6V337.1z M573.7,337.1h-6v-2h6V337.1z M561.5,337.1h-6v-2h6V337.1z M549.4,337.1h-6v-2h6V337.1z
					 M537.3,337.1h-6v-2h6V337.1z M525.2,337.1h-6v-2h6V337.1z M513.1,337.1h-6v-2h6V337.1z M501,337.1h-6v-2h6V337.1z M488.9,337.1
					h-6v-2h6V337.1z M476.8,337.1h-6v-2h6V337.1z M464.7,337.1h-6v-2h6V337.1z M452.6,337.1h-6v-2h6V337.1z M440.5,337.1h-6v-2h6
					V337.1z M428.3,337.1h-6v-2h6V337.1z M416.2,337.1h-6v-2h6V337.1z M404.1,337.1h-6v-2h6V337.1z M392,337.1h-6v-2h6V337.1z
					 M379.9,337.1h-6v-2h6V337.1z M367.8,337.1h-6v-2h6V337.1z M355.7,337.1h-6v-2h6V337.1z M343.6,337.1h-6v-2h6V337.1z
					 M773.3,333.6l-1.5-1.4c1.3-1.3,2.1-3,2.4-4.8l2,0.3C775.8,330,774.8,332,773.3,333.6z M321.2,330c-0.5-1.3-0.7-2.6-0.7-3.9
					v-2.4h2v2.4c0,1.1,0.2,2.2,0.6,3.2L321.2,330z M776.3,321.5h-2v-6h2V321.5z M322.4,317.6h-2v-6h2V317.6z M776.3,309.4h-2v-6h2
					V309.4z M322.4,305.5h-2v-6h2V305.5z"/>
			</g>
			<g>
				<rect x="774.3" y="294.3" class="st11" width="2" height="3"/>
			</g>
		</g>
		<g>
			<g id="XMLID_29_">
				<rect x="128" y="149.7" class="st9" width="11.4" height="20.5"/>
				<g>
					<polygon class="st12" points="220,159.9 221.1,180.2 217,193.6 208.1,200.4 199,200.3 166.4,200 165.9,196.6 165.9,192.8 
						203.1,195.1 214.5,188.6 217.9,177.8 					"/>
					<path class="st10" d="M165.6,182.4h-10.1l-3.9-3.8l17.2-36.2l-2-1l1.5-5.1l9.7-16v0l11.9-19.7l0.3-0.4l22.5,13.8l5.5,13
						l1.7,32.9l-2.2,18l-3.3,10.8l-11.4,6.5l-37.2-2.4l0-2.1L165.6,182.4z M198.3,176.5v-11.2l3.7-9.2l0.7-7.2h0l-3.5,7.4l-4.5,7
						l-9.9,2.6l-10.3,0.2l6.2,4.3l5,1.7l6.1,1.4l0.3,4.2L198.3,176.5z"/>
					<polygon class="st13" points="213.2,478.9 217.3,487.7 208.9,492.2 203.1,492.2 198.4,482.9 204.3,483.4 					"/>
					<polygon class="st3" points="217.3,487.7 215.8,495.4 207.8,497.9 203.1,492.2 208.9,492.2 					"/>
					<path class="st3" d="M213.2,478.9l-8.9,4.5l-5.9-0.4l-4.2-26.3l0.8-0.2l5.6-3c2,6.7,12.3,24.8,12.3,24.8L213.2,478.9z"/>
					<path class="st13" d="M212.9,114l-22.5-13.8l-0.2-0.1l-2.9-5.4l0.9-14.9l3.5-2.1l3.1-5.4l-1-4.6l-5.2,0.2l-3.5,3.9l0.1-6.1
						l-3.7-6l-0.2-9l-5.5,8.6c0,0-7.2,1.1-15.6,0.8c-0.8,0-1.7-0.1-2.6-0.1l0-0.2c3.1-15.1,25.4-23.6,25.4-23.6
						c16.7-4.9,23.3,33.1,24.3,40C209.6,93.7,212.9,114,212.9,114z"/>
					<polygon class="st8" points="203.1,492.2 207.8,497.9 203.2,497.1 198.4,492.2 					"/>
					<path class="st12" d="M203,235.1c0,0,2.2,19.5,2.1,26c-0.5,18.4-9.9,67.9-9.9,67.9h-5.6c0,0,7.7-59.6,8.3-73.4
						s-6.3-47.6-6.3-47.6l-25.7-0.7l-2.6-1.3l-1-3.9l-14-2.9l-7.8-5.4l3.2-4.3l7.2,3.8l14.9,3.5l0.4,3.4l32.6,0.3l0,8.1L203,235.1z"
						/>
					<polygon class="st14" points="198.4,482.9 203.1,492.2 198.4,492.2 195.3,482.7 					"/>
					<polygon class="st12" points="198.3,165.4 198.3,176.5 192.1,177.8 191.8,173.6 185.8,172.2 180.8,170.6 174.6,166.3 
						184.8,166 194.7,163.4 199.2,156.4 202.7,149 202.7,149 202.1,156.2 					"/>
					<path class="st3" d="M200.7,453.4l-5.6,3l-0.8,0.2l-12.6-22.1v0l-2.2-7.3l-14.5-47.4l-4.5-24l-2.4-19.2l6.1-1.1l16.5,1.7
						l1.7,21.3c0,0,4.8,8.2,6.2,13.1c1.4,4.9,6.1,14,7.3,27.9h0C196.5,418.1,196.3,439.1,200.7,453.4z"/>
					<polygon class="st8" points="194.2,456.6 198.4,482.9 195.3,482.7 188.8,457.9 					"/>
					<path class="st10" d="M191.6,207.9c0,0,6.9,33.9,6.3,47.7c-0.6,13.8-8.3,73.4-8.3,73.4h-2.5H163l-6.1-0.8l-18.5-2.4l-12.2-3.6
						c0,0-2.3-65.6,1.4-88.8c1-6.4,7.7-24.9,7.7-24.9l1.3-9.4l4-5.4l7.8,5.4l14,2.9l1,3.9l2.6,1.3L191.6,207.9z"/>
					<path class="st8" d="M195.7,399.3L195.7,399.3c-1.2-13.9-5.9-23.1-7.3-27.9c-1.4-4.9-6.2-13.1-6.2-13.1l-1.7-21.3l-16.5-1.7
						l-6.1,1.1l-1.1-8.3l6.1,0.8h24.1l-2.1,29.5c0,0,7.1,11.5,8.1,16.4C194.7,381.7,195.3,390.2,195.7,399.3z"/>
					<path class="st3" d="M185,72.1l0.1-0.3l3.5-3.9l5.2-0.2l1,4.6l-3.1,5.4l-3.5,2.1l-0.9,14.9l2.9,5.4l0.2,0.1l-0.3,0.4
						l-11.9,19.7l0.8-10.9l-1.7-3c0,0-1.7-1.3-2.8-2.2c-0.5-0.4-0.9-0.7-0.9-0.7c-0.1,0-1.6-3.9-1.6-3.9l-2.8-0.9
						c3.5,0,6.8-0.8,9.2-2.7c2.4-1.9,3.1-8.8,3.2-9.2l-0.8,2.2c0,0-3,3.1-7.2,4.5c-1.9,0.7-4.1,0.9-4.1,0.9l0.1-1.3l-2.3-1.3
						l-1.4,3.3l-5.3,0.7L160,90l1.9,1l1-2.3l-3.3-1l-0.3-3.9l-0.6-6.1h-2.3l1.1-9.7l4.3-0.6l1.8,3.7l7.1,1.7l5.1-4.2l1.5-4.2
						l0.8-2.6l3.2,4.8l3,5.4L185,72.1z M191.8,72.7v-2.3h-2.3L191.8,72.7z"/>
					<polygon class="st8" points="181.6,434.5 194.2,456.6 188.8,457.9 					"/>
					<polygon class="st8" points="191.8,70.5 191.8,72.7 189.5,70.5 					"/>
					<path class="st8" d="M181.5,59.8l3.7,6l-0.1,6.1l-0.1,0.3l-0.6-0.3l-3-5.4l-3.2-4.8l-0.8,2.6l-1.5,4.2l-5.1,4.2l-7.1-1.7
						l-1.8-3.7l-4.3,0.6l-3.6,0.2l-1.7-0.5l-1.1-3.1l6,0.9l-0.1-1.5l-2.6-1.1l-4-0.4l-0.2-2.3l0-0.5c0.6,0,1.3,0.1,2.1,0.1
						c1.7,0.1,3.6,0.2,5.3,0.2c0.9,0,1.8,0.1,2.6,0.1c8.4,0.3,15.6-0.8,15.6-0.8l5.5-8.6L181.5,59.8z M168.7,64.9l5.8-1.3l-5.6-0.5
						l-6.1,0.8v1.5L168.7,64.9z"/>
					<polygon class="st8" points="174.5,470.9 175.9,470 184.2,465.5 183.5,479.8 156.9,484.8 142.5,485.5 141.2,481.6 155.5,481.6 
						167.3,474.9 					"/>
					<path class="st14" d="M184.2,465.5l-8.2,4.5l-1.4,0.8l1.4-5.3h0l5-4.2l-2.3-5.7l1.4-5.4c0.3,1.7,3,7,3.5,8.7
						C184.1,460.6,184.2,465.5,184.2,465.5z"/>
					<polygon class="st9" points="183.5,479.8 183.1,487.7 143.3,487.7 142.5,485.5 156.9,484.8 					"/>
					<path class="st13" d="M182.9,36.3c-21.2-0.1-30.5,17.3-30.7,23.6v0c-0.7,0-1.4-0.1-2.1-0.1c-2.4-0.1-4.2-0.2-4.2-0.2
						C144.9,47.1,165.9,25.4,182.9,36.3z"/>
					<path class="st15" d="M152.2,59.9c0.2-6.3,9.6-23.7,30.7-23.6c0,0-22.2,8.5-25.4,23.6l0,0.2C155.8,60.1,153.9,60,152.2,59.9
						L152.2,59.9z"/>
					<path class="st8" d="M180.9,89.1l0.8-2.2c0,0.3-0.8,7.2-3.2,9.2c-2.4,2-5.8,2.7-9.2,2.7l0.3-4.2c0,0,2.2-0.3,4.1-0.9
						C177.9,92.2,180.9,89.1,180.9,89.1z"/>
					<polygon class="st13" points="178.6,455.6 180.9,461.3 175.9,465.5 					"/>
					<path class="st3" d="M179.8,442.4l0.2,7.8l-14-3c1.3-15.2-3.5-31.3-6.9-56.2l-3.5-15.8l-3.3-15.9l-11.2-26.8l11.9,2
						c0,0,7,40.4,9.1,47c3.1,10.2,17.5,60.9,17.5,60.9L179.8,442.4L179.8,442.4z"/>
					<path class="st3" d="M180,450.2l-1.4,5.4l-2.6,9.9h0l-12.2,6.4l-6.9-5.1l0.8-0.6c0,0,8-13.3,8.3-18.9L180,450.2z"/>
					<path class="st8" d="M179.4,427.1l0.4,15.3h-0.1c0,0-14.4-50.7-17.5-60.9c-2-6.6-9.1-47-9.1-47l-11.9-2l-2.8-6.7l18.5,2.4
						l1.1,8.3l2.4,19.2l4.5,24L179.4,427.1z"/>
					<polygon class="st8" points="177.4,106.5 179,109.5 178.2,120.3 178.2,120.4 168.5,136.4 171.3,127.1 173.9,120.9 					"/>
					<path class="st8" d="M177.4,106.5l-3.4,14.4l-2.6,6.2l-2.8,9.2l-1.5,5.1l-3-1.6l3-11.1l7.6-24.4
						C175.6,105.2,177.4,106.5,177.4,106.5z"/>
					<polygon class="st8" points="163.7,471.9 175.9,465.5 174.5,470.9 167.3,474.9 167.1,474.4 					"/>
					<path class="st3" d="M161.9,105l4-9.6l1.4-3.3l2.3,1.3l-0.1,1.3l-0.3,4.2l2.8,0.9c0,0,1.5,3.9,1.6,3.9c0,0,0.4,0.3,0.9,0.7
						l-7.6,24.4l-3,11.1l-7.5-3.9l3.1-11.7l-1.6-3.7l-2.4-8.3l1.6-9l1.1-9.6l1.4,1.4c0.6,0.6,0.9,1,0.9,1L161.9,105L161.9,105z"/>
					<polygon class="st9" points="174.6,63.6 168.7,64.9 162.9,65.4 162.9,63.9 169,63.1 					"/>
					<polygon class="st12" points="167,141.4 168.9,142.4 151.7,178.7 146.7,185.4 143.8,189.3 140.6,193.6 136.6,199 129.9,201.9 
						121,195.9 115.2,183.4 122.3,191.4 126.7,192.8 134.7,192.1 149.3,174 164,139.9 					"/>
					<polygon class="st14" points="167.1,474.4 167.3,474.9 155.5,481.6 151.6,477.5 163.7,471.9 					"/>
					<polygon class="st8" points="165.9,95.3 161.9,105 161.9,104.9 160.6,96.1 					"/>
					<polygon class="st9" points="165.9,192.8 165.9,196.6 151,193.1 143.8,189.3 146.7,185.4 154.2,189.5 165.6,190.6 165.8,190.6 
											"/>
					<polygon class="st3" points="165.6,182.4 165.8,190.6 165.6,190.6 154.2,189.5 146.7,185.4 151.7,178.7 155.6,182.4 					"/>
					<path class="st10" d="M156.5,136l7.5,3.9L149.3,174l-14.6,18.1l-8,0.7l-4.4-1.4l-7.1-7.9l11.6-58.9l9-16l21.4-5.3l-1.6,9
						l2.4,8.3l1.6,3.7L156.5,136z M137.9,159.1l-5.5-7.8l-2.1,3.4l-1.5,6.2l-1.2,5.1l1.8,2.3l2.8-3v0L137.9,159.1z"/>
					<polygon class="st13" points="163.7,471.9 151.6,477.5 148,473.7 156.9,466.8 					"/>
					<path class="st8" d="M159.3,83.9l0.3,3.9l3.3,1l-1,2.3l-1.9-1l0.6,6.1c0,0-0.4-0.4-0.9-1c-1.2-1.3-3.2-3.4-3.9-4.5
						c-1.9-3.2-4.7-14.2-4.7-14.2l1-8.7l1.7,0.5l3.6-0.2l-1.1,9.7h2.3L159.3,83.9z"/>
					<polygon class="st9" points="157,64.1 157,65.6 151.1,64.7 150.3,62.7 154.3,63.1 					"/>
					<polygon class="st8" points="151.6,477.5 155.5,481.6 141.2,481.6 140.6,478.9 151.2,477.6 					"/>
					<polygon class="st3" points="148,473.7 151.6,477.5 151.2,477.6 140.6,478.9 140.1,476.5 					"/>
					<polygon class="st9" points="132.2,165.4 132.2,165.4 129.4,168.4 127.6,166.1 128.9,160.9 					"/>
				</g>
				<g>
					<g>
						<path class="st2" d="M139.8,481.9l-1.1-5.1l0.9-1.6l7.6-2.8l9.4-7.2c0.4-0.7,1.6-2.7,2.9-5.2l2.5,1.3
							c-1.7,3.2-3.1,5.5-3.1,5.6l-0.4,0.4l-10.1,7.7l-6.7,2.4l0.8,3.9L139.8,481.9z"/>
					</g>
					<g>
						<path class="st2" d="M164.7,455.9l-2.6-1.2c1.9-4.3,2.4-6.5,2.5-7.6l2.8,0.2C167.4,449.3,166.4,452.1,164.7,455.9z"/>
					</g>
					<g>
						<path class="st2" d="M182.8,465.5c-0.1-1.8-0.2-5.1-0.6-6.2c-0.2-0.6-0.8-2-1.4-3.3c-1.2-2.6-2-4.5-2.2-5.6l2.8-0.5
							c0.2,0.9,1.2,3.2,2,5c0.7,1.5,1.2,2.8,1.5,3.6c0.6,1.8,0.7,6.4,0.7,7L182.8,465.5z"/>
					</g>
					<g>
						<path class="st2" d="M183.1,489.1h-39.8l-1.4-1l-2-6.1l1.4-1.9h13.9l20.1-11.4l8.3-4.5l2.1,1.3l-1.1,22.2L183.1,489.1z
							 M144.3,486.3h37.4l0.9-18.3l-7.4,4.1l-19,10.8l-0.7,0.2h-12.3L144.3,486.3z"/>
					</g>
					<g>
						
							<rect x="150.3" y="472.2" transform="matrix(0.7282 -0.6854 0.6854 0.7282 -286.1295 233.8283)" class="st2" width="2.9" height="10.9"/>
					</g>
					<g>
						
							<rect x="160.1" y="463.4" transform="matrix(0.5984 -0.8012 0.8012 0.5984 -311.9194 318.3044)" class="st2" width="2.9" height="13.8"/>
					</g>
					<g>
						<polygon class="st2" points="177.3,465.9 174.6,465.1 178.3,451.3 165.8,448.6 166.4,445.8 180.3,448.9 181.4,450.6 						"/>
					</g>
					<g>
						<polygon class="st2" points="175.9,471.2 173.1,470.6 173.1,470.5 174.6,465.1 177.3,465.9 						"/>
					</g>
					<g>
						<polygon class="st2" points="157.8,136.7 155,136 155.1,135.7 158.1,124.4 156.6,121.2 159.3,120 160.9,123.8 160.9,124.7 
													"/>
					</g>
					<g>
						<polygon class="st2" points="155.5,117.1 154.2,112.7 154.2,112.1 155.8,103 156.9,93.5 159.3,92.7 160.7,94.1 159.6,95.3 
							158.6,103.5 157.1,112.2 158.2,116.3 						"/>
					</g>
					<g>
						
							<rect x="159.8" y="96" transform="matrix(0.9905 -0.1376 0.1376 0.9905 -12.2962 23.1471)" class="st2" width="2.9" height="9"/>
					</g>
					<g>
						<path class="st2" d="M168.4,141.9l-1.2-0.4l-1.6-0.3l0-0.2l4.4-14.5l2.6-6.1l3.2-13.4c-0.6-0.5-1.4-1.1-2.1-1.6
							c-0.3-0.2-0.5-0.4-0.7-0.5c-0.5-0.2-0.7-0.6-2.1-4.1l-2.2-0.7l-1-1.4l0.3-4.6l-0.1-0.1l-7.1,17l-2.6-1.1l7.7-18.5l2-0.7
							l2.3,1.3l0.7,1.3l-0.3,4.4l1.8,0.6l0.9,0.8c0.5,1.3,1.2,2.9,1.4,3.5c0.2,0.1,0.4,0.3,0.6,0.5c1.1,0.8,2.8,2.2,2.8,2.2l0.5,1.4
							l-3.5,14.6l-2.6,6.2L168.4,141.9z"/>
					</g>
					<g>
						<polygon class="st2" points="134.8,113.2 132.4,111.8 134.6,107.8 135.4,107.2 156.8,101.9 157.5,104.7 136.7,109.8 						"/>
					</g>
					<g>
						
							<rect x="124.5" y="125" transform="matrix(0.1939 -0.981 0.981 0.1939 -22.0979 225.9848)" class="st2" width="3.9" height="2.8"/>
					</g>
					<g>
						<polygon class="st2" points="130.4,203.2 129.1,203.1 120.2,197.1 119.7,196.5 113.9,184 113.8,183.1 123.9,132.1 
							126.7,132.6 116.7,183.2 122.1,194.9 130,200.3 135.7,197.8 150.5,177.9 167.1,143.1 155.2,137 151.3,143 148.9,141.4 
							153.6,134.3 155.4,133.9 169.6,141.2 170.2,143.1 152.9,179.5 137.7,199.8 137.1,200.3 						"/>
					</g>
					<g>
						
							<rect x="144.6" y="146.6" transform="matrix(0.5449 -0.8385 0.8385 0.5449 -57.569 190.0703)" class="st2" width="3.4" height="2.9"/>
					</g>
					<g>
						<polygon class="st2" points="133.2,166.3 131.1,164.4 141.1,153.5 142.6,151.1 145,152.7 143.3,155.3 						"/>
					</g>
					<g>
						
							<rect x="126.1" y="166.6" transform="matrix(0.6741 -0.7386 0.7386 0.6741 -81.865 150.5764)" class="st2" width="7.3" height="2.8"/>
					</g>
					<g>
						<polygon class="st2" points="128.3,169.3 126.5,166.9 126.3,165.7 127.5,160.6 130.2,161.2 129.2,165.7 130.6,167.5 						"/>
					</g>
					<g>
						<polygon class="st2" points="136.7,159.9 132.5,153.9 131.5,155.5 129.1,154 131.2,150.6 133.5,150.5 139,158.3 						"/>
					</g>
					<g>
						
							<rect x="185" y="175.5" transform="matrix(0.981 -0.1939 0.1939 0.981 -30.595 41.331)" class="st2" width="21.7" height="2.8"/>
					</g>
					<g>
						
							<rect x="175.6" y="179.1" transform="matrix(0.9854 -0.1704 0.1704 0.9854 -28.1673 32.7892)" class="st2" width="2.6" height="2.9"/>
					</g>
					<g>
						<polygon class="st2" points="165.6,183.9 155.6,183.9 154.6,183.5 150.7,179.7 152.7,177.7 156.2,181 165.5,181 172.1,179.9 
							172.6,182.7 						"/>
					</g>
					<g>
						
							<rect x="164.4" y="182.4" transform="matrix(0.9998 -2.079966e-02 2.079966e-02 0.9998 -3.9055 3.4897)" class="st2" width="2.9" height="14.1"/>
					</g>
					<g>
						
							<rect x="201.6" y="145.3" transform="matrix(9.330354e-02 -0.9956 0.9956 9.330354e-02 37.983 335.0623)" class="st2" width="2.8" height="2.8"/>
					</g>
					<g>
						<polygon class="st2" points="199.8,176.5 196.9,176.5 196.9,165.4 197,164.8 200.7,155.8 201.1,151.2 203.9,151.4 
							203.4,156.7 199.8,165.6 						"/>
					</g>
					<g>
						<path class="st2" d="M132.9,219.8l-2.7-0.9c1.7-5.3,3.4-10,3.7-10.9l1.3-9.3l2.8,0.4l-1.4,9.7
							C136.6,208.9,134.7,214.1,132.9,219.8z"/>
					</g>
					<g>
						<path class="st2" d="M128.6,236.1l-2.8-0.4c0.1-0.9,0.2-1.8,0.4-2.6c0.1-0.6,0.2-1.3,0.4-2.1l2.8,0.6
							c-0.2,0.7-0.3,1.4-0.4,1.9C128.9,234.4,128.7,235.2,128.6,236.1z"/>
					</g>
					<g>
						<path class="st2" d="M195.1,330.4l-32.3,0l-24.9-3.2l-12.2-3.6l-1-1.3c0-0.5-1.8-53.2,0.4-80.6l2.8,0.2
							c-2.1,25.1-0.7,71.7-0.4,79.2l11.1,3.3l24.4,3.1h30.8c1.4-7.6,9.2-49.9,9.7-66.5c0.2-6.4-2-25.6-2.1-25.8l-4-26.8l0-8.1l2.9,0
							l0,8l4,26.5c0.1,0.9,2.3,19.7,2.1,26.3c-0.5,18.3-9.6,66-9.9,68.1L195.1,330.4z"/>
					</g>
					<g>
						<path class="st2" d="M194.2,397.4c-0.3-6.7-0.9-15.3-2.4-22.4c-1-4.5-7.9-15.8-7.9-15.9l-0.2-0.8l2.1-29.5l2.8,0.2l-2,29
							c1.3,2.1,7.1,11.9,8,16.4c1.6,7.3,2.2,16,2.5,22.8L194.2,397.4z"/>
					</g>
					<g>
						
							<rect x="194.7" y="408.8" transform="matrix(0.9995 -3.239919e-02 3.239919e-02 0.9995 -13.2149 6.5705)" class="st2" width="2.9" height="4.4"/>
					</g>
					<g>
						<path class="st2" d="M202.5,461.4c-1.6-3.3-2.7-5.9-3.2-7.6c-3-9.8-3.8-22.6-4.3-35.1l2.9-0.1c0.5,12.3,1.3,25,4.2,34.4
							c0.5,1.6,1.5,4,3,7.2L202.5,461.4z"/>
					</g>
					<g>
						<path class="st2" d="M206.6,469.6c-0.5-0.9-0.9-1.8-1.4-2.8l2.5-1.3c0.5,0.9,0.9,1.8,1.4,2.7L206.6,469.6z"/>
					</g>
					<g>
						<path class="st2" d="M207.6,499.3l-4.6-0.8l-0.8-0.4l-4.8-4.9l-0.3-0.5l-3.1-9.5l-6.6-24.9l-7.1-23.3l2.7-0.8l7.1,23.4
							l6.5,24.9l3,9.1l4.2,4.4l3.8,0.6l6.8-2.2l1.3-6.4l-4.2-9.1l0,0c0,0-1.4-2.5-3.2-5.9l2.5-1.4c1.9,3.4,3.3,5.9,3.3,5.9l0.4,0.8
							l4.1,8.8l0.1,0.9l-1.5,7.7l-1,1.1l-8,2.5L207.6,499.3z"/>
					</g>
					<g>
						<polygon class="st2" points="180.2,434.9 163.5,380 159,355.9 155.5,328.3 158.3,328 161.8,355.5 166.3,379.4 183,434.1 
													"/>
					</g>
					<g>
						<path class="st2" d="M167.5,447.4l-2.8-0.3c0.9-10-1-20.6-3.4-34c-1.1-6.5-2.4-13.8-3.6-22l-3.4-15.7l-3.3-15.8l-2.1-5.1
							l2.6-1.1l2.3,5.5l3.3,15.9l3.4,15.8c1.1,8.2,2.4,15.5,3.6,22C166.5,426.2,168.4,437,167.5,447.4z"/>
					</g>
					<g>
						
							<rect x="145.1" y="343.9" transform="matrix(0.9232 -0.3843 0.3843 0.9232 -121.4696 82.8465)" class="st2" width="2.8" height="2.9"/>
					</g>
					<g>
						
							<rect x="139.6" y="325.2" transform="matrix(0.9231 -0.3845 0.3845 0.9231 -116.8847 79.7816)" class="st2" width="2.8" height="13.9"/>
					</g>
					<g>
						
							<rect x="178.3" y="427.1" transform="matrix(0.9996 -2.839991e-02 2.839991e-02 0.9996 -12.3862 5.2809)" class="st2" width="2.9" height="23.1"/>
					</g>
					<g>
						<polygon class="st2" points="204.2,484.8 195.2,484.1 195.4,481.3 204,481.9 212.6,477.6 213.9,480.1 205,484.6 						"/>
					</g>
					<g>
						<polygon class="st2" points="208.9,493.6 198.4,493.6 198.4,490.8 208.5,490.8 216.7,486.4 218,488.9 209.6,493.5 						"/>
					</g>
					<g>
						<polygon class="st2" points="189.1,459.2 188.4,456.5 194.5,455.1 200,452.2 201.3,454.7 195.3,457.8 						"/>
					</g>
					<g>
						<path class="st2" d="M160.9,97.5l-1.2-0.4l-0.9-1c-2.2-2.4-3.5-3.9-4.1-4.7c-2-3.3-4.7-14.1-4.8-14.6l0-0.5l1-8.3l-1.9-5.2
							l-0.2-2.3l2.8-0.2l0.2,2.1l1.8,4.9l0.1,0.7l-1,8.4c0.8,3.2,3,11.2,4.4,13.5c0.3,0.5,1.1,1.6,3.7,4.3l0.4,0.4l4.6-0.6l0.4,2.8
							L160.9,97.5z"/>
					</g>
					<g>
						
							<rect x="181.1" y="84.7" transform="matrix(0.3232 -0.9463 0.9463 0.3232 41.5682 230.4453)" class="st2" width="1.6" height="2.8"/>
					</g>
					<g>
						<path class="st2" d="M169.7,96l-0.3-2.8c0,0,2.1-0.3,3.9-0.9c3.2-1.1,5.7-3.3,6.4-4l0.6-1.9l2.7,0.9l-0.8,2.2l-0.3,0.5
							c-0.1,0.1-3.3,3.3-7.8,4.9C172.1,95.7,169.8,96,169.7,96z"/>
					</g>
					<g>
						<polygon class="st2" points="163.2,86.4 162.4,86.4 159.1,85.3 157.3,85.4 157.1,82.6 159.3,82.4 159.8,82.5 162.9,83.6 
							168.3,82.3 168.9,85.1 						"/>
					</g>
					<g>
						<polygon class="st2" points="170.5,69.9 165.2,69.7 165.4,66.8 170.3,67.1 172.1,66.2 173.4,68.7 171.2,69.8 						"/>
					</g>
					<g>
						<polygon class="st2" points="160.1,79.2 156.5,79.2 155.1,77.6 155.9,69.6 154,69.7 153.5,69.6 151.8,69.1 152.6,66.4 
							154.1,66.8 157.5,66.6 159,68.2 158.1,76.3 160.1,76.3 						"/>
					</g>
					<g>
						<path class="st2" d="M212.1,115.2l-22.6-13.9l-0.5-0.5l-2.9-5.4l-0.2-0.8l0.9-14.9l0.7-1.1l3.1-1.9l2.6-4.6l-0.6-2.9l-3.4,0.1
							l-3.1,3.4l-2.5-1l0.1-5.7l-3.5-5.6l-0.2-0.7l-0.1-4.3l-3,4.7l-1,0.6c-0.3,0-7.4,1.1-15.9,0.9c-0.7,0-1.4,0-2.2-0.1l-7.8-0.3
							c-2.4-0.1-4.2-0.2-4.2-0.2l-1.3-1.3c-0.7-7.7,6.1-18.2,15.5-23.9c8-4.9,16.2-5.2,23.1-1c3.1-0.8,6.1-0.2,8.8,1.6
							c12.1,7.8,16.4,38.5,16.6,39.8c2.4,17.1,5.6,37.5,5.7,37.7L212.1,115.2z M191.3,99.1l19.6,12c-1-6.3-3.4-21.5-5.2-34.7
							c-1.4-10.6-6.5-32-15.3-37.8c-2.3-1.5-4.6-1.8-7.1-1.1l-1.2-0.2c-8.2-5.3-16.4-1.8-20.6,0.8c-7.9,4.8-13.9,13.4-14.1,20
							c0.7,0,1.7,0.1,2.9,0.2l7.8,0.3c0.7,0,1.5,0.1,2.2,0.1c6.8,0.2,12.8-0.5,14.7-0.7l5.1-8l2.6,0.7l0.2,8.6l3.5,5.6l0.2,0.8
							l0,2.3l0.9-1.1l1-0.5l5.2-0.2l1.4,1.1l1,4.6l-0.1,1l-3.1,5.4l-0.5,0.5l-2.8,1.7l-0.8,13.8L191.3,99.1z"/>
					</g>
					<g>
						<polygon class="st2" points="218.1,149 217,127.3 211.6,114.6 214.2,113.5 219.7,126.4 219.8,126.9 220.9,148.9 						"/>
					</g>
					<g>
						
							<rect x="218.5" y="156.1" transform="matrix(0.9987 -5.080045e-02 5.080045e-02 0.9987 -7.7105 11.3745)" class="st2" width="2.8" height="2.5"/>
					</g>
					<g>
						<polygon class="st2" points="208.1,201.8 166.3,201.4 164.9,200.1 164.6,197.7 150.3,194.3 143.2,190.5 144.5,188 
							151.5,191.7 166.3,195.2 167.4,196.4 167.6,198.6 207.6,198.9 215.8,192.7 219.6,180 218.7,161.5 221.5,161.3 222.5,180.1 
							222.4,180.6 218.4,194 217.9,194.7 209,201.5 						"/>
					</g>
					<g>
						
							<rect x="164" y="126.9" transform="matrix(0.5186 -0.855 0.855 0.5186 -26.2868 210.0358)" class="st2" width="18.7" height="2.8"/>
					</g>
					<g>
						
							<rect x="175.7" y="114.4" transform="matrix(0.518 -0.8554 0.8554 0.518 -11.8793 210.6234)" class="st2" width="10.5" height="2.9"/>
					</g>
					<g>
						
							<rect x="185" y="102.2" transform="matrix(0.518 -0.8554 0.8554 0.518 2.184 211.0596)" class="st2" width="6.8" height="2.9"/>
					</g>
					<g>
						<polygon class="st2" points="181.5,78.9 179.9,76.6 182.5,74.7 183.8,71.3 186.4,72.4 184.9,76.2 184.4,76.8 						"/>
					</g>
					<g>
						
							<rect x="188.4" y="165.5" transform="matrix(0.9548 -0.2974 0.2974 0.9548 -40.8754 65.0866)" class="st2" width="10.2" height="2.9"/>
					</g>
				</g>
			</g>
		</g>
	</g>
</g>
</svg>
