<?xml version="1.0" encoding="utf-8"?>
<!-- Generator: Adobe Illustrator 24.1.1, SVG Export Plug-In . SVG Version: 6.00 Build 0)  -->
<svg version="1.1" xmlns="http://www.w3.org/2000/svg" xmlns:xlink="http://www.w3.org/1999/xlink" x="0px" y="0px"
	 viewBox="0 0 835.33 511.37" style="enable-background:new 0 0 835.33 511.37;" xml:space="preserve">
<style type="text/css">
	.st0{fill:#333053;}
	.st1{fill:#E66D31;}
	.st2{fill:#50567C;}
	.st3{fill:#8185A0;}
	.st4{fill:#FFFFFF;}
	.st5{fill:#F5F964;}
	.st6{fill:#F08583;}
	.st7{fill:#E2E2E9;}
	.st8{fill:#B1B3C5;}
	.st9{fill:#888EAA;}
	.st10{fill:#586089;}
	.st11{fill:#535B7F;}
	.st12{fill:#606B91;}
	.st13{fill:#F9AAAA;}
	.st14{fill:#E5EC4B;}
	.st15{fill:#F7D6AB;}
	.st16{fill:#F3CE9B;}
	.st17{fill:#D78950;}
</style>
<g id="bg">
	<g>
		<g>
			<path class="st0" d="M5.53,264.6c16.01,39.57,61.66,60.07,100.63,42.66c79.65-35.6,105.25-18.67,124.13-12.47
				c14.36,4.72,34.29,3.65,45.94-0.89c33.12-12.88,48.79-50.82,35.52-83.78c-7.88-19.57-22.99-30.11-36.15-35.76
				c-24.81-10.64-41.45-7.24-56.38-21.74c-13.9-13.5-7.58-54.61-12.91-67.78c-9.67-23.9-36.88-35.43-60.78-25.76
				c-11.12,4.5-19.51,12.82-24.39,22.81c-0.02,0.03-0.06,0.04-0.08,0.07c-7.13,10.68-9.06,32.97-19.38,47.9
				c-10.43,15.1-35.92,25.25-55.34,34.96C9.01,183.5-10.22,225.67,5.53,264.6z"/>
		</g>
	</g>
	<path class="st0" d="M811.89,102.65c-22.49-8.78-79.78,11-78.01,60.13c1.77,49.13,66.24,26.11,86.71,1.22
		C832.87,149.07,850.15,117.59,811.89,102.65z"/>
</g>
<g id="text">
	<g>
		<path class="st1" d="M368.72,189.4h-23.76v-35.67h-27.47v35.67h-23.76v-87.5h23.76v32.44h27.47V101.9h23.76V189.4z"/>
		<path class="st1" d="M469.51,145.53c0,14.72-3.61,25.91-10.83,33.57c-7.22,7.66-17.79,11.49-31.72,11.49
			c-13.73,0-24.25-3.85-31.57-11.55c-7.32-7.7-10.98-18.91-10.98-33.63c0-14.56,3.64-25.68,10.92-33.37
			c7.28-7.68,17.86-11.52,31.75-11.52c13.92,0,24.48,3.81,31.66,11.43C465.92,119.58,469.51,130.77,469.51,145.53z M409.3,145.53
			c0,16.92,5.88,25.38,17.65,25.38c5.98,0,10.42-2.05,13.32-6.16c2.89-4.11,4.34-10.51,4.34-19.21c0-8.74-1.47-15.19-4.4-19.36
			c-2.93-4.17-7.31-6.25-13.14-6.25C415.22,119.92,409.3,128.45,409.3,145.53z"/>
		<path class="st1" d="M578.61,189.4h-27.95l-8.38-38.12c-0.4-1.59-1.03-4.77-1.89-9.52c-0.86-4.75-1.49-8.72-1.89-11.91
			c-0.32,2.59-0.84,5.82-1.56,9.67c-0.72,3.85-1.43,7.39-2.12,10.62c-0.7,3.23-3.6,16.32-8.71,39.26h-27.95l-21.66-87.5h22.8
			l9.52,43.87c2.15,9.7,3.63,17.42,4.43,23.16c0.52-4.07,1.45-9.59,2.78-16.58c1.34-6.98,2.58-12.77,3.74-17.36l7.72-33.09h21.9
			l7.48,33.09c1.28,5.31,2.57,11.43,3.89,18.37c1.32,6.94,2.19,12.13,2.63,15.56c0.52-4.43,1.94-12.11,4.25-23.04l9.7-43.99h22.8
			L578.61,189.4z"/>
		<path class="st1" d="M643.3,189.4v-87.5h23.76v87.5H643.3z"/>
		<path class="st1" d="M724.57,189.4h-23.64v-68.17h-21.37V101.9h66.31v19.33h-21.31V189.4z"/>
		<path class="st1" d="M388.23,302.54h-27.95l-8.38-38.12c-0.4-1.59-1.03-4.77-1.89-9.52c-0.86-4.75-1.49-8.72-1.89-11.91
			c-0.32,2.59-0.84,5.82-1.56,9.67c-0.72,3.85-1.43,7.39-2.12,10.62c-0.7,3.23-3.6,16.32-8.71,39.26H307.8l-21.66-87.5h22.8
			l9.52,43.87c2.15,9.7,3.63,17.42,4.43,23.16c0.52-4.07,1.45-9.59,2.78-16.58c1.34-6.98,2.58-12.77,3.74-17.36l7.72-33.09h21.9
			l7.48,33.09c1.28,5.31,2.57,11.43,3.89,18.37c1.32,6.94,2.19,12.13,2.63,15.56c0.52-4.43,1.93-12.11,4.25-23.04l9.7-43.99h22.8
			L388.23,302.54z"/>
		<path class="st1" d="M501.76,258.67c0,14.72-3.61,25.91-10.83,33.57c-7.22,7.66-17.79,11.49-31.72,11.49
			c-13.73,0-24.25-3.85-31.57-11.55c-7.32-7.7-10.98-18.91-10.98-33.63c0-14.56,3.64-25.68,10.92-33.37
			c7.28-7.68,17.86-11.52,31.75-11.52c13.92,0,24.48,3.81,31.66,11.43C498.17,232.72,501.76,243.91,501.76,258.67z M441.56,258.67
			c0,16.92,5.88,25.38,17.65,25.38c5.98,0,10.42-2.05,13.32-6.16c2.89-4.11,4.34-10.51,4.34-19.21c0-8.74-1.47-15.19-4.4-19.36
			c-2.93-4.17-7.31-6.25-13.14-6.25C447.48,233.05,441.56,241.59,441.56,258.67z"/>
		<path class="st1" d="M541.2,270.7v31.84h-23.64v-87.5h28.67c23.78,0,35.67,8.62,35.67,25.85c0,10.13-4.95,17.97-14.84,23.52
			l25.5,38.12h-26.81l-18.55-31.84H541.2z M541.2,252.92h4.43c8.26,0,12.39-3.65,12.39-10.95c0-6.02-4.05-9.04-12.15-9.04h-4.67
			V252.92z"/>
		<path class="st1" d="M675.26,302.54h-26.69l-17.3-33.45l-7,4.19v29.27h-23.76v-87.5h23.76v38c1.2-2.35,3.61-6.08,7.24-11.19
			l18.37-26.81h25.85l-27.59,39.2L675.26,302.54z"/>
		<path class="st1" d="M741.93,275.96c0,5.43-1.38,10.24-4.13,14.45c-2.75,4.21-6.72,7.48-11.91,9.82
			c-5.19,2.33-11.27,3.5-18.25,3.5c-5.83,0-10.71-0.41-14.66-1.23c-3.95-0.82-8.06-2.24-12.33-4.28v-21.07
			c4.51,2.31,9.2,4.12,14.06,5.42c4.87,1.3,9.34,1.95,13.41,1.95c3.51,0,6.08-0.61,7.72-1.83c1.64-1.22,2.45-2.78,2.45-4.7
			c0-1.2-0.33-2.24-0.99-3.14c-0.66-0.9-1.71-1.8-3.17-2.72c-1.46-0.92-5.34-2.79-11.64-5.63c-5.71-2.59-9.99-5.11-12.84-7.54
			c-2.85-2.43-4.97-5.23-6.34-8.38c-1.38-3.15-2.06-6.88-2.06-11.19c0-8.06,2.93-14.34,8.8-18.85c5.87-4.51,13.92-6.76,24.18-6.76
			c9.06,0,18.29,2.09,27.71,6.28l-7.24,18.25c-8.18-3.75-15.24-5.63-21.19-5.63c-3.07,0-5.31,0.54-6.7,1.62
			c-1.4,1.08-2.1,2.41-2.1,4.01c0,1.72,0.89,3.25,2.66,4.61c1.77,1.36,6.59,3.83,14.45,7.42c7.54,3.39,12.78,7.03,15.71,10.92
			C740.46,265.16,741.93,270.06,741.93,275.96z"/>
		<path class="st1" d="M763.65,271.66v-5.15c0-3.91,0.8-7.21,2.39-9.9c1.6-2.69,4.43-5.32,8.5-7.87c3.23-2.03,5.56-3.87,6.97-5.51
			c1.42-1.64,2.13-3.51,2.13-5.63c0-1.67-0.76-3-2.28-3.98c-1.52-0.98-3.49-1.47-5.92-1.47c-6.03,0-13.07,2.13-21.13,6.4L746,222.28
			c9.93-5.67,20.31-8.5,31.12-8.5c8.9,0,15.88,1.96,20.95,5.86c5.07,3.91,7.6,9.24,7.6,15.98c0,4.83-1.13,9.01-3.38,12.54
			c-2.25,3.53-5.86,6.87-10.8,10.02c-4.19,2.71-6.81,4.7-7.87,5.96c-1.06,1.26-1.59,2.74-1.59,4.46v3.05H763.65z M761.08,292.6
			c0-3.67,1.07-6.5,3.2-8.5c2.13-2,5.28-2.99,9.43-2.99c3.99,0,7.05,1.01,9.19,3.02c2.13,2.02,3.2,4.84,3.2,8.47
			c0,3.63-1.11,6.44-3.32,8.44c-2.21,1.99-5.24,2.99-9.07,2.99c-3.95,0-7.04-0.99-9.28-2.96C762.2,299.1,761.08,296.27,761.08,292.6
			z"/>
	</g>
</g>
<g id="graphics">
	<g>
		<g>
			<rect x="109.52" y="486.45" class="st2" width="37.59" height="2"/>
		</g>
		<g>
			<rect x="235.8" y="493.62" class="st2" width="5.73" height="2"/>
		</g>
		<g>
			<rect x="192.46" y="493.62" class="st2" width="32.57" height="2"/>
		</g>
		<g>
			<g>
				<rect x="290.51" y="200.76" class="st3" width="3" height="2"/>
			</g>
			<g>
				<path class="st3" d="M765.93,202.76h-6.06v-2h6.06V202.76z M753.81,202.76h-6.06v-2h6.06V202.76z M741.7,202.76h-6.06v-2h6.06
					V202.76z M729.59,202.76h-6.06v-2h6.06V202.76z M717.47,202.76h-6.06v-2h6.06V202.76z M705.36,202.76h-6.06v-2h6.06V202.76z
					 M693.25,202.76h-6.06v-2h6.06V202.76z M681.14,202.76h-6.06v-2h6.06V202.76z M669.02,202.76h-6.06v-2h6.06V202.76z
					 M656.91,202.76h-6.06v-2h6.06V202.76z M644.8,202.76h-6.06v-2h6.06V202.76z M632.68,202.76h-6.06v-2h6.06V202.76z
					 M620.57,202.76h-6.06v-2h6.06V202.76z M608.46,202.76h-6.06v-2h6.06V202.76z M596.34,202.76h-6.06v-2h6.06V202.76z
					 M584.23,202.76h-6.06v-2h6.06V202.76z M572.12,202.76h-6.06v-2h6.06V202.76z M560,202.76h-6.06v-2H560V202.76z M547.89,202.76
					h-6.06v-2h6.06V202.76z M535.78,202.76h-6.06v-2h6.06V202.76z M523.66,202.76h-6.06v-2h6.06V202.76z M511.55,202.76h-6.06v-2
					h6.06V202.76z M499.44,202.76h-6.06v-2h6.06V202.76z M487.32,202.76h-6.06v-2h6.06V202.76z M475.21,202.76h-6.06v-2h6.06V202.76
					z M463.1,202.76h-6.06v-2h6.06V202.76z M450.99,202.76h-6.06v-2h6.06V202.76z M438.87,202.76h-6.06v-2h6.06V202.76z
					 M426.76,202.76h-6.06v-2h6.06V202.76z M414.65,202.76h-6.06v-2h6.06V202.76z M402.53,202.76h-6.06v-2h6.06V202.76z
					 M390.42,202.76h-6.06v-2h6.06V202.76z M378.31,202.76h-6.06v-2h6.06V202.76z M366.19,202.76h-6.06v-2h6.06V202.76z
					 M354.08,202.76h-6.06v-2h6.06V202.76z M341.97,202.76h-6.06v-2h6.06V202.76z M329.85,202.76h-6.06v-2h6.06V202.76z
					 M317.74,202.76h-6.06v-2h6.06V202.76z M305.63,202.76h-6.06v-2h6.06V202.76z"/>
			</g>
			<g>
				<rect x="771.98" y="200.76" class="st3" width="3" height="2"/>
			</g>
		</g>
		<g>
			<path class="st4" d="M62.31,91.3V49.23c0-3.33,2.51-7.49,5.85-7.49h40.33c3.33,0,7.46,4.15,7.46,7.49v3.47h17.77l-17.77,21.38
				V91.3c0,3.33-4.13,5.74-7.46,5.74H68.15C64.82,97.04,62.31,94.63,62.31,91.3z"/>
		</g>
		<g>
			<circle class="st5" cx="89.86" cy="70.49" r="13.23"/>
			<g>
				<g>
					<rect x="85.64" y="62.98" class="st2" width="2" height="15.03"/>
				</g>
				<g>
					<rect x="88.37" y="75.28" class="st2" width="2" height="2.73"/>
				</g>
				<g>
					<rect x="88.37" y="62.98" class="st2" width="2" height="2.73"/>
				</g>
				<g>
					<path class="st2" d="M90.05,70.81v-2c1.76,0,2.07-0.34,2.07-1.05c0-0.71-0.31-1.05-2.07-1.05h-6.15v-2h6.15
						c2.7,0,4.07,1.03,4.07,3.05C94.13,69.79,92.76,70.81,90.05,70.81z"/>
				</g>
				<g>
					<path class="st2" d="M91.42,76.28h-7.51v-2h7.51c0.43,0,1.73,0,1.73-1.73s-1.3-1.73-1.73-1.73h-4.78v-2h4.78
						c2.27,0,3.73,1.46,3.73,3.73S93.69,76.28,91.42,76.28z"/>
				</g>
			</g>
			<g>
				<g>
					<path class="st2" d="M98.78,81.69l-1.24-1.57c0.24-0.19,0.48-0.39,0.7-0.6l1.36,1.47C99.34,81.23,99.06,81.47,98.78,81.69z"/>
				</g>
				<g>
					<path class="st2" d="M90.7,84.76l-0.11-2c0.63-0.03,1.25-0.12,1.87-0.25l0.41,1.96C92.16,84.62,91.43,84.72,90.7,84.76z
						 M88.51,84.71c-0.73-0.07-1.45-0.2-2.16-0.38l0.5-1.94c0.61,0.16,1.23,0.27,1.86,0.33L88.51,84.71z M94.98,83.85l-0.71-1.87
						c0.59-0.22,1.16-0.49,1.71-0.8l0.99,1.74C96.33,83.28,95.66,83.59,94.98,83.85z M84.27,83.62c-0.67-0.29-1.32-0.63-1.94-1.02
						l1.06-1.69c0.53,0.33,1.09,0.63,1.67,0.88L84.27,83.62z M80.57,81.3c-0.55-0.48-1.07-1-1.54-1.56l1.52-1.3
						c0.41,0.48,0.86,0.93,1.33,1.34L80.57,81.3z M77.74,77.97c-0.38-0.62-0.72-1.28-1-1.95l1.84-0.77
						c0.24,0.58,0.53,1.14,0.86,1.68L77.74,77.97z M76.05,73.94c-0.17-0.71-0.3-1.43-0.36-2.16l1.99-0.18
						c0.06,0.63,0.16,1.25,0.31,1.86L76.05,73.94z M77.65,69.71l-2-0.13c0.05-0.73,0.15-1.46,0.3-2.17l1.95,0.43
						C77.78,68.46,77.69,69.08,77.65,69.71z M78.46,66.04l-1.86-0.73c0.26-0.68,0.58-1.34,0.95-1.98l1.73,1
						C78.96,64.88,78.69,65.46,78.46,66.04z M80.35,62.79l-1.56-1.26c0.46-0.57,0.96-1.1,1.5-1.6l1.35,1.48
						C81.18,61.84,80.74,62.3,80.35,62.79z M83.13,60.25l-1.11-1.67c0.61-0.4,1.25-0.76,1.91-1.07l0.84,1.82
						C84.2,59.6,83.65,59.91,83.13,60.25z M86.54,58.68l-0.55-1.92c0.7-0.2,1.42-0.35,2.15-0.44l0.25,1.99
						C87.76,58.38,87.14,58.51,86.54,58.68z M92.15,58.41c-0.61-0.11-1.25-0.18-1.88-0.2l0.06-2c0.73,0.02,1.47,0.1,2.18,0.23
						L92.15,58.41z"/>
				</g>
				<g>
					<path class="st2" d="M94.86,59.25c-0.28-0.12-0.57-0.24-0.86-0.34l0.66-1.89c0.34,0.12,0.67,0.25,1,0.39L94.86,59.25z"/>
				</g>
			</g>
			<g>
				<path class="st2" d="M89.62,88.36c-9.85,0-17.86-8.01-17.86-17.86c0-2.8,0.63-5.48,1.87-7.96l1.79,0.89
					c-1.1,2.21-1.66,4.59-1.66,7.07c0,8.75,7.11,15.86,15.86,15.86s15.86-7.11,15.86-15.86c0-2.55-0.62-5.08-1.78-7.32
					c-0.01-0.01-0.2-0.39-0.29-0.52l1.65-1.14c0.13,0.18,0.42,0.74,0.42,0.74c1.31,2.52,2.01,5.37,2.01,8.24
					C107.48,80.34,99.47,88.36,89.62,88.36z"/>
			</g>
			<g>
				<path class="st2" d="M76.83,61.12l-1.61-1.18c0.49-0.66,1.02-1.29,1.59-1.88l1.43,1.39C77.74,59.97,77.26,60.53,76.83,61.12z"/>
			</g>
			<g>
				<path class="st2" d="M84.24,55.57l-0.68-1.88c3.15-1.13,6.62-1.37,9.93-0.62l-0.44,1.95C90.12,54.35,87.04,54.56,84.24,55.57z"
					/>
			</g>
			<g>
				<g id="XMLID_2_">
					<g>
						<path class="st6" d="M107.41,55.86c0,2.6-1.59,4.4-3.13,6.16c-1.41,1.66-1.99,3.14-1.92,4.87l0.04,0.76h-3.9l-0.07-0.94
							c-0.18-1.88,0.47-3.86,2.16-5.91c1.37-1.63,2.27-2.89,2.27-4.29c0-1.52-0.94-2.52-2.96-2.56c-1.26,0-2.7,0.4-3.61,1.08
							l-1.08-3.17c1.3-0.83,3.39-1.48,5.66-1.48C105.36,50.39,107.41,52.98,107.41,55.86z"/>
						<path class="st6" d="M103.09,73.85c0,1.59-1.08,2.81-2.74,2.81c-1.63,0-2.74-1.22-2.74-2.81c0-1.66,1.16-2.81,2.74-2.81
							C101.97,71.03,103.06,72.19,103.09,73.85z"/>
					</g>
					<g>
						<g>
							<path class="st2" d="M99.36,51.49l-0.27-1.98c0.32-0.04,0.66-0.08,0.99-0.1l0.13,2C99.92,51.43,99.64,51.46,99.36,51.49z"/>
						</g>
						<g>
							<path class="st2" d="M102.41,68.65h-3.9l-1-0.93l-0.07-0.94c-0.22-2.2,0.59-4.43,2.38-6.62c1.33-1.58,2.05-2.62,2.05-3.65
								c0-0.71-0.22-1.53-1.98-1.56c-1.08,0-2.29,0.35-2.98,0.88l-1.55-0.47l-1.08-3.17l0.41-1.17c0.7-0.45,1.58-0.83,2.53-1.11
								l0.56,1.92c-0.48,0.14-0.93,0.31-1.34,0.5l0.42,1.24c0.91-0.39,2-0.62,3.05-0.62c2.49,0.05,3.96,1.38,3.96,3.56
								c0,1.81-1.14,3.31-2.51,4.93c-1.44,1.75-2.09,3.49-1.93,5.17l0,0.04h1.92c-0.01-1.88,0.67-3.51,2.16-5.27
								c1.5-1.72,2.9-3.31,2.9-5.52c0-2.08-1.21-3.61-3.33-4.2l0.54-1.93c2.95,0.83,4.79,3.17,4.79,6.13c0,2.96-1.79,5-3.36,6.8
								c-1.24,1.47-1.75,2.72-1.69,4.19l0.04,0.75L102.41,68.65z"/>
						</g>
						<g>
							<path class="st2" d="M100.35,77.66c-2.13,0-3.74-1.64-3.74-3.81c0-0.53,0.09-1.04,0.27-1.5l1.86,0.73
								c-0.09,0.23-0.14,0.49-0.14,0.78c0,1.08,0.7,1.81,1.74,1.81c1.06,0,1.74-0.71,1.74-1.81c-0.02-1.11-0.69-1.81-1.74-1.81
								c-0.35,0-0.66,0.08-0.93,0.23l-1-1.73c0.57-0.33,1.24-0.5,1.93-0.5c2.15,0,3.69,1.56,3.74,3.79
								C104.09,76.05,102.52,77.66,100.35,77.66z"/>
						</g>
					</g>
				</g>
			</g>
		</g>
		<g>
			<g>
				<rect x="248.83" y="173.5" class="st3" width="2" height="3"/>
			</g>
			<g>
				<path class="st3" d="M250.83,167.47h-2v-6.03h2V167.47z M250.83,155.42l-2,0c0-2.24,0.68-4.39,1.96-6.23l1.64,1.14
					C251.39,151.83,250.84,153.59,250.83,155.42z M256.64,147.02l-0.71-1.87c1.25-0.48,2.56-0.72,3.9-0.72h2.4v2h-2.4
					C258.74,146.43,257.66,146.63,256.64,147.02z"/>
			</g>
			<g>
				<rect x="268.27" y="144.43" class="st3" width="3" height="2"/>
			</g>
		</g>
		<g>
			<g>
				<rect x="153.63" y="275.65" class="st3" width="3" height="2"/>
			</g>
			<g>
				<path class="st3" d="M147.31,277.65h-6.32v-2h6.32V277.65z M134.66,277.65h-6.32v-2h6.32V277.65z M122.02,277.65h-6.32v-2h6.32
					V277.65z M109.37,277.65h-6.32v-2h6.32V277.65z M96.72,277.65H90.4v-2h6.32V277.65z"/>
			</g>
			<g>
				<rect x="81.08" y="275.65" class="st3" width="3" height="2"/>
			</g>
		</g>
		<g>
			<g>
				<rect x="284.56" y="127.92" class="st3" width="2" height="3"/>
			</g>
			<g>
				<path class="st3" d="M286.56,121.73h-2v-6.19h2V121.73z M286.56,109.36h-2v-0.33c0-1.77-0.52-3.49-1.51-4.97l1.66-1.11
					c1.2,1.81,1.84,3.91,1.84,6.08V109.36z M278.78,100.62c-1.03-0.4-2.11-0.6-3.22-0.6h-2.52v-2h2.52c1.36,0,2.68,0.25,3.94,0.73
					L278.78,100.62z"/>
			</g>
			<g>
				<rect x="263.84" y="98.02" class="st3" width="3" height="2"/>
			</g>
		</g>
		<g>
			<g>
				<rect x="249.11" y="227.74" class="st3" width="2" height="3"/>
			</g>
			<g>
				<rect x="249.11" y="214.26" class="st3" width="2" height="6.74"/>
			</g>
			<g>
				<rect x="249.11" y="204.52" class="st3" width="2" height="3"/>
			</g>
		</g>
		<g>
			<g>
				<rect x="185.83" y="319.57" class="st3" width="3" height="2"/>
			</g>
			<g>
				<path class="st3" d="M236.72,321.57h-5.99v-2h5.99V321.57z M224.75,321.57h-5.99v-2h5.99V321.57z M212.78,321.57h-5.99v-2h5.99
					V321.57z M200.81,321.57h-5.99v-2h5.99V321.57z M242.94,321.15l-0.55-1.92c1.74-0.49,3.28-1.49,4.45-2.89l1.53,1.29
					C246.95,319.33,245.07,320.55,242.94,321.15z M250.91,311.65l-1.99-0.2c0.03-0.29,0.04-0.59,0.04-0.89v-5h2v5
					C250.96,310.93,250.94,311.29,250.91,311.65z"/>
			</g>
			<g>
				<rect x="248.96" y="296.57" class="st3" width="2" height="3"/>
			</g>
		</g>
		<g>
			<g>
				<rect x="64.42" y="188.99" class="st5" width="2" height="3"/>
			</g>
			<g>
				<path class="st5" d="M66.42,182.9h-2v-6.08h2V182.9z M66.42,170.73h-2v-6.09h2V170.73z M66.42,158.56h-2v-1.87
					c0-1.28-0.27-2.51-0.79-3.68l1.82-0.82c0.64,1.42,0.97,2.93,0.97,4.5V158.56z M60.05,148.98c-1.4-0.84-3-1.29-4.63-1.29h-0.68
					v-2h0.68c1.99,0,3.95,0.55,5.66,1.58L60.05,148.98z M48.66,147.69h-6.08v-2h6.08V147.69z M36.33,147.54
					c-2.22-0.38-4.24-1.42-5.86-3.01l1.4-1.43c1.33,1.3,2.98,2.15,4.8,2.46L36.33,147.54z M27.36,138.72
					c-0.13-0.67-0.19-1.35-0.19-2.03v-4.23h2v4.23c0,0.56,0.05,1.11,0.15,1.66L27.36,138.72z M29.17,126.38h-2v-6.08h2V126.38z
					 M29.17,114.21h-2v-6.08h2V114.21z M29.17,102.04h-2v-6.08h2V102.04z M29.17,89.87h-2v-6.08h2V89.87z M29.18,77.73l-2-0.06
					c0.07-2.25,0.82-4.41,2.17-6.22l1.6,1.2C29.85,74.13,29.23,75.89,29.18,77.73z M35.32,69.47l-0.64-1.9
					c1.12-0.38,2.3-0.57,3.49-0.57h2.85v2h-2.85C37.2,69,36.24,69.16,35.32,69.47z M53.19,69h-6.08v-2h6.08V69z"/>
			</g>
			<g>
				<rect x="59.31" y="67" class="st5" width="3" height="2"/>
			</g>
		</g>
		<g>
			<g>
				<rect x="76.45" y="269.72" class="st3" width="2" height="3"/>
			</g>
			<g>
				<rect x="76.45" y="256.32" class="st3" width="2" height="6.7"/>
			</g>
			<g>
				<rect x="76.45" y="246.62" class="st3" width="2" height="3"/>
			</g>
		</g>
		<g>
			<path class="st3" d="M77.45,280.98c-2.55,0-4.63-2.08-4.63-4.63c0-2.55,2.08-4.63,4.63-4.63c2.55,0,4.63,2.08,4.63,4.63
				C82.08,278.9,80,280.98,77.45,280.98z M77.45,273.72c-1.45,0-2.63,1.18-2.63,2.63c0,1.45,1.18,2.63,2.63,2.63
				c1.45,0,2.63-1.18,2.63-2.63C80.08,274.9,78.9,273.72,77.45,273.72z"/>
		</g>
		<g>
			<g id="XMLID_36_">
				<g>
					<path class="st7" d="M259.97,271.08c2.57-2.56,4.15-6.1,4.15-10.01c0-3.92-1.59-7.45-4.15-10.01
						c-2.56-2.57-6.11-4.15-10.01-4.15v-16.15l25.24,7.69c0,5.14,0,14.95,0,29.86c0,19.41-23.16,27.53-25.23,28.22l-0.01-0.03
						v-21.26C253.87,275.23,257.41,273.64,259.97,271.08z"/>
					<path class="st5" d="M239.95,251.05c2.56-2.57,6.11-4.15,10.01-4.15c3.91,0,7.45,1.59,10.01,4.15
						c2.57,2.56,4.15,6.1,4.15,10.01c0,3.91-1.59,7.45-4.15,10.01c-2.56,2.57-6.11,4.15-10.01,4.15c-3.91,0-7.45-1.59-10.01-4.15
						c-2.57-2.56-4.15-6.1-4.15-10.01C235.79,257.15,237.38,253.61,239.95,251.05z M250.33,266.22c0.96,0,1.86,0,2.21,0
						c2.2,0,2.95-1.48,2.95-2.95c0-1.48-0.74-2.95-2.95-2.95h-1.48c1.11,0,3.32,0,3.32-2.21c0-2.21-2.21-2.21-3.32-2.21
						c-0.1,0-0.38,0-0.74,0c-0.94,0-2.47,0-2.95,0v4.42v5.9C247.73,266.22,249.08,266.22,250.33,266.22z"/>
					<path class="st5" d="M252.54,260.32c2.21,0,2.95,1.48,2.95,2.95c0,1.47-0.74,2.95-2.95,2.95c-0.35,0-1.25,0-2.21,0
						c-1.25,0-2.6,0-2.95,0v-5.9h3.69H252.54z"/>
					<path class="st5" d="M251.07,255.9c1.11,0,3.32,0,3.32,2.21c0,2.21-2.21,2.21-3.32,2.21h-3.69v-4.42c0.48,0,2.01,0,2.95,0
						C250.69,255.9,250.96,255.9,251.07,255.9z"/>
					<path class="st8" d="M239.95,271.08c2.56,2.57,6.11,4.15,10.01,4.15v21.26l0.01,0.03c-0.1,0.03-0.15,0.05-0.15,0.05
						s-24.79-8.5-24.79-28.27c0-17.86,0.13-24.83,0.13-29.86l24.8-7.69v16.15c-3.91,0-7.45,1.59-10.01,4.15
						c-2.57,2.56-4.15,6.1-4.15,10.01C235.79,264.98,237.38,268.52,239.95,271.08z"/>
				</g>
				<g>
					<g>
						<rect x="246.38" y="252.95" class="st2" width="2" height="16.23"/>
					</g>
					<g>
						<rect x="249.33" y="266.22" class="st2" width="2" height="2.95"/>
					</g>
					<g>
						<rect x="249.33" y="252.95" class="st2" width="2" height="2.95"/>
					</g>
					<g>
						<path class="st2" d="M251.07,261.32v-2c1.97,0,2.32-0.39,2.32-1.21c0-0.82-0.35-1.21-2.32-1.21h-6.64v-2h6.64
							c1.07,0,4.32,0,4.32,3.21C255.38,261.32,252.13,261.32,251.07,261.32z"/>
					</g>
					<g>
						<path class="st2" d="M252.54,267.22h-8.11v-2h8.11c0.48,0,1.95,0,1.95-1.95c0-1.95-1.47-1.95-1.95-1.95h-5.17v-2h5.17
							c2.4,0,3.95,1.55,3.95,3.95C256.49,265.67,254.94,267.22,252.54,267.22z"/>
					</g>
					<g>
						<path class="st2" d="M261.83,255.35c-0.64-1.34-1.5-2.55-2.56-3.6c-0.62-0.62-1.3-1.18-2.02-1.66l1.11-1.66
							c0.83,0.55,1.62,1.2,2.33,1.91c1.21,1.21,2.21,2.61,2.95,4.14L261.83,255.35z"/>
					</g>
					<g>
						<path class="st2" d="M249.96,276.23c-4.06,0-7.86-1.58-10.72-4.45c-2.86-2.86-4.44-6.67-4.44-10.72
							c0-4.06,1.58-7.86,4.45-10.72c2.86-2.86,6.67-4.44,10.72-4.44c1.68,0,3.34,0.28,4.93,0.82l-0.65,1.89
							c-1.37-0.47-2.81-0.71-4.28-0.71c-3.52,0-6.82,1.37-9.31,3.86c-2.49,2.48-3.86,5.79-3.86,9.31c0,3.52,1.37,6.82,3.86,9.31
							c2.48,2.49,5.79,3.86,9.31,3.86c3.52,0,6.83-1.37,9.31-3.86c1.93-1.93,3.2-4.36,3.66-7.04l1.97,0.34
							c-0.54,3.09-2,5.89-4.22,8.11C257.82,274.65,254.02,276.23,249.96,276.23z"/>
					</g>
					<g>
						<path class="st2" d="M274.6,276.95l-1.87-0.72c0.97-2.51,1.46-5.18,1.46-7.93v-29.12l-5.88-1.79l0.58-1.91l6.59,2.01
							l0.71,0.96v29.86C276.2,271.29,275.66,274.2,274.6,276.95z"/>
					</g>
					<g>
						<path class="st2" d="M271.42,282.78l-1.62-1.17c0.45-0.62,0.87-1.26,1.25-1.9l1.72,1.02
							C272.35,281.42,271.9,282.11,271.42,282.78z"/>
					</g>
					<g>
						<path class="st2" d="M249.5,297.52c-0.25-0.09-25.47-8.97-25.47-29.22c0-11.67,0.06-18.83,0.1-23.56
							c0.02-2.58,0.04-4.56,0.04-6.3l0.7-0.96l24.8-7.69l0.59,0l12.62,3.85l-0.58,1.91l-12.33-3.76l-23.8,7.38
							c0,1.57-0.02,3.35-0.04,5.58c-0.04,4.73-0.1,11.88-0.1,23.55c0,17.65,21,26.15,23.81,27.21c1.66-0.57,11.4-4.14,18.02-11.51
							l1.49,1.34c-7.21,8.02-17.87,11.73-19.06,12.13l-0.12,0.04L249.5,297.52z"/>
					</g>
					<g>
						<rect x="248.96" y="230.75" class="st2" width="2" height="16.15"/>
					</g>
					<g>
						<rect x="248.96" y="275.23" class="st2" width="2" height="21.26"/>
					</g>
					<g>
						
							<rect x="259.11" y="247.97" transform="matrix(0.7071 -0.7071 0.7071 0.7071 -99.2971 258.2195)" class="st2" width="5.87" height="2"/>
					</g>
					<g>
						
							<rect x="234.93" y="272.15" transform="matrix(0.7071 -0.7071 0.7071 0.7071 -123.4768 248.2039)" class="st2" width="5.87" height="2"/>
					</g>
					<g>
						<polygon class="st2" points="239.24,251.76 235.09,247.6 236.5,246.19 240.65,250.34 						"/>
					</g>
					<g>
						
							<rect x="261.05" y="270.22" transform="matrix(0.7071 -0.7071 0.7071 0.7071 -116.3947 265.3016)" class="st2" width="2" height="5.87"/>
					</g>
				</g>
			</g>
		</g>
		<g>
			<g>
				<path class="st2" d="M63.31,75.62h-2v-26.4c0-3.93,2.99-8.49,6.85-8.49h6.74v2h-6.74c-2.61,0-4.85,3.57-4.85,6.49V75.62z"/>
			</g>
			<g>
				<path class="st2" d="M98.58,98.04H68.15c-3.9,0-6.85-2.9-6.85-6.74v-9.71h2v9.71c0,2.75,2.04,4.74,4.85,4.74h30.42V98.04z"/>
			</g>
			<g>
				<rect x="101.73" y="96.04" class="st2" width="2.47" height="2"/>
			</g>
			<g>
				<path class="st2" d="M108.49,98.04h-1.6v-2h1.6c2.93,0,6.46-2.12,6.46-4.74V74.07l0.23-0.64l16.41-19.74h-15.64l-1-1v-3.47
					c0-2.79-3.68-6.49-6.46-6.49H91.73v-2h16.76c3.88,0,8.46,4.6,8.46,8.49v2.47h16.77l0.77,1.64l-17.54,21.1V91.3
					C116.95,95.15,112.48,98.04,108.49,98.04z"/>
			</g>
			<g>
				<rect x="84.31" y="40.74" class="st2" width="2.88" height="2"/>
			</g>
		</g>
		<g>
			<g>
				<g id="XMLID_33_">
					<g>
						<path class="st4" d="M285.28,130.92c7.74,0,14.01,6.27,14.01,14.01c0,4.35-1.98,8.24-5.09,10.81v-0.01l-1.81-5.5h-13.17
							l-2.29,5.94c-3.43-2.55-5.66-6.64-5.66-11.25C271.27,137.2,277.55,130.92,285.28,130.92z M290.51,141.91
							c0-2.9-2.35-5.26-5.26-5.26c-2.9,0-5.26,2.35-5.26,5.26c0,2.9,2.35,5.26,5.26,5.26C288.16,147.17,290.51,144.82,290.51,141.91
							z"/>
						<path class="st8" d="M294.2,155.74L294.2,155.74c-2.43,2.01-5.54,3.21-8.92,3.21c-3.13,0-6.02-1.03-8.35-2.77l2.29-5.94h13.17
							L294.2,155.74z"/>
						<path class="st8" d="M285.26,136.65c2.9,0,5.26,2.35,5.26,5.26c0,2.9-2.35,5.26-5.26,5.26c-2.9,0-5.26-2.35-5.26-5.26
							C280,139.01,282.35,136.65,285.26,136.65z"/>
						<path class="st4" d="M249.83,85.35c7.74,0,14.01,6.27,14.01,14.01c0,4.35-1.98,8.24-5.09,10.81l-1.81-5.51h-13.17l-2.29,5.94
							c-3.43-2.55-5.66-6.64-5.66-11.25C235.82,91.63,242.09,85.35,249.83,85.35z M255.06,96.34c0-2.9-2.35-5.26-5.26-5.26
							c-2.9,0-5.26,2.35-5.26,5.26c0,2.9,2.35,5.26,5.26,5.26C252.71,101.59,255.06,99.24,255.06,96.34z"/>
						<path class="st4" d="M249.83,176.5c7.74,0,14.01,6.27,14.01,14.01c0,4.35-1.98,8.24-5.09,10.81l-1.81-5.51h-13.17l-2.29,5.95
							c-3.43-2.55-5.66-6.64-5.66-11.25C235.82,182.77,242.09,176.5,249.83,176.5z M255.06,187.48c0-2.9-2.35-5.26-5.26-5.26
							c-2.9,0-5.26,2.35-5.26,5.26c0,2.9,2.35,5.26,5.26,5.26C252.71,192.74,255.06,190.39,255.06,187.48z"/>
						<path class="st8" d="M256.94,104.67l1.81,5.51c-2.43,2-5.53,3.2-8.91,3.2c-3.13,0-6.02-1.03-8.36-2.77l2.29-5.94H256.94z"/>
						<path class="st8" d="M256.94,195.81l1.81,5.51c-2.43,2-5.53,3.2-8.91,3.2c-3.13,0-6.02-1.03-8.36-2.76l2.29-5.95H256.94z"/>
						<circle class="st8" cx="249.8" cy="96.34" r="5.26"/>
						<circle class="st8" cx="249.8" cy="187.48" r="5.26"/>
					</g>
					<g>
						<g>
							<path class="st2" d="M285.26,148.17c-3.45,0-6.26-2.81-6.26-6.26c0-3.45,2.81-6.26,6.26-6.26c3.45,0,6.26,2.81,6.26,6.26
								C291.51,145.36,288.71,148.17,285.26,148.17z M285.26,137.65c-2.35,0-4.26,1.91-4.26,4.26c0,2.35,1.91,4.26,4.26,4.26
								c2.35,0,4.26-1.91,4.26-4.26C289.51,139.56,287.6,137.65,285.26,137.65z"/>
						</g>
						<g>
							<polygon class="st2" points="277.86,156.55 276,155.83 278.28,149.88 279.22,149.24 292.39,149.24 293.34,149.93 
								295.15,155.43 293.25,156.06 291.67,151.24 279.9,151.24 							"/>
						</g>
						<g>
							<path class="st2" d="M275.99,135.83l-1.43-1.4c0.59-0.61,1.24-1.17,1.93-1.66l1.17,1.62
								C277.07,134.82,276.51,135.3,275.99,135.83z"/>
						</g>
						<g>
							<path class="st2" d="M285.28,159.95c-3.25,0-6.35-1.02-8.95-2.96c-3.85-2.87-6.06-7.26-6.06-12.05
								c0-2.12,0.43-4.17,1.29-6.09l1.83,0.81c-0.74,1.66-1.11,3.44-1.11,5.28c0,4.15,1.92,7.96,5.25,10.45
								c2.25,1.68,4.93,2.57,7.75,2.57c3.02,0,5.96-1.06,8.28-2.97c3.01-2.49,4.73-6.15,4.73-10.04c0-7.18-5.84-13.01-13.01-13.01
								c-1.93,0-3.78,0.41-5.51,1.22l-0.85-1.81c2-0.94,4.14-1.41,6.36-1.41c8.28,0,15.01,6.73,15.01,15.01
								c0,4.49-1.99,8.72-5.46,11.58C292.16,158.73,288.76,159.95,285.28,159.95z"/>
						</g>
						<g>
							<path class="st2" d="M249.8,193.74c-3.45,0-6.26-2.81-6.26-6.26c0-2.23,1.2-4.3,3.13-5.42l1,1.73
								c-1.31,0.76-2.13,2.17-2.13,3.69c0,2.35,1.91,4.26,4.26,4.26c2.35,0,4.26-1.91,4.26-4.26c0-2.35-1.91-4.26-4.26-4.26v-2
								c3.45,0,6.26,2.81,6.26,6.26S253.25,193.74,249.8,193.74z"/>
						</g>
						<g>
							<polygon class="st2" points="242.41,202.12 240.54,201.4 242.84,195.45 243.77,194.81 256.94,194.81 257.89,195.5 
								259.7,201.01 257.8,201.63 256.21,196.81 244.46,196.81 							"/>
						</g>
						<g>
							<path class="st2" d="M249.83,205.52c-3.25,0-6.34-1.02-8.95-2.96c-3.85-2.87-6.06-7.26-6.06-12.05
								c0-3.02,0.89-5.93,2.58-8.42l1.66,1.12c-1.46,2.16-2.23,4.68-2.23,7.29c0,4.15,1.92,7.96,5.25,10.45
								c2.26,1.67,4.94,2.56,7.76,2.56c3.01,0,5.95-1.06,8.28-2.97c3.01-2.48,4.73-6.14,4.73-10.04c0-7.18-5.84-13.01-13.01-13.01
								c-1.1,0-2.2,0.14-3.25,0.41l-0.5-1.94c1.22-0.31,2.48-0.47,3.75-0.47c8.28,0,15.01,6.74,15.01,15.01
								c0,4.5-1.99,8.72-5.46,11.58C256.7,204.3,253.31,205.52,249.83,205.52z"/>
						</g>
						<g>
							<path class="st2" d="M240.35,181.6l-1.46-1.37c0.64-0.68,1.35-1.31,2.11-1.86l1.18,1.62
								C241.52,180.47,240.9,181.01,240.35,181.6z"/>
						</g>
						<g>
							<path class="st2" d="M249.8,102.59c-3.45,0-6.26-2.81-6.26-6.26c0-3.45,2.81-6.26,6.26-6.26s6.26,2.81,6.26,6.26
								C256.06,99.79,253.25,102.59,249.8,102.59z M249.8,92.08c-2.35,0-4.26,1.91-4.26,4.26c0,2.35,1.91,4.26,4.26,4.26
								c2.35,0,4.26-1.91,4.26-4.26C254.06,93.99,252.15,92.08,249.8,92.08z"/>
						</g>
						<g>
							<polygon class="st2" points="242.41,110.97 240.54,110.25 242.84,104.31 243.77,103.67 256.94,103.67 257.89,104.36 
								259.7,109.86 257.8,110.49 256.21,105.67 244.46,105.67 							"/>
						</g>
						<g>
							<path class="st2" d="M242.74,88.45l-1.09-1.68c0.92-0.6,1.91-1.1,2.93-1.48l0.7,1.87C244.4,87.5,243.54,87.93,242.74,88.45z"
								/>
						</g>
						<g>
							<path class="st2" d="M249.83,114.38c-3.25,0-6.35-1.02-8.95-2.96c-3.85-2.87-6.06-7.26-6.06-12.05
								c0-2.87,0.82-5.67,2.36-8.08l1.68,1.08c-1.34,2.09-2.04,4.51-2.04,7c0,4.15,1.92,7.96,5.25,10.45
								c2.26,1.68,4.94,2.57,7.76,2.57c3.01,0,5.95-1.06,8.28-2.97c3.01-2.49,4.73-6.15,4.73-10.04c0-7.17-5.84-13.01-13.01-13.01
								c-0.62,0-1.25,0.04-1.86,0.13l-0.28-1.98c0.7-0.1,1.42-0.15,2.14-0.15c8.28,0,15.01,6.73,15.01,15.01
								c0,4.49-1.99,8.72-5.46,11.58C256.7,113.16,253.31,114.38,249.83,114.38z"/>
						</g>
					</g>
				</g>
			</g>
		</g>
		<g>
			<g id="XMLID_29_">
				<g>
					<polygon class="st9" points="220.03,159.86 221.06,180.21 217.01,193.55 208.09,200.37 198.99,200.29 166.35,199.98 
						165.94,196.55 165.86,192.79 203.08,195.15 214.53,188.62 217.86,177.84 					"/>
					<path class="st8" d="M165.64,182.44h-10.06l-3.88-3.76l17.24-36.24l-1.96-1.01l1.54-5.08l9.69-15.99v-0.01l11.9-19.65
						l0.28-0.45l22.46,13.76l5.51,12.98l1.66,32.87l-2.17,17.98l-3.33,10.78l-11.45,6.53l-37.22-2.36l-0.04-2.15L165.64,182.44z
						 M198.32,176.54v-11.18l3.73-9.19l0.68-7.21h-0.01l-3.52,7.45l-4.52,6.98l-9.86,2.64l-10.26,0.24l6.22,4.27l4.99,1.66
						l6.06,1.43l0.25,4.19L198.32,176.54z"/>
					<polygon class="st10" points="213.22,478.85 217.34,487.68 208.89,492.22 203.12,492.22 198.41,482.94 204.33,483.37 					"/>
					<polygon class="st4" points="217.34,487.68 215.81,495.36 207.84,497.89 203.12,492.22 208.89,492.22 					"/>
					<path class="st4" d="M213.22,478.85l-8.89,4.52l-5.92-0.43l-4.21-26.32l0.8-0.18l5.65-3.02c2.04,6.7,12.25,24.78,12.25,24.78
						L213.22,478.85z"/>
					<path class="st10" d="M212.86,114.01l-22.46-13.76l-0.16-0.09l-2.9-5.42l0.9-14.95l3.46-2.06l3.09-5.39l-1.02-4.57l-5.2,0.21
						l-3.47,3.9l0.08-6.09l-3.73-5.97l-0.23-8.99l-5.49,8.57c0,0-7.19,1.13-15.62,0.84c-0.83-0.03-1.7-0.06-2.59-0.09l0.01-0.24
						c3.15-15.12,25.36-23.58,25.36-23.58c16.68-4.9,23.32,33.07,24.27,40C209.56,93.65,212.86,114.01,212.86,114.01z"/>
					<polygon class="st7" points="203.12,492.22 207.84,497.89 203.2,497.14 198.41,492.22 					"/>
					<path class="st9" d="M202.98,235.05c0,0,2.24,19.51,2.06,26.04c-0.52,18.42-9.92,67.85-9.92,67.85h-5.55
						c0,0,7.73-59.65,8.32-73.43c0.59-13.78-6.3-47.65-6.3-47.65l-25.66-0.71l-2.61-1.31l-0.96-3.9l-14.02-2.95l-7.75-5.4l3.23-4.34
						l7.18,3.82l14.93,3.48l0.41,3.44l32.64,0.3l-0.02,8.12L202.98,235.05z"/>
					<polygon class="st11" points="198.41,482.94 203.12,492.22 198.41,492.22 195.27,482.71 					"/>
					<polygon class="st9" points="198.32,165.37 198.32,176.54 192.08,177.84 191.83,173.65 185.77,172.22 180.79,170.55 
						174.56,166.28 184.83,166.04 194.69,163.4 199.2,156.42 202.73,148.97 202.73,148.97 202.05,156.18 					"/>
					<path class="st4" d="M200.66,453.41l-5.65,3.02l-0.8,0.18l-12.6-22.13v-0.01l-2.24-7.33l-14.5-47.43l-4.48-24.03l-2.44-19.23
						l6.08-1.1l16.52,1.66l1.66,21.27c0,0,4.75,8.2,6.18,13.06c1.42,4.87,6.08,14.04,7.32,27.93h0.01
						C196.54,418.06,196.31,439.13,200.66,453.41z"/>
					<polygon class="st7" points="194.2,456.62 198.41,482.94 195.27,482.71 188.75,457.85 					"/>
					<path class="st8" d="M191.6,207.86c0,0,6.89,33.87,6.3,47.65c-0.59,13.78-8.32,73.43-8.32,73.43h-2.46h-24.08l-6.14-0.78
						l-18.49-2.38l-12.19-3.61c0,0-2.3-65.61,1.36-88.82c1.02-6.44,7.67-24.94,7.67-24.94l1.33-9.41l4.02-5.4l7.75,5.4l14.02,2.95
						l0.96,3.9l2.61,1.31L191.6,207.86z"/>
					<path class="st7" d="M195.72,399.28L195.72,399.28c-1.24-13.89-5.9-23.06-7.33-27.93c-1.43-4.87-6.18-13.06-6.18-13.06
						l-1.66-21.27l-16.52-1.66l-6.08,1.1l-1.05-8.3l6.14,0.78h24.08l-2.05,29.46c0,0,7.05,11.54,8.09,16.35
						C194.68,381.72,195.31,390.24,195.72,399.28z"/>
					<path class="st4" d="M185.02,72.13l0.1-0.26l3.47-3.9l5.2-0.21l1.02,4.57l-3.09,5.39l-3.46,2.06l-0.9,14.95l2.9,5.42l0.16,0.09
						l-0.28,0.45l-11.9,19.65l0.8-10.86l-1.66-2.99c0,0-1.71-1.34-2.8-2.17c-0.49-0.38-0.85-0.65-0.88-0.66
						c-0.1-0.03-1.64-3.93-1.64-3.93l-2.8-0.95c3.47,0,6.83-0.75,9.24-2.71c2.36-1.92,3.13-8.85,3.16-9.16l-0.76,2.23
						c0,0-3.02,3.09-7.2,4.53c-1.94,0.67-4.15,0.94-4.15,0.94l0.09-1.29l-2.3-1.34l-1.39,3.34l-5.3,0.74l-0.64-6.06l1.87,1.03
						l1.02-2.27l-3.32-1.03l-0.25-3.88l-0.59-6.14h-2.25l1.06-9.7l4.33-0.6l1.79,3.66l7.1,1.65l5.07-4.22l1.52-4.23l0.83-2.57
						l3.21,4.76l2.98,5.39L185.02,72.13z M191.79,72.74v-2.26h-2.27L191.79,72.74z"/>
					<polygon class="st7" points="181.6,434.49 194.2,456.62 188.75,457.85 					"/>
					<polygon class="st7" points="191.79,70.49 191.79,72.74 189.52,70.49 					"/>
					<path class="st7" d="M181.47,59.81l3.73,5.97l-0.08,6.09l-0.1,0.26l-0.64-0.26l-2.98-5.39l-3.21-4.76l-0.83,2.57l-1.52,4.23
						l-5.07,4.22l-7.1-1.65l-1.79-3.66l-4.33,0.6l-3.62,0.22l-1.73-0.49l-1.15-3.07l5.99,0.94l-0.08-1.49l-2.65-1.06l-4.02-0.42
						l-0.17-2.3l0.03-0.55c0.64,0.03,1.33,0.07,2.05,0.1c1.69,0.08,3.55,0.16,5.34,0.23c0.89,0.03,1.76,0.07,2.59,0.09
						c8.44,0.28,15.62-0.84,15.62-0.84l5.49-8.57L181.47,59.81z M168.74,64.89l5.83-1.28l-5.55-0.53l-6.11,0.83v1.5L168.74,64.89z"
						/>
					<polygon class="st7" points="174.49,470.85 175.94,470.03 184.18,465.51 183.47,479.84 156.9,484.82 142.52,485.49 
						141.22,481.6 155.47,481.6 167.33,474.9 					"/>
					<path class="st11" d="M184.18,465.51l-8.24,4.52l-1.45,0.82l1.43-5.34h0.01l4.97-4.21l-2.33-5.66l1.44-5.39
						c0.33,1.74,2.96,6.96,3.52,8.7C184.06,460.58,184.18,465.51,184.18,465.51z"/>
					<polygon class="st8" points="183.47,479.84 183.07,487.68 143.25,487.68 142.52,485.49 156.9,484.82 					"/>
					<path class="st10" d="M182.91,36.32c-21.17-0.09-30.52,17.32-30.71,23.58v0.01c-0.72-0.03-1.41-0.07-2.05-0.1
						c-2.45-0.12-4.19-0.22-4.19-0.22C144.86,47.11,165.95,25.41,182.91,36.32z"/>
					<path class="st12" d="M152.2,59.9c0.19-6.26,9.55-23.67,30.71-23.58c0,0-22.22,8.45-25.36,23.58l-0.01,0.24
						C155.75,60.07,153.89,59.99,152.2,59.9L152.2,59.9z"/>
					<path class="st7" d="M180.89,89.14l0.76-2.23c-0.03,0.31-0.8,7.24-3.16,9.16c-2.4,1.96-5.77,2.71-9.24,2.71l0.3-4.17
						c0,0,2.21-0.27,4.15-0.94C177.86,92.23,180.89,89.14,180.89,89.14z"/>
					<polygon class="st10" points="178.58,455.63 180.91,461.29 175.93,465.51 					"/>
					<path class="st4" d="M179.79,442.4l0.22,7.84l-13.97-3.01c1.32-15.18-3.47-31.33-6.92-56.22l-3.46-15.81l-3.3-15.9l-11.16-26.8
						l11.89,2.02c0,0,7.04,40.38,9.07,46.99c3.11,10.16,17.52,60.89,17.52,60.89H179.79z"/>
					<path class="st4" d="M180.02,450.24l-1.44,5.39l-2.65,9.88h-0.01l-12.19,6.44l-6.85-5.12l0.84-0.65c0,0,7.97-13.32,8.32-18.93
						L180.02,450.24z"/>
					<path class="st7" d="M179.36,427.15l0.43,15.25h-0.1c0,0-14.41-50.73-17.52-60.89c-2.03-6.61-9.07-46.99-9.07-46.99
						l-11.89-2.02l-2.8-6.72l18.49,2.38l1.05,8.3l2.44,19.23l4.48,24.03L179.36,427.15z"/>
					<polygon class="st7" points="177.36,106.5 179.03,109.49 178.23,120.35 178.23,120.36 168.53,136.35 171.31,127.11 
						173.93,120.89 					"/>
					<path class="st7" d="M177.36,106.5l-3.44,14.39l-2.61,6.22l-2.78,9.24l-1.54,5.08l-3.01-1.55l3.02-11.15l7.56-24.41
						C175.65,105.16,177.36,106.5,177.36,106.5z"/>
					<polygon class="st7" points="163.74,471.94 175.92,465.51 174.49,470.85 167.33,474.9 167.07,474.43 					"/>
					<path class="st4" d="M161.95,104.96l4.01-9.63l1.39-3.34l2.3,1.34l-0.09,1.29l-0.3,4.17l2.8,0.95c0,0,1.53,3.9,1.64,3.93
						c0.03,0.01,0.39,0.28,0.88,0.66l-7.56,24.41l-3.02,11.15l-7.5-3.87l3.09-11.69l-1.62-3.73l-2.36-8.3l1.59-9.01l1.12-9.64
						l1.4,1.45c0.56,0.58,0.95,0.97,0.95,0.97l1.23,8.87L161.95,104.96z"/>
					<polygon class="st8" points="174.56,63.61 168.74,64.89 162.9,65.41 162.9,63.91 169.01,63.08 					"/>
					<polygon class="st9" points="166.99,141.44 168.94,142.44 151.71,178.68 146.66,185.45 143.83,189.25 140.6,193.59 
						136.58,198.99 129.85,201.94 120.97,195.89 115.22,183.39 122.33,191.35 126.73,192.78 134.69,192.06 149.3,174 163.98,139.88 
											"/>
					<polygon class="st11" points="167.07,474.43 167.33,474.9 155.47,481.6 151.57,477.47 163.74,471.94 					"/>
					<polygon class="st7" points="165.95,95.33 161.95,104.96 161.89,104.94 160.65,96.07 					"/>
					<polygon class="st8" points="165.86,192.79 165.94,196.55 151.01,193.06 143.83,189.25 146.66,185.45 154.17,189.49 
						165.64,190.63 165.82,190.63 					"/>
					<polygon class="st4" points="165.64,182.44 165.82,190.63 165.64,190.63 154.17,189.49 146.66,185.45 151.71,178.68 
						155.59,182.44 					"/>
					<path class="st8" d="M156.48,136.01l7.5,3.87L149.3,174l-14.62,18.06l-7.96,0.72l-4.4-1.43l-7.11-7.95l11.62-58.88l8.95-15.97
						l21.39-5.25l-1.59,9.01l2.36,8.3l1.62,3.73L156.48,136.01z M137.87,159.14l-5.49-7.82l-2.06,3.41l-1.47,6.18l-1.21,5.14
						l1.78,2.34l2.77-3.02v-0.01L137.87,159.14z"/>
					<polygon class="st10" points="163.74,471.94 151.57,477.47 147.99,473.67 156.89,466.82 					"/>
					<path class="st7" d="M159.34,83.87l0.25,3.88l3.32,1.03l-1.02,2.27l-1.87-1.03l0.64,6.06c0,0-0.39-0.4-0.95-0.97
						c-1.21-1.28-3.22-3.45-3.85-4.48c-1.92-3.15-4.67-14.18-4.67-14.18l1.02-8.68l1.73,0.49l3.62-0.22l-1.06,9.7h2.25L159.34,83.87
						z"/>
					<polygon class="st8" points="156.97,64.14 157.04,65.63 151.05,64.69 150.3,62.66 154.31,63.08 					"/>
					<polygon class="st7" points="151.57,477.47 155.47,481.6 141.22,481.6 140.63,478.85 151.2,477.63 					"/>
					<polygon class="st4" points="147.99,473.67 151.57,477.47 151.2,477.63 140.63,478.85 140.14,476.54 					"/>
					<polygon class="st8" points="132.19,165.36 132.19,165.37 129.42,168.39 127.64,166.05 128.85,160.91 					"/>
				</g>
				<g>
					<g>
						<path class="st2" d="M139.83,481.9l-1.09-5.06l0.9-1.64l7.65-2.79l9.35-7.19c0.39-0.66,1.58-2.71,2.91-5.24l2.52,1.33
							c-1.67,3.16-3.07,5.51-3.12,5.6l-0.35,0.39L148.48,475l-6.69,2.44l0.82,3.86L139.83,481.9z"/>
					</g>
					<g>
						<path class="st2" d="M164.73,455.91l-2.6-1.17c1.94-4.28,2.42-6.49,2.49-7.58l2.84,0.18
							C167.35,449.29,166.45,452.1,164.73,455.91z"/>
					</g>
					<g>
						<path class="st2" d="M182.76,465.54c-0.05-1.83-0.24-5.12-0.58-6.17c-0.2-0.64-0.8-1.99-1.38-3.29
							c-1.18-2.65-1.97-4.47-2.18-5.58l2.8-0.53c0.16,0.86,1.21,3.22,1.98,4.95c0.67,1.5,1.24,2.79,1.49,3.58
							c0.57,1.78,0.7,6.44,0.71,6.96L182.76,465.54z"/>
					</g>
					<g>
						<path class="st2" d="M183.07,489.1h-39.81l-1.35-0.97l-2.03-6.08l1.35-1.88h13.87l20.15-11.39l8.25-4.53l2.11,1.32
							l-1.11,22.18L183.07,489.1z M144.28,486.25h37.44l0.92-18.27l-7.44,4.11l-19.03,10.76l-0.7,0.18H143.2L144.28,486.25z"/>
					</g>
					<g>
						
							<rect x="150.31" y="472.18" transform="matrix(0.7282 -0.6854 0.6854 0.7282 -286.1288 233.8384)" class="st2" width="2.85" height="10.9"/>
					</g>
					<g>
						
							<rect x="160.12" y="463.4" transform="matrix(0.5984 -0.8012 0.8012 0.5984 -311.9263 318.2927)" class="st2" width="2.85" height="13.81"/>
					</g>
					<g>
						<polygon class="st2" points="177.31,465.87 174.56,465.14 178.26,451.32 165.75,448.63 166.35,445.84 180.32,448.85 
							181.39,450.61 						"/>
					</g>
					<g>
						<polygon class="st2" points="175.87,471.22 173.09,470.62 173.1,470.54 174.55,465.14 177.3,465.87 						"/>
					</g>
					<g>
						<polygon class="st2" points="157.78,136.7 155.02,136 155.1,135.66 158.07,124.44 156.64,121.16 159.25,120.03 160.87,123.76 
							160.94,124.69 						"/>
					</g>
					<g>
						<polygon class="st2" points="155.48,117.12 154.22,112.69 154.18,112.05 155.78,103.04 156.89,93.49 159.32,92.66 
							160.73,94.11 159.55,95.25 158.6,103.46 157.05,112.22 158.22,116.34 						"/>
					</g>
					<g>
						
							<rect x="159.85" y="96.03" transform="matrix(0.9905 -0.1376 0.1376 0.9905 -12.298 23.1526)" class="st2" width="2.85" height="8.95"/>
					</g>
					<g>
						<path class="st2" d="M168.35,141.85l-1.19-0.36l-1.58-0.28l0.04-0.19l4.38-14.46l2.57-6.12l3.2-13.39
							c-0.6-0.46-1.44-1.12-2.07-1.6c-0.29-0.22-0.53-0.41-0.67-0.52c-0.51-0.21-0.7-0.62-2.06-4.07l-2.17-0.74l-0.96-1.45
							l0.33-4.58l-0.12-0.07l-7.07,17.02l-2.63-1.09l7.7-18.52l2.03-0.69l2.3,1.34l0.71,1.34l-0.32,4.36l1.76,0.59l0.87,0.83
							c0.53,1.34,1.16,2.89,1.42,3.5c0.16,0.12,0.36,0.27,0.64,0.49c1.09,0.84,2.81,2.18,2.81,2.18l0.51,1.45l-3.51,14.61
							l-2.58,6.15L168.35,141.85z"/>
					</g>
					<g>
						<polygon class="st2" points="134.84,113.16 132.35,111.76 134.55,107.84 135.45,107.16 156.84,101.91 157.52,104.68 
							136.73,109.78 						"/>
					</g>
					<g>
						
							<rect x="124.5" y="125.01" transform="matrix(0.1939 -0.981 0.981 0.1939 -22.0903 225.9805)" class="st2" width="3.92" height="2.85"/>
					</g>
					<g>
						<polygon class="st2" points="130.43,203.24 129.05,203.12 120.17,197.07 119.68,196.49 113.93,183.99 113.82,183.12 
							123.89,132.1 126.68,132.65 116.71,183.22 122.1,194.94 130,200.32 135.66,197.84 150.48,177.94 167.07,143.08 155.23,136.97 
							151.32,142.99 148.93,141.44 153.55,134.33 155.4,133.85 169.6,141.18 170.23,143.06 152.85,179.53 137.72,199.84 
							137.15,200.3 						"/>
					</g>
					<g>
						
							<rect x="144.62" y="146.66" transform="matrix(0.5449 -0.8385 0.8385 0.5449 -57.5828 190.0629)" class="st2" width="3.39" height="2.85"/>
					</g>
					<g>
						<polygon class="st2" points="133.24,166.32 131.14,164.4 141.12,153.46 142.64,151.12 145.03,152.67 143.3,155.3 						"/>
					</g>
					<g>
						
							<rect x="126.06" y="166.64" transform="matrix(0.6741 -0.7386 0.7386 0.6741 -81.8654 150.5821)" class="st2" width="7.32" height="2.85"/>
					</g>
					<g>
						<polygon class="st2" points="128.29,169.25 126.51,166.91 126.25,165.72 127.47,160.58 130.24,161.24 129.18,165.72 
							130.56,167.53 						"/>
					</g>
					<g>
						<polygon class="st2" points="136.7,159.95 132.47,153.93 131.54,155.47 129.1,154 131.16,150.58 133.54,150.5 139.03,158.32 
													"/>
					</g>
					<g>
						
							<rect x="185" y="175.54" transform="matrix(0.981 -0.1939 0.1939 0.981 -30.5913 41.321)" class="st2" width="21.66" height="2.85"/>
					</g>
					<g>
						
							<rect x="175.63" y="179.06" transform="matrix(0.9854 -0.1704 0.1704 0.9854 -28.1676 32.791)" class="st2" width="2.61" height="2.85"/>
					</g>
					<g>
						<polygon class="st2" points="165.64,183.86 155.59,183.86 154.6,183.46 150.72,179.7 152.7,177.66 156.16,181.01 
							165.52,181.01 172.07,179.88 172.56,182.69 						"/>
					</g>
					<g>
						
							<rect x="164.37" y="182.44" transform="matrix(0.9998 -0.0208 0.0208 0.9998 -3.8968 3.4815)" class="st2" width="2.85" height="14.11"/>
					</g>
					<g>
						
							<rect x="201.56" y="145.24" transform="matrix(0.0933 -0.9956 0.9956 0.0933 38.0015 335.0499)" class="st2" width="2.78" height="2.85"/>
					</g>
					<g>
						<polygon class="st2" points="199.75,176.54 196.9,176.54 196.9,165.37 197,164.83 200.66,155.84 201.09,151.19 203.93,151.45 
							203.37,156.72 199.75,165.64 						"/>
					</g>
					<g>
						<path class="st2" d="M132.85,219.83l-2.71-0.88c1.71-5.25,3.41-10.02,3.72-10.88l1.31-9.27l2.82,0.4l-1.4,9.69
							C136.57,208.94,134.72,214.1,132.85,219.83z"/>
					</g>
					<g>
						<path class="st2" d="M128.63,236.12l-2.83-0.35c0.12-0.93,0.24-1.81,0.37-2.64c0.1-0.62,0.24-1.34,0.43-2.15l2.77,0.64
							c-0.17,0.73-0.3,1.39-0.39,1.95C128.86,234.37,128.74,235.22,128.63,236.12z"/>
					</g>
					<g>
						<path class="st2" d="M195.12,330.36l-32.26-0.01l-24.85-3.21l-12.19-3.61l-1.02-1.32c-0.02-0.53-1.83-53.21,0.42-80.6
							l2.84,0.23c-2.06,25.12-0.68,71.75-0.44,79.25l11.1,3.29l24.42,3.14h30.81c1.41-7.56,9.21-49.93,9.68-66.46
							c0.18-6.36-2.03-25.65-2.05-25.84l-4.02-26.81l0.02-8.12l2.85,0.01l-0.02,8.01l3.99,26.54c0.1,0.85,2.26,19.74,2.08,26.29
							c-0.51,18.32-9.56,66.05-9.94,68.07L195.12,330.36z"/>
					</g>
					<g>
						<path class="st2" d="M194.21,397.42c-0.33-6.71-0.91-15.33-2.44-22.38c-0.98-4.52-7.85-15.79-7.92-15.91l-0.21-0.84
							l2.05-29.46l2.84,0.2l-2.02,29.01c1.27,2.11,7.05,11.87,8.03,16.4c1.58,7.25,2.16,16.02,2.5,22.84L194.21,397.42z"/>
					</g>
					<g>
						
							<rect x="194.72" y="408.83" transform="matrix(0.9995 -0.0324 0.0324 0.9995 -13.2262 6.5766)" class="st2" width="2.85" height="4.42"/>
					</g>
					<g>
						<path class="st2" d="M202.49,461.44c-1.59-3.33-2.67-5.89-3.19-7.61c-2.97-9.76-3.83-22.65-4.32-35.12l2.85-0.11
							c0.48,12.28,1.32,24.95,4.19,34.4c0.48,1.58,1.5,4.01,3.04,7.21L202.49,461.44z"/>
					</g>
					<g>
						<path class="st2" d="M206.61,469.6c-0.47-0.9-0.95-1.82-1.43-2.75l2.53-1.3c0.48,0.92,0.95,1.84,1.42,2.73L206.61,469.6z"/>
					</g>
					<g>
						<path class="st2" d="M207.62,499.3l-4.64-0.75l-0.79-0.41l-4.79-4.92l-0.33-0.55l-3.14-9.51l-6.55-24.94l-7.13-23.31
							l2.72-0.83l7.14,23.36l6.54,24.91l3.01,9.12l4.23,4.35l3.84,0.62l6.84-2.18l1.28-6.4l-4.23-9.06l0,0c0,0-1.39-2.46-3.23-5.86
							l2.51-1.35c1.85,3.44,3.25,5.9,3.25,5.9l0.36,0.75l4.12,8.84l0.11,0.88l-1.53,7.68l-0.96,1.08l-7.96,2.53L207.62,499.3z"/>
					</g>
					<g>
						<polygon class="st2" points="180.24,434.9 163.47,379.98 158.99,355.94 155.48,328.33 158.31,327.98 161.8,355.5 
							166.25,379.38 182.97,434.07 						"/>
					</g>
					<g>
						<path class="st2" d="M167.47,447.36l-2.84-0.25c0.87-10.02-0.99-20.58-3.35-33.95c-1.14-6.46-2.43-13.78-3.56-21.95
							l-3.44-15.7L151,359.72l-2.13-5.11l2.63-1.1l2.26,5.5l3.3,15.9l3.45,15.8c1.14,8.23,2.43,15.52,3.56,21.96
							C166.48,426.24,168.37,436.96,167.47,447.36z"/>
					</g>
					<g>
						
							<rect x="145.14" y="343.9" transform="matrix(0.9232 -0.3843 0.3843 0.9232 -121.4687 82.8487)" class="st2" width="2.85" height="2.93"/>
					</g>
					<g>
						
							<rect x="139.66" y="325.24" transform="matrix(0.9231 -0.3845 0.3845 0.9231 -116.891 79.7929)" class="st2" width="2.85" height="13.9"/>
					</g>
					<g>
						
							<rect x="178.27" y="427.14" transform="matrix(0.9996 -0.0284 0.0284 0.9996 -12.3666 5.2714)" class="st2" width="2.85" height="23.11"/>
					</g>
					<g>
						<polygon class="st2" points="204.23,484.79 195.17,484.13 195.38,481.29 204.04,481.92 212.58,477.58 213.87,480.12 
							204.97,484.64 						"/>
					</g>
					<g>
						<polygon class="st2" points="208.89,493.64 198.41,493.64 198.41,490.8 208.53,490.8 216.67,486.42 218.02,488.93 
							209.56,493.47 						"/>
					</g>
					<g>
						<polygon class="st2" points="189.06,459.24 188.43,456.46 194.5,455.09 199.99,452.16 201.33,454.67 195.32,457.83 						"/>
					</g>
					<g>
						<path class="st2" d="M160.85,97.48l-1.21-0.41l-0.95-0.98c-2.23-2.36-3.52-3.86-4.05-4.73c-2.01-3.29-4.72-14.11-4.84-14.57
							l-0.03-0.51l0.98-8.34l-1.87-5.17l-0.17-2.3l2.84-0.21l0.16,2.1l1.83,4.91l0.08,0.66l-0.99,8.42c0.81,3.2,3,11.16,4.44,13.53
							c0.28,0.47,1.15,1.58,3.67,4.25l0.43,0.44l4.59-0.64l0.39,2.82L160.85,97.48z"/>
					</g>
					<g>
						
							<rect x="181.11" y="84.73" transform="matrix(0.3232 -0.9463 0.9463 0.3232 41.5765 230.4478)" class="st2" width="1.58" height="2.85"/>
					</g>
					<g>
						<path class="st2" d="M169.72,96.03l-0.34-2.83c0.02,0,2.09-0.26,3.85-0.87c3.2-1.11,5.69-3.29,6.42-3.97l0.65-1.91l2.7,0.92
							l-0.76,2.23l-0.33,0.54c-0.13,0.14-3.31,3.34-7.75,4.88C172.1,95.73,169.81,96.02,169.72,96.03z"/>
					</g>
					<g>
						<polygon class="st2" points="163.17,86.42 162.4,86.38 159.15,85.31 157.28,85.42 157.11,82.58 159.25,82.45 159.78,82.52 
							162.92,83.55 168.3,82.32 168.94,85.09 						"/>
					</g>
					<g>
						<polygon class="st2" points="170.52,69.94 165.23,69.68 165.37,66.83 170.28,67.08 172.07,66.16 173.37,68.69 171.24,69.79 
													"/>
					</g>
					<g>
						<polygon class="st2" points="160.13,79.15 156.49,79.15 155.08,77.57 155.95,69.56 154.02,69.67 153.54,69.62 151.81,69.13 
							152.59,66.39 154.09,66.82 157.46,66.61 158.97,68.18 158.08,76.3 160.13,76.3 						"/>
					</g>
					<g>
						<path class="st2" d="M212.12,115.23l-22.61-13.86l-0.51-0.54l-2.9-5.42l-0.17-0.76l0.9-14.95l0.69-1.14l3.14-1.87l2.63-4.59
							l-0.64-2.87l-3.4,0.14l-3.07,3.45l-2.49-0.96l0.07-5.68l-3.51-5.62l-0.22-0.72l-0.11-4.35l-2.99,4.66l-0.98,0.64
							c-0.3,0.05-7.42,1.14-15.89,0.86c-0.7-0.02-1.43-0.05-2.18-0.08l-7.82-0.35c-2.44-0.12-4.19-0.22-4.19-0.22l-1.34-1.3
							c-0.68-7.73,6.12-18.22,15.48-23.88c8.02-4.85,16.21-5.21,23.12-1.05c3.1-0.75,6.07-0.22,8.83,1.57
							c12.12,7.85,16.44,38.46,16.62,39.76c2.35,17.11,5.64,37.46,5.67,37.66L212.12,115.23z M191.32,99.14l19.64,12.04
							c-1.01-6.35-3.38-21.47-5.19-34.67c-1.45-10.56-6.51-32.04-15.34-37.76c-2.25-1.46-4.58-1.81-7.11-1.06l-1.17-0.17
							c-8.18-5.26-16.45-1.79-20.65,0.75c-7.87,4.75-13.93,13.44-14.15,19.97c0.73,0.04,1.72,0.09,2.87,0.15l7.79,0.35
							c0.74,0.03,1.47,0.06,2.17,0.08c6.8,0.23,12.82-0.48,14.73-0.74l5.14-8.02l2.62,0.73l0.22,8.6l3.53,5.64l0.22,0.77l-0.03,2.28
							l0.94-1.05l1.01-0.48l5.2-0.21l1.45,1.11l1.02,4.57l-0.15,1.02l-3.09,5.39l-0.51,0.52l-2.82,1.67l-0.84,13.8L191.32,99.14z"/>
					</g>
					<g>
						<polygon class="st2" points="218.06,149.04 216.96,127.32 211.55,114.57 214.17,113.46 219.68,126.44 219.79,126.92 
							220.9,148.9 						"/>
					</g>
					<g>
						
							<rect x="218.48" y="156.12" transform="matrix(0.9987 -0.0508 0.0508 0.9987 -7.7078 11.3696)" class="st2" width="2.85" height="2.51"/>
					</g>
					<g>
						<polygon class="st2" points="208.08,201.8 166.34,201.41 164.94,200.15 164.64,197.71 150.34,194.32 143.16,190.5 
							144.5,187.99 151.52,191.72 166.26,195.16 167.35,196.37 167.61,198.57 207.62,198.94 215.78,192.69 219.63,180.04 
							218.69,161.48 221.53,161.34 222.49,180.14 222.43,180.63 218.38,193.96 217.88,194.68 208.96,201.5 						"/>
					</g>
					<g>
						
							<rect x="164.03" y="126.93" transform="matrix(0.5186 -0.855 0.855 0.5186 -26.2771 210.0372)" class="st2" width="18.7" height="2.85"/>
					</g>
					<g>
						
							<rect x="175.7" y="114.43" transform="matrix(0.518 -0.8554 0.8554 0.518 -11.885 210.6241)" class="st2" width="10.5" height="2.85"/>
					</g>
					<g>
						
							<rect x="184.98" y="102.17" transform="matrix(0.518 -0.8554 0.8554 0.518 2.1773 211.0614)" class="st2" width="6.78" height="2.85"/>
					</g>
					<g>
						<polygon class="st2" points="181.51,78.89 179.87,76.56 182.46,74.73 183.81,71.34 186.45,72.4 184.95,76.17 184.45,76.81 
													"/>
					</g>
					<g>
						
							<rect x="188.38" y="165.45" transform="matrix(0.9548 -0.2974 0.2974 0.9548 -40.8758 65.087)" class="st2" width="10.17" height="2.85"/>
					</g>
				</g>
			</g>
		</g>
		<g>
			<g>
				<g>
					<g>
						<rect x="225.12" y="122.51" class="st2" width="2" height="2.81"/>
					</g>
					<g>
						<rect x="234.16" y="122.51" class="st2" width="2" height="2.81"/>
					</g>
					<g>
						<rect x="243.2" y="122.51" class="st2" width="2" height="2.81"/>
					</g>
				</g>
			</g>
		</g>
		<g>
			<g>
				<rect x="207.53" y="205.49" class="st2" width="2" height="15.93"/>
			</g>
			<g>
				<rect x="199.9" y="215.87" class="st2" width="2" height="5.55"/>
			</g>
			<g>
				<rect x="214.47" y="211.18" class="st2" width="2" height="10.24"/>
			</g>
			<g>
				<rect x="222.11" y="200.36" class="st2" width="2" height="21.06"/>
			</g>
			<g>
				<rect x="229.05" y="212.12" class="st2" width="2" height="9.3"/>
			</g>
		</g>
		<g>
			<g>
				<rect x="94.31" y="147.17" class="st2" width="21.32" height="2"/>
			</g>
			<g>
				<rect x="94.31" y="140.11" class="st2" width="8" height="2"/>
			</g>
			<g>
				<rect x="94.31" y="153.59" class="st2" width="5.89" height="2"/>
			</g>
			<g>
				<rect x="104.97" y="153.59" class="st2" width="10.66" height="2"/>
			</g>
			<g>
				<rect x="94.31" y="160.66" class="st2" width="21.32" height="2"/>
			</g>
			<g>
				<rect x="94.31" y="167.09" class="st2" width="15.86" height="2"/>
			</g>
		</g>
		<g>
			<g id="XMLID_14_">
				<g>
					<path class="st8" d="M115.63,230.45v7.19c0,0.59-0.48,1.08-1.07,1.08H85.79H69.82H41.58c-0.59,0-1.08-0.48-1.08-1.08v-7.19
						H115.63z"/>
					<polygon class="st13" points="115.63,216.38 115.63,230.45 40.5,230.45 40.5,212.87 45.35,208.03 51.08,213.76 61.07,203.77 
						78.38,221.09 83.94,215.54 93.11,224.7 108.54,209.28 115.63,216.38 					"/>
					<path class="st5" d="M88.95,187.28c1.01,0,3.03,0,3.03,2.01c0,2.02-2.01,2.02-3.03,2.02h-3.36v-4.04
						C86.2,187.28,88.6,187.28,88.95,187.28z"/>
					<path class="st4" d="M51.08,213.76l-5.73-5.73l-4.85,4.85v-19.82c0-0.59,0.48-1.07,1.08-1.07h33.56c0,7.07,5.73,12.8,12.8,12.8
						c7.07,0,12.8-5.74,12.8-12.8h0.11h13.71c0.59,0,1.07,0.48,1.07,1.07v23.32l-7.1-7.1L93.11,224.7l-9.17-9.17l-5.55,5.55
						l-17.32-17.32L51.08,213.76z"/>
					<polygon class="st8" points="85.79,238.72 90.09,246.57 66.05,246.57 69.82,238.72 					"/>
					<path class="st5" d="M88.95,187.28c-0.34,0-2.75,0-3.36,0v4.04v5.38c0.42,0,2.4,0,3.69,0c0.45,0,0.82,0,1.02,0
						c2.01,0,2.69-1.34,2.69-2.69c0-1.34-0.67-2.69-2.69-2.69h-1.34c1.01,0,3.03,0,3.03-2.02
						C91.97,187.28,89.96,187.28,88.95,187.28z M87.94,179.18c7.07,0,12.8,5.73,12.8,12.8c0,7.07-5.73,12.8-12.8,12.8
						c-7.07,0-12.8-5.74-12.8-12.8C75.14,184.91,80.87,179.18,87.94,179.18z"/>
					<path class="st5" d="M90.29,191.31c2.02,0,2.69,1.34,2.69,2.69c0,1.35-0.68,2.69-2.69,2.69c-0.19,0-0.56,0-1.02,0
						c-1.29,0-3.27,0-3.69,0v-5.38h3.36H90.29z"/>
				</g>
				<g>
					<g>
						<rect x="84.58" y="184.58" class="st2" width="2" height="14.8"/>
					</g>
					<g>
						<rect x="88.28" y="196.69" class="st2" width="2" height="2.69"/>
					</g>
					<g>
						<rect x="88.28" y="184.58" class="st2" width="2" height="2.69"/>
					</g>
					<g>
						<path class="st2" d="M88.95,192.31v-2c1.73,0,2.03-0.31,2.03-1.02c0-0.69-0.3-1.01-2.03-1.01H82.9v-2h6.05
							c2.67,0,4.03,1.01,4.03,3.01C92.97,191.3,91.62,192.31,88.95,192.31z"/>
					</g>
					<g>
						<path class="st2" d="M90.29,197.69H82.9v-2h7.39c0.42,0,1.69,0,1.69-1.69c0-1.51-0.97-1.69-1.69-1.69h-4.71v-2h4.71
							c2.24,0,3.69,1.45,3.69,3.69C93.98,196.24,92.53,197.69,90.29,197.69z"/>
					</g>
					<g>
						<path class="st2" d="M87.94,205.79c-7.61,0-13.8-6.19-13.8-13.8c0-5.53,3.28-10.51,8.36-12.69l0.79,1.84
							c-4.34,1.86-7.15,6.12-7.15,10.85c0,6.51,5.29,11.8,11.8,11.8c6.51,0,11.8-5.29,11.8-11.8c0-6.51-5.29-11.8-11.8-11.8v-2
							c7.61,0,13.8,6.19,13.8,13.8S95.55,205.79,87.94,205.79z"/>
					</g>
					<g>
						
							<rect x="86.94" y="238.17" transform="matrix(0.8769 -0.4807 0.4807 0.8769 -105.808 72.1404)" class="st2" width="2" height="8.95"/>
					</g>
					<g>
						
							<rect x="63.58" y="241.65" transform="matrix(0.4325 -0.9016 0.9016 0.4325 -180.2245 198.9426)" class="st2" width="8.7" height="2"/>
					</g>
					<g>
						<rect x="63.61" y="190.99" class="st2" width="11.53" height="2"/>
					</g>
					<g>
						<rect x="52.7" y="190.99" class="st2" width="5.7" height="2"/>
					</g>
					<g>
						<path class="st2" d="M114.56,239.72H41.58c-1.15,0-2.08-0.93-2.08-2.08v-44.59c0-1.14,0.93-2.07,2.08-2.07h8.56v2h-8.56
							c-0.04,0-0.08,0.04-0.08,0.07v44.59c0,0.04,0.04,0.08,0.08,0.08h72.98c0.03,0,0.07-0.03,0.07-0.08v-21.26h2v21.26
							C116.63,238.79,115.7,239.72,114.56,239.72z"/>
					</g>
					<g>
						<path class="st2" d="M116.63,216.38h-2v-23.32c0-0.03-0.04-0.07-0.07-0.07h-13.71v-2h13.71c1.14,0,2.07,0.93,2.07,2.07V216.38
							z"/>
					</g>
					<g>
						<rect x="40.5" y="229.45" class="st2" width="57.78" height="2"/>
					</g>
					<g>
						<rect x="104.77" y="229.45" class="st2" width="10.87" height="2"/>
					</g>
					<g>
						<rect x="62.13" y="245.57" class="st2" width="31.48" height="2"/>
					</g>
					<g>
						<polygon class="st2" points="114.93,217.08 108.54,210.69 105.47,213.76 104.06,212.34 107.83,208.57 109.24,208.57 
							116.34,215.67 116.63,216.38 115.63,216.38 						"/>
					</g>
					<g>
						
							<rect x="97.96" y="217.77" transform="matrix(0.7071 -0.7071 0.7071 0.7071 -125.68 134.1126)" class="st2" width="2.17" height="2"/>
					</g>
					<g>
						<polygon class="st2" points="92.4,225.41 83.94,216.95 79.09,221.8 77.68,221.8 61.07,205.19 58.02,208.23 56.61,206.82 
							60.36,203.07 61.77,203.07 78.38,219.68 83.23,214.83 84.65,214.83 93.11,223.29 95.38,221.02 96.79,222.44 93.82,225.41 
													"/>
					</g>
					<g>
						<polygon class="st2" points="50.37,214.46 45.35,209.44 41.21,213.58 39.8,212.17 44.64,207.32 46.06,207.32 51.08,212.34 
							53.49,209.93 54.91,211.35 51.79,214.46 						"/>
					</g>
				</g>
			</g>
		</g>
		<g>
			<g>
				<g id="XMLID_23_">
					<g>
						<path class="st5" d="M786.13,116.9c6.32,2.06,10.88,8,10.88,15.01c0,7.34-5,13.51-11.78,15.28c-1.28,0.34-2.63,0.52-4.02,0.52
							c-1.42,0-2.81-0.19-4.12-0.55c-6.73-1.81-11.68-7.95-11.68-15.25c0-6.98,4.52-12.89,10.8-14.98c1.57-0.53,3.25-0.81,5.01-0.81
							C782.93,116.11,784.58,116.39,786.13,116.9z"/>
						<path class="st14" d="M788.57,117.93c2.88,2.86,4.66,6.82,4.66,11.2c0,7.34-5,13.51-11.78,15.28
							c-1.28,0.34-2.63,0.52-4.02,0.52c-1.42,0-2.81-0.19-4.12-0.55c-1.13-0.3-2.2-0.74-3.22-1.27c1.92,1.9,4.31,3.32,7,4.05
							c1.31,0.36,2.7,0.55,4.12,0.55c1.39,0,2.73-0.18,4.02-0.52c6.78-1.77,11.78-7.94,11.78-15.28
							C797.01,125.84,793.58,120.58,788.57,117.93z"/>
						<path class="st15" d="M781.22,147.71c1.39,0,2.73-0.18,4.02-0.52l-0.33,11.42h-7.48l-0.34-11.42l0.01-0.03
							C778.41,147.52,779.79,147.71,781.22,147.71z"/>
						<path class="st15" d="M781.22,116.11c-1.75,0-3.43,0.28-5.01,0.81l-0.01-0.04l-0.37-12.55h10.66l-0.37,12.55v0.01
							C784.58,116.39,782.93,116.11,781.22,116.11z"/>
						<path class="st16" d="M781.22,147.71c1.39,0,2.73-0.18,4.02-0.52l-0.33,11.42h-3.69C781.22,158.61,781.22,152.9,781.22,147.71
							z"/>
						<path class="st16" d="M781.22,116.11c-0.06-4.28-0.05-11.78-0.05-11.78h5.33l-0.37,12.55v0.01
							C784.58,116.39,782.93,116.11,781.22,116.11z"/>
						<path class="st2" d="M820.73,129.11l-11.29,0.72c-0.09-1.43-0.3-2.88-0.61-4.28l11.05-2.45
							C820.32,125.07,820.61,127.09,820.73,129.11z"/>
						<path class="st2" d="M809.38,134.15l11.28,1.03c-0.19,2.01-0.53,4.03-1.01,5.98l-10.98-2.72
							C809.01,137.03,809.26,135.59,809.38,134.15z"/>
						<path class="st2" d="M818.12,117.29l-10.55,4.1c-0.18-0.48-0.39-0.95-0.59-1.42c-0.39-0.85-0.82-1.69-1.28-2.49l9.81-5.65
							c0.65,1.11,1.24,2.28,1.78,3.47C817.58,115.96,817.85,116.62,818.12,117.29z"/>
						<path class="st2" d="M807.29,142.54l10.45,4.37c-0.78,1.87-1.72,3.69-2.76,5.4l-9.65-5.9
							C806.08,145.18,806.74,143.88,807.29,142.54z"/>
						<path class="st2" d="M812.07,106.82l-8.82,7.09c-0.48-0.61-1.01-1.21-1.55-1.77l8.2-7.8
							C810.66,105.13,811.39,105.97,812.07,106.82z"/>
						<path class="st2" d="M802.78,149.92l8.64,7.32c-0.71,0.84-1.46,1.65-2.23,2.43l-8-8.01
							C801.74,151.1,802.28,150.53,802.78,149.92z"/>
						<path class="st8" d="M795.74,190.66c0,6.24-14.58,14.26-14.58,14.26s-14.57-6.26-14.57-14.67c0-6.27,0-25.07,0-25.07h9.59
							l-0.18-6.57h1.42h7.48h1.42l-0.18,6.57h9.59C795.74,165.18,795.74,184.29,795.74,190.66z"/>
						<path class="st8" d="M777.73,94.06h6.98c2.72-1.49,2.72-4.58,2.72-4.58H775C775,89.48,775.01,92.57,777.73,94.06z
							 M767.97,84.81h26.49c0,0,0,8.4-5.81,12.45l-0.34,7.08h-1.82h-10.66h-1.85l-0.21-7.09C767.98,93.21,767.97,84.81,767.97,84.81
							z"/>
						<path class="st2" d="M761.34,151.76l-7.95,8.05c-0.78-0.77-1.54-1.58-2.24-2.41l8.59-7.36
							C760.25,150.63,760.79,151.22,761.34,151.76z"/>
						<path class="st2" d="M752.36,104.52l8.25,7.74c-0.54,0.58-1.06,1.17-1.54,1.78l-8.87-7.02
							C750.88,106.16,751.6,105.31,752.36,104.52z"/>
						<path class="st2" d="M757.18,146.55l-9.62,5.95c-0.9-1.45-1.72-2.98-2.42-4.54c-0.12-0.27-0.25-0.56-0.36-0.83l10.4-4.44
							c0.08,0.2,0.18,0.4,0.26,0.6C755.96,144.42,756.54,145.51,757.18,146.55z"/>
						<path class="st2" d="M746.8,112.05l9.83,5.59c-0.71,1.25-1.33,2.57-1.85,3.92l-10.57-4.04
							C744.94,115.64,745.8,113.8,746.8,112.05z"/>
						<path class="st2" d="M753.8,138.59l-10.96,2.8c-0.49-1.96-0.85-3.97-1.04-5.98l11.26-1.08
							C753.2,135.76,753.44,137.2,753.8,138.59z"/>
						<path class="st2" d="M742.49,123.34l11.07,2.38c-0.3,1.41-0.5,2.86-0.58,4.3l-11.29-0.67
							C741.8,127.33,742.07,125.32,742.49,123.34z"/>
						<path class="st9" d="M781.22,84.81v4.67h6.2c0,0,0,3.09-2.72,4.58h-3.49v10.28h5.28h1.82l0.34-7.08
							c5.81-4.04,5.81-12.45,5.81-12.45H781.22z"/>
						<path class="st9" d="M786.15,165.18l0.18-6.57h-1.42h-3.69v46.28c0.95-0.53,14.52-8.2,14.52-14.22c0-6.37,0-25.48,0-25.48
							H786.15z"/>
					</g>
					<g>
						<g>
							<rect x="777.31" y="122.78" class="st2" width="2" height="18.26"/>
						</g>
						<g>
							<rect x="781.87" y="137.72" class="st2" width="2" height="3.32"/>
						</g>
						<g>
							<rect x="781.87" y="122.78" class="st2" width="2" height="3.32"/>
						</g>
						<g>
							<path class="st2" d="M782.46,132.08v-2c2.07,0,2.73-0.36,2.73-1.49c0-1.13-0.66-1.49-2.73-1.49h-7.48v-2h7.48
								c1.17,0,4.73,0,4.73,3.49C787.19,132.08,783.63,132.08,782.46,132.08z"/>
						</g>
						<g>
							<path class="st2" d="M784.12,138.72h-9.14v-2h9.14c1.54,0,2.32-0.78,2.32-2.32c0-1.54-0.78-2.33-2.32-2.33h-5.81v-2h5.81
								c3.18,0,4.32,2.24,4.32,4.33C788.44,137.03,786.74,138.72,784.12,138.72z"/>
						</g>
						<g>
							<path class="st2" d="M767.28,126.92l-1.88-0.67c0.39-1.1,0.91-2.17,1.53-3.17l1.7,1.05
								C768.08,125.01,767.62,125.95,767.28,126.92z"/>
						</g>
						<g>
							<path class="st2" d="M781.22,148.71c-1.5,0-2.97-0.2-4.38-0.58c-7.31-1.97-12.42-8.64-12.42-16.22
								c0-0.67,0.04-1.35,0.12-2.01l1.99,0.24c-0.07,0.58-0.11,1.18-0.11,1.78c0,6.68,4.5,12.56,10.94,14.29
								c2.45,0.67,5.15,0.68,7.62,0.03c6.5-1.7,11.03-7.59,11.03-14.32c0-6.42-4.1-12.07-10.19-14.06
								c-2.99-0.98-6.32-0.97-9.29,0.03c-1.46,0.48-2.82,1.19-4.06,2.1l-1.18-1.61c1.41-1.03,2.96-1.83,4.61-2.39
								c3.38-1.13,7.16-1.15,10.55-0.03c6.92,2.26,11.57,8.67,11.57,15.96c0,7.64-5.15,14.32-12.52,16.25
								C784.1,148.52,782.67,148.71,781.22,148.71z"/>
						</g>
						<g>
							
								<rect x="776.26" y="147.19" transform="matrix(0.9996 -0.0297 0.0297 0.9996 -4.1941 23.1271)" class="st2" width="2" height="11.42"/>
						</g>
						<g>
							
								<rect x="775.02" y="104.34" transform="matrix(0.9996 -0.0293 0.0293 0.9996 -2.9104 22.8084)" class="st2" width="2" height="12.55"/>
						</g>
						<g>
							<path class="st2" d="M788.32,105.34h-14.33l-1-0.97l-0.19-6.6c-5.75-4.37-5.82-12.6-5.82-12.95l1-1h4.42v2h-3.36
								c0.21,2.25,1.16,7.72,5.32,10.62l0.43,0.79l0.18,6.12h12.41l0.29-6.13l0.43-0.77c4.18-2.91,5.11-8.38,5.32-10.62h-15.59v-2
								h16.65l1,1c0,0.36-0.07,8.59-5.83,12.97l-0.32,6.6L788.32,105.34z"/>
						</g>
						<g>
							<path class="st2" d="M784.7,95.06h-6.98l-0.48-0.12c-3.19-1.75-3.24-5.31-3.24-5.46l1-1h2.42v2h-1.26
								c0.21,0.79,0.7,1.87,1.84,2.58h6.44c1.14-0.71,1.62-1.79,1.83-2.58h-6.17v-2h7.32l1,1c0,0.15-0.04,3.7-3.24,5.46L784.7,95.06
								z"/>
						</g>
						<g>
							
								<rect x="780.04" y="109.61" transform="matrix(0.0293 -0.9996 0.9996 0.0293 652.718 893.3479)" class="st2" width="12.55" height="2"/>
						</g>
						<g>
							
								<rect x="779.36" y="151.9" transform="matrix(0.0288 -0.9996 0.9996 0.0288 609.6321 933.2387)" class="st2" width="11.42" height="2"/>
						</g>
						<g>
							<rect x="765.59" y="180.9" class="st2" width="2" height="2.14"/>
						</g>
						<g>
							<path class="st2" d="M780.76,205.84c-0.62-0.27-15.17-6.62-15.17-15.59v-3.84h2v3.84c0,6.87,11.14,12.44,13.52,13.55
								c4.18-2.37,13.62-8.67,13.62-13.14v-24.48h-8.59l-1-1.03l0.15-5.54h-8.27l0.15,5.54l-1,1.03h-8.59v6.15h-2v-7.15l1-1h8.56
								l-0.15-5.54l1-1.03h10.32l1,1.03l-0.15,5.54h8.56l1,1v25.48c0,6.64-13.55,14.28-15.09,15.13L780.76,205.84z"/>
						</g>
						<g>
							<rect x="780.16" y="186.41" class="st2" width="2" height="10.6"/>
						</g>
						<g>
							<rect x="786.16" y="181.11" class="st2" width="2" height="10.6"/>
						</g>
						<g>
							<rect x="774.3" y="181.11" class="st2" width="2" height="10.6"/>
						</g>
					</g>
				</g>
			</g>
		</g>
		<g>
			<path class="st5" d="M715.66,304.52l-0.16-1.99c1.06-0.09,25.85-2.42,25.58-26.48l2-0.02
				C743.37,301.96,715.94,304.49,715.66,304.52z"/>
		</g>
		<g>
			<g>
				<path class="st17" d="M730.6,225.8c-0.01,0-1.09-0.42-2.77-0.96l0.6-1.91c1.75,0.55,2.85,0.98,2.9,1L730.6,225.8z"/>
			</g>
			<g>
				<path class="st17" d="M721.7,293.54l-0.84-1.81c1.75-0.81,3.3-1.92,4.62-3.32l1.45,1.38
					C725.44,291.36,723.68,292.63,721.7,293.54z M730.46,284.42l-1.83-0.8c0.66-1.51,1.11-3.11,1.34-4.74
					c0.04-0.27,0.06-0.53,0.07-0.8l2,0.09c-0.02,0.33-0.05,0.66-0.09,0.98C731.7,280.97,731.2,282.74,730.46,284.42z M728.78,272.69
					c-0.77-1.57-1.89-3.17-3.33-4.75l1.48-1.34c1.56,1.72,2.79,3.48,3.65,5.22L728.78,272.69z M721.08,263.93
					c-1.51-1.18-3.17-2.31-4.94-3.36l1.02-1.72c1.84,1.1,3.58,2.27,5.15,3.5L721.08,263.93z M710.81,257.8l-0.54-0.26
					c-1.52-0.72-3.25-1.53-4.98-2.43l0.92-1.78c1.7,0.88,3.41,1.69,4.92,2.4l0.55,0.26L710.81,257.8z M699.9,251.98
					c-1.96-1.32-3.56-2.63-4.87-4.03l1.46-1.37c1.19,1.26,2.71,2.52,4.53,3.74L699.9,251.98z M691.58,242.48
					c-0.45-1.31-0.68-2.67-0.68-4.05l0-0.19c0.01-0.77,0.08-1.53,0.19-2.26l1.97,0.31c-0.1,0.64-0.16,1.3-0.17,1.97l0,0.16
					c0,1.16,0.19,2.3,0.57,3.39L691.58,242.48z M695.18,231.12l-1.63-1.16c1.17-1.65,2.75-3.14,4.67-4.42l1.11,1.67
					C697.61,228.36,696.21,229.67,695.18,231.12z M704.58,224.61l-0.7-1.88c1.87-0.69,3.9-1.26,6.03-1.68l0.39,1.96
					C708.28,223.41,706.35,223.95,704.58,224.61z M722.02,223.32c-2.14-0.44-4.12-0.71-5.89-0.79l0.1-2
					c1.88,0.09,3.96,0.37,6.2,0.83L722.02,223.32z"/>
			</g>
			<g>
				<path class="st17" d="M713.15,295.3c-0.27,0-0.55,0-0.83-0.01l0.06-2c0.99,0.03,1.95,0,2.87-0.09l0.2,1.99
					C714.71,295.27,713.94,295.3,713.15,295.3z"/>
			</g>
		</g>
		<g>
			<rect x="700.88" y="188.5" class="st5" width="23.77" height="2"/>
		</g>
		<g>
			<g>
				<rect x="711.83" y="178.47" class="st17" width="2" height="3"/>
			</g>
			<g>
				<path class="st17" d="M713.83,172.84h-2v-5.63h2V172.84z M713.83,161.58h-2v-5.63h2V161.58z M713.83,150.32h-2v-5.63h2V150.32z
					 M713.83,139.06h-2v-5.63h2V139.06z M713.83,127.8h-2v-5.63h2V127.8z"/>
			</g>
			<g>
				<rect x="711.83" y="113.54" class="st17" width="2" height="3"/>
			</g>
		</g>
		<g>
			
				<rect x="637.95" y="234.01" transform="matrix(0.5779 -0.8161 0.8161 0.5779 87.6806 639.5425)" class="st5" width="48.28" height="2"/>
		</g>
		<g>
			<g>
				<rect x="611.07" y="224" class="st17" width="2" height="3"/>
			</g>
			<g>
				<path class="st17" d="M613.07,287.29h-2v-6.03h2V287.29z M613.07,275.23h-2v-6.03h2V275.23z M613.07,263.17h-2v-6.03h2V263.17z
					 M613.07,251.12h-2v-6.03h2V251.12z M613.07,239.06h-2v-6.03h2V239.06z"/>
			</g>
			<g>
				<rect x="611.07" y="293.32" class="st17" width="2" height="3"/>
			</g>
		</g>
		<g>
			<polygon class="st5" points="540.81,303.51 517.61,303.51 517.61,301.51 539.81,301.51 539.81,270.49 541.81,270.49 
				541.81,302.51 			"/>
		</g>
		<g>
			<g>
				<rect x="527.61" y="222.18" class="st17" width="3" height="2"/>
			</g>
			<g>
				<path class="st17" d="M567.6,252.15l-1.59-1.21c1.18-1.55,2.06-3.27,2.6-5.11l1.92,0.57
					C569.92,248.47,568.93,250.41,567.6,252.15z M569.31,240.08c-0.07-1.99-0.45-3.89-1.14-5.65l1.86-0.73
					c0.77,1.97,1.2,4.09,1.28,6.31L569.31,240.08z M565.13,229.58c-1.29-1.39-2.84-2.54-4.61-3.41l0.88-1.79
					c1.99,0.98,3.74,2.28,5.19,3.85L565.13,229.58z M554.98,224.45c-1.18-0.18-2.41-0.28-3.67-0.28h-2.29v-2h2.29
					c1.37,0,2.71,0.1,3.98,0.3L554.98,224.45z M542.88,224.18h-6.14v-2h6.14V224.18z"/>
			</g>
			<g>
				<path class="st17" d="M560.3,258.25l-0.98-1.74c0.87-0.49,1.69-1.01,2.45-1.54l1.16,1.63
					C562.11,257.18,561.23,257.73,560.3,258.25z"/>
			</g>
		</g>
		<g>
			<g>
				<rect x="232.83" y="98.02" class="st17" width="3" height="2"/>
			</g>
			<g>
				<path class="st17" d="M429.44,109.02c-1.11-1.83-1.7-3.94-1.7-6.13v-0.17h2v0.17c0,1.82,0.49,3.57,1.41,5.09L429.44,109.02z
					 M226.76,100.02h-0.18c-2.19,0-4.29-0.74-6.06-2.14l1.24-1.57c1.41,1.12,3.08,1.71,4.82,1.71h0.18V100.02z M429.74,96.66h-2
					v-6.06h2V96.66z M216.85,92.44c-0.34-1.1-0.51-2.25-0.51-3.42v-2.89h2v2.89c0,0.97,0.14,1.92,0.42,2.83L216.85,92.44z
					 M429.74,84.53h-2v-6.06h2V84.53z M218.34,80.07h-2v-6.06h2V80.07z M429.74,72.41h-2v-6.06h2V72.41z M218.34,67.94h-2v-4.59
					c0-0.54,0.04-1.08,0.12-1.61l1.98,0.29c-0.06,0.43-0.1,0.88-0.1,1.32V67.94z M427.32,60.63c-0.56-1.75-1.63-3.27-3.09-4.4
					l1.22-1.58c1.78,1.38,3.09,3.24,3.77,5.37L427.32,60.63z M220.78,57.2l-1.46-1.37c1.55-1.65,3.52-2.77,5.71-3.24l0.42,1.96
					C223.67,54.93,222.05,55.85,220.78,57.2z M419.2,54.36c-0.15-0.01-0.31-0.01-0.46-0.01h-5.56v-2h5.56c0.19,0,0.37,0,0.56,0.01
					L419.2,54.36z M407.12,54.35h-6.06v-2h6.06V54.35z M395,54.35h-6.06v-2H395V54.35z M382.87,54.35h-6.06v-2h6.06V54.35z
					 M370.74,54.35h-6.06v-2h6.06V54.35z M358.62,54.35h-6.06v-2h6.06V54.35z M346.49,54.35h-6.06v-2h6.06V54.35z M334.37,54.35
					h-6.06v-2h6.06V54.35z M322.24,54.35h-6.06v-2h6.06V54.35z M310.11,54.35h-6.06v-2h6.06V54.35z M297.99,54.35h-6.06v-2h6.06
					V54.35z M285.86,54.35h-6.06v-2h6.06V54.35z M273.74,54.35h-6.06v-2h6.06V54.35z M261.61,54.35h-6.06v-2h6.06V54.35z
					 M249.48,54.35h-6.06v-2h6.06V54.35z M237.36,54.35h-6.06v-2h6.06V54.35z"/>
			</g>
			<g>
				<path class="st17" d="M440.44,114.66l-2.8-0.68c-1.08-0.02-2.15-0.24-3.17-0.64l0.73-1.86c0.83,0.33,1.69,0.49,2.57,0.5
					l0.23,0.03l2.9,0.7L440.44,114.66z"/>
			</g>
			<g>
				<path class="st17" d="M427.16,180.48c-1.53,0-3.03-0.07-4.45-0.2l0.19-1.99c1.86,0.17,3.91,0.23,5.87,0.17l0.06,2
					C428.28,180.47,427.72,180.48,427.16,180.48z M434.94,179.85l-0.34-1.97c1.99-0.35,3.88-0.85,5.61-1.49l0.7,1.87
					C439.06,178.95,437.05,179.48,434.94,179.85z M416.64,179.23c-2.07-0.54-4.02-1.27-5.81-2.16l0.89-1.79
					c1.66,0.83,3.49,1.51,5.42,2.02L416.64,179.23z M446.46,175.46l-1.11-1.67c1.56-1.04,3-2.27,4.26-3.65l0.08-0.09l1.49,1.33
					l-0.1,0.11C449.71,172.99,448.15,174.33,446.46,175.46z M454.78,166.31l-1.75-0.96c0.89-1.63,1.65-3.42,2.26-5.34l1.91,0.61
					C456.54,162.66,455.73,164.57,454.78,166.31z M458.59,154.63l-1.97-0.32c0.29-1.84,0.49-3.81,0.59-5.86l2,0.09
					C459.11,150.68,458.9,152.72,458.59,154.63z M457.21,142.55c-0.09-2.04-0.29-4.02-0.58-5.86l1.97-0.31
					c0.3,1.92,0.5,3.96,0.6,6.08L457.21,142.55z M455.32,130.99c-0.6-1.92-1.36-3.72-2.24-5.35l1.76-0.96
					c0.95,1.74,1.75,3.66,2.4,5.7L455.32,130.99z M449.77,120.95l-0.11-0.12c-1.45-1.59-2.81-2.83-4.16-3.78l1.16-1.63
					c1.46,1.04,2.92,2.37,4.47,4.06l0.11,0.12L449.77,120.95z"/>
			</g>
			<g>
				<path class="st17" d="M405.58,173.61c-0.78-0.67-1.54-1.39-2.25-2.16l1.47-1.36c0.65,0.71,1.35,1.38,2.07,2L405.58,173.61z"/>
			</g>
		</g>
		<g>
			<path class="st5" d="M411.91,134.09l-1.97-0.34c0.5-2.89,1.58-5.49,3.21-7.74c2.37-3.27,5.54-5.41,9.41-6.35l0.47,1.94
				c-3.4,0.83-6.18,2.7-8.27,5.58C413.32,129.18,412.36,131.51,411.91,134.09z"/>
		</g>
		<g>
			<g>
				<g>
					<path class="st17" d="M459.42,293.43c-1.04,0-2.07-0.03-3.06-0.1l0.13-2c0.95,0.06,1.94,0.09,2.93,0.09V293.43z"/>
				</g>
				<g>
					<path class="st17" d="M450.4,292.51c-2.04-0.45-3.97-1.08-5.75-1.88l0.81-1.83c1.66,0.74,3.47,1.33,5.38,1.75L450.4,292.51z
						 M439.4,287.54c-1.25-0.95-2.42-2.03-3.49-3.21c-0.3-0.33-0.59-0.68-0.88-1.03l1.55-1.26c0.26,0.32,0.53,0.64,0.81,0.95
						c0.98,1.09,2.06,2.08,3.21,2.96L439.4,287.54z M431.76,278.19c-0.86-1.73-1.6-3.62-2.18-5.63l1.92-0.56
						c0.55,1.89,1.24,3.67,2.05,5.29L431.76,278.19z M428.33,266.7c-0.27-1.88-0.45-3.88-0.53-5.94l2-0.08
						c0.08,1.99,0.25,3.92,0.51,5.73L428.33,266.7z M429.82,254.91l-2-0.1c0.1-2.07,0.31-4.07,0.61-5.94l1.97,0.32
						C430.12,250.99,429.92,252.91,429.82,254.91z M431.71,243.63l-1.91-0.6c0.63-1.99,1.41-3.86,2.33-5.57l1.76,0.94
						C433.03,239.99,432.3,241.75,431.71,243.63z M437.07,233.75l-1.51-1.31c0.1-0.12,0.21-0.24,0.32-0.36
						c1.26-1.4,2.67-2.66,4.2-3.73l1.15,1.63c-1.4,0.99-2.7,2.15-3.87,3.44L437.07,233.75z M446.17,227.31l-0.75-1.85
						c1.8-0.73,3.75-1.3,5.8-1.7l0.38,1.96C449.67,226.09,447.85,226.63,446.17,227.31z M463.01,225.13
						c-1.15-0.09-2.35-0.13-3.57-0.13c-0.74,0-1.46,0.02-2.17,0.05l-0.09-2c0.76-0.04,1.58-0.05,2.33-0.05
						c1.25,0,2.47,0.04,3.66,0.13L463.01,225.13z"/>
				</g>
				<g>
					<path class="st17" d="M471.5,226.79c-0.89-0.3-1.83-0.57-2.79-0.8l0.46-1.95c1.02,0.24,2.03,0.53,2.98,0.85L471.5,226.79z"/>
				</g>
			</g>
		</g>
		<g>
			<g>
				<path class="st5" d="M472.85,303.49l-0.45-1.95c7.3-1.68,13.3-4.98,17.83-9.81c6.09-6.49,9.57-15.77,10.34-27.58l2,0.13
					c-0.8,12.28-4.46,21.98-10.88,28.82C486.88,298.22,480.54,301.71,472.85,303.49z"/>
			</g>
		</g>
		<g>
			<rect x="666.06" y="101.77" class="st5" width="2" height="87.37"/>
		</g>
		<g>
			<g>
				<rect x="304.96" y="142.57" class="st17" width="3" height="2"/>
			</g>
			<g>
				<path class="st17" d="M350.55,144.57h-5.32v-2h5.32V144.57z M339.9,144.57h-5.32v-2h5.32V144.57z M329.26,144.57h-5.32v-2h5.32
					V144.57z M318.61,144.57h-5.32v-2h5.32V144.57z"/>
			</g>
			<g>
				<rect x="355.87" y="142.57" class="st17" width="3" height="2"/>
			</g>
		</g>
		<g>
			<rect x="317.63" y="152.7" class="st5" width="27.41" height="2"/>
		</g>
		<g>
			<g>
				<path class="st17" d="M759.49,228.03l-0.75-1.85c0.87-0.35,1.84-0.7,2.89-1.04l0.62,1.9
					C761.23,227.36,760.31,227.7,759.49,228.03z"/>
			</g>
			<g>
				<path class="st17" d="M777.74,259.23l-1.52-1.3c0.83-0.97,1.81-1.86,2.94-2.65c0.6-0.43,1.2-0.85,1.79-1.27l1.17,1.62
					c-0.59,0.43-1.19,0.86-1.8,1.29C779.33,257.61,778.46,258.39,777.74,259.23z M786.87,251.99l-1.27-1.54
					c1.68-1.39,3.05-2.68,4.2-3.96l1.49,1.34C790.07,249.18,788.63,250.54,786.87,251.99z M794.81,242.77l-1.79-0.89
					c0.85-1.71,1.36-3.45,1.54-5.3l1.99,0.19C796.34,238.87,795.77,240.83,794.81,242.77z M793.65,231.43
					c-0.8-1.43-2.08-2.8-3.72-3.95l1.15-1.63c1.88,1.33,3.37,2.92,4.31,4.62L793.65,231.43z M767.87,225.51l-0.44-1.95
					c2.03-0.46,4.02-0.81,5.92-1.06l0.26,1.98C771.77,224.72,769.84,225.07,767.87,225.51z M784.9,225.01
					c-1.34-0.43-2.68-0.7-3.99-0.81c-0.5-0.04-1.01-0.07-1.54-0.08l0.04-2c0.58,0.01,1.13,0.04,1.67,0.08
					c1.46,0.12,2.95,0.42,4.44,0.9L784.9,225.01z"/>
			</g>
			<g>
				<path class="st17" d="M774.02,266.83h-1c0-0.58,0-1.75,0.32-3.19l1.95,0.44c-0.27,1.23-0.27,2.21-0.27,2.74L774.02,266.83z"/>
			</g>
		</g>
		<g>
			<g>
				<rect x="320.44" y="290.39" class="st17" width="2" height="3"/>
			</g>
			<g>
				<path class="st17" d="M331.47,337.09c-2.26,0-4.41-0.67-6.25-1.95l1.14-1.64c1.51,1.04,3.26,1.59,5.09,1.59c0,0,0,0,0,0
					L331.47,337.09C331.47,337.09,331.47,337.09,331.47,337.09z M765.3,337.09h-3.97v-2h3.97c0.63,0,1.25-0.07,1.86-0.2l0.41,1.96
					C766.84,337.01,766.07,337.09,765.3,337.09z M755.28,337.09h-6.05v-2h6.05V337.09z M743.17,337.09h-6.05v-2h6.05V337.09z
					 M731.07,337.09h-6.05v-2h6.05V337.09z M718.96,337.09h-6.05v-2h6.05V337.09z M706.85,337.09h-6.05v-2h6.05V337.09z
					 M694.74,337.09h-6.05v-2h6.05V337.09z M682.63,337.09h-6.05v-2h6.05V337.09z M670.52,337.09h-6.05v-2h6.05V337.09z
					 M658.41,337.09h-6.05v-2h6.05V337.09z M646.3,337.09h-6.05v-2h6.05V337.09z M634.19,337.09h-6.05v-2h6.05V337.09z
					 M622.09,337.09h-6.05v-2h6.05V337.09z M609.98,337.09h-6.05v-2h6.05V337.09z M597.87,337.09h-6.05v-2h6.05V337.09z
					 M585.76,337.09h-6.05v-2h6.05V337.09z M573.65,337.09h-6.05v-2h6.05V337.09z M561.54,337.09h-6.05v-2h6.05V337.09z
					 M549.43,337.09h-6.05v-2h6.05V337.09z M537.32,337.09h-6.05v-2h6.05V337.09z M525.22,337.09h-6.05v-2h6.05V337.09z
					 M513.11,337.09h-6.05v-2h6.05V337.09z M501,337.09h-6.05v-2H501V337.09z M488.89,337.09h-6.05v-2h6.05V337.09z M476.78,337.09
					h-6.05v-2h6.05V337.09z M464.67,337.09h-6.05v-2h6.05V337.09z M452.56,337.09h-6.05v-2h6.05V337.09z M440.45,337.09h-6.05v-2
					h6.05V337.09z M428.34,337.09h-6.05v-2h6.05V337.09z M416.24,337.09h-6.05v-2h6.05V337.09z M404.13,337.09h-6.05v-2h6.05V337.09
					z M392.02,337.09h-6.05v-2h6.05V337.09z M379.91,337.09h-6.05v-2h6.05V337.09z M367.8,337.09h-6.05v-2h6.05V337.09z
					 M355.69,337.09h-6.05v-2h6.05V337.09z M343.58,337.09h-6.05v-2h6.05V337.09z M773.3,333.63l-1.45-1.37
					c1.27-1.34,2.09-3.01,2.36-4.82l1.98,0.3C775.84,329.95,774.85,331.99,773.3,333.63z M321.16,329.99
					c-0.48-1.25-0.72-2.56-0.72-3.9v-2.43h2v2.43c0,1.1,0.2,2.17,0.59,3.19L321.16,329.99z M776.3,321.54h-2v-6.05h2V321.54z
					 M322.44,317.6h-2v-6.05h2V317.6z M776.3,309.43h-2v-6.05h2V309.43z M322.44,305.5h-2v-6.05h2V305.5z"/>
			</g>
			<g>
				<rect x="774.3" y="294.3" class="st17" width="2" height="3"/>
			</g>
		</g>
	</g>
</g>
</svg>
