<?xml version="1.0" encoding="utf-8"?>
<!-- Generator: Adobe Illustrator 24.1.1, SVG Export Plug-In . SVG Version: 6.00 Build 0)  -->
<svg version="1.1" id="Hero" xmlns="http://www.w3.org/2000/svg" xmlns:xlink="http://www.w3.org/1999/xlink" x="0px" y="0px"
	 viewBox="0 0 41 38.8" style="enable-background:new 0 0 41 38.8;" xml:space="preserve">
<style type="text/css">
	.st0{fill:#FF5555;}
	.st1{fill:#243052;}
	.st2{fill:#394966;}
	.st3{fill:#FFFFFF;}
</style>
<path class="st0" d="M30.7,4.5H37V3.2l-0.4-1.6c-0.1-0.6-0.7-1-1.2-1h-3.1c-0.6,0-1.1,0.4-1.2,1l-0.4,1.6V4.5z"/>
<path class="st1" d="M26.8,3.2h10.8c0.7,0,1.3,0.6,1.3,1.3v11.4c0,0.7-0.6,1.3-1.3,1.3H26.8V3.2z"/>
<path class="st2" d="M23.7,25.4H8.4l1.9-10.2h11.4L23.7,25.4z"/>
<path class="st2" d="M5.2,1.3h21.6c1.1,0,1.9,0.9,1.9,1.9v14c0,1.1-0.9,1.9-1.9,1.9H5.2c-1.1,0-1.9-0.9-1.9-1.9v-14
	C3.3,2.1,4.2,1.3,5.2,1.3z"/>
<path class="st2" d="M25.6,26.7l-0.4-1.6c-0.1-0.6-0.7-1-1.2-1H8.1c-0.6,0-1.1,0.4-1.2,1l-0.4,1.6v1.9h19.1V26.7z"/>
<path class="st0" d="M5.9,3.8h20.4v12.7H5.9V3.8z"/>
<path class="st1" d="M4.6,26.7h33.1c1.1,0,1.9,0.9,1.9,1.9v7.6c0,1.1-0.9,1.9-1.9,1.9H4.6c-1.1,0-1.9-0.9-1.9-1.9v-7.6
	C2.7,27.6,3.5,26.7,4.6,26.7z"/>
<path class="st3" d="M30.7,5.7h1.3V7h-1.3V5.7z"/>
<path class="st3" d="M33.2,5.7h1.3V7h-1.3V5.7z"/>
<path class="st3" d="M35.7,5.7H37V7h-1.3V5.7z"/>
<path class="st3" d="M30.7,8.3h1.3v1.3h-1.3V8.3z"/>
<path class="st3" d="M33.2,8.3h1.3v1.3h-1.3V8.3z"/>
<path class="st3" d="M35.7,8.3H37v1.3h-1.3V8.3z"/>
<path class="st3" d="M30.7,10.8h1.3v1.3h-1.3V10.8z"/>
<path class="st3" d="M33.2,10.8h1.3v1.3h-1.3V10.8z"/>
<path class="st3" d="M30.7,13.4h1.3v1.3h-1.3V13.4z"/>
<path class="st3" d="M33.2,13.4h1.3v1.3h-1.3V13.4z"/>
<path class="st3" d="M35.7,10.8H37v3.8h-1.3V10.8z"/>
<path class="st3" d="M26.8,3.8c0-0.4-0.3-0.6-0.6-0.6H5.9c-0.4,0-0.6,0.3-0.6,0.6v12.7c0,0.4,0.3,0.6,0.6,0.6h20.4
	c0.4,0,0.6-0.3,0.6-0.6V3.8z M25.6,15.9H6.5V4.5h19.1V15.9z"/>
<path class="st3" d="M37.7,26.1H26.1L25.8,25c-0.2-0.8-1-1.4-1.8-1.4l-0.7-3.8h3.6c1.2,0,2.2-0.8,2.5-1.9h3.9v2.5
	c0,0.7-0.6,1.3-1.3,1.3h-7v1.3h7c1.4,0,2.5-1.1,2.5-2.5v-2.5h3.2c1.1,0,1.9-0.9,1.9-1.9V4.5c0-1.1-0.9-1.9-1.9-1.9h-0.1l-0.3-1.1
	C37,0.6,36.3,0,35.4,0h-3.1c-0.9,0-1.6,0.6-1.9,1.4l-0.3,1.1h-0.9C29,1.4,28,0.6,26.8,0.6H5.2c-1.4,0-2.5,1.1-2.5,2.5v14
	c0,1.4,1.1,2.5,2.5,2.5h3.6l-0.7,3.8c-0.9,0-1.6,0.6-1.8,1.4L6,26.1H4.6c-1.4,0-2.5,1.1-2.5,2.5v7.6c0,1.4,1.1,2.5,2.5,2.5h33.1
	c1.4,0,2.5-1.1,2.5-2.5v-7.6C40.2,27.2,39.1,26.1,37.7,26.1L37.7,26.1z M38.3,4.5v11.4c0,0.4-0.3,0.6-0.6,0.6h-8.3V3.8h8.3
	C38,3.8,38.3,4.1,38.3,4.5z M31.7,1.8c0.1-0.3,0.3-0.5,0.6-0.5h3.1c0.3,0,0.5,0.2,0.6,0.5l0.2,0.8h-4.7L31.7,1.8z M3.9,17.2v-14
	c0-0.7,0.6-1.3,1.3-1.3h21.6c0.7,0,1.3,0.6,1.3,1.3v14c0,0.7-0.6,1.3-1.3,1.3H5.2C4.5,18.4,3.9,17.9,3.9,17.2z M21.9,19.7l0.7,3.8
	H9.4l0.7-3.8H21.9z M7.5,25.3c0.1-0.3,0.3-0.5,0.6-0.5h15.8c0.3,0,0.5,0.2,0.6,0.5l0.2,0.8H7.3L7.5,25.3z M38.9,36.3
	c0,0.7-0.6,1.3-1.3,1.3H4.6c-0.7,0-1.3-0.6-1.3-1.3v-7.6c0-0.7,0.6-1.3,1.3-1.3h33.1c0.7,0,1.3,0.6,1.3,1.3V36.3z"/>
<path class="st3" d="M13.8,11.5l3.6-3.6l0.9,0.9l-3.6,3.6L13.8,11.5z"/>
<path class="st3" d="M16.5,12.4l1.8-1.8l0.9,0.9l-1.8,1.8L16.5,12.4z"/>
<path class="st3" d="M12.9,8.8L14.7,7l0.9,0.9l-1.8,1.8L12.9,8.8z"/>
<path class="st3" d="M37,28.6H5.2c-0.4,0-0.6,0.3-0.6,0.6v6.4c0,0.4,0.3,0.6,0.6,0.6H37c0.4,0,0.6-0.3,0.6-0.6v-6.4
	C37.7,28.9,37.4,28.6,37,28.6z M36.4,35H5.9v-5.1h30.5V35z"/>
<path class="st3" d="M20.5,31.8h1.3v1.3h-1.3V31.8z"/>
</svg>
