<svg id="Filledoutline" height="512" viewBox="0 0 512 512" width="512" xmlns="http://www.w3.org/2000/svg"><path d="m376 64h80v-16l-4.97-19.881a16 16 0 0 0 -15.522-12.119h-39.016a16 16 0 0 0 -15.522 12.119l-4.97 19.881z" fill="#f8bc1e"/><path d="m328 48h136a16 16 0 0 1 16 16v144a16 16 0 0 1 -16 16h-136z" fill="#0093b9"/><path d="m288 328h-192l24-128h144z" fill="#e3e4e2"/><path d="m276 264h-168l12-64h144z" fill="#c9c9c8"/><rect fill="#e3e4e2" height="224" rx="24" width="320" x="32" y="24"/><path d="m312 344-4.97-19.881a16 16 0 0 0 -15.522-12.119h-199.016a16 16 0 0 0 -15.522 12.119l-4.97 19.881v24h240z" fill="#c9c9c8"/><path d="m64 56h256v160h-256z" fill="#0093b9"/><path d="m80 72h224v128h-224z" fill="#2ba3c4"/><rect fill="#959494" height="144" rx="24" width="464" x="24" y="344"/><path d="m376 80h16v16h-16z"/><path d="m408 80h16v16h-16z"/><path d="m440 80h16v16h-16z"/><path d="m376 112h16v16h-16z"/><path d="m408 112h16v16h-16z"/><path d="m440 112h16v16h-16z"/><path d="m376 144h16v16h-16z"/><path d="m408 144h16v16h-16z"/><path d="m376 176h16v16h-16z"/><path d="m408 176h16v16h-16z"/><path d="m440 144h16v48h-16z"/><path d="m328 56a8 8 0 0 0 -8-8h-256a8 8 0 0 0 -8 8v160a8 8 0 0 0 8 8h256a8 8 0 0 0 8-8zm-16 152h-240v-144h240z"/><path d="m464 336h-145.754l-3.455-13.821a23.961 23.961 0 0 0 -23.151-18.173l-9-48.006h45.36a32.056 32.056 0 0 0 30.987-24h49.013v32a16.019 16.019 0 0 1 -16 16h-88v16h88a32.036 32.036 0 0 0 32-32v-32h40a24.028 24.028 0 0 0 24-24v-144a24.028 24.028 0 0 0 -24-24h-1.754l-3.455-13.821a23.966 23.966 0 0 0 -23.283-18.179h-39.016a23.966 23.966 0 0 0 -23.283 18.179l-3.455 13.821h-10.767a32.056 32.056 0 0 0 -30.987-24h-272a32.036 32.036 0 0 0 -32 32v176a32.036 32.036 0 0 0 32 32h45.361l-9 48.006a23.961 23.961 0 0 0 -23.151 18.173l-3.456 13.821h-17.754a32.036 32.036 0 0 0 -32 32v96a32.036 32.036 0 0 0 32 32h416a32.036 32.036 0 0 0 32-32v-96a32.036 32.036 0 0 0 -32-32zm8-272v144a8.009 8.009 0 0 1 -8 8h-104v-160h104a8.009 8.009 0 0 1 8 8zm-83.269-33.94a7.99 7.99 0 0 1 7.761-6.06h39.016a7.99 7.99 0 0 1 7.761 6.06l2.485 9.94h-59.508zm-348.731 193.94v-176a16.019 16.019 0 0 1 16-16h272a16.019 16.019 0 0 1 16 16v176a16.019 16.019 0 0 1 -16 16h-272a16.019 16.019 0 0 1 -16-16zm226.361 32 9 48h-166.722l9-48zm-181.63 70.06a7.99 7.99 0 0 1 7.761-6.06h199.016a7.99 7.99 0 0 1 7.761 6.06l2.485 9.94h-219.508zm395.269 137.94a16.019 16.019 0 0 1 -16 16h-416a16.019 16.019 0 0 1 -16-16v-96a16.019 16.019 0 0 1 16-16h416a16.019 16.019 0 0 1 16 16z"/><path d="m160 128h64v16h-64z" transform="matrix(.707 -.707 .707 .707 -39.931 175.598)"/><path d="m198.627 150.627h32v16h-32z" transform="matrix(.707 -.707 .707 .707 -49.304 198.225)"/><path d="m153.373 105.373h32v16h-32z" transform="matrix(.707 -.707 .707 .707 -30.559 152.971)"/><path d="m456 368h-400a8 8 0 0 0 -8 8v80a8 8 0 0 0 8 8h400a8 8 0 0 0 8-8v-80a8 8 0 0 0 -8-8zm-8 80h-384v-64h384z"/><path d="m248 408h16v16h-16z"/></svg>