<?xml version="1.0" encoding="utf-8"?>
<!-- Generator: Adobe Illustrator 24.1.1, SVG Export Plug-In . SVG Version: 6.00 Build 0)  -->
<svg version="1.1" id="Capa_1" xmlns="http://www.w3.org/2000/svg" xmlns:xlink="http://www.w3.org/1999/xlink" x="0px" y="0px"
	 viewBox="0 0 494.44 354.61" style="enable-background:new 0 0 494.44 354.61;" xml:space="preserve">
<style type="text/css">
	.st0{fill:#00537D;}
	.st1{fill:#39BDBD;}
	.st2{fill:#009199;}
	.st3{fill:#F0FFD7;}
	.st4{fill:#FFCC00;}
	.st5{fill:#E64E17;}
	.st6{fill:#85273D;}
	.st7{fill:#2E2E30;}
	.st8{fill:#333053;}
	.st9{fill:#5C5C7F;}
	.st10{fill:#1D1D1F;}
	.st11{fill:#46456B;}
	.st12{fill:#D8D8DA;}
	.st13{fill:#C6C5CB;}
	.st14{fill:#ACABB1;}
	.st15{fill:#E0E0E2;}
	.st16{enable-background:new    ;}
	.st17{fill:#378B4F;}
	.st18{fill:#40A559;}
	.st19{fill:#4DBA69;}
	.st20{fill:#D2EDDA;}
	.st21{fill:#ADDFBA;}
	.st22{fill:#94D6A8;}
	.st23{fill:#639DEB;}
	.st24{fill:#82D3FF;}
	.st25{fill:#1F5C9C;}
	.st26{fill:#FFED87;}
	.st27{fill:#E3BA48;}
	.st28{fill:#7D878F;}
	.st29{fill:#575E63;}
	.st30{fill:#313538;}
	.st31{fill:#FFFBDB;}
	.st32{fill:#AED8E8;}
	.st33{fill:#E8AE00;}
	.st34{fill:#FFD900;}
	.st35{fill:#C77E00;}
</style>
<path class="st0" d="M109.22,23.39v126.87c23.99-0.27,43.27-10.48,43.27-23.06V23.39H109.22z"/>
<path class="st1" d="M108.86,23.39H63.98v103.79c0,12.79,19.82,23.08,44.26,23.08h0.98V23.39H108.86z"/>
<path class="st2" d="M109.22,61.75v5.9c23.99-0.3,43.27-11.96,43.27-20.65v-6.88C149.4,51.35,131.03,61.48,109.22,61.75z"/>
<path class="st3" d="M108.24,61.75c-22.24,0-41.11-10.23-44.26-21.64v6.88c0,8.85,19.82,20.71,44.26,20.71h0.98v-5.96L108.24,61.75z
	"/>
<path class="st2" d="M109.22,84.31v5.9c23.99-0.3,43.27-11.96,43.27-20.65v-6.88C149.4,73.91,131.03,84.04,109.22,84.31z"/>
<path class="st3" d="M108.24,84.37c-22.24,0-41.11-10.24-44.26-21.64v6.88c0,8.85,19.82,20.71,44.26,20.71h0.98v-5.9L108.24,84.37z"
	/>
<path class="st2" d="M109.22,106v5.9c23.99-0.3,43.27-11.96,43.27-20.65v-6.88C149.4,95.61,131.03,105.74,109.22,106z"/>
<path class="st3" d="M108.24,106C86,106,67.13,95.76,63.98,84.37v6.88c0,8.85,19.82,20.71,44.26,20.71h0.98v-5.9L108.24,106z"/>
<path class="st4" d="M152.5,24.37c0,13.05-19.82,23.6-44.26,23.6s-44.26-10.52-44.26-23.6s19.82-23.6,44.26-23.6
	S152.5,11.35,152.5,24.37z"/>
<path class="st3" d="M139.41,22.87c0,8.44-13.96,15.27-31.17,15.27s-31.17-6.88-31.17-15.27S91.03,7.6,108.24,7.6
	S139.41,14.43,139.41,22.87z"/>
<path class="st5" d="M116.11,84.37v84.12c0,12.79,19.99,23.08,44.43,23.08h0.81V84.37H116.11z"/>
<path class="st6" d="M204.62,168.48V84.37h-43.27v107.2C184.95,191.38,204.62,181.12,204.62,168.48z"/>
<path class="st3" d="M204.62,85.35c0,13.05-19.82,23.6-44.26,23.6s-44.26-10.58-44.26-23.6s19.82-23.6,44.26-23.6
	S204.62,72.33,204.62,85.35z"/>
<path class="st5" d="M191.53,83.84c0,8.44-13.96,15.27-31.17,15.27s-31.17-6.88-31.17-15.27s13.96-15.27,31.17-15.27
	S191.53,75.41,191.53,83.84z"/>
<path class="st2" d="M161.59,125.67h-0.25v5.9h0.25c23.99-0.3,43.03-11.96,43.03-20.65v-6.88
	C201.52,115.28,183.4,125.41,161.59,125.67z"/>
<path class="st3" d="M160.61,125.67c-22.24,0-41.36-10.24-44.5-21.64v6.88c0,8.85,20.05,20.71,44.5,20.71
	c0.25-0.02,0.49-0.02,0.74,0v-5.9L160.61,125.67z"/>
<path class="st2" d="M161.59,145.34h-0.25v5.9h0.25c23.99-0.3,43.03-11.96,43.03-20.65v-6.88
	C201.52,134.95,183.4,145.08,161.59,145.34z"/>
<path class="st3" d="M160.61,145.34c-22.24,0-41.36-10.24-44.5-21.64v6.88c0,8.85,20.05,20.71,44.5,20.71
	c0.25-0.02,0.49-0.02,0.74,0v-5.9L160.61,145.34z"/>
<path class="st2" d="M161.59,167.9h-0.25v5.9h0.25c23.99-0.3,43.03-11.96,43.03-20.65v-6.88
	C201.52,157.51,183.4,167.64,161.59,167.9z"/>
<path class="st3" d="M160.61,167.96c-22.24,0-41.36-10.24-44.5-21.64v6.88c0,8.85,20.05,20.71,44.5,20.71h0.74v-5.9L160.61,167.96z"
	/>
<path class="st1" d="M28.58,121.74v64.45c0,12.79,19.53,23.08,43.71,23.08h0.55v-87.53H28.58z"/>
<path class="st0" d="M116.11,186.19v-64.45H72.83v87.53C96.44,209.08,116.11,198.82,116.11,186.19z"/>
<path class="st3" d="M116.11,122.72c0,13.05-19.59,23.6-43.76,23.6s-43.76-10.52-43.76-23.6s19.59-23.6,43.76-23.6
	S116.11,109.7,116.11,122.72z"/>
<path class="st1" d="M103.16,121.22c0,8.44-13.77,15.27-30.82,15.27s-30.82-6.84-30.82-15.27s13.77-15.27,30.82-15.27
	S103.16,112.78,103.16,121.22z"/>
<path class="st2" d="M73.32,162.99h-0.48v5.9h0.48c23.72-0.3,42.79-11.96,42.79-20.65v-6.88
	C113.04,152.59,94.87,162.72,73.32,162.99L73.32,162.99z"/>
<path class="st3" d="M72.34,163.04c-21.99,0-40.66-10.24-43.76-21.64v6.88c0,8.85,19.59,20.71,43.76,20.71h0.49v-5.9L72.34,163.04z"
	/>
<path class="st2" d="M73.32,184.68h-0.48v5.9h0.48c23.72-0.3,42.79-11.96,42.79-20.65v-6.88
	C113.04,174.29,94.87,184.41,73.32,184.68L73.32,184.68z"/>
<path class="st3" d="M72.34,184.68c-21.99,0-40.66-10.23-43.76-21.64v6.88c0,8.85,19.59,20.71,43.76,20.71h0.49v-5.9L72.34,184.68z"
	/>
<path class="st1" d="M94.47,183.7v39.86c0,12.79,19.99,23.08,44.43,23.08h0.81V183.7H94.47z"/>
<path class="st0" d="M182.98,223.56V183.7h-43.27v62.94C163.31,246.45,182.98,236.19,182.98,223.56z"/>
<path class="st4" d="M182.98,184.68c0,13.05-19.82,23.6-44.26,23.6s-44.26-10.58-44.26-23.6c0-13.02,19.82-23.6,44.26-23.6
	S182.98,171.66,182.98,184.68z"/>
<path class="st3" d="M169.89,183.18c0,8.44-13.96,15.27-31.17,15.27s-31.17-6.84-31.17-15.27c0-8.44,13.96-15.27,31.17-15.27
	S169.89,174.74,169.89,183.18z"/>
<path class="st2" d="M139.96,224.02h-0.25v5.9h0.25c23.99-0.3,43.03-11.96,43.03-20.65v-6.88
	C179.89,213.62,161.76,223.75,139.96,224.02z"/>
<path class="st3" d="M138.97,224.02c-22.24,0-41.31-10.24-44.5-21.64v6.88c0,8.85,20.05,20.71,44.5,20.71
	c0.25-0.02,0.49-0.02,0.74,0v-5.9L138.97,224.02z"/>
<path class="st5" d="M154.46,182.71l4.92-2.95l-4.92-2.95l2.95-1.97l-4.92-2.95l-2.95,1.97l-5.9-2.95l-14.75,6.88l10.82,6.88
	l-5.9,2.95l-9.83-6.88l-5.9,2.95l6.88,4.92l-3.93,1.97l3.93,2.95l3.93-1.97l3.93,2.95l15.74-8.85l-10.82-6.88l5.9-2.95
	L154.46,182.71z"/>
<path class="st3" d="M164.3,85.35l19.67-0.98l-6.88-3.93l-11.8,0.98l2.95-5.9l-4.92-2.95l-4.92,9.83l-0.3,0.17l-6.58-3.12
	l-4.92,2.95l6.4,3.04l-10.34,5.81l5.9,2.95l10.49-5.9l6.23,2.95l4.92-2.95l-6.05-2.86L164.3,85.35z"/>
<path class="st1" d="M128.89,24.37l4.92-2.95l-18.69-10.82l-8.77,4.68l-3.03-1.73l-3.93,1.97l3.23,1.76l-3.89,2.08l-3.27-1.87
	l-3.93,1.97l3.46,1.89l-9.36,5l17.7,9.83l5.9-2.95l-11.8-6.88l3.33-1.85l12.4,6.77l2.95-1.97l-11.83-6.76l3.94-2.19l12.8,6.98
	l2.95-1.97l-12.21-6.98l3.36-1.87L128.89,24.37z"/>
<path class="st4" d="M88.57,121.74l4.92-2.95l-16.72-8.85l-7.7,4.81L63,110.92l-4.92,2.95l6.17,3.89l-11.08,6.92l16.72,9.83
	l4.92-2.95L63,124.69l6.05-3.89l7.72,4.88l4.92-2.95l-7.89-4.98l2.97-1.91L88.57,121.74z"/>
<polygon class="st7" points="367.06,62.29 315.11,92.48 315.11,220.11 442.49,293.66 494.08,263.47 494.44,135.83 "/>
<polygon class="st8" points="442.49,166.02 494.44,135.83 494.08,263.47 442.49,293.66 "/>
<polygon class="st9" points="315.11,92.48 367.06,62.29 494.44,135.83 442.49,166.02 "/>
<g>
	<path class="st10" d="M452.59,124.55c-6.91-3.99-18.09-3.99-24.95,0c-6.87,3.99-6.83,10.46,0.08,14.46
		c6.91,3.99,18.09,3.99,24.96,0C459.54,135.01,459.51,128.54,452.59,124.55"/>
	<path class="st10" d="M381.83,83.94c-6.91-3.99-18.09-3.99-24.95,0c-6.87,3.99-6.83,10.46,0.08,14.46c6.91,3.99,18.09,3.99,24.96,0
		C388.78,94.41,388.74,87.94,381.83,83.94"/>
</g>
<polygon class="st11" points="442.49,166.02 442.49,293.66 315.11,220.11 315.11,92.48 "/>
<path class="st8" d="M378.89,162.08c-8.85-5.11-16.05-1.01-16.08,9.16c-0.02,6.62,3,14.17,7.55,20.05v32.32l16.86,9.73v-32.32
	c4.57-0.61,7.62-4.66,7.64-11.28C394.89,179.58,387.74,167.19,378.89,162.08z"/>
<path class="st12" d="M442.82,37.03c-7.9-13.68-18.42-24.78-29.64-31.26c-11.21-6.47-21.77-7.54-29.72-3.01l-16.58,9.64
	c-7.95,4.53-12.35,14.12-12.39,27l-0.11,51.31v0.2c0.02,1.21,0.48,2.42,1.37,3.54c0.72,0.91,1.74,1.77,3.04,2.52
	c1.3,0.75,2.78,1.34,4.36,1.75c1.46,0.39,3,0.63,4.57,0.73c1.08,0.07,2.18,0.07,3.26,0.01h0c3.28-0.2,6.46-1.03,8.97-2.49
	c2.51-1.46,3.93-3.3,4.27-5.2c0.05-0.25,0.07-0.5,0.08-0.75v-0.25l0.12-53.3c0.01-4.05,0.66-7.56,1.84-10.47h0
	c3.2,0.42,6.67,1.65,10.29,3.74c15.78,9.11,28.58,31.28,28.53,49.41l-0.12,51.07v0.45c0.06,1.24,0.57,2.48,1.53,3.62
	c0,0,0,0,0.01,0.01c0.72,0.84,1.68,1.64,2.89,2.33c1.21,0.7,2.58,1.26,4.03,1.66c0.01,0,0.01,0.01,0.01,0.01
	c1.55,0.44,3.2,0.71,4.87,0.82c0.02,0,0.04,0.01,0.06,0.01c1.13,0.08,2.27,0.08,3.39,0c0.03,0,0.06,0,0.09-0.01h0.01
	c3.22-0.22,6.33-1.05,8.79-2.48c2.46-1.43,3.87-3.23,4.26-5.09v0c0,0,0-0.01,0-0.01c0.06-0.3,0.1-0.6,0.1-0.89V78.22
	C455.06,65.35,450.73,50.72,442.82,37.03z"/>
<path class="st13" d="M384.43,37.47l-0.12,53.3v0.25c-0.01,0.25-0.03,0.5-0.08,0.75c-0.34,1.9-1.76,3.75-4.27,5.2
	s-5.69,2.29-8.97,2.49h0c-1.08,0.07-2.17,0.07-3.26-0.01l0.05-17.23l0.07-35.12L384.43,37.47z"/>
<path class="st14" d="M392.79,19.14c-2.83,1.65-5.07,4.31-6.51,7.87h0c-1.18,2.91-1.83,6.42-1.84,10.47l-16.58,9.63
	c0-0.22,0-0.43,0.01-0.64c0-0.04,0-0.08,0-0.12c0-0.06,0-0.12,0-0.17c0.01-0.18,0.01-0.36,0.02-0.53c0-0.02,0-0.03,0-0.05
	c0-0.04,0-0.08,0.01-0.12c0-0.05,0-0.09,0.01-0.13c0.01-0.23,0.02-0.46,0.04-0.69c0.01-0.16,0.02-0.32,0.04-0.48
	c0-0.02,0-0.05,0.01-0.07c0-0.02,0-0.05,0.01-0.07v-0.01c0.01-0.09,0.02-0.18,0.02-0.27c0,0,0,0,0-0.01
	c0.02-0.14,0.03-0.28,0.05-0.41c0-0.01,0-0.02,0-0.03c0-0.01,0-0.02,0-0.03c0-0.01,0-0.02,0-0.02c0.01-0.11,0.02-0.23,0.04-0.34
	c0.02-0.18,0.05-0.35,0.07-0.53c0-0.02,0.01-0.05,0.01-0.07c0.04-0.25,0.08-0.5,0.12-0.74c0-0.01,0-0.01,0-0.02
	c0.03-0.2,0.07-0.4,0.11-0.6c0-0.01,0-0.02,0.01-0.03c0,0,0-0.01,0-0.01c0.01-0.08,0.03-0.17,0.05-0.25
	c0.03-0.16,0.07-0.32,0.1-0.48c0.01-0.03,0.01-0.06,0.02-0.08c0.05-0.22,0.1-0.44,0.16-0.65c0-0.01,0.01-0.02,0.01-0.03
	c0.05-0.2,0.11-0.4,0.16-0.6c0-0.01,0.01-0.02,0.01-0.03c0-0.02,0.01-0.04,0.02-0.06c0.06-0.21,0.12-0.42,0.19-0.62
	c0.06-0.18,0.12-0.36,0.18-0.54c0-0.01,0.01-0.02,0.01-0.02c0.02-0.06,0.05-0.13,0.07-0.19c0.01-0.02,0.01-0.03,0.02-0.05
	c0.04-0.11,0.08-0.22,0.12-0.33c0.01-0.02,0.02-0.05,0.03-0.07c0.02-0.05,0.04-0.11,0.06-0.16c0.06-0.16,0.12-0.31,0.19-0.46
	c0.02-0.04,0.03-0.08,0.05-0.12c0.07-0.16,0.13-0.31,0.21-0.46c0.02-0.05,0.04-0.09,0.06-0.13c0.01-0.02,0.02-0.04,0.03-0.06
	c0.07-0.15,0.14-0.3,0.22-0.44c0.08-0.16,0.17-0.32,0.25-0.48c0.04-0.06,0.07-0.13,0.11-0.19c0.05-0.1,0.11-0.19,0.17-0.29
	c0.04-0.07,0.08-0.14,0.12-0.21c0.18-0.29,0.36-0.57,0.55-0.85c0,0,0,0,0-0.01c0.05-0.06,0.09-0.13,0.14-0.2
	c0.03-0.05,0.07-0.1,0.11-0.15c0.02-0.02,0.03-0.04,0.05-0.06c0,0,0,0,0.01-0.01c0.05-0.06,0.09-0.13,0.14-0.19
	c0.07-0.09,0.14-0.18,0.21-0.27c0,0,0.01-0.01,0.01-0.01c0.06-0.08,0.12-0.16,0.19-0.23c0.01-0.01,0.02-0.02,0.03-0.03
	c0.08-0.1,0.16-0.19,0.24-0.28c0.01-0.01,0.02-0.03,0.03-0.04c0.12-0.13,0.24-0.27,0.37-0.4c0.1-0.1,0.2-0.21,0.31-0.31
	c0.03-0.03,0.07-0.07,0.1-0.1c0.04-0.03,0.07-0.07,0.11-0.1c0.01-0.01,0.02-0.02,0.04-0.04c0.03-0.03,0.05-0.05,0.08-0.08
	c0.09-0.09,0.19-0.17,0.28-0.26c0.02-0.02,0.04-0.03,0.05-0.05c0.03-0.03,0.07-0.06,0.1-0.09c0.01,0,0.01-0.01,0.01-0.01
	c0.03-0.03,0.07-0.06,0.11-0.09c0.04-0.03,0.08-0.06,0.11-0.09l0,0c0.1-0.08,0.21-0.17,0.31-0.24c0.02-0.02,0.04-0.03,0.06-0.04
	c0.06-0.05,0.11-0.09,0.17-0.13c0.06-0.05,0.13-0.1,0.19-0.14h0c0.03-0.02,0.06-0.05,0.09-0.07c0.03-0.02,0.06-0.05,0.09-0.06
	c0.01-0.01,0.02-0.02,0.04-0.03c0.09-0.06,0.19-0.13,0.28-0.19c0.03-0.02,0.07-0.04,0.1-0.06c0.12-0.08,0.25-0.16,0.38-0.23
	c0.04-0.02,0.07-0.04,0.11-0.06L392.79,19.14z"/>
<path class="st13" d="M455.02,78.23v53.41c-0.01,0.3-0.04,0.6-0.1,0.89c0,0,0,0.01,0,0.01v0c-0.38,1.86-1.8,3.66-4.26,5.09
	c-2.46,1.43-5.57,2.26-8.79,2.48h-0.01c-0.03,0-0.06,0.01-0.09,0.01c-1.13,0.08-2.26,0.08-3.39,0c-0.02,0-0.04,0-0.06-0.01v-0.01
	l0.05-17.23v-0.05l0.07-34.96L455.02,78.23z"/>
<g>
	<path class="st15" d="M413.19,5.77l-16.58,9.63c-11.21-6.47-21.76-7.54-29.72-3.01l16.58-9.63C391.42-1.77,401.98-0.7,413.19,5.77z
		"/>
	<path class="st15" d="M455.02,78.23l-16.58,9.63c0.04-12.88-4.29-27.51-12.19-41.2c-7.9-13.68-18.42-24.79-29.64-31.26l16.58-9.63
		c11.21,6.47,21.73,17.57,29.64,31.26C450.73,50.72,455.06,65.35,455.02,78.23z"/>
</g>
<g>
	<path class="st12" d="M438.44,87.86l-0.07,34.96v0.05l-0.05,17.23v0.01c-1.68-0.1-3.32-0.38-4.87-0.82c-0.01,0-0.01,0-0.01-0.01
		c-1.46-0.41-2.82-0.96-4.03-1.66c-1.21-0.7-2.17-1.49-2.89-2.33c0,0,0,0-0.01-0.01c-0.96-1.14-1.47-2.38-1.53-3.62v-0.45
		l0.12-51.07c0.05-18.13-12.75-40.3-28.53-49.41c-3.62-2.09-7.09-3.32-10.29-3.74c1.44-3.56,3.68-6.22,6.51-7.87l-16.54,9.61
		c-0.03,0.02-0.07,0.04-0.11,0.06c-0.13,0.08-0.25,0.15-0.38,0.23c-0.04,0.02-0.07,0.04-0.1,0.06c-0.1,0.06-0.19,0.12-0.28,0.19
		c-0.01,0.01-0.02,0.02-0.04,0.03c-0.03,0.02-0.06,0.04-0.09,0.06c-0.03,0.02-0.06,0.05-0.09,0.07h0c-0.06,0.04-0.13,0.09-0.19,0.14
		c-0.06,0.04-0.12,0.08-0.17,0.13c-0.02,0.01-0.04,0.03-0.06,0.04c-0.1,0.08-0.21,0.16-0.31,0.24l0,0
		c-0.04,0.03-0.07,0.06-0.11,0.09c-0.04,0.03-0.08,0.06-0.11,0.09c-0.01,0-0.01,0.01-0.01,0.01c-0.03,0.03-0.07,0.06-0.1,0.09
		c-0.02,0.02-0.04,0.03-0.05,0.05c-0.1,0.08-0.19,0.17-0.28,0.26c-0.03,0.02-0.06,0.05-0.08,0.08c-0.01,0.01-0.03,0.02-0.04,0.04
		c-0.04,0.03-0.07,0.07-0.11,0.1c-0.04,0.03-0.07,0.07-0.1,0.1c-0.1,0.1-0.21,0.2-0.31,0.31c-0.12,0.13-0.24,0.26-0.37,0.4
		c-0.01,0.01-0.02,0.02-0.03,0.04c-0.08,0.09-0.16,0.19-0.24,0.28c-0.01,0.01-0.02,0.02-0.03,0.03c-0.07,0.08-0.13,0.15-0.19,0.23
		c0,0-0.01,0.01-0.01,0.01c-0.07,0.09-0.14,0.18-0.21,0.27c-0.05,0.06-0.1,0.13-0.14,0.19c0,0-0.01,0-0.01,0.01
		c-0.02,0.02-0.03,0.04-0.05,0.06c-0.04,0.05-0.07,0.1-0.11,0.15c-0.05,0.06-0.09,0.13-0.14,0.2c0,0,0,0,0,0.01
		c-0.19,0.27-0.37,0.56-0.55,0.85c-0.04,0.07-0.08,0.14-0.12,0.21c-0.06,0.1-0.11,0.19-0.17,0.29c-0.04,0.06-0.07,0.13-0.11,0.19
		c-0.09,0.16-0.17,0.32-0.25,0.48c-0.08,0.15-0.15,0.29-0.22,0.44c-0.01,0.02-0.02,0.04-0.03,0.06c-0.02,0.04-0.04,0.09-0.06,0.13
		c-0.07,0.15-0.14,0.3-0.21,0.46c-0.02,0.04-0.03,0.08-0.05,0.12c-0.06,0.15-0.13,0.3-0.19,0.46c-0.02,0.05-0.04,0.11-0.06,0.16
		c-0.01,0.02-0.02,0.04-0.03,0.07c-0.04,0.11-0.08,0.22-0.12,0.33c-0.01,0.02-0.01,0.03-0.02,0.05c-0.02,0.06-0.05,0.13-0.07,0.19
		c0,0.01-0.01,0.02-0.01,0.02c-0.06,0.18-0.12,0.35-0.18,0.54c-0.07,0.2-0.13,0.41-0.19,0.62c-0.01,0.02-0.01,0.04-0.02,0.06
		c0,0.01-0.01,0.02-0.01,0.03c-0.06,0.2-0.11,0.39-0.16,0.6c0,0.01-0.01,0.02-0.01,0.03c-0.06,0.22-0.11,0.43-0.16,0.65
		c-0.01,0.03-0.01,0.06-0.02,0.08c-0.03,0.16-0.07,0.32-0.1,0.48c-0.02,0.08-0.04,0.17-0.05,0.25c0,0,0,0.01,0,0.01
		c0,0.01,0,0.02-0.01,0.03c-0.04,0.2-0.08,0.4-0.11,0.6c0,0.01,0,0.01,0,0.02c-0.04,0.24-0.08,0.49-0.12,0.74
		c0,0.02-0.01,0.05-0.01,0.07c-0.02,0.17-0.05,0.35-0.07,0.53c-0.02,0.11-0.03,0.22-0.04,0.34c0,0.01,0,0.02,0,0.02s0,0.02,0,0.03
		c0,0.01,0,0.02,0,0.03c-0.02,0.14-0.03,0.27-0.05,0.41c0,0,0,0,0,0.01c-0.01,0.09-0.02,0.18-0.02,0.27v0.01
		c0,0.02-0.01,0.05-0.01,0.07c0,0.02-0.01,0.05-0.01,0.07c-0.02,0.16-0.03,0.32-0.04,0.48c-0.02,0.23-0.03,0.46-0.04,0.69
		c0,0.04-0.01,0.09-0.01,0.13c0,0.04-0.01,0.08-0.01,0.12c0,0.02,0,0.03,0,0.05c-0.01,0.17-0.02,0.35-0.02,0.53
		c0,0.06,0,0.12,0,0.17c0,0.04,0,0.08,0,0.12c-0.01,0.21-0.01,0.42-0.01,0.64l-0.07,35.12l-0.05,17.23
		c-1.57-0.1-3.11-0.34-4.57-0.73c-1.58-0.42-3.06-1-4.36-1.75c-1.31-0.75-2.32-1.61-3.04-2.52c-0.89-1.12-1.35-2.33-1.37-3.54v-0.2
		l0.11-51.31c0.04-12.88,4.44-22.47,12.39-27c7.95-4.53,18.51-3.46,29.72,3.01c11.21,6.47,21.73,17.57,29.64,31.26
		C434.15,60.35,438.48,74.98,438.44,87.86z"/>
	<path class="st12" d="M392.79,19.14c-2.83,1.65-5.07,4.31-6.51,7.87h0c-3.79-0.5-7.2,0.11-10.02,1.74L392.79,19.14z"/>
</g>
<g class="st16">
	<g>
		<polygon class="st17" points="258.77,131.85 151.74,194.05 151.59,246.95 338.07,354.61 445.1,292.42 445.25,239.52 		"/>
		<polygon class="st17" points="445.25,239.52 445.1,292.42 338.07,354.61 338.22,301.71 		"/>
	</g>
	<polygon class="st18" points="338.22,301.71 338.07,354.61 151.59,246.95 151.74,194.05 	"/>
	<polygon class="st19" points="445.25,239.52 338.22,301.71 151.74,194.05 258.77,131.85 	"/>
	<path class="st20" d="M409.69,237.92c0.81-1.93,2.51-3.76,5.11-5.27l0.01-5.29l-140.45-81.09c-7.58,4.4-19.9,4.4-27.53,0
		l-61.29,35.62c0.24,0.14,0.47,0.28,0.7,0.42c-0.22-0.14-0.46-0.28-0.7-0.42l-0.01,5.29c2.67,1.54,4.4,3.41,5.21,5.38
		c-0.81,1.93-2.51,3.76-5.11,5.27l-0.01,5.29l140.45,81.09c7.58-4.4,19.9-4.4,27.53,0l61.29-35.62l0.01-5.29
		C412.24,241.77,410.5,239.89,409.69,237.92z M265.99,198.13c18.78-10.91,49.33-10.92,68.23,0c8.34,4.82,13.02,10.95,14.03,17.25
		c-1.03,6.2-5.62,12.24-13.8,16.99c-18.78,10.91-49.33,10.91-68.23,0c-8.35-4.82-13.03-10.97-14.03-17.27
		C253.23,208.89,257.83,202.87,265.99,198.13z"/>
	<g>
		<path class="st21" d="M191.3,189.92l-0.01,5.29c0.01-2.9-1.91-5.81-5.75-8.03l0.01-5.29C189.39,184.1,191.31,187.01,191.3,189.92z
			"/>
		<path class="st21" d="M348.48,212.73l-0.01,5.29c0.02-7.2-4.73-14.41-14.24-19.9c-18.9-10.91-49.45-10.91-68.23,0
			c-9.33,5.42-14,12.52-14.02,19.62l0.01-5.29c0.02-7.11,4.69-14.2,14.02-19.62c18.78-10.91,49.33-10.92,68.23,0
			C343.75,198.32,348.5,205.53,348.48,212.73z"/>
	</g>
	<g>
		<path class="st22" d="M409.14,240.57l0.01-5.29c0.01-2.87,1.89-5.73,5.66-7.92l-0.01,5.29
			C411.04,234.84,409.15,237.7,409.14,240.57z"/>
		<polygon class="st22" points="414.91,243.3 414.89,248.59 353.6,284.21 353.62,278.92 		"/>
	</g>
	<polygon class="st21" points="326.09,278.92 326.07,284.21 185.62,203.12 185.64,197.83 	"/>
	<path class="st22" d="M353.62,278.92l-0.01,5.29c-7.63-4.4-19.95-4.4-27.53,0l0.01-5.29C333.67,274.52,345.99,274.52,353.62,278.92
		z"/>
	<path class="st20" d="M414.82,227.36c-7.58,4.4-7.54,11.54,0.09,15.95l-61.29,35.62c-7.63-4.4-19.95-4.4-27.53,0l-140.45-81.09
		c7.58-4.4,7.54-11.54-0.09-15.95l61.29-35.62c7.63,4.4,19.95,4.4,27.53,0L414.82,227.36z M266.22,232.36
		c18.9,10.91,49.45,10.91,68.23,0c18.78-10.91,18.68-28.61-0.22-39.52c-18.9-10.91-49.45-10.91-68.23,0
		C247.22,203.75,247.32,221.44,266.22,232.36"/>
	<path class="st21" d="M326.35,203.95l0.04-0.02l0.02-8.46l-3.81-2.2l-5.53,3.22c-1.95-0.91-3.99-1.63-6.12-2.16
		c-2.13-0.53-4.28-0.81-6.46-0.84c-2.19-0.03-4.34,0.19-6.48,0.67c-2.14,0.48-4.16,1.27-6.06,2.37c-1.46,0.85-2.53,1.72-3.2,2.6
		s-1,1.81-0.97,2.8c0-0.04,0-0.08,0-0.12l-0.02,8.46c0,0.04,0,0.08,0,0.12c0.02,0.99,0.38,2.05,1.06,3.19
		c0.01,0.01,0.01,0.02,0.02,0.03l-2.5,1.45c-1.14-0.87-2.12-1.79-2.96-2.76c-0.83-0.97-1.51-1.87-2.05-2.71
		c-0.53-0.84-0.91-1.57-1.14-2.18c-0.16-0.46-0.26-0.79-0.28-1.02l0-0.19l-11.81,2.26l-0.02,8.46c0.68,1.91,1.85,3.82,3.53,5.72
		c0.05,0.06,0.11,0.11,0.16,0.17l-0.56,0.32l-0.02,8.46l3.81,2.2l6.36-3.69c1.84,0.98,3.8,1.79,5.87,2.44
		c2.07,0.65,4.19,1.05,6.35,1.23c2.17,0.17,4.35,0.04,6.54-0.38c2.19-0.43,4.33-1.24,6.42-2.45c1.79-1.04,3.04-2.1,3.74-3.17
		c0.58-0.88,0.88-1.77,0.88-2.68l0.02-8.46c0,0.02-0.01,0.04-0.01,0.07c0-0.23,0-0.45-0.04-0.68c-0.14-1.01-0.59-2.06-1.33-3.14
		l2.44-1.42c0.89,0.68,1.66,1.41,2.33,2.2c0.66,0.79,1.22,1.53,1.66,2.23c0.44,0.7,0.77,1.3,0.97,1.8c0.16,0.39,0.24,0.66,0.25,0.84
		l0,0.13l11.42-2.04l0.02-8.46C328.3,206.87,327.44,205.47,326.35,203.95z"/>
	<polygon class="st22" points="326.42,195.47 326.39,203.93 320.86,207.15 320.89,198.68 	"/>
	<path class="st21" d="M301.46,211.12l0.02-8.46c0-0.59,0.41-1.12,1.22-1.59c1.9-1.1,4.24-0.97,7.04,0.38l-0.02,8.46
		c-2.79-1.36-5.14-1.49-7.04-0.38C301.87,210,301.46,210.53,301.46,211.12z"/>
	<path class="st20" d="M279.89,214.75l0.02-8.46c0-0.03,0-0.06,0.01-0.09l-0.02,8.46C279.89,214.69,279.89,214.72,279.89,214.75z"/>
	<polygon class="st22" points="312.27,202.98 312.25,211.44 304.8,215.77 304.82,207.31 	"/>
	<g>
		<path class="st21" d="M287.76,210.26l0.02-8.46c0,0.04,0,0.08,0,0.12c0.02,0.99,0.38,2.05,1.06,3.19
			c0.68,1.13,1.65,2.38,2.91,3.74l-0.02,8.46c-1.25-1.36-2.22-2.61-2.91-3.74c-0.68-1.14-1.04-2.2-1.06-3.19
			C287.76,210.34,287.76,210.3,287.76,210.26z"/>
		<path class="st21" d="M317.49,210.1l-0.02,8.46c0-0.17-0.08-0.47-0.26-0.9c-0.2-0.5-0.53-1.1-0.97-1.8c-0.44-0.7-1-1.44-1.66-2.23
			c-0.67-0.78-1.44-1.52-2.33-2.2l0.02-8.46c0.89,0.68,1.66,1.41,2.33,2.2c0.66,0.79,1.22,1.53,1.66,2.23
			c0.44,0.7,0.77,1.3,0.97,1.8C317.41,209.63,317.49,209.93,317.49,210.1z"/>
	</g>
	<polygon class="st22" points="328.91,208.14 328.88,216.6 317.46,218.64 317.49,210.18 	"/>
	<g>
		<polygon class="st21" points="293.63,210.81 293.61,219.28 291.73,217.3 291.75,208.84 		"/>
		<path class="st21" d="M297.11,215.86l-0.02,8.46c0-0.15-0.02-0.29-0.07-0.45c-0.24-0.76-0.79-1.63-1.64-2.63l0.02-8.46
			c0.85,1,1.39,1.87,1.64,2.63C297.09,215.57,297.11,215.72,297.11,215.86z"/>
	</g>
	<polygon class="st22" points="295.4,212.79 295.38,221.25 288.8,225.07 288.83,216.61 	"/>
	<g>
		<path class="st21" d="M311.18,216.62l-0.02,8.46c0,0.91-0.29,1.81-0.88,2.68l0.02-8.46C310.89,218.42,311.18,217.53,311.18,216.62
			z"/>
		<path class="st21" d="M277.63,219.41l-0.02,8.46c-2.32-1.59-4.31-3.33-5.99-5.23c-1.68-1.9-2.85-3.81-3.53-5.72l0.02-8.46
			c0.68,1.91,1.85,3.82,3.53,5.72C273.32,216.07,275.31,217.82,277.63,219.41z"/>
		<polygon class="st21" points="275.02,225.33 275,233.8 271.19,231.6 271.22,223.13 		"/>
	</g>
	<polygon class="st22" points="281.38,221.64 281.36,230.1 275,233.8 275.02,225.33 	"/>
	<path class="st20" d="M310.31,219.3c-0.71,1.07-1.95,2.13-3.74,3.17c-2.08,1.21-4.22,2.03-6.42,2.45c-2.2,0.42-4.38,0.55-6.54,0.38
		c-2.16-0.17-4.28-0.58-6.35-1.23c-2.07-0.65-4.03-1.46-5.87-2.43l-6.36,3.69l-3.81-2.2l6.41-3.73c-2.32-1.59-4.31-3.33-5.99-5.23
		c-1.68-1.9-2.85-3.81-3.53-5.72l11.81-2.26c-0.04,0.19,0.06,0.59,0.28,1.21c0.22,0.61,0.6,1.34,1.14,2.18
		c0.54,0.84,1.22,1.74,2.05,2.71c0.83,0.97,1.82,1.88,2.96,2.76l7.29-4.24l-1.88-1.97c-1.25-1.36-2.22-2.61-2.91-3.74
		c-0.68-1.14-1.04-2.2-1.06-3.19c-0.03-0.99,0.3-1.92,0.97-2.8c0.67-0.88,1.74-1.75,3.2-2.6c1.9-1.1,3.92-1.89,6.06-2.37
		c2.14-0.48,4.3-0.7,6.48-0.67c2.18,0.03,4.33,0.31,6.46,0.84c2.13,0.53,4.17,1.25,6.12,2.16l5.53-3.22l3.81,2.2l-5.53,3.22
		c2.16,1.51,3.88,3.11,5.14,4.81c1.25,1.7,2.22,3.25,2.88,4.65l-11.42,2.04c0.03-0.15-0.05-0.47-0.25-0.97
		c-0.2-0.5-0.53-1.1-0.97-1.8c-0.44-0.7-1-1.44-1.66-2.23c-0.67-0.78-1.44-1.52-2.33-2.2l-7.45,4.33l1.33,1.27
		c1.36,1.38,2.5,2.68,3.4,3.9c0.9,1.22,1.43,2.39,1.59,3.52C311.3,217.13,311.02,218.23,310.31,219.3z M288.83,216.61
		c2.94,1.57,5.32,1.83,7.15,0.77c0.95-0.55,1.3-1.2,1.06-1.96c-0.24-0.76-0.79-1.63-1.64-2.63L288.83,216.61 M303,205.37l6.74-3.92
		c-2.79-1.36-5.14-1.49-7.04-0.38c-0.91,0.53-1.32,1.14-1.2,1.82C301.61,203.56,302.11,204.39,303,205.37"/>
	<path class="st21" d="M310.31,219.3l-0.02,8.46c-0.71,1.07-1.95,2.13-3.74,3.17c-2.08,1.21-4.22,2.03-6.42,2.45
		c-2.2,0.42-4.38,0.55-6.54,0.38c-2.16-0.17-4.28-0.58-6.35-1.23c-2.07-0.65-4.03-1.46-5.87-2.44l0.02-8.46
		c1.84,0.98,3.8,1.79,5.87,2.43c2.07,0.65,4.19,1.05,6.35,1.23c2.17,0.17,4.35,0.04,6.54-0.38c2.19-0.43,4.33-1.24,6.42-2.45
		C308.35,221.43,309.6,220.37,310.31,219.3z"/>
</g>
<g>
	<path class="st23" d="M153.03,298.45l-0.05-45.55l7.88,5.07l8.45,4.5l12.39,6.76l9.01,5.07l10.7,5.07l0.05,47.92l-27.07-15.83
		L153.03,298.45z"/>
	<path class="st24" d="M181.7,236.12l-28.71,16.79l7.88,5.07l8.45,4.5l12.39,6.76l9.01,5.07l10.7,5.07l29.84-15.76L181.7,236.12z"/>
	<path class="st25" d="M201.4,279.36v47.88l29.84-16.91V263.6L201.4,279.36z"/>
	<path class="st26" d="M168.19,214.62v39.41l8.45,4.5l12.95,6.76l8.45,4.5v-38.29L168.19,214.62z"/>
	<path class="st27" d="M198.03,269.79l22.52-11.26v-39.97l-22.52,12.95V269.79z"/>
	<path class="st28" d="M191.27,201.67l-23.08,12.95l29.84,16.89l22.52-12.95L191.27,201.67z"/>
	<path class="st29" d="M168.19,227l29.84,17.08v-12.57l-29.84-16.89V227z"/>
	<path class="st30" d="M198.03,244.08l10.13-5.37v13.06l12.39,6.76v-39.97l-22.52,12.95V244.08z"/>
	<path class="st25" d="M160.87,257.97v25.34l13.54,28.15l16.3-14.4V274.3l-9.01-5.07l-12.39-6.76L160.87,257.97z"/>
	<path class="st23" d="M168.19,254.03l-7.32,3.94l8.45,4.5l12.39,6.76l9.01,5.07l7.32-4.5l-8.45-4.5l-12.95-6.76L168.19,254.03z"/>
	<path class="st31" d="M169.31,262.47l12.39,6.76v27.02l-7.32,15.2l-5.07-22.52V262.47z"/>
	<path class="st32" d="M169.31,262.47l7.32-3.94l12.95,6.76l-7.88,3.94L169.31,262.47z"/>
	<g>
		<path class="st29" d="M172.69,266.21v8.72l6.76,4.02v-8.72L172.69,266.21z"/>
		<path class="st29" d="M172.69,276.94l6.76,4.02v13.6l-3.94,9.01l-2.82-14.08V276.94z"/>
		<path class="st29" d="M222.8,340.75l-13.51-8.45l3.38-32.66l7.88,4.5l1.13,16.33L222.8,340.75z"/>
	</g>
	<path class="st30" d="M220.55,304.16l39.41-21.96l2.82,14.64l2.82,18.58l-42.79,25.34l-1.13-20.27L220.55,304.16z"/>
	<path class="st28" d="M212.67,299.65l39.41-21.96l7.88,4.5l-39.41,21.96L212.67,299.65z"/>
	<path class="st33" d="M228.43,293.46v-9.01l3.38,1.69v9.01L228.43,293.46z"/>
	<path class="st34" d="M228.43,284.45l11.26-6.19l3.94,1.69l-11.82,6.19L228.43,284.45z"/>
	<path class="st35" d="M231.81,295.15l2.82-1.69v-6.19l3.94-2.25l2.25-1.13v6.76l2.82-1.69v-9.01l-11.82,6.19V295.15z"/>
	<path class="st33" d="M240.82,290.64l-2.25-1.13v-4.5l2.25-1.13V290.64z"/>
	<path class="st30" d="M210.98,331.18l4.5,2.82v-30.97l-1.69-1.13L210.98,331.18z"/>
	<path class="st30" d="M217.17,303.59v31.53l3.94,2.25l-1.69-32.09L217.17,303.59z"/>
	<path class="st29" d="M220.55,304.16l1.13,16.33l41.1-23.65l-2.82-14.64L220.55,304.16z"/>
	<path class="st34" d="M238.56,309.79l7.88-4.5l1.69,1.13l-7.88,4.5L238.56,309.79z"/>
	<path class="st33" d="M238.56,309.79v6.19l1.69,1.13v-6.19L238.56,309.79z"/>
	<path class="st35" d="M240.25,317.11l7.88-4.5v-6.19l-7.88,4.5V317.11z"/>
	<path class="st30" d="M246.17,310.78c0,1.07-0.76,2.36-1.69,2.9c-0.93,0.53-1.69,0.1-1.69-0.97c0-1.07,0.76-2.36,1.69-2.9
		C245.41,309.28,246.17,309.71,246.17,310.78z"/>
	<path class="st31" d="M185.64,308.64v5.07l11.82,7.32v-5.07L185.64,308.64z"/>
	<path class="st34" d="M159.18,322.74v-7.32l-3.94-1.69v6.76l-5.63-3.38v4.5l5.63,3.38v6.76l3.94,2.82v-7.32l2.82,1.69l3.38,2.25
		v-5.07L159.18,322.74z"/>
	<path class="st33" d="M161.99,313.73l-2.82,1.69l-3.94-1.69l2.82-1.69L161.99,313.73z"/>
	<path class="st35" d="M161.99,313.73v7.32l-2.82,1.69v-7.32L161.99,313.73z"/>
	<path class="st33" d="M155.24,317.67v2.82l-5.63-3.38l2.82-1.13L155.24,317.67z"/>
	<path class="st33" d="M161.99,321.05l6.19,3.38l-2.82,1.69l-6.19-3.38L161.99,321.05z"/>
	<path class="st35" d="M168.19,324.43v5.07l-2.82,1.69v-5.07L168.19,324.43z"/>
	<path class="st35" d="M159.18,334.56l2.82-1.13v-4.5l-2.82-1.69V334.56z"/>
	<path class="st34" d="M247.01,228.15v-10.14l-5.6-2.82l-0.03,10.14l-7.88-4.5v6.19l7.88,4.5v10.13l5.63,3.38v-10.14l3.94,2.25
		l4.5,2.82v-7.32L247.01,228.15z"/>
	<path class="st33" d="M250.95,215.76l-3.94,2.25l-5.6-2.82l3.91-2.25L250.95,215.76z"/>
	<path class="st35" d="M250.95,215.76v10.14l-3.94,2.25v-10.14L250.95,215.76z"/>
	<path class="st33" d="M241.38,220.83v4.5l-7.88-4.5l3.94-2.25L241.38,220.83z"/>
	<path class="st33" d="M250.95,225.9l8.45,4.5l-3.94,2.25l-8.45-4.5L250.95,225.9z"/>
	<path class="st35" d="M259.4,230.4v7.32l-3.94,2.25v-7.32L259.4,230.4z"/>
	<path class="st35" d="M247.01,245.04l3.94-2.25v-5.63l-3.94-2.25V245.04z"/>
</g>
</svg>
