<svg height="512" viewBox="0 0 256 256" width="512" xmlns="http://www.w3.org/2000/svg"><path d="m126 25v129c24.39-.27 44-10.66 44-23.45v-105.55z" fill="#00537d"/><path d="m125.63 25h-45.63v105.53c0 13 20.15 23.47 45 23.47h1v-129z" fill="#39bdbd"/><path d="m126 64v6c24.39-.31 44-12.16 44-21v-7c-3.15 11.43-21.83 21.73-44 22z" fill="#009199"/><path d="m125 64c-22.61 0-41.8-10.4-45-22v7c0 9 20.15 21.06 45 21.06h1v-6.06z" fill="#f0ffd7"/><path d="m126 86.94v6c24.39-.31 44-12.16 44-21v-7c-3.15 11.43-21.83 21.73-44 22z" fill="#009199"/><path d="m125 87c-22.61 0-41.8-10.41-45-22v7c0 9 20.15 21.06 45 21.06h1v-6z" fill="#f0ffd7"/><path d="m126 109v6c24.39-.31 44-12.16 44-21v-7c-3.15 11.43-21.83 21.73-44 22z" fill="#009199"/><path d="m125 109c-22.61 0-41.8-10.41-45-22v7c0 9 20.15 21.06 45 21.06h1v-6z" fill="#f0ffd7"/><path d="m170 26c0 13.27-20.15 24-45 24s-45-10.7-45-24 20.15-24 45-24 45 10.76 45 24z" fill="#fc0"/><path d="m156.69 24.47c0 8.58-14.19 15.53-31.69 15.53s-31.69-7-31.69-15.53 14.19-15.53 31.69-15.53 31.69 6.95 31.69 15.53z" fill="#f0ffd7"/><path d="m133 87v85.53c0 13 20.33 23.47 45.18 23.47h.82v-109z" fill="#e64e17"/><path d="m223 172.53v-85.53h-44v109c24-.19 44-10.62 44-23.47z" fill="#85273d"/><path d="m223 88c0 13.27-20.15 24-45 24s-45-10.76-45-24 20.15-24 45-24 45 10.76 45 24z" fill="#f0ffd7"/><path d="m209.69 86.47c0 8.58-14.19 15.53-31.69 15.53s-31.69-7-31.69-15.53 14.19-15.53 31.69-15.53 31.69 6.95 31.69 15.53z" fill="#e64e17"/><path d="m179.25 129h-.25v6h.25c24.39-.31 43.75-12.16 43.75-21v-7c-3.15 11.43-21.58 21.73-43.75 22z" fill="#009199"/><path d="m178.25 129c-22.61 0-42.05-10.41-45.25-22v7c0 9 20.39 21.06 45.25 21.06a5.29 5.29 0 0 1 .75 0v-6z" fill="#f0ffd7"/><path d="m179.25 149h-.25v6h.25c24.39-.31 43.75-12.16 43.75-21v-7c-3.15 11.43-21.58 21.73-43.75 22z" fill="#009199"/><path d="m178.25 149c-22.61 0-42.05-10.41-45.25-22v7c0 9 20.39 21.06 45.25 21.06a5.29 5.29 0 0 1 .75 0v-6z" fill="#f0ffd7"/><path d="m179.25 171.94h-.25v6h.25c24.39-.31 43.75-12.16 43.75-21v-7c-3.15 11.43-21.58 21.73-43.75 22z" fill="#009199"/><path d="m178.25 172c-22.61 0-42.05-10.41-45.25-22v7c0 9 20.39 21.06 45.25 21.06h.75v-6z" fill="#f0ffd7"/><path d="m44 125v65.53c0 13 19.86 23.47 44.44 23.47h.56v-89z" fill="#39bdbd"/><path d="m133 190.53v-65.53h-44v89c24-.19 44-10.62 44-23.47z" fill="#00537d"/><path d="m133 126c0 13.27-19.92 24-44.5 24s-44.5-10.7-44.5-24 19.92-24 44.5-24 44.5 10.76 44.5 24z" fill="#f0ffd7"/><path d="m119.84 124.47c0 8.58-14 15.53-31.34 15.53s-31.34-6.95-31.34-15.53 14-15.53 31.34-15.53 31.34 6.95 31.34 15.53z" fill="#39bdbd"/><path d="m89.49 166.94h-.49v6h.49c24.12-.31 43.51-12.16 43.51-21v-7c-3.12 11.43-21.59 21.73-43.51 22z" fill="#009199"/><path d="m88.5 167c-22.36 0-41.34-10.41-44.5-22v7c0 9 19.92 21.06 44.5 21.06h.5v-6z" fill="#f0ffd7"/><path d="m89.49 189h-.49v6h.49c24.12-.31 43.51-12.16 43.51-21v-7c-3.12 11.43-21.59 21.73-43.51 22z" fill="#009199"/><path d="m88.5 189c-22.36 0-41.34-10.4-44.5-22v7c0 9 19.92 21.06 44.5 21.06h.5v-6z" fill="#f0ffd7"/><path d="m111 188v40.53c0 13 20.33 23.47 45.18 23.47h.82v-64z" fill="#39bdbd"/><path d="m201 228.53v-40.53h-44v64c24-.19 44-10.62 44-23.47z" fill="#00537d"/><path d="m201 189c0 13.27-20.15 24-45 24s-45-10.76-45-24 20.15-24 45-24 45 10.76 45 24z" fill="#fc0"/><path d="m187.69 187.47c0 8.58-14.19 15.53-31.69 15.53s-31.69-6.95-31.69-15.53 14.19-15.53 31.69-15.53 31.69 6.95 31.69 15.53z" fill="#f0ffd7"/><path d="m157.25 229h-.25v6h.25c24.39-.31 43.75-12.16 43.75-21v-7c-3.15 11.43-21.58 21.73-43.75 22z" fill="#009199"/><path d="m156.25 229c-22.61 0-42-10.41-45.25-22v7c0 9 20.39 21.06 45.25 21.06a5.29 5.29 0 0 1 .75 0v-6z" fill="#f0ffd7"/><path d="m172 187 5-3-5-3 3-2-5-3-3 2-6-3-15 7 11 7-6 3-10-7-6 3 7 5-4 2 4 3 4-2 4 3 16-9-11-7 6-3z" fill="#e64e17"/><path d="m182 88 20-1-7-4-12 1 3-6-5-3-5 10-.31.17-6.69-3.17-5 3 6.51 3.09-10.51 5.91 6 3 10.67-6 6.33 3 5-3-6.15-2.91z" fill="#f0ffd7"/><path d="m146 26 5-3-19-11-8.92 4.76-3.08-1.76-4 2 3.28 1.79-3.96 2.11-3.32-1.9-4 2 3.52 1.92-9.52 5.08 18 10 6-3-12-7 3.39-1.88 12.61 6.88 3-2-12.03-6.87 4.01-2.23 13.02 7.1 3-2-12.42-7.1 3.42-1.9z" fill="#39bdbd"/><path d="m105 125 5-3-17-9-7.83 4.89-6.17-3.89-5 3 6.27 3.96-11.27 7.04 17 10 5-3-12-7 6.15-3.96 7.85 4.96 5-3-8.02-5.06 3.02-1.94z" fill="#fc0"/></svg>