<?xml version="1.0" encoding="iso-8859-1"?>
<!-- Generator: Adobe Illustrator 19.0.0, SVG Export Plug-In . SVG Version: 6.00 Build 0)  -->
<svg version="1.1" id="Capa_1" xmlns="http://www.w3.org/2000/svg" xmlns:xlink="http://www.w3.org/1999/xlink" x="0px" y="0px"
	 viewBox="0 0 512 512" style="enable-background:new 0 0 512 512;" xml:space="preserve">
<g style="enable-background:new    ;">
	<g>
		<polygon style="fill:#378B4F;" points="186.865,61.803 0.261,170.245 0,262.481 325.135,450.197 511.738,341.755 512,249.52 		"/>
		<polygon style="fill:#378B4F;" points="512,249.52 511.738,341.755 325.135,450.197 325.397,357.962 		"/>
	</g>
	<polygon style="fill:#40A559;" points="325.397,357.962 325.135,450.197 0,262.481 0.261,170.245 	"/>
	<polygon style="fill:#4DBA69;" points="512,249.52 325.397,357.962 0.261,170.245 186.865,61.803 	"/>
	<path style="fill:#D2EDDA;" d="M450.005,246.735c1.411-3.368,4.377-6.559,8.905-9.19l0.026-9.223L214.064,86.943
		c-13.213,7.679-34.7,7.679-48.001,0L59.207,149.041c0.417,0.24,0.821,0.486,1.212,0.737c-0.391-0.25-0.795-0.495-1.212-0.737
		l-0.026,9.223c4.647,2.682,7.675,5.948,9.09,9.387c-1.41,3.368-4.377,6.561-8.907,9.192l-0.026,9.223l244.874,141.377
		c13.213-7.679,34.7-7.679,48,0l106.856-62.098l0.026-9.223C454.446,253.442,451.42,250.176,450.005,246.735z M199.452,177.355
		c32.742-19.028,86.007-19.032,118.964-0.005c14.544,8.397,22.699,19.097,24.461,30.067c-1.792,10.813-9.802,21.335-24.054,29.617
		c-32.743,19.028-86,19.029-118.957,0.001c-14.566-8.409-22.716-19.128-24.463-30.114
		C177.209,196.127,185.222,185.625,199.452,177.355z"/>
	<g>
		<path style="fill:#ADDFBA;" d="M69.228,163.04l-0.026,9.223c0.015-5.064-3.328-10.135-10.021-13.999l0.026-9.223
			C65.899,152.905,69.242,157.976,69.228,163.04z"/>
		<path style="fill:#ADDFBA;" d="M343.27,202.817l-0.026,9.223c0.036-12.548-8.245-25.117-24.828-34.69
			c-32.957-19.028-86.221-19.024-118.964,0.005c-16.266,9.453-24.409,21.823-24.444,34.211l0.026-9.223
			c0.036-12.388,8.177-24.759,24.444-34.212c32.743-19.028,86.007-19.032,118.964-0.004
			C335.025,177.701,343.305,190.268,343.27,202.817z"/>
	</g>
	<g>
		<path style="fill:#94D6A8;" d="M449.046,251.35l0.026-9.223c0.014-4.999,3.3-9.99,9.864-13.805l-0.026,9.223
			C452.346,241.359,449.061,246.351,449.046,251.35z"/>
		<polygon style="fill:#94D6A8;" points="459.093,256.125 459.067,265.348 352.211,327.446 352.237,318.223 		"/>
	</g>
	<polygon style="fill:#ADDFBA;" points="304.237,318.223 304.211,327.446 59.337,186.069 59.363,176.845 	"/>
	<path style="fill:#94D6A8;" d="M352.237,318.223l-0.026,9.223c-13.3-7.679-34.787-7.678-48,0l0.026-9.223
		C317.45,310.544,338.938,310.544,352.237,318.223z"/>
	<path style="fill:#D2EDDA;" d="M458.937,228.321c-13.213,7.679-13.143,20.125,0.157,27.804l-106.856,62.098
		c-13.3-7.679-34.787-7.678-48,0L59.363,176.845c13.213-7.679,13.143-20.125-0.157-27.804l106.856-62.098
		c13.3,7.679,34.787,7.679,48.001,0L458.937,228.321z M199.865,237.035c32.958,19.028,86.215,19.028,118.957-0.001
		c32.742-19.028,32.576-49.881-0.38-68.909c-32.958-19.028-86.221-19.024-118.964,0.004
		C166.735,187.16,166.909,218.008,199.865,237.035"/>
	<path style="fill:#ADDFBA;" d="M304.703,187.516l0.069-0.041l0.042-14.757l-6.639-3.833l-9.647,5.606
		c-3.4-1.589-6.951-2.848-10.664-3.771c-3.706-0.926-7.468-1.418-11.263-1.472c-3.81-0.054-7.574,0.333-11.306,1.164
		c-3.732,0.838-7.253,2.215-10.562,4.138c-2.548,1.481-4.412,2.991-5.584,4.526c-1.172,1.535-1.739,3.162-1.694,4.884
		c-0.002-0.071-0.003-0.142-0.003-0.213l-0.042,14.757c0,0.071,0.001,0.142,0.002,0.213c0.031,1.722,0.654,3.57,1.846,5.556
		c0.011,0.019,0.026,0.04,0.038,0.059l-4.355,2.531c-1.988-1.522-3.704-3.12-5.155-4.805c-1.449-1.685-2.639-3.253-3.577-4.718
		c-0.93-1.46-1.592-2.732-1.98-3.803c-0.287-0.794-0.453-1.386-0.495-1.773l0.001-0.333l-20.587,3.937l-0.042,14.758
		c1.179,3.332,3.22,6.657,6.148,9.968c0.09,0.102,0.192,0.199,0.284,0.3l-0.975,0.566l-0.042,14.758l6.639,3.833l11.081-6.44
		c3.207,1.702,6.621,3.116,10.235,4.247c3.614,1.131,7.305,1.839,11.073,2.136c3.782,0.297,7.576,0.075,11.409-0.664
		c3.826-0.743,7.556-2.165,11.188-4.275c3.122-1.815,5.294-3.654,6.529-5.527c1.016-1.528,1.527-3.087,1.531-4.676l0.042-14.758
		c0,0.039-0.009,0.077-0.009,0.116c0.007-0.393-0.008-0.787-0.063-1.184c-0.242-1.757-1.034-3.583-2.323-5.476l4.256-2.473
		c1.548,1.185,2.894,2.461,4.054,3.829c1.153,1.372,2.125,2.666,2.895,3.891c0.77,1.217,1.337,2.26,1.696,3.133
		c0.276,0.672,0.416,1.15,0.442,1.458l-0.001,0.235l19.912-3.554l0.042-14.757C308.1,192.598,306.595,190.159,304.703,187.516z"/>
	<polygon style="fill:#94D6A8;" points="304.814,172.718 304.772,187.475 295.127,193.081 295.168,178.324 	"/>
	<path style="fill:#ADDFBA;" d="M261.298,200.013l0.042-14.757c0.003-1.022,0.713-1.948,2.125-2.769
		c3.308-1.923,7.4-1.698,12.274,0.668l-0.042,14.757c-4.873-2.365-8.965-2.59-12.274-0.668
		C262.01,198.065,261.3,198.991,261.298,200.013z"/>
	<path style="fill:#D2EDDA;" d="M223.683,206.339l0.042-14.758c0-0.057,0.004-0.108,0.013-0.152l-0.042,14.757
		C223.688,206.231,223.684,206.282,223.683,206.339z"/>
	<polygon style="fill:#94D6A8;" points="280.153,185.819 280.111,200.577 267.121,208.127 267.163,193.369 	"/>
	<g>
		<path style="fill:#ADDFBA;" d="M237.412,198.504l0.042-14.757c0,0.071,0.001,0.142,0.002,0.213
			c0.031,1.722,0.654,3.57,1.845,5.556c1.192,1.977,2.882,4.15,5.07,6.519l-0.042,14.757c-2.188-2.369-3.878-4.542-5.07-6.519
			c-1.192-1.985-1.814-3.833-1.845-5.556C237.413,198.645,237.412,198.574,237.412,198.504z"/>
		<path style="fill:#ADDFBA;" d="M289.251,198.239l-0.042,14.757c0.001-0.296-0.145-0.817-0.453-1.567
			c-0.357-0.871-0.925-1.914-1.695-3.133c-0.77-1.227-1.742-2.519-2.895-3.891c-1.16-1.368-2.507-2.645-4.054-3.829l0.042-14.758
			c1.548,1.185,2.894,2.461,4.054,3.829c1.153,1.372,2.125,2.666,2.895,3.891c0.77,1.218,1.337,2.261,1.696,3.133
			C289.106,197.422,289.252,197.943,289.251,198.239z"/>
	</g>
	<polygon style="fill:#94D6A8;" points="309.151,194.812 309.11,209.569 289.198,213.123 289.24,198.365 	"/>
	<g>
		<polygon style="fill:#ADDFBA;" points="247.654,199.475 247.613,214.232 244.33,210.791 244.372,196.034 		"/>
		<path style="fill:#ADDFBA;" d="M253.716,208.283l-0.042,14.757c0.001-0.253-0.042-0.514-0.127-0.782
			c-0.425-1.318-1.377-2.84-2.856-4.584l0.042-14.757c1.479,1.744,2.43,3.266,2.856,4.584
			C253.675,207.768,253.717,208.029,253.716,208.283z"/>
	</g>
	<polygon style="fill:#94D6A8;" points="250.734,202.916 250.692,217.674 239.229,224.335 239.272,209.577 	"/>
	<g>
		<path style="fill:#ADDFBA;" d="M278.251,209.594l-0.042,14.758c-0.004,1.589-0.514,3.148-1.531,4.676l0.042-14.758
			C277.736,212.741,278.246,211.183,278.251,209.594z"/>
		<path style="fill:#ADDFBA;" d="M219.749,214.461l-0.042,14.757c-4.041-2.773-7.521-5.814-10.449-9.126
			c-2.928-3.311-4.97-6.636-6.148-9.968l0.042-14.758c1.178,3.332,3.22,6.657,6.148,9.968
			C212.228,208.647,215.708,211.688,219.749,214.461z"/>
		<polygon style="fill:#ADDFBA;" points="215.206,224.793 215.164,239.551 208.524,235.718 208.566,220.959 		"/>
	</g>
	<polygon style="fill:#94D6A8;" points="226.288,218.353 226.245,233.111 215.164,239.551 215.206,224.793 	"/>
	<path style="fill:#D2EDDA;" d="M276.721,214.269c-1.235,1.872-3.406,3.713-6.529,5.527c-3.631,2.111-7.36,3.533-11.188,4.275
		c-3.834,0.739-7.628,0.959-11.409,0.664c-3.768-0.296-7.459-1.005-11.073-2.136c-3.614-1.131-7.028-2.544-10.235-4.245
		l-11.081,6.44l-6.639-3.833l11.183-6.498c-4.041-2.773-7.521-5.814-10.449-9.126c-2.928-3.311-4.97-6.636-6.148-9.968l20.587-3.937
		c-0.063,0.329,0.107,1.034,0.494,2.107c0.388,1.072,1.05,2.344,1.98,3.803c0.937,1.464,2.126,3.032,3.577,4.718
		c1.449,1.685,3.165,3.282,5.155,4.805l12.711-7.386l-3.281-3.441c-2.188-2.369-3.878-4.542-5.07-6.519
		c-1.192-1.985-1.814-3.833-1.845-5.556c-0.046-1.723,0.521-3.349,1.694-4.884c1.172-1.535,3.037-3.045,5.584-4.526
		c3.309-1.923,6.83-3.3,10.562-4.138c3.732-0.83,7.496-1.218,11.306-1.164c3.795,0.054,7.557,0.546,11.263,1.472
		c3.714,0.922,7.263,2.182,10.664,3.77l9.647-5.606l6.639,3.833l-9.647,5.606c3.774,2.628,6.77,5.422,8.962,8.383
		c2.177,2.961,3.863,5.664,5.022,8.104l-19.912,3.554c0.056-0.258-0.084-0.821-0.442-1.694c-0.357-0.871-0.926-1.914-1.696-3.133
		c-0.77-1.227-1.742-2.519-2.895-3.891c-1.16-1.368-2.507-2.645-4.054-3.829l-12.991,7.549l2.317,2.219
		c2.375,2.411,4.354,4.676,5.936,6.802c1.575,2.132,2.493,4.175,2.764,6.136C278.449,210.486,277.963,212.401,276.721,214.269z
		 M239.272,209.577c5.128,2.744,9.278,3.187,12.465,1.334c1.658-0.963,2.271-2.098,1.853-3.412c-0.425-1.318-1.377-2.84-2.856-4.584
		L239.272,209.577 M263.989,189.982l11.749-6.829c-4.873-2.365-8.965-2.59-12.274-0.668c-1.593,0.926-2.294,1.985-2.092,3.166
		C261.567,186.837,262.439,188.28,263.989,189.982"/>
	<path style="fill:#ADDFBA;" d="M276.721,214.269l-0.042,14.758c-1.235,1.872-3.406,3.713-6.529,5.527
		c-3.632,2.111-7.361,3.533-11.188,4.276c-3.834,0.739-7.628,0.959-11.409,0.664c-3.768-0.296-7.459-1.005-11.073-2.136
		c-3.614-1.131-7.028-2.544-10.235-4.247l0.042-14.757c3.207,1.702,6.621,3.116,10.235,4.245c3.614,1.131,7.305,1.839,11.073,2.136
		c3.783,0.296,7.576,0.075,11.409-0.664c3.826-0.742,7.556-2.165,11.188-4.275C273.314,217.981,275.486,216.142,276.721,214.269z"/>
</g>
<g>
</g>
<g>
</g>
<g>
</g>
<g>
</g>
<g>
</g>
<g>
</g>
<g>
</g>
<g>
</g>
<g>
</g>
<g>
</g>
<g>
</g>
<g>
</g>
<g>
</g>
<g>
</g>
<g>
</g>
</svg>
