<?xml version="1.0" encoding="utf-8"?>
<!-- Generator: Adobe Illustrator 24.1.1, SVG Export Plug-In . SVG Version: 6.00 Build 0)  -->
<svg version="1.1" id="Layer_1" xmlns="http://www.w3.org/2000/svg" xmlns:xlink="http://www.w3.org/1999/xlink" x="0px" y="0px"
	 viewBox="0 0 651 651" style="enable-background:new 0 0 651 651;" xml:space="preserve">
<style type="text/css">
	.st0{opacity:0.6;fill:#122666;}
	.st1{opacity:0.6;fill:#2F6843;}
	.st2{opacity:0.1;}
	.st3{enable-background:new    ;}
	.st4{fill:#FFFFFF;}
	.st5{fill:#3A0000;}
</style>
<g>
	<path class="st0" d="M325.6,582c135.3,0,245-109.7,245-245c0-104.1-65-193.1-156.6-228.5H237.2C145.6,144,80.6,232.9,80.6,337
		C80.6,472.3,190.3,582,325.6,582L325.6,582z"/>
	<path class="st1" d="M570.6,334.8c-7.9-6.3-27.7-84.1-65.5-105c-15.5-8.6-50.1,49.3-62.8,36.2c-45.7-46.9-61.9-123.1-81.3-103.7
		c-5,5-11.2,63.6-52.4,76.6c-34.1,10.7-105.7-27-100.6,1.1c7.4,40.7,108.8,38.9,158.9,85.5c50.3,46.9-17.5,101.1-10.3,133.9
		c3.8,17.3,61.8-25,88.3-10.6c23,12.5,15.1,82.1,15.7,92.1c66.3-43.8,110-119,110-204.5C570.6,335.9,570.6,335.3,570.6,334.8z"/>
	<path class="st1" d="M187.1,328.3c-38.1-38.1-83.8-11.5-106.5,6.5c0,0.6,0,1.1,0,1.7c0,85.4,43.7,160.6,110,204.5
		c1.4-21.6,8.7-52.3,36.6-68.6C273.3,445.6,240.2,381.3,187.1,328.3z"/>
	<g>
		<g id="Layer_1_copy" class="st2">
			<g id="Group_1213_3_" transform="translate(-885 -49.991)">
				<g id="Group_1181_3_" transform="translate(885 49.991)">
					<g id="Group_116_3_" transform="translate(0 351.186)">
						<g class="st3">
							<path class="st4" d="M60-25.6c4.8,0,8.9,3.8,8.9,8.2S64.5-9,59.7-9H40.2C24.7-8.5,19.9-3.4,20,12.8v38
								C19.8,66.9,24.7,72,40.1,72.5h20.1c4.6,0,8.7,4.1,8.7,8.5c0,5.1-3.8,8.2-10.6,8.2H38.7C15,89.2,3.4,76.6,3.4,52V11.6
								c0-24.7,11.6-37.2,35.3-37.2H60z"/>
							<path class="st4" d="M143.6-16.7c0-5.3,3.4-8.9,8.2-8.9c5.1,0,8.5,3.6,8.5,8.9v94.1c-0.3,8.9-3.4,12.1-11.1,11.8h-34.6
								c-24.9,0.7-35.5-11.8-36-42.8v-63.1c0-5.3,3.4-8.9,8.2-8.9c5.1,0,8.5,3.6,8.5,8.9v62.9c0,20.3,5.3,26.4,23.4,26.4h24.9V-16.7
								z"/>
							<path class="st4" d="M229.9-25.6c26.4,0.5,37,11.1,37,37.2V52c0.5,25.6-12.1,38-38,37.2h-33.6c-6.8,0.5-10.6-3.4-10.2-10.2
								V-63.1c0-5.3,3.4-8.9,8.2-8.9c5.1,0,8.5,3.6,8.5,8.9v37.5H229.9z M201.9,72.5h26.8c14.8,0.3,21.5-6.5,21.5-21.7v-38
								c0-15.2-6.8-22-21.5-21.7h-26.8V72.5z"/>
							<path class="st4" d="M297.6,48.3c0.3,19.6,4.1,24,21.5,24.2h32.6c5.3,0,9.2,3.4,9.2,8.5c0,4.8-3.8,8.2-9.2,8.2h-32.9
								c-27.8,0-37-9.2-38-37.7V16.1c0-24,16.9-41.9,39.6-41.9c14.5,0,28.1,8,34.6,20.8c3.4,6.5,5.3,15.5,5.3,25.6
								c0,16.2-1.7,19.1-11.4,19.1h-51.5V48.3z M343.6,23.2c0-22.3-7-31.9-23-31.9c-11.1,0-18.6,5.8-21.7,16.9
								c-1,3.8-1.2,5.8-1.2,15H343.6z"/>
							<path class="st4" d="M438.4-63.1c0-5.3,3.4-8.9,8.5-8.9c4.8,0,8.2,3.6,8.2,8.9V79c0.5,6.8-3.4,10.6-10.2,10.2h-33.6
								c-25.8,0.7-38.5-11.6-38-37.2V11.6c0-26.1,10.6-36.8,37-37.2h28.1V-63.1z M411.6-9C396.8-9.2,390-2.5,390,12.8v38
								c0,15.2,6.8,22,21.5,21.7h26.8V-9H411.6z"/>
						</g>
					</g>
					<path class="st4" d="M375.5,90.5h-33.3c-0.1,0-0.1,0-0.2,0s-0.1,0-0.2,0h-33.3c-1.8-0.1-3.6-0.1-5.3,0c-0.3,0-0.5,0-0.8,0
						h-33.3c-33.5-0.8-51.4,16.5-51.4,49.2v88c0.3,33.3,17.6,49.7,51.4,49.2h33.3c0.4,0,0.7,0,1.1-0.1c1.6,0.1,3.3,0.1,5,0.1h33.3
						c0.1,0,0.1,0,0.2,0s0.1,0,0.2,0h33.3c33.8,0.6,51.1-15.9,51.4-49.2v-88C426.9,107,409,89.7,375.5,90.5z M378.6,257.5h-36.3
						c-0.1,0-0.1,0-0.2,0s-0.1,0-0.2,0h-36.4c-21.5,0-29.4-8.9-29-32.9v-81.8c-0.3-24,7.6-32.7,29-32.9h36.3c0.1,0,0.1,0,0.2,0
						s0.1,0,0.2,0h36.3c21.5,0.3,29.3,8.9,29,32.9v81.8C407.8,248.6,400,257.5,378.6,257.5z"/>
				</g>
				<g class="st3">
					<path class="st4" d="M1405.7,365.8h-10.8c-2.6,0-4.8-2-4.8-4.6v-25.5c0-2.6,2-4.5,4.6-4.5h11c2.6,0,4.6,1.9,4.6,4.5v7h-6.8
						v-4.9h-6.5v21.5h6.5v-5.3h6.8v7.3C1410.2,364,1408.3,365.8,1405.7,365.8z"/>
					<path class="st4" d="M1429.4,365.8v-12h-6.1v12h-7v-29.4c0-2.5,2.3-5.1,4.8-5.1h10.6c2.6,0,4.7,2.5,4.7,5.1v29.4H1429.4z
						 M1429.6,337.5h-6.4v9.6h6.4V337.5z"/>
					<path class="st4" d="M1462.6,361.3c0,2.6-2.1,4.6-4.8,4.6H1447c-2.6,0-4.8-2-4.8-4.6v-5.4h6.8v3.7h6.8v-7.9h-8.9
						c-2.6,0-4.8-1.9-4.8-4v-11.8c0-2.9,2.2-4.5,4.8-4.5h11c2.6,0,4.6,1.9,4.6,4.5v5.4h-6.7v-3.6h-6.7v7.6h8.9
						c2.6,0,4.6,1.9,4.6,4.5L1462.6,361.3L1462.6,361.3z"/>
					<path class="st4" d="M1482.2,365.8v-14.5h-6.7v14.5h-7v-34.5h7v13.1h6.7v-13.1h7v34.5H1482.2z"/>
				</g>
				<g class="st3">
					<path class="st4" d="M1405.7,427.8h-10.8c-2.6,0-4.8-2-4.8-4.6v-25.5c0-2.6,2-4.5,4.6-4.5h11c2.6,0,4.6,1.9,4.6,4.5v7h-6.8
						v-4.9h-6.5v21.5h6.5V416h6.8v7.3C1410.2,425.9,1408.3,427.8,1405.7,427.8z"/>
					<path class="st4" d="M1429.5,427.8v-14.2h-6.4v14.2h-7v-34.5h15.2c2.6,0,4.8,2.3,4.8,4.9v8.5c0,2.5-1.4,4.1-3.3,4.2
						c2.5,0.1,3.4,2.7,3.4,5.7v11.3H1429.5z M1429.3,399.5h-6.4v7.7h6.4V399.5z"/>
					<path class="st4" d="M1442,427.8v-34.5h18.1v6.8h-11.5v7h9.1v6.4h-9.1v7.3h11.5v7L1442,427.8L1442,427.8z"/>
					<path class="st4" d="M1481.9,427.8h-15.6v-34.5h15.2c2.6,0,4.8,2,4.8,4.6v25.5C1486.3,425.9,1484.5,427.8,1481.9,427.8z
						 M1479.5,399.8h-6.4v20.8h6.4V399.8z"/>
					<path class="st4" d="M1491.7,427.8v-34.5h6.8v34.5H1491.7z"/>
					<path class="st4" d="M1516.2,399.9v27.8h-6.9v-27.8h-7.6v-6.7h22.1v6.7H1516.2z"/>
				</g>
				<g class="st3">
					<path class="st4" d="M1405.7,489.6h-10.8c-2.6,0-4.8-2-4.8-4.6v-25.5c0-2.6,2-4.5,4.6-4.5h11c2.6,0,4.6,1.9,4.6,4.5v7h-6.8
						v-4.9h-6.5v21.5h6.5v-5.3h6.8v7.3C1410.2,487.7,1408.3,489.6,1405.7,489.6z"/>
					<path class="st4" d="M1429.5,489.6v-14.2h-6.4v14.2h-7v-34.5h15.2c2.6,0,4.8,2.3,4.8,4.9v8.5c0,2.5-1.4,4.1-3.3,4.2
						c2.5,0.1,3.4,2.7,3.4,5.7v11.3H1429.5z M1429.3,461.3h-6.4v7.7h6.4V461.3z"/>
					<path class="st4" d="M1456.8,478.6h-2.4v11h-6.4v-11h-2.2c-2.6,0-4.4-1.9-4.4-4.5v-19h6.7v16.3h6.4v-16.3h6.8v19
						C1461.3,476.7,1459.4,478.6,1456.8,478.6z"/>
					<path class="st4" d="M1482.4,476.6h-8.7v13h-6.8v-34.5h15.2c2.6,0,4.8,2,4.8,4.6v12.6C1486.9,475.1,1484.5,476.6,1482.4,476.6z
						 M1480.1,461.6h-6.4v8.5h6.4V461.6z"/>
					<path class="st4" d="M1505.6,461.8v27.8h-6.9v-27.8h-7.6v-6.7h22.1v6.7H1505.6z"/>
					<path class="st4" d="M1531.6,489.6h-11.1c-2.6,0-4.4-1.9-4.4-4.5v-25.5c0-2.6,2.1-4.6,4.8-4.6h10.4c2.6,0,4.8,2,4.8,4.6v25.5
						C1536,487.7,1534.2,489.6,1531.6,489.6z M1529.2,461.6h-6.2v20.8h6.2V461.6z"/>
				</g>
			</g>
			<g id="Group_1213_2_" transform="translate(-885 -49.991)">
				<g id="Group_1181_2_" transform="translate(885 49.991)">
					<g id="Group_116_2_" transform="translate(0 351.186)">
						<g class="st3">
							<path class="st5" d="M60-17.2c4.8,0,8.9,3.8,8.9,8.2s-4.4,8.5-9.2,8.5H40.2C24.7-0.1,19.9,5,20,21.2v38
								c-0.3,16.2,4.6,21.3,20.1,21.7h20.1c4.6,0,8.7,4.1,8.7,8.5c0,5.1-3.8,8.2-10.6,8.2H38.7C15,97.7,3.4,85.1,3.4,60.4V20.1
								C3.4-4.6,15-17.2,38.7-17.2C38.7-17.2,60-17.2,60-17.2z"/>
							<path class="st5" d="M143.6-8.3c0-5.3,3.4-8.9,8.2-8.9c5.1,0,8.5,3.6,8.5,8.9v94.1c-0.3,8.9-3.4,12.1-11.1,11.8h-34.6
								c-24.9,0.7-35.5-11.8-36-42.8V-8.3c0-5.3,3.4-8.9,8.2-8.9c5.1,0,8.5,3.6,8.5,8.9v62.9c0,20.3,5.3,26.4,23.4,26.4h24.9V-8.3z"
								/>
							<path class="st5" d="M229.9-17.2c26.4,0.5,37,11.1,37,37.2v40.4c0.5,25.6-12.1,38-38,37.2h-33.6c-6.8,0.5-10.6-3.4-10.2-10.2
								V-54.7c0-5.3,3.4-8.9,8.2-8.9c5.1,0,8.5,3.6,8.5,8.9v37.5C201.9-17.2,229.9-17.2,229.9-17.2z M201.9,81h26.8
								c14.8,0.3,21.5-6.5,21.5-21.7v-38c0-15.2-6.8-22-21.5-21.7h-26.8V81z"/>
							<path class="st5" d="M297.6,56.8c0.3,19.6,4.1,24,21.5,24.2h32.6c5.3,0,9.2,3.4,9.2,8.5c0,4.8-3.8,8.2-9.2,8.2h-32.9
								c-27.8,0-37-9.2-38-37.7V24.6c0-24,16.9-41.9,39.6-41.9c14.5,0,28.1,8,34.6,20.8c3.4,6.5,5.3,15.5,5.3,25.6
								c0,16.2-1.7,19.1-11.4,19.1h-51.5V56.8z M343.6,31.6c0-22.3-7-31.9-23-31.9c-11.1,0-18.6,5.8-21.7,16.9
								c-1,3.8-1.2,5.8-1.2,15H343.6z"/>
							<path class="st5" d="M438.4-54.7c0-5.3,3.4-8.9,8.5-8.9c4.8,0,8.2,3.6,8.2,8.9V87.5c0.5,6.8-3.4,10.6-10.2,10.2h-33.6
								c-25.8,0.7-38.5-11.6-38-37.2V20.1c0-26.1,10.6-36.8,37-37.2h28.1V-54.7z M411.6-0.5C396.8-0.8,390,6,390,21.2v38
								c0,15.2,6.8,22,21.5,21.7h26.8V-0.5H411.6z"/>
						</g>
					</g>
					<path class="st5" d="M375.5,98.9h-33.3c-0.1,0-0.1,0-0.2,0s-0.1,0-0.2,0h-33.3c-1.8-0.1-3.6-0.1-5.3,0c-0.3,0-0.5,0-0.8,0
						h-33.3c-33.5-0.8-51.4,16.5-51.4,49.2v88c0.3,33.3,17.6,49.7,51.4,49.2h33.3c0.4,0,0.7,0,1.1-0.1c1.6,0.1,3.3,0.1,5,0.1h33.3
						c0.1,0,0.1,0,0.2,0s0.1,0,0.2,0h33.3c33.8,0.6,51.1-15.9,51.4-49.2v-88C426.9,115.5,409,98.2,375.5,98.9z M378.6,266h-36.3
						c-0.1,0-0.1,0-0.2,0s-0.1,0-0.2,0h-36.4c-21.5,0-29.4-8.9-29-32.9v-81.8c-0.3-24,7.6-32.7,29-32.9h36.3c0.1,0,0.1,0,0.2,0
						s0.1,0,0.2,0h36.3c21.5,0.3,29.3,8.9,29,32.9V233C407.8,257.1,400,266,378.6,266z"/>
				</g>
				<g class="st3">
					<path class="st5" d="M1405.7,374.3h-10.8c-2.6,0-4.8-2-4.8-4.6v-25.5c0-2.6,2-4.5,4.6-4.5h11c2.6,0,4.6,1.9,4.6,4.5v7h-6.8
						v-4.9h-6.5v21.5h6.5v-5.3h6.8v7.3C1410.2,372.4,1408.3,374.3,1405.7,374.3z"/>
					<path class="st5" d="M1429.4,374.3v-12h-6.1v12h-7v-29.4c0-2.5,2.3-5.1,4.8-5.1h10.6c2.6,0,4.7,2.5,4.7,5.1v29.4H1429.4z
						 M1429.6,346h-6.4v9.6h6.4V346z"/>
					<path class="st5" d="M1462.6,369.8c0,2.6-2.1,4.6-4.8,4.6H1447c-2.6,0-4.8-2-4.8-4.6v-5.4h6.8v3.7h6.8v-7.9h-8.9
						c-2.6,0-4.8-1.9-4.8-4v-11.8c0-2.9,2.2-4.5,4.8-4.5h11c2.6,0,4.6,1.9,4.6,4.5v5.4h-6.7v-3.6h-6.7v7.6h8.9
						c2.6,0,4.6,1.9,4.6,4.5L1462.6,369.8L1462.6,369.8z"/>
					<path class="st5" d="M1482.2,374.3v-14.5h-6.7v14.5h-7v-34.5h7v13.1h6.7v-13.1h7v34.5H1482.2z"/>
				</g>
				<g class="st3">
					<path class="st5" d="M1405.7,436.2h-10.8c-2.6,0-4.8-2-4.8-4.6v-25.5c0-2.6,2-4.5,4.6-4.5h11c2.6,0,4.6,1.9,4.6,4.5v7h-6.8
						v-4.9h-6.5v21.5h6.5v-5.3h6.8v7.3C1410.2,434.3,1408.3,436.2,1405.7,436.2z"/>
					<path class="st5" d="M1429.5,436.2V422h-6.4v14.2h-7v-34.5h15.2c2.6,0,4.8,2.3,4.8,4.9v8.5c0,2.5-1.4,4.1-3.3,4.2
						c2.5,0.1,3.4,2.7,3.4,5.7v11.3H1429.5z M1429.3,408h-6.4v7.7h6.4V408z"/>
					<path class="st5" d="M1442,436.2v-34.5h18.1v6.8h-11.5v7h9.1v6.4h-9.1v7.3h11.5v7L1442,436.2L1442,436.2z"/>
					<path class="st5" d="M1481.9,436.2h-15.6v-34.5h15.2c2.6,0,4.8,2,4.8,4.6v25.5C1486.3,434.3,1484.5,436.2,1481.9,436.2z
						 M1479.5,408.2h-6.4v20.8h6.4V408.2z"/>
					<path class="st5" d="M1491.7,436.2v-34.5h6.8v34.5H1491.7z"/>
					<path class="st5" d="M1516.2,408.4v27.8h-6.9v-27.8h-7.6v-6.7h22.1v6.7H1516.2z"/>
				</g>
				<g class="st3">
					<path class="st5" d="M1405.7,498.1h-10.8c-2.6,0-4.8-2-4.8-4.6v-25.5c0-2.6,2-4.5,4.6-4.5h11c2.6,0,4.6,1.9,4.6,4.5v7h-6.8
						v-4.9h-6.5v21.5h6.5v-5.3h6.8v7.3C1410.2,496.2,1408.3,498.1,1405.7,498.1z"/>
					<path class="st5" d="M1429.5,498.1v-14.2h-6.4v14.2h-7v-34.5h15.2c2.6,0,4.8,2.3,4.8,4.9v8.5c0,2.5-1.4,4.1-3.3,4.2
						c2.5,0.1,3.4,2.7,3.4,5.7v11.3H1429.5z M1429.3,469.8h-6.4v7.7h6.4V469.8z"/>
					<path class="st5" d="M1456.8,487.1h-2.4v11h-6.4v-11h-2.2c-2.6,0-4.4-1.9-4.4-4.5v-19h6.7v16.3h6.4v-16.3h6.8v19
						C1461.3,485.2,1459.4,487.1,1456.8,487.1z"/>
					<path class="st5" d="M1482.4,485.1h-8.7v13h-6.8v-34.5h15.2c2.6,0,4.8,2,4.8,4.6v12.6C1486.9,483.5,1484.5,485.1,1482.4,485.1z
						 M1480.1,470.1h-6.4v8.5h6.4V470.1z"/>
					<path class="st5" d="M1505.6,470.3v27.8h-6.9v-27.8h-7.6v-6.7h22.1v6.7H1505.6z"/>
					<path class="st5" d="M1531.6,498.1h-11.1c-2.6,0-4.4-1.9-4.4-4.5v-25.5c0-2.6,2.1-4.6,4.8-4.6h10.4c2.6,0,4.8,2,4.8,4.6v25.5
						C1536,496.2,1534.2,498.1,1531.6,498.1z M1529.2,470.1h-6.2v20.8h6.2V470.1z"/>
				</g>
			</g>
		</g>
		<g id="Layer_1_1_">
			<g id="Group_1213" transform="translate(-885 -49.991)">
				<g id="Group_1181" transform="translate(885 49.991)">
					<g id="Group_116" transform="translate(0 351.186)">
						<g class="st3">
							<path class="st4" d="M60-25.6c4.8,0,8.9,3.8,8.9,8.2S64.5-9,59.7-9H40.2C24.7-8.5,19.9-3.4,20,12.8v38
								C19.8,66.9,24.7,72,40.1,72.5h20.1c4.6,0,8.7,4.1,8.7,8.5c0,5.1-3.8,8.2-10.6,8.2H38.7C15,89.2,3.4,76.6,3.4,52V11.6
								c0-24.7,11.6-37.2,35.3-37.2H60z"/>
							<path class="st4" d="M143.6-16.7c0-5.3,3.4-8.9,8.2-8.9c5.1,0,8.5,3.6,8.5,8.9v94.1c-0.3,8.9-3.4,12.1-11.1,11.8h-34.6
								c-24.9,0.7-35.5-11.8-36-42.8v-63.1c0-5.3,3.4-8.9,8.2-8.9c5.1,0,8.5,3.6,8.5,8.9v62.9c0,20.3,5.3,26.4,23.4,26.4h24.9V-16.7
								z"/>
							<path class="st4" d="M229.9-25.6c26.4,0.5,37,11.1,37,37.2V52c0.5,25.6-12.1,38-38,37.2h-33.6c-6.8,0.5-10.6-3.4-10.2-10.2
								V-63.1c0-5.3,3.4-8.9,8.2-8.9c5.1,0,8.5,3.6,8.5,8.9v37.5H229.9z M201.9,72.5h26.8c14.8,0.3,21.5-6.5,21.5-21.7v-38
								c0-15.2-6.8-22-21.5-21.7h-26.8V72.5z"/>
							<path class="st4" d="M297.6,48.3c0.3,19.6,4.1,24,21.5,24.2h32.6c5.3,0,9.2,3.4,9.2,8.5c0,4.8-3.8,8.2-9.2,8.2h-32.9
								c-27.8,0-37-9.2-38-37.7V16.1c0-24,16.9-41.9,39.6-41.9c14.5,0,28.1,8,34.6,20.8c3.4,6.5,5.3,15.5,5.3,25.6
								c0,16.2-1.7,19.1-11.4,19.1h-51.5V48.3z M343.6,23.2c0-22.3-7-31.9-23-31.9c-11.1,0-18.6,5.8-21.7,16.9
								c-1,3.8-1.2,5.8-1.2,15H343.6z"/>
							<path class="st4" d="M438.4-63.1c0-5.3,3.4-8.9,8.5-8.9c4.8,0,8.2,3.6,8.2,8.9V79c0.5,6.8-3.4,10.6-10.2,10.2h-33.6
								c-25.8,0.7-38.5-11.6-38-37.2V11.6c0-26.1,10.6-36.8,37-37.2h28.1V-63.1z M411.6-9C396.8-9.2,390-2.5,390,12.8v38
								c0,15.2,6.8,22,21.5,21.7h26.8V-9H411.6z"/>
						</g>
					</g>
					<path class="st4" d="M375.5,90.5h-33.3c-0.1,0-0.1,0-0.2,0s-0.1,0-0.2,0h-33.3c-1.8-0.1-3.6-0.1-5.3,0c-0.3,0-0.5,0-0.8,0
						h-33.3c-33.5-0.8-51.4,16.5-51.4,49.2v88c0.3,33.3,17.6,49.7,51.4,49.2h33.3c0.4,0,0.7,0,1.1-0.1c1.6,0.1,3.3,0.1,5,0.1h33.3
						c0.1,0,0.1,0,0.2,0s0.1,0,0.2,0h33.3c33.8,0.6,51.1-15.9,51.4-49.2v-88C426.9,107,409,89.7,375.5,90.5z M378.6,257.5h-36.3
						c-0.1,0-0.1,0-0.2,0s-0.1,0-0.2,0h-36.4c-21.5,0-29.4-8.9-29-32.9v-81.8c-0.3-24,7.6-32.7,29-32.9h36.3c0.1,0,0.1,0,0.2,0
						s0.1,0,0.2,0h36.3c21.5,0.3,29.3,8.9,29,32.9v81.8C407.8,248.6,400,257.5,378.6,257.5z"/>
				</g>
				<g class="st3">
					<path class="st4" d="M1405.7,365.8h-10.8c-2.6,0-4.8-2-4.8-4.6v-25.5c0-2.6,2-4.5,4.6-4.5h11c2.6,0,4.6,1.9,4.6,4.5v7h-6.8
						v-4.9h-6.5v21.5h6.5v-5.3h6.8v7.3C1410.2,364,1408.3,365.8,1405.7,365.8z"/>
					<path class="st4" d="M1429.4,365.8v-12h-6.1v12h-7v-29.4c0-2.5,2.3-5.1,4.8-5.1h10.6c2.6,0,4.7,2.5,4.7,5.1v29.4H1429.4z
						 M1429.6,337.5h-6.4v9.6h6.4V337.5z"/>
					<path class="st4" d="M1462.6,361.3c0,2.6-2.1,4.6-4.8,4.6H1447c-2.6,0-4.8-2-4.8-4.6v-5.4h6.8v3.7h6.8v-7.9h-8.9
						c-2.6,0-4.8-1.9-4.8-4v-11.8c0-2.9,2.2-4.5,4.8-4.5h11c2.6,0,4.6,1.9,4.6,4.5v5.4h-6.7v-3.6h-6.7v7.6h8.9
						c2.6,0,4.6,1.9,4.6,4.5L1462.6,361.3L1462.6,361.3z"/>
					<path class="st4" d="M1482.2,365.8v-14.5h-6.7v14.5h-7v-34.5h7v13.1h6.7v-13.1h7v34.5H1482.2z"/>
				</g>
				<g class="st3">
					<path class="st4" d="M1405.7,427.8h-10.8c-2.6,0-4.8-2-4.8-4.6v-25.5c0-2.6,2-4.5,4.6-4.5h11c2.6,0,4.6,1.9,4.6,4.5v7h-6.8
						v-4.9h-6.5v21.5h6.5V416h6.8v7.3C1410.2,425.9,1408.3,427.8,1405.7,427.8z"/>
					<path class="st4" d="M1429.5,427.8v-14.2h-6.4v14.2h-7v-34.5h15.2c2.6,0,4.8,2.3,4.8,4.9v8.5c0,2.5-1.4,4.1-3.3,4.2
						c2.5,0.1,3.4,2.7,3.4,5.7v11.3H1429.5z M1429.3,399.5h-6.4v7.7h6.4V399.5z"/>
					<path class="st4" d="M1442,427.8v-34.5h18.1v6.8h-11.5v7h9.1v6.4h-9.1v7.3h11.5v7L1442,427.8L1442,427.8z"/>
					<path class="st4" d="M1481.9,427.8h-15.6v-34.5h15.2c2.6,0,4.8,2,4.8,4.6v25.5C1486.3,425.9,1484.5,427.8,1481.9,427.8z
						 M1479.5,399.8h-6.4v20.8h6.4V399.8z"/>
					<path class="st4" d="M1491.7,427.8v-34.5h6.8v34.5H1491.7z"/>
					<path class="st4" d="M1516.2,399.9v27.8h-6.9v-27.8h-7.6v-6.7h22.1v6.7H1516.2z"/>
				</g>
				<g class="st3">
					<path class="st4" d="M1405.7,489.6h-10.8c-2.6,0-4.8-2-4.8-4.6v-25.5c0-2.6,2-4.5,4.6-4.5h11c2.6,0,4.6,1.9,4.6,4.5v7h-6.8
						v-4.9h-6.5v21.5h6.5v-5.3h6.8v7.3C1410.2,487.7,1408.3,489.6,1405.7,489.6z"/>
					<path class="st4" d="M1429.5,489.6v-14.2h-6.4v14.2h-7v-34.5h15.2c2.6,0,4.8,2.3,4.8,4.9v8.5c0,2.5-1.4,4.1-3.3,4.2
						c2.5,0.1,3.4,2.7,3.4,5.7v11.3H1429.5z M1429.3,461.3h-6.4v7.7h6.4V461.3z"/>
					<path class="st4" d="M1456.8,478.6h-2.4v11h-6.4v-11h-2.2c-2.6,0-4.4-1.9-4.4-4.5v-19h6.7v16.3h6.4v-16.3h6.8v19
						C1461.3,476.7,1459.4,478.6,1456.8,478.6z"/>
					<path class="st4" d="M1482.4,476.6h-8.7v13h-6.8v-34.5h15.2c2.6,0,4.8,2,4.8,4.6v12.6C1486.9,475.1,1484.5,476.6,1482.4,476.6z
						 M1480.1,461.6h-6.4v8.5h6.4V461.6z"/>
					<path class="st4" d="M1505.6,461.8v27.8h-6.9v-27.8h-7.6v-6.7h22.1v6.7H1505.6z"/>
					<path class="st4" d="M1531.6,489.6h-11.1c-2.6,0-4.4-1.9-4.4-4.5v-25.5c0-2.6,2.1-4.6,4.8-4.6h10.4c2.6,0,4.8,2,4.8,4.6v25.5
						C1536,487.7,1534.2,489.6,1531.6,489.6z M1529.2,461.6h-6.2v20.8h6.2V461.6z"/>
				</g>
			</g>
			<g id="Group_1213_1_" transform="translate(-885 -49.991)">
				<g id="Group_1181_1_" transform="translate(885 49.991)">
					<g id="Group_116_1_" transform="translate(0 351.186)">
						<g class="st3">
							<path class="st4" d="M60-25.6c4.8,0,8.9,3.8,8.9,8.2S64.5-9,59.7-9H40.2C24.7-8.5,19.9-3.4,20,12.8v38
								C19.8,66.9,24.7,72,40.1,72.5h20.1c4.6,0,8.7,4.1,8.7,8.5c0,5.1-3.8,8.2-10.6,8.2H38.7C15,89.2,3.4,76.6,3.4,52V11.6
								c0-24.7,11.6-37.2,35.3-37.2H60z"/>
							<path class="st4" d="M143.6-16.7c0-5.3,3.4-8.9,8.2-8.9c5.1,0,8.5,3.6,8.5,8.9v94.1c-0.3,8.9-3.4,12.1-11.1,11.8h-34.6
								c-24.9,0.7-35.5-11.8-36-42.8v-63.1c0-5.3,3.4-8.9,8.2-8.9c5.1,0,8.5,3.6,8.5,8.9v62.9c0,20.3,5.3,26.4,23.4,26.4h24.9V-16.7
								z"/>
							<path class="st4" d="M229.9-25.6c26.4,0.5,37,11.1,37,37.2V52c0.5,25.6-12.1,38-38,37.2h-33.6c-6.8,0.5-10.6-3.4-10.2-10.2
								V-63.1c0-5.3,3.4-8.9,8.2-8.9c5.1,0,8.5,3.6,8.5,8.9v37.5H229.9z M201.9,72.5h26.8c14.8,0.3,21.5-6.5,21.5-21.7v-38
								c0-15.2-6.8-22-21.5-21.7h-26.8V72.5z"/>
							<path class="st4" d="M297.6,48.3c0.3,19.6,4.1,24,21.5,24.2h32.6c5.3,0,9.2,3.4,9.2,8.5c0,4.8-3.8,8.2-9.2,8.2h-32.9
								c-27.8,0-37-9.2-38-37.7V16.1c0-24,16.9-41.9,39.6-41.9c14.5,0,28.1,8,34.6,20.8c3.4,6.5,5.3,15.5,5.3,25.6
								c0,16.2-1.7,19.1-11.4,19.1h-51.5V48.3z M343.6,23.2c0-22.3-7-31.9-23-31.9c-11.1,0-18.6,5.8-21.7,16.9
								c-1,3.8-1.2,5.8-1.2,15H343.6z"/>
							<path class="st4" d="M438.4-63.1c0-5.3,3.4-8.9,8.5-8.9c4.8,0,8.2,3.6,8.2,8.9V79c0.5,6.8-3.4,10.6-10.2,10.2h-33.6
								c-25.8,0.7-38.5-11.6-38-37.2V11.6c0-26.1,10.6-36.8,37-37.2h28.1V-63.1z M411.6-9C396.8-9.2,390-2.5,390,12.8v38
								c0,15.2,6.8,22,21.5,21.7h26.8V-9H411.6z"/>
						</g>
					</g>
					<path class="st4" d="M375.5,90.5h-33.3c-0.1,0-0.1,0-0.2,0s-0.1,0-0.2,0h-33.3c-1.8-0.1-3.6-0.1-5.3,0c-0.3,0-0.5,0-0.8,0
						h-33.3c-33.5-0.8-51.4,16.5-51.4,49.2v88c0.3,33.3,17.6,49.7,51.4,49.2h33.3c0.4,0,0.7,0,1.1-0.1c1.6,0.1,3.3,0.1,5,0.1h33.3
						c0.1,0,0.1,0,0.2,0s0.1,0,0.2,0h33.3c33.8,0.6,51.1-15.9,51.4-49.2v-88C426.9,107,409,89.7,375.5,90.5z M378.6,257.5h-36.3
						c-0.1,0-0.1,0-0.2,0s-0.1,0-0.2,0h-36.4c-21.5,0-29.4-8.9-29-32.9v-81.8c-0.3-24,7.6-32.7,29-32.9h36.3c0.1,0,0.1,0,0.2,0
						s0.1,0,0.2,0h36.3c21.5,0.3,29.3,8.9,29,32.9v81.8C407.8,248.6,400,257.5,378.6,257.5z"/>
				</g>
				<g class="st3">
					<path class="st4" d="M1405.7,365.8h-10.8c-2.6,0-4.8-2-4.8-4.6v-25.5c0-2.6,2-4.5,4.6-4.5h11c2.6,0,4.6,1.9,4.6,4.5v7h-6.8
						v-4.9h-6.5v21.5h6.5v-5.3h6.8v7.3C1410.2,364,1408.3,365.8,1405.7,365.8z"/>
					<path class="st4" d="M1429.4,365.8v-12h-6.1v12h-7v-29.4c0-2.5,2.3-5.1,4.8-5.1h10.6c2.6,0,4.7,2.5,4.7,5.1v29.4H1429.4z
						 M1429.6,337.5h-6.4v9.6h6.4V337.5z"/>
					<path class="st4" d="M1462.6,361.3c0,2.6-2.1,4.6-4.8,4.6H1447c-2.6,0-4.8-2-4.8-4.6v-5.4h6.8v3.7h6.8v-7.9h-8.9
						c-2.6,0-4.8-1.9-4.8-4v-11.8c0-2.9,2.2-4.5,4.8-4.5h11c2.6,0,4.6,1.9,4.6,4.5v5.4h-6.7v-3.6h-6.7v7.6h8.9
						c2.6,0,4.6,1.9,4.6,4.5L1462.6,361.3L1462.6,361.3z"/>
					<path class="st4" d="M1482.2,365.8v-14.5h-6.7v14.5h-7v-34.5h7v13.1h6.7v-13.1h7v34.5H1482.2z"/>
				</g>
				<g class="st3">
					<path class="st4" d="M1405.7,427.8h-10.8c-2.6,0-4.8-2-4.8-4.6v-25.5c0-2.6,2-4.5,4.6-4.5h11c2.6,0,4.6,1.9,4.6,4.5v7h-6.8
						v-4.9h-6.5v21.5h6.5V416h6.8v7.3C1410.2,425.9,1408.3,427.8,1405.7,427.8z"/>
					<path class="st4" d="M1429.5,427.8v-14.2h-6.4v14.2h-7v-34.5h15.2c2.6,0,4.8,2.3,4.8,4.9v8.5c0,2.5-1.4,4.1-3.3,4.2
						c2.5,0.1,3.4,2.7,3.4,5.7v11.3H1429.5z M1429.3,399.5h-6.4v7.7h6.4V399.5z"/>
					<path class="st4" d="M1442,427.8v-34.5h18.1v6.8h-11.5v7h9.1v6.4h-9.1v7.3h11.5v7L1442,427.8L1442,427.8z"/>
					<path class="st4" d="M1481.9,427.8h-15.6v-34.5h15.2c2.6,0,4.8,2,4.8,4.6v25.5C1486.3,425.9,1484.5,427.8,1481.9,427.8z
						 M1479.5,399.8h-6.4v20.8h6.4V399.8z"/>
					<path class="st4" d="M1491.7,427.8v-34.5h6.8v34.5H1491.7z"/>
					<path class="st4" d="M1516.2,399.9v27.8h-6.9v-27.8h-7.6v-6.7h22.1v6.7H1516.2z"/>
				</g>
				<g class="st3">
					<path class="st4" d="M1405.7,489.6h-10.8c-2.6,0-4.8-2-4.8-4.6v-25.5c0-2.6,2-4.5,4.6-4.5h11c2.6,0,4.6,1.9,4.6,4.5v7h-6.8
						v-4.9h-6.5v21.5h6.5v-5.3h6.8v7.3C1410.2,487.7,1408.3,489.6,1405.7,489.6z"/>
					<path class="st4" d="M1429.5,489.6v-14.2h-6.4v14.2h-7v-34.5h15.2c2.6,0,4.8,2.3,4.8,4.9v8.5c0,2.5-1.4,4.1-3.3,4.2
						c2.5,0.1,3.4,2.7,3.4,5.7v11.3H1429.5z M1429.3,461.3h-6.4v7.7h6.4V461.3z"/>
					<path class="st4" d="M1456.8,478.6h-2.4v11h-6.4v-11h-2.2c-2.6,0-4.4-1.9-4.4-4.5v-19h6.7v16.3h6.4v-16.3h6.8v19
						C1461.3,476.7,1459.4,478.6,1456.8,478.6z"/>
					<path class="st4" d="M1482.4,476.6h-8.7v13h-6.8v-34.5h15.2c2.6,0,4.8,2,4.8,4.6v12.6C1486.9,475.1,1484.5,476.6,1482.4,476.6z
						 M1480.1,461.6h-6.4v8.5h6.4V461.6z"/>
					<path class="st4" d="M1505.6,461.8v27.8h-6.9v-27.8h-7.6v-6.7h22.1v6.7H1505.6z"/>
					<path class="st4" d="M1531.6,489.6h-11.1c-2.6,0-4.4-1.9-4.4-4.5v-25.5c0-2.6,2.1-4.6,4.8-4.6h10.4c2.6,0,4.8,2,4.8,4.6v25.5
						C1536,487.7,1534.2,489.6,1531.6,489.6z M1529.2,461.6h-6.2v20.8h6.2V461.6z"/>
				</g>
			</g>
		</g>
		<g class="st2">
			<path class="st5" d="M467.2,297.8H464c-0.1-0.5-0.1-1.4,0-2h8.8c0.1,0.6,0.1,1.4,0,2h-3.2v9.3c-0.7,0.1-1.8,0.1-2.4,0
				L467.2,297.8L467.2,297.8z"/>
			<path class="st5" d="M482.8,300l-2.1,4c-0.6,0.1-1.1,0.1-1.7,0l-2.1-4.1v7.1c-0.7,0.1-1.7,0.1-2.4,0v-11.3c0.7-0.1,1.9-0.1,2.6,0
				l2.9,5.5l2.9-5.5c0.7-0.1,1.8-0.1,2.5,0v11.3c-0.7,0.1-1.8,0.1-2.4,0L482.8,300L482.8,300z"/>
		</g>
		<g>
			<path class="st4" d="M467.2,291.4H464c-0.1-0.5-0.1-1.4,0-2h8.8c0.1,0.6,0.1,1.4,0,2h-3.2v9.3c-0.7,0.1-1.8,0.1-2.4,0
				L467.2,291.4L467.2,291.4z"/>
			<path class="st4" d="M482.8,293.7l-2.1,4c-0.6,0.1-1.1,0.1-1.7,0l-2.1-4.1v7.1c-0.7,0.1-1.7,0.1-2.4,0v-11.3
				c0.7-0.1,1.9-0.1,2.6,0l2.9,5.5l2.9-5.5c0.7-0.1,1.8-0.1,2.5,0v11.3c-0.7,0.1-1.8,0.1-2.4,0L482.8,293.7L482.8,293.7z"/>
		</g>
	</g>
</g>
<g class="st2">
	<path class="st4" d="M597.1,516l-12.7,23.3L561.1,552l23.3,12.7l12.7,23.3l12.7-23.3l23.3-12.7l-23.3-12.7L597.1,516z"/>
	<path class="st4" d="M188.3,11.7l-8.5,15.5l-15.5,8.5l15.5,8.5l8.5,15.5l8.5-15.5l15.5-8.5l-15.5-8.5L188.3,11.7z"/>
	<path class="st4" d="M609.2,122.2l-4.2,7.8l-7.8,4.2l7.8,4.2l4.2,7.8l4.2-7.8l7.8-4.2l-7.8-4.2L609.2,122.2z"/>
	<path class="st4" d="M58.6,489.9L52.5,501l-11.1,6.1l11.1,6.1l6.1,11.1l6.1-11.1l11.1-6.1L64.6,501L58.6,489.9z"/>
</g>
</svg>
