<?xml version="1.0" encoding="utf-8"?>
<!-- Generator: Adobe Illustrator 24.1.1, SVG Export Plug-In . SVG Version: 6.00 Build 0)  -->
<svg version="1.1" id="Hero" xmlns="http://www.w3.org/2000/svg" xmlns:xlink="http://www.w3.org/1999/xlink" x="0px" y="0px"
	 viewBox="0 0 41 38.8" style="enable-background:new 0 0 41 38.8;" xml:space="preserve">
<style type="text/css">
	.st0{fill:#243052;}
	.st1{fill:#FF5555;}
	.st2{fill:#FFFFFF;}
</style>
<path class="st0" d="M34.5,37.5h-31V9.7h32.8v26C36.3,36.7,35.5,37.5,34.5,37.5z"/>
<path class="st0" d="M34.8,1.2H5.3C4.3,1.2,3.5,2,3.5,3v3.5h33.1V3C36.6,2,35.8,1.2,34.8,1.2z"/>
<polygon class="st0" points="38.2,10.7 1.9,10.7 3.5,6.5 36.6,6.5 "/>
<path class="st1" d="M20,10.7v1.8c0,1.7-1.4,2.8-3,2.8l0,0c-1.7,0-3-1.1-3-2.8v-1.8H20z"/>
<path class="st0" d="M26.1,10.7v1.8c0,1.7-1.4,2.8-3,2.8l0,0c-1.7,0-3-1.1-3-2.8v-1.8H26.1z"/>
<path class="st1" d="M32.1,10.7v1.8c0,1.7-1.4,2.8-3,2.8l0,0c-1.7,0-3-1.1-3-2.8v-1.8H32.1z"/>
<path class="st0" d="M38.2,10.7v1.8c0,1.7-1.4,2.8-3,2.8l0,0c-1.7,0-3-1.1-3-2.8v-1.8H38.2z"/>
<path class="st1" d="M7.9,10.7v1.8c0,1.7-1.4,2.8-3,2.8l0,0c-1.7,0-3-1.1-3-2.8v-1.8H7.9z"/>
<path class="st0" d="M14,10.7v1.8c0,1.7-1.4,2.8-3,2.8l0,0c-1.7,0-3-1.1-3-2.8v-1.8H14z"/>
<path class="st0" d="M36.3,28.7l-1.8,1.8l3.7,3.7l-3.3,3.3l-3.7-3.7l-1.3,1.3l-2.4-8.9L36.3,28.7z"/>
<polygon class="st1" points="10.4,26.4 17.9,26.4 19,21.2 9.1,21.2 "/>
<path class="st2" d="M29.5,36.8H4.2V16c0.2,0,0.5,0,0.7,0c1.3,0,2.4-0.5,3-1.4c0.7,0.9,1.8,1.4,3,1.4s2.4-0.5,3-1.4
	c0.7,0.9,1.8,1.4,3,1.4s2.4-0.5,3-1.4c0.7,0.9,1.8,1.4,3,1.4s2.4-0.5,3-1.4c0.7,0.9,1.8,1.4,3,1.4c1.3,0,2.4-0.5,3-1.4
	c0.7,0.9,1.8,1.4,3,1.4c0.2,0,0.4,0,0.7-0.1v5.9c0,0.4,0.3,0.7,0.7,0.7s0.7-0.3,0.7-0.7v-6.4c1-0.6,1.6-1.7,1.6-3v-1.8l0,0
	c0-0.1,0-0.2-0.1-0.3l-1.6-4V3c0-1.4-1.1-2.5-2.5-2.5H5.3C3.9,0.5,2.8,1.6,2.8,3v3.4l-1.6,4c0,0.1-0.1,0.2-0.1,0.3l0,0v1.8
	c0,1.3,0.6,2.3,1.6,3v22.1c0,0.4,0.3,0.7,0.7,0.7h26c0.4,0,0.7-0.3,0.7-0.7C30.3,37.1,29.9,36.8,29.5,36.8z M11,14.6
	c-1.3,0-2.3-0.9-2.3-2.1v-1.1h4.6v1.1C13.2,13.7,12.3,14.6,11,14.6z M4,7.3h32.1l1,2.7H3L4,7.3z M17,14.6c-1.3,0-2.3-0.9-2.3-2.1
	v-1.1h4.6v1.1C19.3,13.7,18.3,14.6,17,14.6z M23.1,14.6c-1.3,0-2.3-0.9-2.3-2.1v-1.1h4.6v1.1C25.4,13.7,24.4,14.6,23.1,14.6z
	 M29.1,14.6c-1.3,0-2.3-0.9-2.3-2.1v-1.1h4.6v1.1C31.4,13.7,30.4,14.6,29.1,14.6z M37.5,12.5c0,1.2-1,2.1-2.3,2.1s-2.3-0.9-2.3-2.1
	v-1.1h4.6V12.5z M4.2,3c0-0.6,0.5-1,1-1h29.5c0.6,0,1,0.5,1,1v2.8H4.2V3z M2.6,11.4h4.6v1.1c0,1.2-1,2.1-2.3,2.1s-2.3-0.9-2.3-2.1
	C2.6,12.5,2.6,11.4,2.6,11.4z"/>
<path class="st2" d="M38.7,33.7l-3.2-3.2l1.3-1.3C37,29,37,28.7,37,28.5c-0.1-0.3-0.3-0.5-0.5-0.5l-8.9-2.4c-0.3-0.1-0.5,0-0.7,0.2
	s-0.3,0.5-0.2,0.7l2.4,8.9c0.1,0.3,0.3,0.5,0.5,0.5c0.3,0.1,0.5,0,0.7-0.2l0.8-0.8l3.2,3.2c0.1,0.1,0.3,0.2,0.5,0.2s0.4-0.1,0.5-0.2
	l3.3-3.3C39,34.4,39,34,38.7,33.7z M30.2,33.7l-1.7-6.4l6.4,1.7L34,29.9l-3.3,3.3L30.2,33.7z M34.9,36.5l-2.7-2.7l2.3-2.3l2.7,2.7
	L34.9,36.5z"/>
<path class="st2" d="M26.2,24.8c0.3-0.3,0.3-0.8,0-1l-2.4-2.4c-0.3-0.3-0.8-0.3-1,0c-0.3,0.3-0.3,0.8,0,1l2.4,2.4
	c0.1,0.1,0.3,0.2,0.5,0.2S26.1,25,26.2,24.8z"/>
<path class="st2" d="M27.3,21.6v1.6c0,0.4,0.3,0.7,0.7,0.7c0.4,0,0.7-0.3,0.7-0.7v-1.6c0-0.4-0.3-0.7-0.7-0.7
	C27.6,20.8,27.3,21.2,27.3,21.6z"/>
<path class="st2" d="M24.6,25.9H23c-0.4,0-0.7,0.3-0.7,0.7c0,0.4,0.3,0.7,0.7,0.7h1.6c0.4,0,0.7-0.3,0.7-0.7
	C25.3,26.2,25,25.9,24.6,25.9z"/>
<path class="st2" d="M10.2,29c0.1,0.3,0.4,0.6,0.7,0.6h7.3c0.4,0,0.7-0.3,0.7-0.7c0-0.4-0.3-0.7-0.7-0.7h-6.7l-0.2-1h6.6
	c0.4,0,0.7-0.2,0.7-0.6l1-5.1c0-0.2,0-0.4-0.2-0.6c-0.1-0.2-0.4-0.3-0.6-0.3H9.6l-0.3-1.3c-0.1-0.3-0.4-0.6-0.7-0.6H6.7
	C6.3,18.6,6,19,6,19.4s0.3,0.7,0.7,0.7H8L10.2,29z M18.1,22l-0.7,3.7H11L10,22H18.1z"/>
<path class="st2" d="M11,29.9c-0.1,0.1-0.2,0.3-0.2,0.5s0.1,0.4,0.2,0.5c0.1,0.1,0.3,0.2,0.5,0.2s0.4-0.1,0.5-0.2s0.2-0.3,0.2-0.5
	S12.1,30,12,29.9c-0.1-0.1-0.3-0.2-0.5-0.2S11.2,29.8,11,29.9z"/>
<path class="st2" d="M16.5,29.9c-0.1,0.1-0.2,0.3-0.2,0.5s0.1,0.4,0.2,0.5s0.3,0.2,0.5,0.2s0.4-0.1,0.5-0.2s0.2-0.3,0.2-0.5
	s-0.1-0.4-0.2-0.5s-0.3-0.2-0.5-0.2S16.6,29.8,16.5,29.9z"/>
<path class="st2" d="M9.7,34.3H19c0.4,0,0.7-0.3,0.7-0.7s-0.3-0.7-0.7-0.7H9.7c-0.4,0-0.7,0.3-0.7,0.7S9.3,34.3,9.7,34.3z"/>
<path class="st2" d="M6.2,33C6.1,33.1,6,33.3,6,33.5s0.1,0.4,0.2,0.5s0.3,0.2,0.5,0.2s0.4-0.1,0.5-0.2c0.1-0.1,0.2-0.3,0.2-0.5
	S7.3,33.1,7.2,33s-0.3-0.2-0.5-0.2S6.3,32.9,6.2,33z"/>
</svg>
