<?xml version="1.0" encoding="utf-8"?>
<!-- Generator: Adobe Illustrator 24.1.1, SVG Export Plug-In . SVG Version: 6.00 Build 0)  -->
<svg version="1.1" id="Capa_1" xmlns="http://www.w3.org/2000/svg" xmlns:xlink="http://www.w3.org/1999/xlink" x="0px" y="0px"
	 viewBox="0 0 1346 512" style="enable-background:new 0 0 1346 512;" xml:space="preserve">
<style type="text/css">
	.st0{fill:#BE7B2E;}
</style>
<path class="st0" d="M453.3,85.3c0,38.3-31,69.3-69.3,69.3s-69.3-31-69.3-69.3S345.7,16,384,16S453.3,47,453.3,85.3z"/>
<path class="st0" d="M383.9,170.7c-47.1,0-85.3-38.3-85.3-85.3c0-47.1,38.3-85.3,85.3-85.3s85.3,38.3,85.3,85.3
	C469.3,132.4,431,170.7,383.9,170.7z M383.9,32c-29.4,0-53.3,23.9-53.3,53.3s23.9,53.3,53.3,53.3s53.3-23.9,53.3-53.3
	C437.3,55.9,413.4,32,383.9,32z"/>
<path class="st0" d="M453.3,426.7c0,38.3-31,69.3-69.3,69.3s-69.3-31-69.3-69.3s31-69.3,69.3-69.3S453.3,388.4,453.3,426.7z"/>
<path class="st0" d="M383.9,512c-47.1,0-85.3-38.3-85.3-85.3c0-47.1,38.3-85.3,85.3-85.3s85.3,38.3,85.3,85.3
	C469.3,473.7,431,512,383.9,512z M383.9,373.3c-29.4,0-53.3,23.9-53.3,53.3s23.9,53.3,53.3,53.3s53.3-23.9,53.3-53.3
	C437.3,397.3,413.4,373.3,383.9,373.3z"/>
<path class="st0" d="M154.6,256c0,38.3-31,69.3-69.3,69.3S16,294.3,16,256s31-69.3,69.3-69.3C123.6,186.7,154.6,217.7,154.6,256z"/>
<path class="st0" d="M85.3,341.3C38.2,341.3,0,303,0,256s38.3-85.3,85.3-85.3c47.1,0,85.3,38.3,85.3,85.3S132.3,341.3,85.3,341.3z
	 M85.3,202.7C55.9,202.7,32,226.6,32,256s23.9,53.3,53.3,53.3c29.4,0,53.3-23.9,53.3-53.3S114.7,202.7,85.3,202.7z"/>
<path class="st0" d="M135.6,245.8c-7.4,0-14.6-3.9-18.6-10.8c-5.8-10.2-2.2-23.3,8-29.1L323,93c10.2-5.9,23.3-2.3,29.1,8
	c5.8,10.2,2.2,23.3-8,29.1L146.2,243C142.8,244.9,139.2,245.8,135.6,245.8z"/>
<path class="st0" d="M333.6,421.8c-3.6,0-7.2-0.9-10.5-2.8l-198-112.9c-10.2-5.8-13.8-18.9-8-29.1s18.9-13.8,29.1-8l198,112.9
	c10.2,5.8,13.8,18.9,8,29.1C348.2,417.9,341,421.8,333.6,421.8z"/>
</svg>
