<?xml version="1.0" encoding="utf-8"?>
<!-- Generator: Adobe Illustrator 24.1.1, SVG Export Plug-In . SVG Version: 6.00 Build 0)  -->
<svg version="1.1" id="Layer_1" xmlns="http://www.w3.org/2000/svg" xmlns:xlink="http://www.w3.org/1999/xlink" x="0px" y="0px"
	 viewBox="0 0 636 512" style="enable-background:new 0 0 636 512;" xml:space="preserve">
<style type="text/css">
	.st0{enable-background:new    ;}
	.st1{fill:#313052;}
	.st2{fill:#454466;}
	.st3{fill:#4C5671;}
	.st4{fill:#FFDD94;}
	.st5{fill:#ED5D71;}
	.st6{fill:#885E4B;}
	.st7{fill:#77CB77;}
	.st8{fill:#D3DBEA;}
	.st9{fill:#5793FB;}
	.st10{fill:#96D696;}
	.st11{fill:#5FAF5F;}
	.st12{fill:#FFFFFF;}
	.st13{fill:#7BB1FF;}
	.st14{fill:#456BCA;}
	.st15{fill:#FE91AB;}
	.st16{fill:#E3E7F0;}
</style>
<g>
	<g>
		<g>
			<g>
				<g>
					<g>
						<g>
							<g class="st0">
								<g>
									<g>
										<path class="st1" d="M134.8,164.1c-5.2,3.1-9.4,10.8-9.4,17.1l0.5,313.6c0,6.2,4.3,8.8,9.4,5.7l241.7-147
											c5.2-3.2,9.4-10.8,9.4-17.1l-0.5-313.6c0-6.3-4.2-8.9-9.4-5.7L134.8,164.1z"/>
									</g>
								</g>
								<g>
									<g>
										<path class="st2" d="M116.6,175.7l0.5,313.6c0,3.1,1.1,5.3,2.7,6.3l8.9,5.5c-1.7-1-2.7-3.2-2.7-6.3l-0.5-313.6
											c0-6.3,4.2-14,9.3-17.1l241.7-147c2.6-1.6,5-1.7,6.6-0.7l-8.9-5.5c-1.7-1-4-0.9-6.7,0.7l-241.6,147
											C120.7,161.7,116.5,169.4,116.6,175.7L116.6,175.7z"/>
									</g>
								</g>
							</g>
						</g>
					</g>
				</g>
				<g>
					<path class="st3" d="M376.5,47.3l0.5,296.1l-241.7,147l-0.5-296.1L376.5,47.3z"/>
					<g>
						<path class="st3" d="M166.8,155.4c2.4-1.5,4.4-0.3,4.4,2.7s-2,6.6-4.4,8c-2.4,1.5-4.5,0.3-4.5-2.6
							C162.3,160.5,164.3,156.9,166.8,155.4z"/>
						<path class="st3" d="M139.2,172.2c2.4-1.5,4.4-0.3,4.4,2.7s-2,6.6-4.4,8c-2.4,1.5-4.4,0.3-4.4-2.7
							C134.8,177.3,136.8,173.7,139.2,172.2z"/>
						<path class="st3" d="M153,163.8c2.5-1.5,4.5-0.3,4.5,2.6c0,3-2,6.6-4.4,8.1c-2.4,1.5-4.4,0.3-4.4-2.7
							C148.6,168.9,150.6,165.3,153,163.8z"/>
					</g>
				</g>
			</g>
			<g>
				<g>
					<path class="st4" d="M148.6,334.6L267,265v4.4L148.6,339V334.6z"/>
				</g>
				<g>
					<path class="st5" d="M251.9,286.9v-4.4l74.1-43.6v4.4L251.9,286.9z"/>
				</g>
				<g>
					<path class="st5" d="M148.6,343.3l96.7-56.9v4.4l-96.7,56.9V343.3z"/>
				</g>
				<g>
					<path class="st6" d="M274.9,180.3v-4.4l51.4-30.2v4.4L274.9,180.3z"/>
				</g>
				<g class="st0">
					<g>
						<path class="st7" d="M275,140v-4.4l51.4-30.2v4.4L275,140z"/>
					</g>
					<g>
						<path class="st7" d="M252.2,202.3v-4.4l74.1-43.6v4.4L252.2,202.3z"/>
					</g>
					<g>
						<path class="st5" d="M274.8,224.6v-4.4l51.4-30.2v4.4L274.8,224.6z"/>
					</g>
					<g>
						<path class="st8" d="M148.6,227.2l177.7-104.5v4.4L148.6,231.6V227.2z"/>
					</g>
					<g>
						<path class="st6" d="M148.6,250.2l118.6-69.8v4.4l-118.6,69.8V250.2z"/>
					</g>
					<g>
						<path class="st7" d="M148.6,258.8l97-57.1v4.4l-97,57V258.8z"/>
					</g>
					<g>
						<path class="st9" d="M268.8,241l57.3-33.7v4.4l-57.3,33.7V241z"/>
						<path class="st9" d="M261.1,245.5v4.4l-61.7,36.3v-4.4L261.1,245.5z"/>
						<path class="st9" d="M191.6,286.4v4.4l-43,25.3v-4.4L191.6,286.4z"/>
					</g>
					<g>
						<path class="st5" d="M148.6,294.4l118.5-69.7v4.4l-118.5,69.7V294.4z"/>
					</g>
					<g>
						<path class="st7" d="M148.6,303.1l177.6-104.5v4.3L148.6,307.4V303.1z"/>
					</g>
				</g>
				<g>
					<path class="st7" d="M148.6,209.9L267.4,140v4.4l-118.8,69.9V209.9z"/>
				</g>
				<g>
					<path class="st5" d="M228.2,171.8l98.2-57.8v4.3l-98.2,57.8V171.8z"/>
					<path class="st5" d="M217.5,178.1v4.3l-68.9,40.5v-4.3L217.5,178.1z"/>
				</g>
				<g>
					<path class="st8" d="M148.6,267.5L326.2,163v4.4L148.6,271.9V267.5z"/>
				</g>
				<g>
					<path class="st4" d="M274.6,264.9v-4.4l51.4-30.2v4.4L274.6,264.9z"/>
				</g>
				<g>
					<path class="st10" d="M285.8,271.2l40.2-23.6v4.4l-40.1,23.6v-4.4H285.8z"/>
					<path class="st10" d="M198.7,322.5l79.4-46.7v4.4l-79.4,46.7V322.5z"/>
					<path class="st10" d="M190.5,327.3v4.4l-41.9,24.7V352L190.5,327.3z"/>
				</g>
				<g>
					<path class="st8" d="M336.6,245.7l0.1-21.8l20.5-12l-0.1,21.8L336.6,245.7z"/>
				</g>
				<g>
					<path class="st8" d="M336.8,205.4l0.1-21.8l20.5-12l-0.1,21.8L336.8,205.4z"/>
				</g>
				<g>
					<path class="st8" d="M336.9,161.1l0.1-21.8l20.5-12l-0.1,21.8L336.9,161.1z"/>
				</g>
				<g>
					<path class="st8" d="M337,120.8l0.1-21.8l20.5-12l-0.1,21.8L337,120.8z"/>
				</g>
			</g>
		</g>
		<g>
			<g>
				<g>
					<path class="st10" d="M183.2,388.6l0.1,29c0,3.8,1.4,6.5,3.5,7.8l7.6,4.4c-2.1-1.3-3.5-4-3.5-7.8l-0.1-29
						c-0.1-7.7,5.4-17.2,12.1-21l241.4-139.3c3.3-2,6.4-2.1,8.6-0.9l-7.6-4.4c-2.2-1.3-5.2-1.1-8.6,0.9L195.3,367.6
						C188.6,371.5,183.1,380.9,183.2,388.6L183.2,388.6z"/>
				</g>
				<g>
					<path class="st11" d="M444.3,232.7c6.7-3.9,12.1-0.7,12.2,7l0.1,29c0,7.7-5.4,17-12.1,20.9L203.1,428.9
						c-6.7,3.9-12.2,0.8-12.2-6.9l-0.1-29c0-7.7,5.4-17.1,12.1-21L444.3,232.7z"/>
				</g>
			</g>
			<g>
				<g>
					<path class="st12" d="M404.7,271.6l0.6,9.2l-7-1.2l-2.5,6.4l7.6-0.2l-7.5,8.7l2.5,3.6l7-9.4l-0.6,10l5-2.9l-0.6-9.4l7,1.4
						l2.5-6.4h-7.5l7.5-8.5l-2.5-3.6l-6.9,9.3l0.5-9.9L404.7,271.6z"/>
				</g>
				<g>
					<path class="st12" d="M373,289.9l0.6,9.2l-7-1.2l-2.5,6.4l7.6-0.2l-7.5,8.7l2.5,3.6l7-9.4l-0.6,10l5-2.9l-0.6-9.4l7,1.4
						l2.5-6.4h-7.5l7.5-8.5l-2.5-3.6l-6.9,9.3l0.5-9.9L373,289.9z"/>
				</g>
				<g>
					<path class="st12" d="M341.2,308.3l0.6,9.2l-7-1.2l-2.5,6.4l7.6-0.2l-7.5,8.7l2.5,3.6l7-9.4l-0.6,10l5-2.9l-0.6-9.4l7,1.4
						l2.5-6.4h-7.5l7.5-8.5l-2.5-3.6l-6.9,9.3l0.5-9.9L341.2,308.3z"/>
				</g>
				<g>
					<path class="st12" d="M309.5,326.6l0.6,9.2l-7-1.2l-2.5,6.4l7.6-0.2l-7.5,8.7l2.5,3.6l7-9.4l-0.6,10l5-2.9l-0.6-9.4l7,1.4
						l2.5-6.4H316l7.5-8.5l-2.5-3.6l-6.9,9.3l0.5-9.9L309.5,326.6z"/>
				</g>
				<g>
					<path class="st12" d="M277.7,344.9l0.6,9.2l-7-1.2l-2.5,6.4l7.6-0.2l-7.5,8.7l2.5,3.6l7-9.4l-0.6,10l5-2.9l-0.6-9.4l7,1.4
						l2.5-6.4h-7.5l7.5-8.5l-2.5-3.6l-6.9,9.3l0.5-9.9L277.7,344.9z"/>
				</g>
				<g>
					<path class="st12" d="M246,363.2l0.6,9.2l-7-1.2l-2.5,6.4l7.6-0.2l-7.5,8.7l2.5,3.6l7-9.4l-0.6,10l5-2.9l-0.6-9.4l7,1.4
						l2.5-6.4h-7.5l7.5-8.5l-2.5-3.6l-6.9,9.3l0.5-9.9L246,363.2z"/>
				</g>
			</g>
		</g>
	</g>
	<g>
		<g>
			<g class="st0">
				<g>
					<path class="st13" d="M492.7,112.3l14.4,8.4c2.1,1.3,5.3,1.1,8.7-0.9c6.9-3.9,12.3-13.4,12.3-21.2c0-3.9-1.3-6.7-3.6-7.9
						l-14.3-8.4c2.2,1.3,3.6,4,3.6,7.9c0,7.9-5.4,17.3-12.3,21.3C498,113.4,495,113.6,492.7,112.3z"/>
				</g>
				<g>
					<path class="st13" d="M480.6,113.1l5.6,3.3l-0.4,0.7c-1.7,3.1-1.7,6.4,0,7.4l14.4,8.4c-1.7-1.1-1.7-4.4,0-7.4l0.5-0.9l12,7
						c-0.8-0.5-1.3-1.5-1.3-2.9v-1.3L493.8,117c0.5-2.5,2.3-5.2,4.3-6.3l1.2-0.7c0.3-1.8,0.9-3.6,1.6-5.4l-0.8-0.5
						c-1.8-1-1.8-4.3,0-7.4c0.9-1.5,2.1-2.7,3.2-3.4c1.2-0.7,2.4-0.8,3.2-0.3l0.9,0.5c0,0,0.1-0.1,0.1-0.2c1.2-1.4,2.4-2.7,3.7-3.9
						V88c0-2.5,1.5-5.5,3.6-7.2l5.6,3.3c0,0,0,0,0.1,0l11.8,6.9l1.2-0.7c1.2-0.7,2.4-0.8,3.3-0.3l-12.1-7l0.4-0.7
						c0.9-1.5,2-2.7,3.2-3.4s2.4-0.8,3.2-0.3l-14.4-8.4c-0.9-0.5-2.1-0.3-3.2,0.4c-1.2,0.7-2.3,1.8-3.2,3.3l-0.5,0.9l-5.6-3.3
						c-0.8-0.5-2-0.4-3.3,0.3c-2.4,1.4-4.5,5-4.5,7.8V81c-1.3,1.2-2.6,2.6-3.9,4.1l-0.9-0.5c-0.9-0.5-2.1-0.3-3.2,0.4
						c-1.2,0.7-2.3,1.8-3.2,3.4c-1.7,3-1.7,6.3,0,7.4l0.8,0.5c-0.7,1.8-1.2,3.6-1.6,5.4l-1.2,0.7c-2.5,1.4-4.5,5-4.5,7.8
						C479.2,111.6,479.8,112.6,480.6,113.1L480.6,113.1z"/>
				</g>
				<g>
					<path class="st14" d="M498.1,110.7c-2.5,1.4-4.5,5-4.5,7.8c0,2.9,2.1,4,4.5,2.6l1.2-0.7c0.4,1.4,0.9,2.6,1.6,3.6l-0.8,1.4
						c-1.7,3-1.7,6.4,0,7.4c0.9,0.5,2.1,0.3,3.2-0.3c1.2-0.7,2.3-1.9,3.2-3.4l0.9-1.5c1.2,0.1,2.5,0,3.9-0.4v1.4
						c0,2.9,2.1,4,4.5,2.6c2.5-1.5,4.6-5,4.6-7.8V122c1.4-1.2,2.7-2.6,3.9-4.1l0.9,0.5c0.9,0.5,2,0.4,3.2-0.3
						c1.2-0.7,2.3-1.9,3.2-3.4c1.8-3.1,1.8-6.4,0-7.4l-0.8-0.5c0.7-1.8,1.2-3.6,1.6-5.4l1.2-0.7c2.5-1.5,4.6-5,4.6-7.8
						c0-2.9-2.1-4-4.6-2.6l-1.2,0.7c-0.4-1.4-0.9-2.6-1.6-3.6l0.8-1.4c1.8-3.1,1.8-6.4,0-7.4c-0.9-0.5-2.1-0.3-3.2,0.4
						c-1.2,0.7-2.3,1.8-3.2,3.3l-0.9,1.5c-1.2-0.1-2.5,0-3.9,0.4v-1.4c0-2.9-2.1-4-4.6-2.6s-4.5,5-4.5,7.8v1.4
						c-1.4,1.2-2.7,2.6-3.9,4.1l-0.9-0.5c-0.9-0.5-2.1-0.3-3.2,0.4c-1.2,0.7-2.3,1.8-3.2,3.4c-1.7,3-1.7,6.4,0,7.4l0.8,0.5
						c-0.7,1.8-1.2,3.6-1.6,5.4L498.1,110.7z M515.9,119.8c-6.8,3.9-12.3,0.8-12.4-7c0-7.8,5.5-17.3,12.3-21.3
						c6.8-3.9,12.3-0.8,12.4,7C528.2,106.4,522.7,115.9,515.9,119.8"/>
				</g>
			</g>
		</g>
		<g>
			<path class="st15" d="M410.3,124.2l2.1-1.2c0.6-3.2,1.6-6.4,2.8-9.5l-1.4-0.9c-3.2-1.8-3.2-7.7,0-13.1c1.5-2.7,3.6-4.8,5.7-6
				s4.1-1.5,5.7-0.6l1.5,0.9c2.2-2.6,4.5-5.1,6.9-7.2v-2.4c0-5.1,3.6-11.3,8-13.9c2.3-1.3,4.3-1.4,5.8-0.6l9.9,5.8l0.8-1.4
				c1.6-2.7,3.6-4.8,5.7-6s4.1-1.4,5.7-0.5l14.3,8.3c-1.5-0.9-3.6-0.6-5.7,0.6c-2,1.2-4.1,3.3-5.7,6l-0.7,1.2L493,96.1
				c-1.5-0.9-3.5-0.7-5.8,0.6l-2.1,1.2l-20.8-12.1c-0.1,0-0.2,0-0.3,0l-9.9-5.8c-1.6,1.3-2.9,3-4,4.9l11.4,6.6c-0.3,0-0.7-0.1-1-0.1
				c-7.1,0-12.7,4.8-14.7,11.2c-0.1,0.1-0.1,0.2-0.2,0.3c-0.1,0.1-0.4,0.5-1,1.2c-1.7,2-3.5,3.9-5,6.1c-3.7,5.3-5.7,11.6-7.5,17.8
				c-1.7,5.7-1.9,12-0.2,17.3l-12.4-7.2c-1.2,1.9-2,4-2.4,6l4,2.4v-0.2l27.1,15.7v2.4c0,2.5,0.9,4.3,2.3,5.2l-21.3-12.4l-0.9,1.5
				c-3.1,5.4-3.1,11.3,0,13.1l-14.4-8.4c-3.2-1.8-3.2-7.7,0-13.1l0.7-1.3l-9.9-5.8c-1.4-0.9-2.3-2.6-2.4-5.2
				C402.3,133,405.9,126.8,410.3,124.2L410.3,124.2z"/>
			<g>
				<path class="st15" d="M431.9,136.8c0.1,2,0.5,4.1,1.1,5.9c0.5,1.3,2.7,3.7,2.8,4.9l4.7,2.8c4,2.3,9.5,1.9,15.6-1.5
					c0.8-0.5,1.6-1.2,2.5-1.8c2.3-1.5,4.3-3.2,6.1-5.3h0.1c7.7-8.3,13-20.2,13-30.5c-0.1-6.9-2.5-11.7-6.3-13.9l-3.8-2.3
					c-1.2,0.3-2.5,0.5-3.8,0.5c-0.8,0-1.6,0.1-2.5,0.2v0.6c0,13.8-9.7,30.6-21.8,37.6c-0.4,0.2-0.8,0.4-1.2,0.7
					C436.1,135.7,433.9,136.5,431.9,136.8z"/>
			</g>
			<g>
				<path class="st5" d="M424.7,132.6c-4.4,2.6-8,8.8-8,13.9c0,5.1,3.6,7.2,8.1,4.6l2.1-1.2c0.7,2.4,1.6,4.5,2.8,6.3l-1.5,2.5
					c-3.1,5.4-3.1,11.3,0,13.1c1.6,0.9,3.6,0.6,5.7-0.6c2.1-1.2,4.1-3.3,5.7-6l1.5-2.6c2.1,0.2,4.5,0,6.9-0.7v2.4
					c0,5.1,3.6,7.2,8.1,4.6c4.4-2.6,8-8.8,8-13.9v-2.4c2.4-2.2,4.7-4.6,6.9-7.3l1.5,0.9c1.6,0.9,3.6,0.6,5.7-0.6
					c2-1.2,4.1-3.3,5.6-6c3.2-5.4,3.2-11.3,0-13.1l-1.4-0.9c1.2-3.2,2.2-6.4,2.8-9.5l2.1-1.2c4.4-2.6,8-8.8,8-13.9s-3.6-7.2-8.1-4.6
					l-2.1,1.2c-0.7-2.4-1.6-4.5-2.8-6.3l1.4-2.5c3.2-5.4,3.2-11.3,0-13.1c-1.6-0.9-3.6-0.6-5.7,0.6c-2,1.2-4.1,3.3-5.7,6l-1.5,2.6
					c-2.1-0.2-4.5,0.1-6.9,0.7v-2.4c0-5.1-3.6-7.2-8.1-4.6c-4.4,2.6-8,8.8-8,13.9v2.4c-2.4,2.1-4.7,4.6-6.9,7.3l-1.5-0.9
					c-1.6-0.9-3.6-0.6-5.7,0.6s-4.1,3.3-5.7,6c-3.1,5.4-3.1,11.3,0,13.1l1.5,0.8c-1.2,3.2-2.2,6.4-2.8,9.5L424.7,132.6z M456,148.8
					c-12.1,7-21.8,1.4-21.9-12.5c0-13.9,9.6-30.6,21.7-37.6c12-7,21.8-1.4,21.9,12.5C477.8,125.1,468.1,141.9,456,148.8"/>
			</g>
		</g>
	</g>
	<g>
		<g>
			<g class="st0">
				<g>
					<path class="st13" d="M309.8,447h0.1c1.4,0.3,2.5,0,3.6-0.4l86,49.6l150.9-87.7l-86-49.7c-1.1,0.5-2.2,0.7-3.6,0.5
						c-0.1,0-0.1,0-0.1,0L309.8,447z"/>
				</g>
				<g>
					<path class="st5" d="M405.4,496.9l151-87.7c-1.4,0.8-3.3,0.7-5.8-0.7l-151,87.7C402,497.6,404,497.7,405.4,496.9L405.4,496.9z"
						/>
				</g>
				<g>
					<path class="st16" d="M405.4,496.9l151-87.7c1.9-1.1,2.8-3.9,2.8-7l-151,87.7C408.2,493,407.3,495.7,405.4,496.9z"/>
				</g>
				<g>
					<path class="st16" d="M399.6,473.6l151-87.7l-86-49.7l-151,87.7L399.6,473.6z"/>
				</g>
				<g>
					<path class="st16" d="M408.2,489.8l151-87.7c0-5.4-2.7-12.8-8.6-16.2l-151,87.7C405.5,477,408.2,484.4,408.2,489.8z"/>
				</g>
				<g>
					<path class="st16" d="M316.5,421.3c2.5,4.1,4.1,9,4,13.6c0,4.6-1.6,7.7-4.1,8.9l86,49.7c5.9,3.4,8.6-0.9,8.6-6.3
						s-2.7-12.8-8.6-16.2L316.5,421.3z"/>
				</g>
				<g>
					<path class="st5" d="M407.4,500.3l151-87.7c2.3-1.3,3.6-4.5,3.6-8.8c0-8-4.4-17.2-11.4-21.2l-151,87.7c7,4,11.4,13.2,11.4,21.2
						C411,495.9,409.7,499,407.4,500.3z"/>
				</g>
				<g>
					<path class="st9" d="M310.2,418.6c-0.2-0.1-0.4,0-0.4,0.2c0,0.1,0.1,0.4,0.3,0.5c1.4,1.3,2.5,2.9,3.6,4.6l86,49.7
						c5.9,3.4,8.6,10.8,8.6,16.2c0,5.4-2.7,9.7-8.6,6.3l-86-49.7c-1,0.5-2.2,0.7-3.5,0.5c-0.2,0-0.3,0.1-0.3,0.2
						c0,0.3,0.2,0.5,0.4,0.6l89.5,51.7c7,4,11.5,0.1,11.5-8c0-8-4.4-17.2-11.4-21.2L310.2,418.6z"/>
				</g>
			</g>
		</g>
		<g>
			<g>
				<path class="st14" d="M310,418.5c0,0,0.1,0,0.2,0.1l89.5,51.6l151-87.7l-89.5-51.7c-0.1,0-0.2-0.1-0.3,0L310,418.5z"/>
			</g>
		</g>
		<g>
			<path class="st1" d="M402.1,413.1c-2.7,1.6-2.7,4.1,0,5.6c2.7,1.6,7,1.6,9.7,0l1.3-0.7c1.9,0.6,3.9,1.1,5.9,1.4v1
				c0,2.2,3.1,4,6.9,4c2.8,0,6.9-1.3,6.9-4v-1.1c2-0.3,4.1-0.8,5.9-1.4l1.3,0.7c2.7,1.6,7.1,1.6,9.8,0c2.7-1.6,2.7-4.1,0-5.7
				l-1.3-0.7c1.1-1.1,1.9-2.2,2.5-3.4h1.8c2.8,0,6.9-1.2,6.9-4c0-2.2-3.1-4-6.9-4H451c-0.6-1.2-1.4-2.3-2.5-3.4l1.3-0.7
				c2.7-1.6,2.8-4.1,0.1-5.7c-2.7-1.6-7.1-1.6-9.8,0l-1.3,0.7c-1.9-0.6-3.9-1.1-5.9-1.4v-1c0-2.2-3.1-4-6.9-4c-2.8,0-6.9,1.2-6.9,4
				v1.1c-2.1,0.3-4.1,0.8-5.9,1.4l-1.3-0.7c-2.7-1.6-7.1-1.6-9.8,0c-2.7,1.6-2.7,4.1,0,5.6l1.3,0.7c-1.1,1.1-1.9,2.2-2.5,3.4h-1.8
				c-2.8,0-6.9,1.3-6.9,4c0,2.2,3.1,4,6.9,4h1.8c0.6,1.2,1.4,2.3,2.5,3.4L402.1,413.1z M438.2,412c-6.8,3.9-17.7,3.9-24.4,0
				c-6.7-3.9-6.7-10.2,0.1-14.1c6.8-3.9,17.7-3.9,24.4,0C445,401.8,445,408.1,438.2,412"/>
		</g>
	</g>
</g>
</svg>
