<?xml version="1.0" encoding="utf-8"?>
<!-- Generator: Adobe Illustrator 24.1.1, SVG Export Plug-In . SVG Version: 6.00 Build 0)  -->
<svg version="1.1" id="Hero" xmlns="http://www.w3.org/2000/svg" xmlns:xlink="http://www.w3.org/1999/xlink" x="0px" y="0px"
	 viewBox="0 0 41 38.8" style="enable-background:new 0 0 41 38.8;" xml:space="preserve">
<style type="text/css">
	.st0{fill:#2E5429;}
	.st1{fill:#5B7757;}
	.st2{fill:#FFFFFF;}
	.st3{fill:#243052;}
	.st4{fill:#FF5555;}
</style>
<path class="st0" d="M24.8,36.4h11.5c1.1,0,2.1-0.9,2.1-2.1V4.8c0-1.1-0.9-2.1-2.1-2.1H24.8"/>
<path class="st1" d="M35.5,21.9v-14c-1.3,0-2.3-1-2.3-2.3h-11c0,1.3-1,2.3-2.3,2.3v23.4c1.3,0,2.3,1,2.3,2.3h11.1
	c0-1.3,1-2.3,2.3-2.3v-2.2"/>
<path class="st2" d="M35.5,26.1L35.5,26.1h-0.2c0,0-0.1,0-0.1-0.1l-0.1-0.1L35,25.8c0,0,0-0.1-0.1-0.1v-0.1v-0.1v-0.1v-0.1
	c0,0,0-0.1,0.1-0.1l0.1-0.1l0.1-0.1l0.1-0.1h0.1c0.1,0,0.2,0,0.3,0h0.1c0,0,0.1,0,0.1,0.1l0.1,0.1l0.1,0.1l0.1,0.1v0.1v0.1v0.1v0.1
	c0,0,0,0.1-0.1,0.1L36,25.9L35.9,26c0,0-0.1,0-0.1,0.1h-0.1C35.6,26.1,35.6,26.1,35.5,26.1z"/>
<path class="st2" d="M29.7,31.3c-0.4,0-0.7-0.3-0.7-0.7V25c0-0.4,0.3-0.7,0.7-0.7s0.7,0.3,0.7,0.7v5.6C30.5,31,30.2,31.3,29.7,31.3z
	"/>
<path class="st2" d="M29.7,12.7c-0.4,0-0.7-0.3-0.7-0.7V8.5c0-0.4,0.3-0.7,0.7-0.7s0.7,0.3,0.7,0.7V12
	C30.5,12.4,30.2,12.7,29.7,12.7z"/>
<path class="st3" d="M4.7,31.9h21v1.8c0,2.3-1.9,4.2-4.2,4.2H8.9c-2.3,0-4.2-1.9-4.2-4.2V31.9z"/>
<path class="st3" d="M25.7,31.9h-21V6.2h21"/>
<path class="st1" d="M27.7,16.2c-0.8,0-1.5,0.3-2,0.7v5.4c0.6,0.4,1.3,0.7,2,0.7c1.9,0,3.4-1.5,3.4-3.4
	C31.1,17.7,29.6,16.2,27.7,16.2z"/>
<path class="st3" d="M25.7,6.2h-21V5.4c0-2.3,1.9-4.2,4.2-4.2h12.6c2.3,0,4.2,1.9,4.2,4.2V6.2L25.7,6.2z"/>
<path class="st2" d="M15.9,35.6h-1.5c-0.4,0-0.7-0.3-0.7-0.7s0.3-0.7,0.7-0.7h1.5c0.4,0,0.7,0.3,0.7,0.7
	C16.7,35.3,16.3,35.6,15.9,35.6z"/>
<path class="st2" d="M20.3,4.4h-0.1h-0.1c0,0-0.1,0-0.1-0.1l-0.1-0.1l-0.1-0.1L19.7,4V3.9V3.8V3.7V3.6c0,0,0-0.1,0.1-0.1l0.1-0.1
	L20,3.3C20,3,20,3,20,3h0.1c0.2,0,0.5,0,0.7,0.2C20.9,3.3,21,3.5,21,3.7v0.1v0.1c0,0,0,0.1-0.1,0.1l-0.1,0.1
	C20.7,4.4,20.5,4.4,20.3,4.4z"/>
<path class="st2" d="M17.4,4.4H10c-0.4,0-0.7-0.3-0.7-0.7S9.6,2.9,10,2.9h7.3c0.4,0,0.7,0.3,0.7,0.7S17.8,4.4,17.4,4.4z"/>
<path class="st4" d="M20.4,12.7H9.9c-1.1,0-2.7,3.1-2.7,4.2v6.8h2.7V27h10.6v-3.3h2.7V17C23.2,15.8,21.6,12.7,20.4,12.7z"/>
<path class="st2" d="M15.2,16.6L12,12.7h6.3L15.2,16.6z"/>
<path class="st2" d="M36.3,2H25.1c-0.9-1-2.2-1.6-3.6-1.6H8.9c-2.8,0-5,2.2-5,5v28.3c0,2.8,2.2,5,5,5h12.6c1.4,0,2.7-0.6,3.6-1.6
	h11.3c1.5,0,2.8-1.3,2.8-2.8V4.8C39.1,3.2,37.9,2,36.3,2z M26.4,17.3c0.4-0.2,0.8-0.3,1.3-0.3c1.4,0,2.6,1.2,2.6,2.6
	s-1.2,2.6-2.6,2.6c-0.5,0-0.9-0.1-1.3-0.3V17.3z M5.4,7h19.5v24.2H5.4V7z M5.4,5.4c0-1.9,1.6-3.5,3.5-3.5h12.6
	c1.9,0,3.5,1.6,3.5,3.5l0,0H5.4L5.4,5.4z M21.4,37.2H8.9c-1.9,0-3.5-1.6-3.5-3.5v-1.1h19.5v1.1C24.9,35.6,23.4,37.2,21.4,37.2z
	 M37.6,34.3c0,0.7-0.6,1.3-1.3,1.3H26c0.2-0.4,0.3-0.9,0.4-1.4h6.8c0.4,0,0.7-0.3,0.7-0.7c0-0.8,0.7-1.5,1.5-1.5
	c0.4,0,0.7-0.3,0.7-0.7v-2.2c0-0.4-0.3-0.7-0.7-0.7s-0.7,0.3-0.7,0.7v1.5c-1.1,0.3-1.9,1.1-2.2,2.2h-6.1v-9.3
	c0.4,0.1,0.8,0.2,1.3,0.2c2.3,0,4.1-1.8,4.1-4.1s-1.8-4.1-4.1-4.1c-0.4,0-0.9,0.1-1.3,0.2V6.3h6.1c0.3,1.1,1.1,1.9,2.2,2.2v13.3
	c0,0.4,0.3,0.7,0.7,0.7s0.7-0.3,0.7-0.7v-14c0-0.4-0.3-0.7-0.7-0.7c-0.8,0-1.5-0.7-1.5-1.5c0-0.4-0.3-0.7-0.7-0.7h-6.8
	C26.3,4.4,26.2,4,26,3.5h10.3c0.7,0,1.3,0.6,1.3,1.3C37.6,4.8,37.6,34.3,37.6,34.3z"/>
<path class="st2" d="M20.4,12H9.9c-1,0-1.9,1.1-2.4,2.1c-0.5,0.8-1.1,2-1.1,2.9v6.8c0,0.4,0.3,0.7,0.7,0.7h2V27
	c0,0.4,0.3,0.7,0.7,0.7h10.6c0.4,0,0.7-0.3,0.7-0.7v-2.5h2c0.4,0,0.7-0.3,0.7-0.7V17c0-0.8-0.6-2.1-1.1-2.9
	C22.3,13.1,21.4,12,20.4,12z M16.8,13.5l-1.6,2l-1.6-2H16.8z M22.4,23h-1.2v-5c0-0.4-0.3-0.7-0.7-0.7s-0.7,0.3-0.7,0.7v8.3h-9.1V18
	c0-0.4-0.3-0.7-0.7-0.7S9.1,17.6,9.1,18v5H7.9v-6c0-0.3,0.3-1.2,0.8-2.1c0.6-1,1.1-1.4,1.2-1.4h1.8l2.9,3.6c0.1,0.2,0.4,0.3,0.6,0.3
	c0.2,0,0.4-0.1,0.6-0.3l2.9-3.6h1.8c0.2,0,0.6,0.4,1.2,1.4c0.5,0.9,0.8,1.7,0.8,2.1v6H22.4z"/>
</svg>
