<?xml version="1.0" encoding="utf-8"?>
<!-- Generator: Adobe Illustrator 24.1.1, SVG Export Plug-In . SVG Version: 6.00 Build 0)  -->
<svg version="1.1" id="Hero" xmlns="http://www.w3.org/2000/svg" xmlns:xlink="http://www.w3.org/1999/xlink" x="0px" y="0px"
	 viewBox="0 0 41 38.8" style="enable-background:new 0 0 41 38.8;" xml:space="preserve">
<style type="text/css">
	.st0{fill:#243052;}
	.st1{fill:#FF5555;}
	.st2{fill:#FFFFFF;}
</style>
<path class="st0" d="M2,10.4c0-5,4-9,9-9s9,4,9,9H2z"/>
<path class="st1" d="M29,1.4c-3.2,0-18,0-18,0c5,0,9,4,9,9v27l3-2.9l2.9,2.9l2.9-2.9l3,2.9l2.9-2.9l3.2,2.9v-27
	C38,5.4,34,1.4,29,1.4z"/>
<polygon class="st2" points="30.6,21.5 28.9,18 27.2,21.5 23.3,22.1 26.1,24.8 25.4,28.6 28.9,26.8 32.3,28.6 31.7,24.8 34.4,22.1 
	"/>
<path class="st2" d="M29,0.7H11c-5.4,0-9.7,4.4-9.7,9.7c0,0.4,0.3,0.7,0.7,0.7h17.3c0,0,0,26.2,0,26.3c0,0.6,0.8,1,1.2,0.5l2.5-2.4
	l2.4,2.4c0.3,0.3,0.7,0.3,1,0l2.4-2.4l2.5,2.4c0.3,0.3,0.7,0.3,1,0l2.4-2.4l2.7,2.5c0.5,0.4,1.2,0.1,1.2-0.5v-27
	C38.8,5,34.4,0.7,29,0.7z M11,2.1c2,0,4.1,0.8,5.6,2.2c1.2,1.1,2,2.6,2.4,4.2c0.1,0.4,0.2,0.8,0.2,1.2H2.8C3.2,5.5,6.7,2.1,11,2.1z
	 M37.3,35.7l-2-1.8c-0.3-0.3-0.7-0.3-1,0l-2.4,2.4l-2.5-2.4c-0.3-0.3-0.7-0.3-1,0L26,36.4L23.6,34c-0.3-0.3-0.7-0.3-1,0l-1.8,1.7
	V10.4c0-3.5-1.8-6.5-4.6-8.3H29c4.6,0,8.3,3.7,8.3,8.3V35.7z"/>
<path class="st2" d="M23.5,11L23.5,11c0.4,0,0.7-0.3,0.7-0.7c0-1.1-0.2-2.2-0.5-3.3c-0.3-1-0.7-2-1.2-2.8c-0.2-0.3-0.7-0.5-1-0.3
	s-0.5,0.7-0.3,1c0.9,1.5,1.4,3.4,1.4,5.4C22.8,10.7,23.1,11,23.5,11z"/>
<path class="st2" d="M23.5,12.5c-0.4,0-0.7,0.3-0.7,0.7s0.3,0.7,0.7,0.7c0.4,0,0.7-0.3,0.7-0.7C24.3,12.8,23.9,12.5,23.5,12.5z"/>
<path class="st2" d="M33.2,5.3c-1.2-1-2.3-1.4-2.4-1.4C30.5,3.8,30.1,4,30,4.3c-0.1,0.4,0.1,0.8,0.4,0.9c0,0,3.8,1.4,3.8,5.1v2.9
	c0,0.4,0.3,0.7,0.7,0.7s0.7-0.3,0.7-0.7v-2.9C35.6,8.4,34.8,6.7,33.2,5.3z"/>
<path class="st2" d="M34.6,21.3l-3.5-0.5l-1.5-3.1c-0.3-0.5-1-0.5-1.3,0l-1.5,3.1l-3.5,0.5c-0.6,0.1-0.8,0.8-0.4,1.2l2.5,2.4
	c0,0-0.6,3.4-0.6,3.5c-0.1,0.6,0.5,1,1.1,0.8l3.1-1.6l3.1,1.6c0.5,0.3,1.2-0.2,1.1-0.8L32.5,25l2.5-2.4
	C35.4,22.2,35.1,21.4,34.6,21.3z M31.2,24.3c-0.2,0.2-0.3,0.4-0.2,0.6l0.4,2.4l-2.1-1.1c-0.1-0.1-0.2-0.1-0.3-0.1
	c-0.1,0-0.2,0-0.3,0.1l-2.1,1.1l0.4-2.4c0-0.2,0-0.5-0.2-0.6l-1.7-1.7l2.4-0.3c0.2,0,0.4-0.2,0.6-0.4l1.1-2.2l1.1,2.2
	c0.1,0.2,0.3,0.4,0.6,0.4l2.4,0.3L31.2,24.3z"/>
</svg>
